<?xml version="1.0" encoding="UTF-8"?>
<svg xmlns:inkpad="http://taptrix.com/inkpad/svg_extensions" height="450pt" xmlns:xlink="http://www.w3.org/1999/xlink" xmlns="http://www.w3.org/2000/svg" width="1024pt" version="1.1" viewBox="0,0,1024,450">
<defs/>
<g id="Untitled" inkpad:layerName="Untitled">
<path d="M979.3+26.4L979.3+415.6C979.3+417.3+979.3+417.3+977.6+417.3L655+417.3C644.8+417.3+637.9+410.5+637.9+400.2L637.9+41.8C637.9+31.6+644.7+24.7+655+24.7L979.3+26.4C979.3+24.7+979.3+24.7+979.3+26.4ZM620.9+41.8L620.9+400.2L259.1+316.6C250.6+314.9+245.4+308.1+245.4+299.5L245.4+156.1C245.4+147.6+250.5+140.7+259.1+139C259.1+139+620.9+41.8+620.9+41.8ZM245.4+178.3L245.4+280.7L79.9+234.6C73.1+232.9+73.1+224.4+79.9+222.7C79.9+222.7+245.4+178.3+245.4+178.3Z" opacity="1" fill="#000000"/>
</g>
</svg>
