<svg width="450" height="1024" xmlns="http://www.w3.org/2000/svg" class="crayon icon" version="1.1" p-id="13170">
 <g>
  <title>Layer 1</title>
  <path d="m423.6,979.3l-389.2,0c-1.7,0 -1.7,0 -1.7,-1.7l0,-322.6c0,-10.2 6.8,-17.1 17.1,-17.1l358.4,0c10.2,0 17.1,6.8 17.1,17.1l-1.7,324.3c1.7,0 1.7,0 0,0zm-15.4,-358.4l-358.4,0l83.6,-361.8c1.7,-8.5 8.5,-13.7 17.1,-13.7l143.4,0c8.5,0 15.4,5.1 17.1,13.7l97.2,361.8zm-136.5,-375.5l-102.4,0l46.1,-165.5c1.7,-6.8 10.2,-6.8 11.9,0l44.4,165.5z" p-id="13171" fill="#000" id="svg_1"/>
 </g>

</svg>