<svg xml:space="preserve" style="enable-background:new 0 0 1000 1000;" viewBox="0 0 1000 1000" y="0px" x="0px" xmlns:xlink="http://www.w3.org/1999/xlink" xmlns="http://www.w3.org/2000/svg" id="图层_1" version="1.1">
<style type="text/css">
	.st0{fill:#FDDCDC;stroke:#FD9F9F;stroke-width:12.134;stroke-linecap:round;stroke-linejoin:round;stroke-miterlimit:10;}
	.st1{fill:#FDC8C8;stroke:#FD9292;stroke-width:12.134;stroke-linecap:round;stroke-linejoin:round;stroke-miterlimit:10;}
	.st2{fill:#FDF566;stroke:#FDA76E;stroke-width:12.134;stroke-linecap:round;stroke-linejoin:round;stroke-miterlimit:10;}
	.st3{fill:#FD8DC5;}
	.st4{fill:#53639C;stroke:#233760;stroke-width:12.134;stroke-linecap:round;stroke-linejoin:round;stroke-miterlimit:10;}
	.st5{fill:#FD6487;}
	.st6{fill:none;stroke:#2AE9FD;stroke-width:12.134;stroke-linecap:round;stroke-linejoin:round;stroke-miterlimit:10;}
	
		.st7{opacity:0.83;fill:#FFFFFF;stroke:#2AE9FD;stroke-width:12.134;stroke-linecap:round;stroke-linejoin:round;stroke-miterlimit:10;}
	.st8{fill:#53639C;}
	.st9{fill:#233760;}
	.st10{fill:#FDDCDC;}
	.st11{fill:#FD9F9F;}
	.st12{fill:#FDC8C8;}
	.st13{fill:#FD9595;}
	.st14{fill:#FFFFFF;}
	.st15{fill:#FD92C5;}
	.st16{fill:#FD5FA3;}
	.st17{fill:#FD276A;}
	.st18{fill:#E3875A;}
	.st19{fill:#8A4B3B;}
	.st20{fill:#AC7574;}
	.st21{fill:#5B3D37;}
	.st22{fill:#C9F1FD;}
	.st23{fill:#65B3FD;}
	.st24{fill:#5FCCFD;}
	.st25{fill:#FD366B;}
	.st26{fill:#3F3F3F;}
	.st27{fill:#BFFDCE;}
	.st28{fill:#57CF87;}
	.st29{fill:#E83475;}
	.st30{fill:#FD8DC7;}
	.st31{fill:#FD5F9A;}
	.st32{fill:#95FDB8;}
	.st33{fill:#39B069;}
	.st34{fill:#3A3A3A;}
	.st35{fill:#53639C;stroke:#FD366B;stroke-width:6.3909;stroke-miterlimit:10;}
	.st36{fill:#FD667F;stroke:#FD366B;stroke-width:6.3909;stroke-linecap:round;stroke-linejoin:round;stroke-miterlimit:10;}
	.st37{fill:none;stroke:#FD366B;stroke-width:6.3909;stroke-linecap:round;stroke-linejoin:round;stroke-miterlimit:10;}
	.st38{fill:#FFFFFF;stroke:#3A3A3A;stroke-width:6.3909;stroke-miterlimit:10;}
	.st39{fill:#FCDF64;}
	.st40{fill:#545454;}
	.st41{fill:#FDF566;}
	.st42{fill:#FDA76E;}
	.st43{fill:#FD5758;}
	.st44{fill:#08C247;}
	.st45{fill:#FD7C4B;}
	.st46{fill:#FDEB83;}
	.st47{fill:#25E362;}
	.st48{fill:#FD3D4B;}
	.st49{fill:#FD9798;}
	.st50{fill:#43B1FD;}
	.st51{fill:#FD5598;}
	.st52{fill:#FA3D80;}
	.st53{fill:#FFFD5F;}
	.st54{fill:#FD69A4;}
	.st55{fill:#84D1FD;stroke:#62BCFD;stroke-width:7.322;stroke-linecap:round;stroke-linejoin:round;stroke-miterlimit:10;}
	.st56{fill:none;stroke:#3A3A3A;stroke-width:7.322;stroke-linecap:round;stroke-linejoin:round;stroke-miterlimit:10;}
	.st57{fill:#FD8DC7;stroke:#FD5F9A;stroke-width:7.322;stroke-linecap:round;stroke-linejoin:round;stroke-miterlimit:10;}
	.st58{fill:#FFFFFF;stroke:#84D1FD;stroke-width:7.322;stroke-linecap:round;stroke-linejoin:round;stroke-miterlimit:10;}
	.st59{fill:#B9EBFD;stroke:#84D1FD;stroke-width:7.322;stroke-linecap:round;stroke-linejoin:round;stroke-miterlimit:10;}
	.st60{fill:#BFF3FF;stroke:#00D0FF;stroke-width:13.0018;stroke-linecap:round;stroke-linejoin:round;stroke-miterlimit:10;}
	.st61{fill:#00D0FF;stroke:#BFF3FF;stroke-width:13.0018;stroke-linecap:round;stroke-linejoin:round;stroke-miterlimit:10;}
</style>
<g>
	<path d="M784.55,337.05c-39.68,0-75.19,17.84-98.95,45.94C680.74,300.1,612,234.39,527.91,234.39
		c-66.18,0-122.85,40.71-146.36,98.44c-27.09-48.05-78.6-80.5-137.69-80.5c-87.25,0-157.97,70.73-157.97,157.97
		c0,78.1,56.68,142.95,131.14,155.69c-3.62,13.27-5.56,27.23-5.56,41.65c0,87.24,70.73,157.97,157.97,157.97
		c62.23,0,116.05-35.99,141.8-88.29c20.19,12.98,44.21,20.52,69.99,20.52c69.95,0,126.94-55.43,129.47-124.76
		c20.95,14.56,46.4,23.1,73.85,23.1c71.56,0,129.57-58.01,129.57-129.57S856.1,337.05,784.55,337.05z" class="st14"></path>
	<g>
		<path d="M784.55,322.1c-41.77,0.21-82.33,18.47-109.53,50.32c8.51,3.52,17.01,7.05,25.52,10.57
			c-3.72-59.74-37.98-114.94-91.13-143.15c-55.26-29.33-124.6-26.69-176.8,8.25c-29.7,19.88-51.92,47.82-65.48,80.78
			c9.11-1.19,18.22-2.38,27.32-3.57c-23.53-41.35-64.08-72.38-110.53-83.23c-44.69-10.43-92.94-2.89-131.84,21.67
			c-36.89,23.29-64.46,60.3-75.5,102.58c-11.49,44.03-5.05,92,17.97,131.28c22.51,38.41,59.93,67.34,102.83,79.31
			c5.16,1.44,10.39,2.59,15.67,3.51c-3.48-6.13-6.96-12.26-10.44-18.39c-17.5,65.42,4.88,137.86,58.3,180.14
			c25.63,20.28,55.41,32.94,87.84,37.07c33.66,4.28,68.14-2.04,98.46-17.13c33.02-16.43,60.53-44.22,76.93-77.22
			c-6.82,1.79-13.64,3.58-20.45,5.36c36.37,23.12,83.07,29.06,123.91,14.93c34.69-12.01,64.53-36.93,81.54-69.62
			c10.1-19.41,15.61-40.62,16.51-62.46c-7.5,4.3-15,8.61-22.5,12.91c33.27,22.87,75.53,30.37,114.77,21.26
			c33.29-7.72,62.45-27.76,82.87-54.92c20.2-26.86,30.31-61.45,27.95-94.97c-2.44-34.57-16.89-67.41-41.24-92.17
			C860.48,337.73,823,322.26,784.55,322.1c-7.82-0.03-15.31,6.9-14.95,14.95c0.36,8.13,6.57,14.91,14.95,14.95
			c3.85,0.02,7.7,0.17,11.54,0.51c1.05,0.09,7.07,0.51,2.82,0.25c1.86,0.12,3.75,0.57,5.57,0.91c7.29,1.36,14.47,3.35,21.42,5.95
			c0.94,0.35,6.38,2.17,2.55,0.96c1.68,0.53,3.39,1.51,4.98,2.28c3.27,1.58,6.48,3.31,9.6,5.16c3.11,1.85,6.15,3.82,9.1,5.92
			c0.75,0.53,5.61,3.54,2.17,1.57c1.65,0.94,3.16,2.56,4.58,3.8c5.45,4.73,10.5,9.9,15.09,15.47c0.56,0.67,1.25,1.36,1.7,2.1
			c-1.63-2.72-0.86-1.14-0.35-0.45c1.07,1.46,2.14,2.91,3.16,4.4c2.16,3.13,4.17,6.36,6.04,9.67c1.7,3.01,3.28,6.09,4.74,9.22
			c0.38,0.82,0.71,1.69,1.12,2.5c1.04,2.03-1.31-3.4-0.02-0.03c0.73,1.89,1.46,3.76,2.13,5.67c2.45,7.02,4.29,14.26,5.5,21.6
			c0.15,0.92,0.36,1.87,0.43,2.8c-0.25-3.51-0.18-1.38-0.1-0.59c0.18,1.9,0.39,3.79,0.53,5.7c0.29,4.05,0.38,8.11,0.29,12.16
			c-0.08,3.64-0.31,7.28-0.69,10.91c-0.02,0.19-0.44,3.92-0.14,1.4c0.3-2.51-0.19,1.18-0.22,1.38c-0.33,2.04-0.7,4.07-1.12,6.09
			c-1.56,7.45-3.86,14.64-6.6,21.74c-0.29,0.75-0.76,2.63,0.24-0.53c-0.27,0.85-0.74,1.69-1.12,2.5c-0.68,1.49-1.39,2.97-2.13,4.43
			c-1.8,3.56-3.77,7.04-5.89,10.43c-1.73,2.76-3.57,5.45-5.5,8.07c-0.5,0.68-2.17,3.66-0.29,0.42c-0.33,0.57-0.96,1.2-1.36,1.69
			c-1.37,1.67-2.78,3.31-4.23,4.92c-2.18,2.41-4.44,4.73-6.79,6.97c-2.72,2.59-5.72,5.9-8.98,7.8c0.35-0.2,2.63-1.95,0.45-0.35
			c-0.73,0.54-1.45,1.08-2.18,1.6c-1.32,0.95-2.66,1.88-4.01,2.78c-3.32,2.2-6.75,4.26-10.26,6.15c-2.89,1.56-5.86,2.94-8.83,4.33
			c-3.41,1.58,3.04-1.15-0.47,0.2c-0.68,0.26-1.36,0.54-2.05,0.8c-2.06,0.79-4.14,1.53-6.24,2.21c-3.88,1.26-7.82,2.34-11.81,3.23
			c-2.01,0.45-4.03,0.85-6.06,1.2c-0.93,0.16-1.86,0.3-2.79,0.45c-3.44,0.57,2.67-0.24-0.53,0.06c-9.81,0.94-19.38,0.93-29.2,0.08
			c-0.52-0.05-2.95-0.37-0.22,0.01c-1.39-0.19-2.77-0.42-4.15-0.66c-2.74-0.48-5.46-1.05-8.16-1.71c-4.89-1.19-9.71-2.67-14.43-4.43
			c-1.06-0.4-2.11-0.84-3.18-1.23c-0.99-0.4-0.84-0.34,0.43,0.2c-0.83-0.36-1.66-0.73-2.48-1.11c-2.05-0.94-4.08-1.94-6.07-2.98
			c-4.78-2.5-9.37-5.32-13.81-8.37c-9.84-6.76-22.06,2.38-22.5,12.91c-0.09,2.31-0.23,4.62-0.44,6.92c-0.1,1.14-0.47,6.99-0.26,2.85
			c-0.21,4.05-1.4,8.27-2.35,12.21c-0.97,3.98-2.12,7.9-3.47,11.77c-0.61,1.74-1.25,3.47-1.93,5.19c-0.07,0.17-1.52,3.49-0.51,1.27
			c0.96-2.1-0.87,1.87-1.04,2.24c-3.4,7.27-7.47,14.21-12.15,20.73c-0.42,0.59-0.86,1.17-1.29,1.76c-2.17,3.03,2.04-2.45-0.32,0.42
			c-1.15,1.4-2.29,2.81-3.48,4.18c-2.73,3.15-5.61,6.16-8.63,9.03c-2.76,2.63-5.66,5.08-8.61,7.49c-2.88,2.36,2.61-1.84-0.42,0.32
			c-0.59,0.42-1.17,0.86-1.76,1.28c-1.77,1.27-3.58,2.5-5.41,3.68c-3.37,2.17-6.85,4.18-10.4,6.03c-1.62,0.84-3.27,1.65-4.93,2.43
			c-0.95,0.44-2,1.07-3.01,1.36c2.31-0.65,1.12-0.46-0.51,0.19c-7.62,3.01-15.52,5.29-23.57,6.8c-1.82,0.34-3.75,0.8-5.6,0.92
			c4.15-0.27-1.72,0.15-2.85,0.25c-4.82,0.43-9.67,0.59-14.51,0.48c-2.88-0.06-5.76-0.22-8.64-0.48c-0.95-0.08-1.9-0.2-2.84-0.28
			c-1.8-0.22-1.89-0.22-0.26,0c-0.93-0.13-1.87-0.28-2.8-0.43c-5.52-0.92-10.98-2.2-16.34-3.83c-2.65-0.8-5.26-1.7-7.85-2.67
			c-1.29-0.48-2.57-0.98-3.84-1.52c2.83,1.19-1.25-0.6-1.45-0.7c-5.37-2.49-10.53-5.37-15.52-8.54c-6.48-4.12-16.95-1.68-20.45,5.36
			c-3.32,6.68-7.06,13.13-11.26,19.29c-1.1,1.61-2.23,3.21-3.39,4.78c-0.46,0.63-0.94,1.25-1.41,1.87c1.87-2.51,0.6-0.77,0.18-0.26
			c-2.48,3.02-4.97,6-7.62,8.87c-5.03,5.44-10.44,10.52-16.18,15.2c-0.6,0.49-1.22,0.98-1.82,1.47c-2.96,2.39,1.71-1.21-0.22,0.16
			c-1.43,1.02-2.83,2.09-4.27,3.1c-3.21,2.24-6.5,4.37-9.86,6.37c-3.04,1.8-6.14,3.51-9.29,5.11c-1.58,0.8-3.18,1.57-4.79,2.32
			c-0.89,0.42-1.8,0.81-2.7,1.22c-2.89,1.33,2.44-0.92-0.8,0.35c-7.07,2.77-14.24,5.19-21.62,7.01c-3.54,0.87-7.1,1.61-10.69,2.24
			c-1.61,0.28-3.22,0.53-4.83,0.76c3.4-0.49,0.57-0.09-0.29,0.01c-1.23,0.14-2.46,0.26-3.69,0.38c-7.66,0.69-15.37,0.82-23.05,0.41
			c-3.44-0.19-6.85-0.56-10.28-0.89c-2.38-0.23,3.73,0.57,0.03,0.01c-0.75-0.11-1.49-0.22-2.24-0.34c-2.04-0.33-4.08-0.7-6.11-1.1
			c-6.74-1.35-13.4-3.15-19.9-5.38c-1.74-0.6-3.47-1.22-5.19-1.88c-0.69-0.26-1.37-0.53-2.05-0.8c-0.17-0.07-3.51-1.47-1.27-0.5
			c2.25,0.97-1.07-0.48-1.24-0.56c-0.67-0.3-1.33-0.6-2-0.91c-1.65-0.77-3.3-1.57-4.92-2.39c-6.15-3.12-12.1-6.65-17.79-10.56
			c-1.49-1.02-2.97-2.07-4.42-3.15c-0.58-0.43-1.15-0.88-1.74-1.3c2.72,1.97,1.04,0.82,0.45,0.34c-2.81-2.27-5.59-4.58-8.26-7.01
			c-5.08-4.61-9.85-9.56-14.29-14.79c-1.05-1.24-2.07-2.51-3.1-3.77c-0.56-0.69-2.08-2.79,0.01,0.03c-0.43-0.58-0.87-1.16-1.3-1.74
			c-2.15-2.91-4.2-5.9-6.14-8.96c-3.71-5.83-7.04-11.91-9.95-18.18c-0.48-1.03-2.9-5.97-1.14-2.46c-0.89-1.79-1.52-3.77-2.21-5.64
			c-1.35-3.64-2.56-7.32-3.63-11.05c-1.08-3.76-2.02-7.56-2.82-11.39c-0.42-2.02-0.8-4.05-1.15-6.09c-0.12-0.74-0.24-1.49-0.36-2.24
			c-0.27-1.79-0.71-2.92-0.09-0.53c-1.02-3.9-0.87-8.57-1.05-12.58c-0.19-4.45-0.2-8.9-0.02-13.35c0.12-2.89,0.31-5.78,0.58-8.66
			c0.12-1.3,0.27-2.6,0.42-3.89c-0.29,2.58,0.33-2.17,0.33-2.19c0.89-5.58,2.11-11.09,3.57-16.55c1.94-7.24-2.41-16.99-10.44-18.39
			c-9.94-1.74-19.69-4.36-29.13-7.93c-1.05-0.4-2.1-0.81-3.15-1.23c-0.47-0.19-2.71-1.16-0.81-0.33c1.79,0.79,0.03,0-0.28-0.14
			c-2.38-1.08-4.76-2.17-7.1-3.35c-4.32-2.17-8.54-4.54-12.64-7.1c-4.1-2.56-8-5.35-11.89-8.2c2.97,2.17-0.23-0.2-0.9-0.74
			c-0.86-0.7-1.72-1.4-2.56-2.12c-1.98-1.67-3.91-3.39-5.8-5.15c-3.65-3.4-7.13-6.97-10.45-10.7c-1.47-1.66-2.91-3.35-4.31-5.06
			c-0.37-0.45-2.82-3.59-1.58-1.97c1.14,1.5-1.11-1.51-1.49-2.04c-5.79-7.97-10.83-16.47-15.04-25.38c-0.48-1.01-0.95-2.03-1.4-3.06
			c-0.23-0.51-0.45-1.03-0.68-1.54c1.39,3.03,0.47,1.15,0.2,0.46c-0.91-2.27-1.79-4.55-2.61-6.85c-1.71-4.82-3.19-9.73-4.42-14.69
			c-1.2-4.85-2.13-9.75-2.91-14.68c-0.29-1.86-0.74-0.56,0.06,0.52c-0.21-0.29-0.17-1.38-0.21-1.74c-0.13-1.16-0.25-2.33-0.36-3.49
			c-0.25-2.74-0.44-5.48-0.55-8.23c-0.21-5.08-0.17-10.17,0.1-15.25c0.14-2.49,0.33-4.97,0.58-7.45c0.04-0.35,0.57-3.29,0.38-3.4
			c0.26,0.16-0.44,2.97-0.08,0.59c0.11-0.75,0.22-1.49,0.34-2.24c1.56-9.74,4.04-19.34,7.4-28.62c0.8-2.21,1.53-4.58,2.59-6.68
			c-1.15,2.27-0.39,0.93,0.23-0.46c0.52-1.17,1.06-2.33,1.61-3.48c2.12-4.44,4.44-8.77,6.97-12.99c2.42-4.04,5.02-7.98,7.79-11.79
			c0.42-0.58,2.59-3.52,1.43-1.96c-1.21,1.62,0.84-1.05,1.18-1.47c1.59-1.97,3.23-3.89,4.91-5.78c6.38-7.16,13.41-13.64,20.92-19.6
			c-1.98,1.58-0.77,0.6,0.43-0.28c0.87-0.64,1.75-1.28,2.64-1.91c2.07-1.46,4.18-2.88,6.32-4.24c4.14-2.63,8.4-5.08,12.77-7.31
			c1.95-1,3.92-1.96,5.91-2.87c1.13-0.52,2.32-1.19,3.51-1.57c-2.86,0.89-0.3,0.13,1.01-0.38c4.63-1.83,9.35-3.43,14.14-4.81
			c4.66-1.34,9.39-2.47,14.15-3.37c2.41-0.46,4.83-0.83,7.25-1.2c1.77-0.27-1.14,0.18-1.16,0.16c0.04,0.07,1.56-0.18,1.7-0.2
			c1.52-0.17,3.04-0.32,4.56-0.45c10.77-0.9,21.55-0.62,32.28,0.58c3,0.33-1.99-0.34,0.98,0.14c1.23,0.2,2.46,0.39,3.68,0.6
			c2.84,0.5,5.67,1.08,8.48,1.74c5.36,1.25,10.65,2.79,15.85,4.6c2.29,0.8,4.56,1.65,6.82,2.55c0.44,0.18,2.82,1.18,1.01,0.4
			c-1.69-0.73,0.18,0.09,0.43,0.2c1.28,0.58,2.56,1.16,3.84,1.76c4.88,2.32,9.64,4.88,14.26,7.69c4.43,2.69,8.69,5.62,12.86,8.7
			c2.31,1.71-1.48-1.23,0.74,0.58c1.08,0.88,2.16,1.75,3.22,2.65c2.13,1.79,4.2,3.64,6.23,5.54c3.77,3.53,7.36,7.24,10.76,11.11
			c1.7,1.94,3.35,3.93,4.97,5.94c1.8,2.23-1.13-1.56,0.57,0.75c0.94,1.28,1.89,2.56,2.8,3.87c2.98,4.25,5.73,8.64,8.29,13.15
			c2.96,5.21,9.09,7.92,14.9,7.14c6.35-0.85,10.09-5.02,12.43-10.71c1.05-2.56,0.05-0.11-0.15,0.34c0.4-0.89,0.78-1.78,1.18-2.66
			c0.72-1.59,1.47-3.16,2.25-4.73c1.55-3.12,3.2-6.18,4.95-9.19c1.65-2.83,3.38-5.61,5.2-8.33c0.85-1.28,1.73-2.55,2.62-3.8
			c0.56-0.78,1.12-1.56,1.69-2.33c0.25-0.34,2.23-2.93,0.92-1.24c-1.43,1.85,0.91-1.12,0.97-1.2c0.48-0.6,0.97-1.19,1.46-1.78
			c0.98-1.18,1.98-2.34,3-3.49c2.29-2.59,4.65-5.1,7.1-7.53c2.45-2.43,4.98-4.78,7.58-7.05c1.16-1.01,2.33-2,3.51-2.97
			c0.59-0.49,1.19-0.96,1.79-1.45c3.02-2.46-2.51,1.83,0.62-0.48c5.57-4.13,11.34-7.96,17.39-11.36c2.7-1.52,5.44-2.96,8.22-4.32
			c1.57-0.77,3.15-1.5,4.75-2.22c0.45-0.2,2.74-1.23,0.89-0.41c-1.99,0.88,1.06-0.43,1.45-0.59c6.56-2.62,13.3-4.8,20.16-6.51
			c3.28-0.82,6.58-1.53,9.91-2.13c1.77-0.32,3.55-0.6,5.34-0.88c0.73-0.11,2.91-0.27-0.38,0.05c1.21-0.12,2.41-0.28,3.61-0.4
			c7.05-0.71,14.14-0.94,21.22-0.71c3.29,0.11,6.58,0.32,9.86,0.63c1.5,0.14,3.12,0.15,4.58,0.5c-3.87-0.93,1.63,0.26,2.82,0.46
			c6.69,1.13,13.3,2.69,19.78,4.68c2.85,0.87,5.67,1.83,8.47,2.86c1.57,0.58,3.11,1.22,4.66,1.81c2.17,0.83-3.32-1.5,0.01,0
			c0.84,0.38,1.69,0.75,2.53,1.13c5.85,2.67,11.53,5.7,17.01,9.06c2.8,1.72,5.55,3.53,8.25,5.43c1.19,0.84,2.36,1.72,3.55,2.57
			c0.59,0.43,2.23,1.73-0.41-0.35c0.86,0.68,1.72,1.35,2.57,2.04c4.95,4.02,9.65,8.34,14.08,12.92c2.15,2.23,4.24,4.52,6.26,6.86
			c0.95,1.11,1.88,2.22,2.8,3.36c0.57,0.71,1.12,1.44,1.71,2.14c1.17,1.41-1.65-2.26-0.01,0.02c4.28,5.95,8.33,12.01,11.86,18.45
			c1.77,3.22,3.43,6.51,4.97,9.85c0.46,1,3.03,5.94,1.15,2.52c0.87,1.58,1.39,3.48,2.02,5.18c2.6,7.02,4.69,14.23,6.25,21.55
			c0.76,3.53,1.34,7.08,1.9,10.65c0.37,2.37-0.39-3.75-0.01,0.01c0.09,0.96,0.21,1.91,0.31,2.87c0.21,2.12,0.37,4.23,0.5,6.36
			c0.38,6.06,3.45,11.24,9.19,13.66c5.15,2.17,12.47,1.43,16.33-3.09c2.95-3.46,6.05-6.78,9.34-9.93c1.49-1.43,3.02-2.82,4.58-4.18
			c0.94-0.81,1.88-1.62,2.84-2.4c0.29-0.24,2.97-2.38,1.4-1.15c-1.57,1.23,1.16-0.85,1.46-1.08c1-0.73,2.02-1.45,3.04-2.16
			c1.71-1.18,3.45-2.31,5.21-3.4c3.9-2.41,7.92-4.61,12.05-6.6c0.94-0.45,1.89-0.89,2.84-1.32c1.25-0.57,2.43-1.02,0.47-0.23
			c2.15-0.86,4.31-1.7,6.49-2.46c4.21-1.47,8.49-2.72,12.83-3.74c2.3-0.54,4.61-1.02,6.93-1.43c1.06-0.19,2.13-0.36,3.19-0.53
			c4.25-0.69-3.12,0.28,1.19-0.15c4.83-0.47,9.65-0.78,14.51-0.8c7.82-0.04,15.31-6.85,14.95-14.95
			C799.14,328.98,792.93,322.05,784.55,322.1z" class="st50"></path>
	</g>
</g>
</svg>
