<svg viewBox="0 0 240 240" xmlns:xlink="http://www.w3.org/1999/xlink" xmlns="http://www.w3.org/2000/svg" id="图层_1"><defs><style>.cls-1,.cls-4{fill:#5102aa;}.cls-1,.cls-2,.cls-3,.cls-7,.cls-8{stroke:#000;stroke-miterlimit:10;stroke-width:1.87px;}.cls-2,.cls-9{fill:#f03e2e;}.cls-3{fill:#0da094;}.cls-5{clip-path:url(#clip-path);}.cls-6{fill:#fff;}.cls-7{fill:none;}.cls-8{fill:#ffc63f;}.cls-10{clip-path:url(#clip-path-2);}</style><clipPath id="clip-path"><polygon points="142.84 219.64 101.11 219.64 83.82 150.46 160.13 150.46 142.84 219.64" class="cls-1"></polygon></clipPath><clipPath id="clip-path-2"><circle r="27.67" cy="67.74" cx="121.39" class="cls-2"></circle></clipPath></defs><title>长图总结</title><ellipse transform="translate(-44.82 116.36) rotate(-39.89)" ry="7.52" rx="15.8" cy="119.94" cx="137.92" class="cls-3"></ellipse><ellipse transform="translate(-56.28 155.33) rotate(-60)" ry="15.8" rx="7.52" cy="126.41" cx="106.38" class="cls-3"></ellipse><polygon points="142.84 219.64 101.11 219.64 83.82 150.46 160.13 150.46 142.84 219.64" class="cls-4"></polygon><g class="cls-5"><rect height="7.27" width="86.01" y="166.44" x="76.81" class="cls-6"></rect><rect height="4.1" width="86.01" y="177.47" x="76.81" class="cls-6"></rect></g><polygon points="142.84 219.64 101.11 219.64 83.82 150.46 160.13 150.46 142.84 219.64" class="cls-7"></polygon><circle r="10.86" cy="35.22" cx="118.7" class="cls-8"></circle><circle r="10.86" cy="42.45" cx="139.23" class="cls-8"></circle><circle r="10.86" cy="59.43" cx="153.37" class="cls-8"></circle><circle r="10.86" cy="81.66" cx="151" class="cls-8"></circle><circle r="10.86" cy="94.31" cx="133.59" class="cls-8"></circle><circle r="10.86" cy="94.51" cx="111.72" class="cls-8"></circle><circle r="10.86" cy="82.84" cx="93.04" class="cls-8"></circle><circle r="10.86" cy="61.67" cx="86.63" class="cls-8"></circle><circle r="10.86" cy="43.24" cx="98.42" class="cls-8"></circle><circle r="27.67" cy="67.74" cx="121.39" class="cls-9"></circle><g class="cls-10"><line y2="53.59" x2="154.7" y1="37.73" x1="96.33" class="cls-2"></line><line y2="62.13" x2="152.38" y1="46.27" x1="94.01" class="cls-2"></line><line y2="70.67" x2="150.06" y1="54.81" x1="91.69" class="cls-2"></line><line y2="79.21" x2="147.74" y1="63.35" x1="89.37" class="cls-2"></line><line y2="87.75" x2="145.42" y1="71.89" x1="87.05" class="cls-2"></line><line y2="96.29" x2="143.1" y1="80.43" x1="84.73" class="cls-2"></line><line y2="102.5" x2="135" y1="44.13" x1="150.85" class="cls-2"></line><line y2="100.18" x2="126.45" y1="41.81" x1="142.31" class="cls-2"></line><line y2="97.86" x2="117.91" y1="39.49" x1="133.77" class="cls-2"></line><line y2="95.54" x2="109.37" y1="37.17" x1="125.23" class="cls-2"></line><line y2="93.22" x2="100.83" y1="34.85" x1="116.69" class="cls-2"></line><line y2="90.9" x2="92.29" y1="32.53" x1="108.15" class="cls-2"></line><line y2="105.47" x2="140.61" y1="89.61" x1="82.24" class="cls-2"></line></g><circle r="27.67" cy="67.74" cx="121.39" class="cls-7"></circle><rect height="53.13" width="2.95" y="96.97" x="121.05" class="cls-7"></rect></svg>