<svg xml:space="preserve" style="enable-background:new 0 0 226.77 226.77;" viewBox="0 0 226.77 226.77" y="0px" x="0px" xmlns:xlink="http://www.w3.org/1999/xlink" xmlns="http://www.w3.org/2000/svg" id="图层_1" version="1.1">
<style type="text/css">
	.st0{fill:#FFBFBC;stroke:#000000;stroke-width:0.5;stroke-linecap:round;stroke-linejoin:round;stroke-miterlimit:10;}
	.st1{fill:none;stroke:#000000;stroke-width:0.5;stroke-linecap:round;stroke-linejoin:round;stroke-miterlimit:10;}
	.st2{fill:#FFA2AD;stroke:#000000;stroke-width:0.25;stroke-linecap:round;stroke-linejoin:round;stroke-miterlimit:10;}
	.st3{fill:none;stroke:#000000;stroke-width:0.25;stroke-linecap:round;stroke-linejoin:round;stroke-miterlimit:10;}
	.st4{fill:#FFA2AD;stroke:#000000;stroke-width:0.5;stroke-linecap:round;stroke-linejoin:round;stroke-miterlimit:10;}
	.st5{fill:none;stroke:#FFFFFF;stroke-linecap:round;stroke-linejoin:round;stroke-miterlimit:10;}
	.st6{stroke:#000000;stroke-width:0.5;stroke-linecap:round;stroke-linejoin:round;stroke-miterlimit:10;}
</style>
<g>
	<g>
		<path d="M162.5,100.24c0,0,10.59-2.42,13.66-6.19c0,0,6.6,0.44,7.94-5.01c0,0-4.69,3.14-6.32,1.42
			c0,0-0.9-10.05-9.37-5.53s1.53,7.8,1.53,7.8s-8.72,2.63-11.71,0.93S162.5,100.24,162.5,100.24" class="st0"></path>
		<path d="M169.94,92.73c0.31-0.13,1.11-0.52,1.67-1.41c0.1-0.15,0.5-0.82,0.55-1.76c0.01-0.15,0.09-2.43-1.77-3.54
			c-1.61-0.96-3.31-0.24-3.47-0.17" class="st0"></path>
		<path d="M176.16,94.05c0.33-0.34,0.81-0.92,1.17-1.75c0.31-0.73,0.42-1.38,0.45-1.83" class="st0"></path>
	</g>
	<g>
		<path d="M135.31,76.71c-25.16-8.68-51.71,2.11-59.3,24.1c-6.43,18.63,2.85,39.28,21.12,50.45
			c0.66,1.95,1.47,4.26,2.46,7.05c3.64,10.2,16.46,0.17,16.46,0.17l-0.05-0.03c5.94,1.06,11.83,1.11,17.42,0.23
			c0.08,0.69,0.16,1.37,0.23,2.06c0.12,1.04,0.49,2.75,1.79,3.54c0.53,0.32,2.35,1.3,6.86-1.66c9.57-6.28,13.48-13.88,13.48-13.88
			c0.69-0.64,1.38-1.29,2.07-1.93c3.25-3.11,7.24-7.91,9.27-14.56C173.23,112.33,159.06,84.9,135.31,76.71z" class="st0"></path>
		<path d="M133.43,158.69c0,0,9.96-1.86,16.44-6.66" class="st1"></path>
		<path d="M116.01,158.46c0.49-0.25,1.16-0.65,1.82-1.29c0.51-0.5,0.87-1,1.12-1.4" class="st1"></path>
		<path d="M72.37,141.24c-0.12,0.36-6.8,17.3,4.83,14.71c11.63-2.59,10.96-14.1,10.96-14.1L72.37,141.24z" class="st0"></path>
	</g>
	<g>
		<path d="M133.43,81.51c-2.57-0.73-6.51-1.44-11.12-0.67c-4.86,0.81-8.47,2.94-10.68,4.54
			c-0.64,0.11-0.99,1.17-0.78,2.35c0.21,1.19,0.9,2.05,1.54,1.94c2.17-1.64,5.86-3.92,10.89-4.71c4.55-0.71,8.42,0.07,10.92,0.83
			c0.64-0.11,0.99-1.17,0.78-2.35C134.76,82.27,134.07,81.4,133.43,81.51z" class="st2"></path>
		<path d="M134.8,83.13c-2.06-0.73-5.53-1.66-9.82-1.32c-0.93,0.07-4.6,0.43-8.64,2.44c-2.61,1.3-4.26,2.73-4.15,2.94
			c0.05,0.09,0.47,0.1,1.14,0.13c0,0,0,0,0,0" class="st3"></path>
	</g>
	<g>
		<path d="M104.22,89c0.35-0.57,36.11-7.3,36.46,3.97c0.35,11.27-12.07,32.11-13.05,32.91S90.01,111.77,104.22,89z" class="st0"></path>
		<path d="M100.98,100.15c0,0,32.33-11.98,32.36-3.08s-13.52,25.68-13.52,25.68S102.09,115.06,100.98,100.15z" class="st4"></path>
	</g>
	<g>
		<path d="M91.35,85.39c-0.04-0.67-28.09-23.84-33.84-14.14s-4.95,33.95-4.48,35.11
			C53.51,107.53,92.79,112.19,91.35,85.39z" class="st0"></path>
		<path d="M88.8,96.72c0,0-22.51-26.11-26.84-18.33s-0.57,29.02-0.57,29.02S80.63,109.23,88.8,96.72z" class="st4"></path>
	</g>
	<g>
		<path d="M35.62,63.5c0,0-11.34,27.1-1.88,44.25" class="st5"></path>
		<path d="M25.91,69.5c0,0-8.29,25.82-0.45,37.1" class="st5"></path>
		<path d="M15.73,76.15c0,0-4.19,18.22,0.09,27.16" class="st5"></path>
	</g>
	<g>
		<path d="M170.71,173.3c0,0,22.78-12.1,25.89-29.01" class="st5"></path>
		<path d="M180.64,174.62c0,0,19.99-12.92,20.94-24.94" class="st5"></path>
		<path d="M191.26,175.77c0,0,12.97-10.04,15.04-18.5" class="st5"></path>
	</g>
	<g>
		
			<ellipse ry="38.64" rx="33.6" cy="119.39" cx="89.81" class="st0" transform="matrix(0.3261 -0.9453 0.9453 0.3261 -52.3438 165.3498)"></ellipse>
		<path d="M66.09,99.17c0,0,7.86,2.59,8.24,5.03c0.37,2.44-4.4,0.06-9.95,2.4" class="st1"></path>
		<path d="M101.4,105.03c0,0-6.6,2.22-7.83,4.35c-1.22,2.13,5.09-0.31,8.8,3.04" class="st1"></path>
		
			<ellipse ry="17.3" rx="11.98" cy="124.48" cx="79.76" class="st4" transform="matrix(0.2265 -0.974 0.974 0.2265 -59.5528 173.9696)"></ellipse>
		<path d="M89.72,144.53c0.33,0.11,14.53,1.61,20.63-11.49" class="st1"></path>
		<circle r="1.37" cy="123.44" cx="72.55" class="st6"></circle>
		<circle r="1.37" cy="126.5" cx="85.63" class="st6"></circle>
	</g>
</g>
</svg>
