<svg xmlns:xlink="http://www.w3.org/1999/xlink" xmlns="http://www.w3.org/2000/svg" version="1.1" viewBox="0 0 137 187" height="187px" width="137px">
    <title>编组 8</title>
    <defs>
        <linearGradient id="linearGradient-1" y2="66.7528126%" x2="56.8192418%" y1="16.4920736%" x1="36.4433319%">
            <stop offset="0%" stop-color="#29B020"></stop>
            <stop offset="100%" stop-color="#1F7E14"></stop>
        </linearGradient>
        <linearGradient id="linearGradient-2" y2="35.0401607%" x2="43.2960035%" y1="96.277422%" x1="72.7255633%">
            <stop offset="0%" stop-color="#10570C"></stop>
            <stop offset="100%" stop-color="#1F7E14"></stop>
        </linearGradient>
        <linearGradient id="linearGradient-3" y2="77.0099406%" x2="48.0440349%" y1="15.3923584%" x1="50%">
            <stop offset="0%" stop-color="#69E555"></stop>
            <stop offset="100%" stop-color="#2DA422"></stop>
        </linearGradient>
        <path id="path-4" d="M69.3726305,133.790496 C65.9941986,123.509679 72.2108882,143.196214 67.0072122,114.906178 C66.3837043,111.516447 64.2184401,108.525435 63.6669594,105.123168 C63.3233564,103.003366 64.2656071,100.864859 64.3836398,98.720488 C64.4689025,97.1714696 64.4021778,95.6137846 64.2754906,94.0676203 C64.0411986,91.2081838 61.8689203,89.4860766 61.8287301,86.5128521 C61.7941295,83.9531393 62.3143186,81.4064355 62.2849969,78.8466564 C62.2578157,76.4737483 62.6004648,73.971845 61.3758074,73.6257295 C56.4298146,72.2278815 57.6550603,66.2267054 57.083788,62.4802821 C56.9688639,61.7266056 56.7608861,60.9750306 56.4280485,60.289568 C54.7502721,56.8342705 52.5332403,53.6410756 51.0675115,50.0900582 C49.4943347,46.2787268 49.7761318,35.207739 50.1532011,33.2628904 C50.4039129,31.9697679 52.1444055,31.5059868 52.8960008,30.4256812 C61.6063012,17.9059294 62.1082642,14.3464132 76.9381608,8.89052599 C79.869029,7.81226586 83.1541717,7.80230543 85.9980147,6.51069429 C94.6657623,2.57399344 92.7715962,-2.83023417 102.778362,1.75481005 C108.095484,4.19108581 106.490659,11.2096447 109.577327,15.3753626 C111.725623,18.2746691 116.421408,19.1799087 117.691829,22.6569585 C118.622496,25.204125 117.159464,28.6055139 117.043878,30.922143 C116.917281,33.4594343 117.71039,36.0339174 117.291985,38.5394792 C116.97981,40.4088941 115.214058,41.8288375 114.910157,43.6996236 C114.397949,46.8527371 114.592329,60.1319115 111.488957,64.235221 C108.563089,68.1038324 107.494791,65.3094277 105.829946,68.0451433 C100.642304,76.5696061 106.833946,69.750826 96.9251864,82.0419122 C88.3922719,92.6263637 93.2166462,83.1053922 87.3264511,94.2569634 C85.3892868,97.9244863 86.3925002,99.2860521 85.679885,104.239537 C85.1771593,107.734052 84.1400837,111.143252 83.7354808,114.650559 C82.7551351,123.148702 84.4279503,125.825922 80.0241862,134.213652 C79.365271,135.46867 78.2830687,139.00425 77.6464613,137.737701 C73.0125467,128.518389 81.1735473,128.805869 76.1139893,132.267412 L69.3726305,133.790496 Z"></path>
        <filter id="filter-5" filterUnits="objectBoundingBox" height="103.6%" width="107.3%" y="-1.8%" x="-3.7%">
            <feGaussianBlur result="shadowBlurInner1" in="SourceAlpha" stdDeviation="2"></feGaussianBlur>
            <feOffset result="shadowOffsetInner1" in="shadowBlurInner1" dy="1" dx="0"></feOffset>
            <feComposite result="shadowInnerInner1" k3="1" k2="-1" operator="arithmetic" in2="SourceAlpha" in="shadowOffsetInner1"></feComposite>
            <feColorMatrix in="shadowInnerInner1" type="matrix" values="0 0 0 0 0.694482621   0 0 0 0 1   0 0 0 0 0.610716583  0 0 0 1 0"></feColorMatrix>
        </filter>
        <linearGradient id="linearGradient-6" y2="43.7122456%" x2="48.2319841%" y1="-3.19030743%" x1="44.4913989%">
            <stop offset="0%" stop-color="#69E555"></stop>
            <stop offset="100%" stop-color="#2DA422"></stop>
        </linearGradient>
        <linearGradient id="linearGradient-7" y2="87.4228048%" x2="44.999526%" y1="27.8703612%" x1="44.999526%">
            <stop offset="0%" stop-opacity="0" stop-color="#FFFFFF"></stop>
            <stop offset="100%" stop-opacity="0.5" stop-color="#000000"></stop>
        </linearGradient>
        <path id="path-8" d="M69.3726305,133.790496 C65.9941986,123.509679 67.6003646,129.70122 67.0072122,114.906178 C66.9481803,113.43374 67.1556761,114.732711 68.8741011,114.58947 C69.5176479,114.535827 70.4907199,113.285214 71.0360514,112.501206 C71.6823714,111.572011 73.2682962,109.19075 73.6976021,107.049274 C73.9323371,105.878363 76.39931,105.771481 76.8996289,104.883352 C77.81632,103.256109 75.7925873,101.164748 77.0352646,100.356675 C80.6078528,98.0335352 81.8823266,73.9525935 85.679885,70.1776405 C88.2383678,67.6343873 87.1901375,60.2760999 89.9142751,57.5585473 C92.7799642,54.6997854 99.8789622,53.10034 102.35679,50.0725772 C104.885823,46.9822442 103.809171,40.5348632 105.829946,37.6056019 C108.035369,34.4086799 105.333837,30.6917728 105.829946,27.4418372 C106.93159,20.2251314 108.866125,14.4155363 109.577327,15.3753626 C111.725623,18.2746691 116.421408,19.1799087 117.691829,22.6569585 C118.622496,25.204125 117.159464,28.6055139 117.043878,30.922143 C116.917281,33.4594343 117.71039,36.0339174 117.291985,38.5394792 C116.97981,40.4088941 115.214058,41.8288375 114.910157,43.6996236 C114.397949,46.8527371 114.592329,60.1319115 111.488957,64.235221 C108.563089,68.1038324 107.494791,65.3094277 105.829946,68.0451433 C100.642304,76.5696061 106.833946,69.750826 96.9251864,82.0419122 C88.3922719,92.6263637 93.2166462,83.1053922 87.3264511,94.2569634 C85.3892868,97.9244863 86.3925002,99.2860521 85.679885,104.239537 C85.1771593,107.734052 84.1400837,111.143252 83.7354808,114.650559 C82.7551351,123.148702 84.4279503,125.825922 80.0241862,134.213652 C79.365271,135.46867 78.5735847,137.508852 77.9222345,138.727577 C74.6167019,144.912474 76.0956094,139.402032 71.0360514,142.863574 L69.3726305,133.790496 Z"></path>
        <linearGradient id="linearGradient-9" y2="68.2473525%" x2="68.1543947%" y1="16.1706837%" x1="50%">
            <stop offset="0%" stop-color="#80EC6F"></stop>
            <stop offset="100%" stop-color="#2D9B23"></stop>
        </linearGradient>
        <path id="path-10" d="M29.6712662,98.4880972 C23.4016898,94.9670863 10.9421691,97.2244487 8.56195558,89.0808302 C6.04840578,80.4810174 11.6145972,59.6102351 20.7546352,57.2018615 C22.9776059,56.6161151 25.3591597,57.0358477 27.6303025,56.6818915 C29.782102,56.3465348 32.0292951,54.1696881 33.9799,55.1407118 L35.0097783,55.1407118 C37.2654987,56.2636239 39.2164813,57.9926079 41.5609671,58.9146157 C43.4817626,59.6700003 45.8035265,59.1539252 47.6353988,60.1059456 C49.3655555,61.0051047 50.5688172,62.7078235 51.7902216,64.2307394 C65.3256881,81.1075217 63.4566417,77.6190238 63.4465817,100.964566 C63.4430536,109.151952 63.6412572,117.366547 62.9072982,125.520768 C62.8226301,126.461423 61.9396701,127.357766 61.0445541,127.650884 C53.8914867,129.993259 53.113379,121.67631 49.8932871,117.6363 C47.9201946,115.160807 45.0105641,113.564099 42.9584702,111.154093 C41.4018313,109.325957 41.9668243,102.331171 41.3119809,101.738478 C39.1059425,99.7418127 35.5011714,100.489371 32.5957666,99.8648171 L29.6712662,98.4880972 Z"></path>
        <filter id="filter-11" filterUnits="objectBoundingBox" height="106.8%" width="109.0%" y="-3.4%" x="-4.5%">
            <feGaussianBlur result="shadowBlurInner1" in="SourceAlpha" stdDeviation="2"></feGaussianBlur>
            <feOffset result="shadowOffsetInner1" in="shadowBlurInner1" dy="1" dx="0"></feOffset>
            <feComposite result="shadowInnerInner1" k3="1" k2="-1" operator="arithmetic" in2="SourceAlpha" in="shadowOffsetInner1"></feComposite>
            <feColorMatrix in="shadowInnerInner1" type="matrix" values="0 0 0 0 0.694482621   0 0 0 0 1   0 0 0 0 0.610716583  0 0 0 1 0"></feColorMatrix>
        </filter>
        <linearGradient id="linearGradient-12" y2="16.3493685%" x2="50%" y1="81.3416668%" x1="54.0488775%">
            <stop offset="0%" stop-color="#1C5912"></stop>
            <stop offset="100%" stop-color="#2D9B23"></stop>
        </linearGradient>
        <linearGradient id="linearGradient-13" y2="92.5042128%" x2="49.4197535%" y1="32.4474305%" x1="50%">
            <stop offset="0%" stop-color="#FFFFFF"></stop>
            <stop offset="100%" stop-color="#E7D7C5"></stop>
        </linearGradient>
        <linearGradient id="linearGradient-14" y2="92.5042128%" x2="48.6515388%" y1="32.4474305%" x1="50%">
            <stop offset="0%" stop-color="#FFFFFF"></stop>
            <stop offset="100%" stop-color="#E7D7C5"></stop>
        </linearGradient>
        <linearGradient id="linearGradient-15" y2="92.5042128%" x2="48.6156606%" y1="32.4474305%" x1="50%">
            <stop offset="0%" stop-color="#FFFFFF"></stop>
            <stop offset="100%" stop-color="#FFFAF3"></stop>
        </linearGradient>
    </defs>
    <g fill-rule="evenodd" fill="none" stroke-width="1" stroke="none" id="页面-1">
        <g transform="translate(68.360268, 93.495240) rotate(6.000000) translate(-68.360268, -93.495240) translate(9.360268, 5.995240)" id="编组-9">
            <path fill="url(#linearGradient-1)" id="路径-36" d="M13.3851718,77.9296339 C15.6772627,82.2695991 18.0583682,86.5634291 20.2614447,90.9495297 C21.2113046,92.8406038 18.2838469,87.2023879 17.1466489,85.4183511 C13.0978732,79.0666293 8.61976776,72.9912837 4.71005753,66.5525039 C3.337173,64.2915432 2.15141817,61.8864144 1.33008879,59.3705518 C0.997368095,58.3513754 1.19873869,57.219359 1.31513164,56.1533057 C1.43722194,55.0350697 2.17830032,53.9745211 2.04113184,52.8580451 C1.81315147,51.0024103 0.741207114,49.3476492 0.257174315,47.5421148 C0.0623672539,46.8154474 -0.0396463768,46.0483758 0.0143728622,45.2978485 C0.263627019,41.8347853 0.628291265,38.3758983 1.16380742,34.9456237 C1.23273158,34.5041266 1.4869317,34.0780567 1.81341601,33.7739906 C2.47989026,33.1532803 3.2360655,32.5985299 4.07136858,32.2377122 C5.72220969,31.5246144 7.40754353,30.620786 9.20452714,30.5813242 C11.5558657,30.5296887 13.7715135,31.9058234 16.1224599,31.9730698 C16.8631766,31.9942573 33.8060552,30.5022 38.2506282,31.649659 C40.8199213,32.3129755 46.8016989,38.6485927 47.5882894,39.2596685 C48.876479,40.2604198 50.5532405,40.682382 51.8271935,41.701304 C57.3579854,46.1248935 60.0453445,61.0510182 60.8922399,66.4624137 C60.9803283,67.0252708 62.2687444,77.0447521 60.2373183,80.0004755 C59.2173911,81.4844689 53.7271202,83.4163001 53.001,83.6979758 C43.7468444,87.2878369 34.1768209,85.4990034 24.5390447,84.7763432 C14.7917392,84.0454702 22.3835116,85.5045203 17.12358,84.3857651"></path>
            <path transform="translate(35.707587, 61.999689) rotate(-24.000000) translate(-35.707587, -61.999689)" opacity="0.300000012" fill="#FCFAF7" id="路径-6备份-2" d="M29.7233553,44.3592415 C38.5586009,60.8405014 42.5021428,72.0882769 41.5539809,78.1025677 L41.392222,79.6401362 C41.4325146,75.8134436 40.682361,71.5710903 39.141761,66.9130762 C37.601161,62.2550621 34.4616925,54.7371172 29.7233553,44.3592415 Z"></path>
            <path fill="url(#linearGradient-2)" id="路径-36" d="M7.95732772,69.5714389 C6.26723195,66.9200156 24.1842746,59.9533688 34.3784811,54.8470011 C39.3361767,52.3636478 50.4764591,61.7220184 49.9182764,57.5585473 C44.8085502,19.4452248 59.9158726,51.8376838 60.2373183,53.8916212 C60.3254067,54.4544783 62.2687444,77.0447521 60.2373183,80.0004755 C59.2173911,81.4844689 53.7271202,83.4163001 53.001,83.6979758 C43.7468444,87.2878369 34.1768209,85.4990034 24.5390447,84.7763432 C14.7917392,84.0454702 22.3835116,85.5045203 17.12358,84.3857651 C11.7708771,75.6989055 8.71545968,70.7607967 7.95732772,69.5714389 Z"></path>
            <g id="路径-34">
                <use xlink:href="#path-4" fill-rule="evenodd" fill="url(#linearGradient-3)"></use>
                <use xlink:href="#path-4" filter="url(#filter-5)" fill-opacity="1" fill="black"></use>
            </g>
            <g id="路径-34">
                <use xlink:href="#path-8" fill="url(#linearGradient-6)"></use>
                <use xlink:href="#path-8" fill="url(#linearGradient-7)"></use>
            </g>
            <g id="路径-35">
                <use xlink:href="#path-10" fill-rule="evenodd" fill="url(#linearGradient-9)"></use>
                <use xlink:href="#path-10" filter="url(#filter-11)" fill-opacity="1" fill="black"></use>
            </g>
            <path fill="#FCFAF7" id="路径-6" d="M46.7728691,77.0794961 C55.6222879,93.5790803 59.5765515,104.836998 58.6356599,110.853248 L58.4757191,112.391409 C58.511669,108.562832 57.7571007,104.317488 56.212014,99.655379 C54.6669273,94.9932698 51.5205457,87.4679755 46.7728691,77.0794961 Z"></path>
            <path transform="translate(41.695962, 92.031648) rotate(-29.000000) translate(-41.695962, -92.031648)" fill="#FCFAF7" id="路径-6备份-2" d="M35.7129987,74.3958724 C44.5474917,90.8722258 48.4900777,102.116987 47.5407568,108.130155 L47.3787187,109.667424 C47.4196294,105.841535 46.6699926,101.600201 45.129808,96.9434205 C43.5896235,92.2866401 40.4506871,84.7707907 35.7129987,74.3958724 Z"></path>
            <path opacity="0.461174375" fill="url(#linearGradient-12)" id="路径-35" d="M63.4465817,100.964566 C63.4430536,109.151952 63.6412572,117.366547 62.9072982,125.520768 C62.8226301,126.461423 61.9396701,127.357766 61.0445541,127.650884 C53.8914867,129.993259 53.113379,121.67631 49.8932871,117.6363 C47.9201946,115.160807 50.1104624,113.102744 54.8173858,115.054556 C57.2737315,116.073125 54.8048181,107.766559 56.7748076,107.713962 C59.753637,107.63443 57.6102026,99.7472716 59.9271119,100.356675 C61.7998334,100.849246 62.871542,93.7101325 63.4465817,91.3322993 C63.6313387,93.5572184 63.4487412,95.9531611 63.4465817,100.964566 Z"></path>
            <path fill="url(#linearGradient-13)" id="路径-5" d="M49.9182764,91.3378893 C57.1444693,109.700179 60.3602479,124.621751 59.565612,136.102606 C58.3736581,153.323888 53.2536767,167.334735 57.1840768,172.465728 C61.1144769,177.596721 63.7683523,166.281139 63.6258683,141.233599 C63.530879,124.535239 58.9616817,107.903336 49.9182764,91.3378893 Z"></path>
            <path fill="url(#linearGradient-14)" id="路径-37" d="M89.0320151,42.6288462 C78.9374397,67.1740257 74.7548161,87.4621145 76.4841445,103.493113 C73.5321746,130.585593 69.6106876,146.303798 64.7196837,150.647728 C57.3831778,157.163623 54.0784157,166.909716 55.9298761,171.309057 C57.7813364,175.708398 62.8168983,176.725998 65.7050044,171.309057 C68.5931105,165.892116 82.4116001,134.439692 80.7429994,103.493113 C79.630599,82.86206 82.3936042,62.5739711 89.0320151,42.6288462 Z"></path>
            <path opacity="0.5" fill="url(#linearGradient-15)" id="路径-37" d="M89.0320151,42.6288462 C78.9374397,67.1740257 74.7548161,87.4621145 76.4841445,103.493113 C73.5321746,130.585593 69.6106876,146.303798 64.7196837,150.647728 C59.8286798,154.991658 56.8987439,161.878768 55.9298761,171.309057 C56.3654491,166.691379 58.1807595,162.672209 61.3758074,159.251547 C66.1683791,154.120555 79.5908352,134.439692 77.9222345,103.493113 C76.8098341,82.86206 80.5130943,62.5739711 89.0320151,42.6288462 Z"></path>
            <path fill="#FCFAF7" id="路径-6" d="M65.0368381,57.5585473 C73.8862569,74.0581315 77.8405205,85.3160488 76.8996289,91.3322993 L76.7396882,92.8704601 C76.7756381,89.0418828 76.0210697,84.7965395 74.475983,80.1344302 C72.9308964,75.472321 69.7845147,67.9470267 65.0368381,57.5585473 Z"></path>
            <path transform="translate(86.006518, 87.227395) scale(-1, 1) translate(-86.006518, -87.227395)" fill="#FCFAF7" id="路径-6备份" d="M80.0073045,69.5714389 C88.8567234,86.071023 92.810987,97.3289404 91.8700953,103.345191 L91.7101546,104.883352 C91.7461045,101.054774 90.9915361,96.8094311 89.4464495,92.1473218 C87.9013628,87.4852125 84.7549811,79.9599182 80.0073045,69.5714389 Z"></path>
            <path transform="translate(89.897283, 53.889558) rotate(48.000000) translate(-89.897283, -53.889558)" fill="#FCFAF7" id="路径-6备份-2" d="M83.8638523,36.2543708 C92.7531147,52.7396727 96.7310551,63.9846853 95.7976734,69.9894088 L95.6397885,71.5247448 C95.6700115,67.7026496 94.907755,63.4632895 93.3530191,58.8066644 C91.7982831,54.1500394 88.6352275,46.6326082 83.8638523,36.2543708 Z"></path>
        </g>
    </g>
</svg>