<svg xml:space="preserve" style="enable-background:new 0 0 1000 1000;" viewBox="0 0 1000 1000" y="0px" x="0px" xmlns:xlink="http://www.w3.org/1999/xlink" xmlns="http://www.w3.org/2000/svg" id="图层_1" version="1.1">
<style type="text/css">
	.st0{fill:#FDDCDC;stroke:#FD9F9F;stroke-width:12.134;stroke-linecap:round;stroke-linejoin:round;stroke-miterlimit:10;}
	.st1{fill:#FDC8C8;stroke:#FD9292;stroke-width:12.134;stroke-linecap:round;stroke-linejoin:round;stroke-miterlimit:10;}
	.st2{fill:#FDF566;stroke:#FDA76E;stroke-width:12.134;stroke-linecap:round;stroke-linejoin:round;stroke-miterlimit:10;}
	.st3{fill:#FD8DC5;}
	.st4{fill:#53639C;stroke:#233760;stroke-width:12.134;stroke-linecap:round;stroke-linejoin:round;stroke-miterlimit:10;}
	.st5{fill:#FD6487;}
	.st6{fill:none;stroke:#2AE9FD;stroke-width:12.134;stroke-linecap:round;stroke-linejoin:round;stroke-miterlimit:10;}
	
		.st7{opacity:0.83;fill:#FFFFFF;stroke:#2AE9FD;stroke-width:12.134;stroke-linecap:round;stroke-linejoin:round;stroke-miterlimit:10;}
	.st8{fill:#53639C;}
	.st9{fill:#233760;}
	.st10{fill:#FDDCDC;}
	.st11{fill:#FD9F9F;}
	.st12{fill:#FDC8C8;}
	.st13{fill:#FD9595;}
	.st14{fill:#FFFFFF;}
	.st15{fill:#FD92C5;}
	.st16{fill:#FD5FA3;}
	.st17{fill:#FD276A;}
	.st18{fill:#E3875A;}
	.st19{fill:#8A4B3B;}
	.st20{fill:#AC7574;}
	.st21{fill:#5B3D37;}
	.st22{fill:#C9F1FD;}
	.st23{fill:#65B3FD;}
	.st24{fill:#5FCCFD;}
	.st25{fill:#FD366B;}
	.st26{fill:#3F3F3F;}
	.st27{fill:#BFFDCE;}
	.st28{fill:#57CF87;}
	.st29{fill:#E83475;}
	.st30{fill:#FD8DC7;}
	.st31{fill:#FD5F9A;}
	.st32{fill:#95FDB8;}
	.st33{fill:#39B069;}
	.st34{fill:#3A3A3A;}
	.st35{fill:#53639C;stroke:#FD366B;stroke-width:35.7123;stroke-miterlimit:10;}
	.st36{fill:#FD667F;stroke:#FD366B;stroke-width:35.7123;stroke-linecap:round;stroke-linejoin:round;stroke-miterlimit:10;}
	.st37{fill:none;stroke:#FD366B;stroke-width:35.7123;stroke-linecap:round;stroke-linejoin:round;stroke-miterlimit:10;}
	.st38{fill:#FFFFFF;stroke:#3A3A3A;stroke-width:35.7123;stroke-miterlimit:10;}
	.st39{fill:#FCDF64;}
	.st40{fill:#545454;}
	.st41{fill:#FDF566;}
	.st42{fill:#FDA76E;}
	.st43{fill:#FD5758;}
	.st44{fill:#08C247;}
	.st45{fill:#FD7C4B;}
	.st46{fill:#FDEB83;}
	.st47{fill:#25E362;}
	.st48{fill:#FD3D4B;}
	.st49{fill:#FD9798;}
	.st50{fill:#43B1FD;}
	.st51{fill:#FD5598;}
	.st52{fill:#FA3D80;}
	.st53{fill:#FFFD5F;}
	.st54{fill:#FD69A4;}
	.st55{fill:#84D1FD;stroke:#62BCFD;stroke-width:16.6441;stroke-linecap:round;stroke-linejoin:round;stroke-miterlimit:10;}
	.st56{fill:none;stroke:#3A3A3A;stroke-width:31.6926;stroke-linecap:round;stroke-linejoin:round;stroke-miterlimit:10;}
	.st57{fill:#FD8DC7;stroke:#FD5F9A;stroke-width:31.6926;stroke-linecap:round;stroke-linejoin:round;stroke-miterlimit:10;}
	.st58{fill:#FFFFFF;stroke:#84D1FD;stroke-width:31.6926;stroke-linecap:round;stroke-linejoin:round;stroke-miterlimit:10;}
	.st59{fill:#B9EBFD;stroke:#84D1FD;stroke-width:31.6926;stroke-linecap:round;stroke-linejoin:round;stroke-miterlimit:10;}
	.st60{fill:#BFF3FF;stroke:#00D0FF;stroke-width:28.9107;stroke-linecap:round;stroke-linejoin:round;stroke-miterlimit:10;}
	.st61{fill:#00D0FF;stroke:#BFF3FF;stroke-width:28.9107;stroke-linecap:round;stroke-linejoin:round;stroke-miterlimit:10;}
</style>
<g>
	<polyline points="329.93,593.72 380.39,503.17 466.85,560.05 452.81,660.49" class="st56"></polyline>
	<polygon points="292.51,121.28 435.5,205.29 381.87,321.84 225.22,230.59 301.93,206.63" class="st57"></polygon>
	<path d="M695.32,617.75l77.34,210.96c7.45,20.33-5.55,42.39-26.94,45.72h0c-17.52,2.73-34.23-8.34-38.55-25.54
		l-5.23-20.8l-8.51,29.52c-4.03,13.96-17.7,22.84-32.09,20.83h0c-18.19-2.54-29.55-21.05-23.57-38.42l6.43-18.66l-24.7,26.74
		c-8.95,9.68-22.58,13.51-35.26,9.9h0c-18.9-5.38-29.66-25.29-23.79-44.05l49.62-158.76c0,0-463.99-96.85-262.28-423.47
		c0,0,114.56-170.73,285.04-16.19C815.78,381.38,695.32,617.75,695.32,617.75z" class="st58"></path>
	<circle r="19.15" cy="255.69" cx="447.8" class="st34"></circle>
	<path d="M502.83,369.36L634.3,415.7c27,9.52,40.41,39.8,29.32,66.19v0c-9.99,23.77-36.49,35.97-61.04,28.1
		l-24.24-7.77l3.28,23.3c2.96,21.02-9.83,41.06-30.14,47.22l0,0c-28.41,8.62-56.82-13.41-55.55-43.07L502.83,369.36z" class="st59"></path>
</g>
</svg>
