<svg viewBox="0 0 240 240" xmlns:xlink="http://www.w3.org/1999/xlink" xmlns="http://www.w3.org/2000/svg" id="图层_1"><defs><style>.cls-1,.cls-4{fill:#f03e2e;}.cls-1,.cls-11,.cls-12,.cls-16,.cls-17,.cls-18,.cls-2,.cls-3,.cls-6,.cls-7,.cls-8{stroke:#000;}.cls-1,.cls-11,.cls-12,.cls-16,.cls-17,.cls-2,.cls-3,.cls-6,.cls-7{stroke-miterlimit:10;}.cls-1,.cls-6{stroke-width:1.87px;}.cls-2,.cls-9{fill:#007560;}.cls-11,.cls-12,.cls-16,.cls-17,.cls-18,.cls-2,.cls-3,.cls-7,.cls-8{stroke-width:1.92px;}.cls-14,.cls-3,.cls-8{fill:#fff;}.cls-5{clip-path:url(#clip-path);}.cls-12,.cls-18,.cls-6{fill:none;}.cls-18,.cls-8{stroke-linecap:round;stroke-linejoin:round;}.cls-10{clip-path:url(#clip-path-2);}.cls-11{fill:#faf8ed;}.cls-13{clip-path:url(#clip-path-3);}.cls-15{clip-path:url(#clip-path-4);}.cls-16{fill:#e83840;}.cls-17{fill:#ffc400;}</style><clipPath id="clip-path"><circle r="27.67" cy="68.18" cx="-189.88" class="cls-1"></circle></clipPath><clipPath id="clip-path-2"><rect rx="5.76" height="21.45" width="84.86" y="112.86" x="75.48" class="cls-2"></rect></clipPath><clipPath id="clip-path-3"><path d="M135,134.25h21a0,0,0,0,1,0,0v33.06a5.76,5.76,0,0,1-5.76,5.76H140.8a5.76,5.76,0,0,1-5.76-5.76V134.25A0,0,0,0,1,135,134.25Z" class="cls-2"></path></clipPath><clipPath id="clip-path-4"><path d="M114.26,54.75l38.79-24.91a3,3,0,0,1,4.66,2.55V78.87a2.64,2.64,0,0,1-3.92,2.3l-39.38-21.9A2.63,2.63,0,0,1,114.26,54.75Z" class="cls-3"></path></clipPath></defs><title>长图总结</title><circle r="27.67" cy="68.18" cx="-189.88" class="cls-4"></circle><g class="cls-5"><rect transform="translate(38.54 -12.73) rotate(15.2)" rx="8.44" height="27.91" width="18.79" y="124.09" x="57.59" class="cls-1"></rect><rect transform="translate(201.54 41.34) rotate(79.79)" rx="8.44" height="36.88" width="18.79" y="122.77" x="66.65" class="cls-1"></rect><rect transform="translate(198.44 181.13) rotate(130.61)" rx="8.44" height="36.88" width="18.79" y="117.75" x="48.18" class="cls-1"></rect><rect transform="translate(49.87 -7.97) rotate(15.2)" height="68.15" width="3.57" y="148.82" x="53.01" class="cls-1"></rect><ellipse transform="translate(-58.51 29.56) rotate(-21.67)" ry="12.61" rx="5.59" cy="167.66" cx="47.98" class="cls-1"></ellipse><ellipse transform="translate(-95.17 69.87) rotate(-34.5)" ry="5.59" rx="12.61" cy="188.2" cx="64.92" class="cls-1"></ellipse><ellipse transform="translate(-74.75 162.51) rotate(-74.8)" ry="12.87" rx="11.05" cy="130.14" cx="68.9" class="cls-1"></ellipse></g><circle r="27.67" cy="68.18" cx="-189.88" class="cls-6"></circle><circle r="41.04" cy="97" cx="119.12" class="cls-3"></circle><ellipse ry="52.1" rx="56.53" cy="166.07" cx="119.12" class="cls-3"></ellipse><circle r="3.81" cy="87.01" cx="102.39" class="cls-7"></circle><circle r="3.81" cy="87.01" cx="132.57" class="cls-7"></circle><path d="M126.92,96a9.22,9.22,0,0,1-18.42,0" class="cls-8"></path><rect rx="5.76" height="21.45" width="84.86" y="112.86" x="75.48" class="cls-9"></rect><g class="cls-10"><rect rx="4.08" height="8.15" width="90.42" y="120.11" x="72.37" class="cls-11"></rect></g><rect rx="5.76" height="21.45" width="84.86" y="112.86" x="75.48" class="cls-12"></rect><path d="M135,134.25h21a0,0,0,0,1,0,0v33.06a5.76,5.76,0,0,1-5.76,5.76H140.8a5.76,5.76,0,0,1-5.76-5.76V134.25A0,0,0,0,1,135,134.25Z" class="cls-9"></path><g class="cls-13"><rect height="41.21" width="6.61" y="133.59" x="142.45" class="cls-3"></rect></g><path d="M135,134.25h21a0,0,0,0,1,0,0v33.06a5.76,5.76,0,0,1-5.76,5.76H140.8a5.76,5.76,0,0,1-5.76-5.76V134.25A0,0,0,0,1,135,134.25Z" class="cls-12"></path><path d="M114.26,54.75l38.79-24.91a3,3,0,0,1,4.66,2.55V78.87a2.64,2.64,0,0,1-3.92,2.3l-39.38-21.9A2.63,2.63,0,0,1,114.26,54.75Z" class="cls-14"></path><g class="cls-15"><rect height="12.84" width="62.77" y="44.47" x="102.56" class="cls-16"></rect><rect height="12.84" width="62.77" y="63.66" x="106.61" class="cls-16"></rect><rect height="12.84" width="62.77" y="25.41" x="106.07" class="cls-16"></rect></g><path d="M114.26,54.75l38.79-24.91a3,3,0,0,1,4.66,2.55V78.87a2.64,2.64,0,0,1-3.92,2.3l-39.38-21.9A2.63,2.63,0,0,1,114.26,54.75Z" class="cls-12"></path><circle r="6.95" cy="26.95" cx="157.94" class="cls-17"></circle><line y2="149.01" x2="72.7" y1="114.94" x1="62.82" class="cls-18"></line><path d="M69.44,101.18h0a2.73,2.73,0,0,0-1.59.83.05.05,0,0,1-.09,0l-1-3.21a7.93,7.93,0,0,0-9.87-5.25l-.73.22a7.93,7.93,0,0,0-5.26,9.87l2.72,8.88a4.85,4.85,0,0,0,6,3.22l6.63-2a4.82,4.82,0,0,0,3.38-5s0,0,.06,0a2.71,2.71,0,0,0,1.36-.17,2.79,2.79,0,0,0,1.65-3l-.27-2A2.73,2.73,0,0,0,69.44,101.18Z" class="cls-17"></path><line y2="149.01" x2="162.77" y1="114.94" x1="172.66" class="cls-18"></line><path d="M167.61,101.26h0a2.7,2.7,0,0,1,1.54.91s.08,0,.09,0L170.39,99a7.93,7.93,0,0,1,10.13-4.73l.72.26A7.93,7.93,0,0,1,186,104.67l-3.17,8.72a4.85,4.85,0,0,1-6.21,2.9l-6.52-2.37a4.8,4.8,0,0,1-3.11-5.16.06.06,0,0,0-.06-.06,2.61,2.61,0,0,1-1.35-.24,2.8,2.8,0,0,1-1.49-3.09l.38-2A2.72,2.72,0,0,1,167.61,101.26Z" class="cls-17"></path></svg>