<svg viewBox="0 0 240 240" xmlns:xlink="http://www.w3.org/1999/xlink" xmlns="http://www.w3.org/2000/svg" id="图层_1"><defs><style>.cls-1,.cls-4{fill:#e992d7;}.cls-1,.cls-10,.cls-2,.cls-3,.cls-6,.cls-7{stroke:#000;stroke-miterlimit:10;stroke-width:1.91px;}.cls-2,.cls-8{fill:#5136e7;}.cls-3{fill:#fff;}.cls-5{clip-path:url(#clip-path);}.cls-6{fill:#fad000;}.cls-7{fill:none;}.cls-9{clip-path:url(#clip-path-2);}.cls-11{clip-path:url(#clip-path-3);}.cls-12{clip-path:url(#clip-path-4);}</style><clipPath id="clip-path"><rect height="70.45" width="71.73" y="121.98" x="83.92" class="cls-1"></rect></clipPath><clipPath id="clip-path-2"><rect height="22.8" width="19.74" y="83.25" x="108.98" class="cls-2"></rect></clipPath><clipPath id="clip-path-3"><rect height="16.24" width="14.06" y="133.5" x="167.13" class="cls-2"></rect></clipPath><clipPath id="clip-path-4"><rect transform="translate(131 283.24) rotate(-180)" height="16.24" width="14.06" y="133.5" x="58.47" class="cls-2"></rect></clipPath></defs><title>长图总结</title><rect height="50.59" width="71.73" y="71.4" x="83.92" class="cls-3"></rect><rect height="70.45" width="71.73" y="121.98" x="83.92" class="cls-4"></rect><g class="cls-5"><rect height="48.84" width="25.08" y="154.5" x="107.25" class="cls-6"></rect><rect rx="1.06" height="4.18" width="28.87" y="150.41" x="105.35" class="cls-1"></rect><rect rx="1.76" height="3.52" width="3.52" y="172.09" x="109.59" class="cls-3"></rect></g><rect height="70.45" width="71.73" y="121.98" x="83.92" class="cls-7"></rect><rect height="22.8" width="19.74" y="83.25" x="108.98" class="cls-8"></rect><g class="cls-9"><rect height="28.96" width="1.6" y="81.28" x="118.19" class="cls-2"></rect><rect transform="translate(214.14 -23.83) rotate(90)" height="28.96" width="1.6" y="80.68" x="118.19" class="cls-2"></rect></g><rect height="22.8" width="19.74" y="83.25" x="108.98" class="cls-7"></rect><rect rx="0.97" height="2.48" width="24.47" y="105.98" x="106.66" class="cls-10"></rect><rect rx="0.97" height="2.48" width="24.47" y="80.69" x="106.2" class="cls-10"></rect><polygon points="155.85 117.88 155.85 72.72 196.14 117.88 155.85 117.88" class="cls-4"></polygon><path d="M156.81,75.22l37.2,41.7h-37.2V75.22m-1.91-5v48.62h43.38l-2.84-3.18L158.24,74l-3.34-3.74Z"></path><rect height="74.86" width="38.28" y="117.57" x="155.85" class="cls-6"></rect><rect height="16.24" width="14.06" y="133.5" x="167.13" class="cls-8"></rect><g class="cls-11"><rect height="20.62" width="1.14" y="132.1" x="173.69" class="cls-2"></rect><rect transform="translate(316.23 -32.28) rotate(90)" height="20.62" width="1.14" y="131.67" x="173.69" class="cls-2"></rect></g><rect height="16.24" width="14.06" y="133.5" x="167.13" class="cls-7"></rect><rect rx="0.69" height="1.77" width="17.43" y="149.69" x="165.48" class="cls-2"></rect><rect rx="0.69" height="1.77" width="17.43" y="131.68" x="165.15" class="cls-2"></rect><polygon points="83.65 75.38 83.65 117.08 46.45 117.08 83.65 75.38" class="cls-2"></polygon><rect transform="translate(129.35 310) rotate(-180)" height="74.86" width="38.28" y="117.57" x="45.53" class="cls-3"></rect><rect transform="translate(131 283.24) rotate(-180)" height="16.24" width="14.06" y="133.5" x="58.47" class="cls-8"></rect><g class="cls-12"><rect transform="translate(130.81 284.81) rotate(-180)" height="20.62" width="1.14" y="132.1" x="64.84" class="cls-3"></rect><rect transform="translate(207.39 76.57) rotate(90)" height="20.62" width="1.14" y="131.67" x="64.84" class="cls-3"></rect></g><rect transform="translate(131 283.24) rotate(-180)" height="16.24" width="14.06" y="133.5" x="58.47" class="cls-7"></rect><rect transform="translate(130.94 301.14) rotate(-180)" rx="0.69" height="1.77" width="17.43" y="149.69" x="56.76" class="cls-3"></rect><rect transform="translate(131.59 265.12) rotate(-180)" rx="0.69" height="1.77" width="17.43" y="131.68" x="57.08" class="cls-3"></rect><polygon points="119.79 17.45 78.16 71.41 161.41 71.41 119.79 17.45" class="cls-1"></polygon></svg>