<svg xmlns:xlink="http://www.w3.org/1999/xlink" xmlns="http://www.w3.org/2000/svg" version="1.1" viewBox="0 0 224 210" height="210px" width="224px">
    
    <title>木马</title>
    <desc>Created with Sketch.</desc>
    <defs></defs>
    <g fill-rule="evenodd" fill="none" stroke-width="1" stroke="none" id="Page-1">
        <g fill-rule="nonzero" id="木马">
            <path fill="#EDA4A4" id="Shape" d="M164.185,109.579 C164.185,109.579 171.864,74.543 196.158,87.319 C220.451,100.095 214.815,74.966 203.794,63.944 C203.794,63.944 239.541,94.937 214.898,121.447 C190.256,147.96 189.189,107.161 180.752,132.049 L164.185,109.579 Z"></path>
            <path opacity="0.2" fill="#966E6E" id="Shape" d="M177.719,112.348 C177.719,112.348 182.633,103.127 189.513,110.006 C196.392,116.885 227.778,115.76 213.863,79.439 C213.863,79.439 234.105,101.942 209.912,126.137 C209.912,126.137 198.168,137.922 188.388,124.463 L183.349,125.986 L177.719,112.348 Z"></path>
            <path fill="#EDA4A4" id="Shape" d="M29.663,10.385 C11.961,20.975 16.643,48.513 22.598,54.158 C22.598,54.158 43.476,60.589 58.579,45.021 C73.682,29.45 92.41,48.835 104.156,89.199 C115.902,129.563 150.192,92.39 157.111,78.633 C136.694,91.664 121.799,99.942 113.548,62.388 C106.453,30.096 90.318,5.66 68.17,1.21 C52.131,-2.012 39.597,3.812 29.663,10.385 Z"></path>
            <path opacity="0.2" fill="#966E6E" id="Shape" d="M40.482,6.962 C40.482,6.962 22.217,13.632 25.827,29.574 C28.55,41.604 37.132,23.517 56.401,19.399 C72.269,16.007 102.854,26.931 112.853,78.197 C112.853,78.197 116.106,116.705 155.521,80.393 C155.521,80.393 139.792,109.591 111.905,99.095 C84.017,88.601 74.902,33.63 53.08,37.9 C31.258,42.17 21.771,53.555 21.771,53.555 C21.771,53.555 1.319,18.245 40.482,6.962 Z"></path>
            <path fill="#D9B896" id="Shape" d="M36.035,129.406 C34.865,130.039 34.621,130.32 36.035,129.406 Z M145.095,90.165 C137.432,90.016 122.088,102.287 111.541,102.287 C93.334,102.287 89.825,92.51 89.825,75.836 C89.825,63.681 69.662,96.804 51.365,116.422 C46.667,119.727 42.745,123.141 40.794,125.305 C40.45,125.688 40.457,125.957 40.704,126.163 C38.405,127.828 36.904,128.846 36.035,129.406 C39.092,127.76 48.435,123.767 50.923,132.595 C51.294,134.726 51.305,136.029 51.337,141.495 C51.212,142.737 51.267,144.038 51.454,145.369 C51.814,155.059 53.213,182.684 58.193,197.397 C60.353,203.776 59.833,208.165 73.552,208.465 C73.552,208.465 82.293,208.586 86.608,203.012 C89.304,199.528 93.229,187.842 96.477,178.618 C101.295,179.697 106.34,180.306 111.54,180.306 C116.952,180.306 122.677,179.91 128.414,179.136 C131.67,186.325 135.736,198.363 139.291,201.917 C146.893,209.517 156.189,208.377 156.189,208.377 C172.377,208.377 179.111,165.433 181.289,147.453 C182.225,142.61 182.765,137.307 182.765,134.056 C182.765,114.822 174.445,90.449 145.095,90.165 Z"></path>
            <path opacity="0.15" fill="#6E6E96" id="Shape" d="M67.821,127.816 C67.821,127.816 73.212,121.003 77.879,125.67 C82.546,130.337 83.546,135.003 93.212,135.003 C102.878,135.003 138.879,135.003 138.879,135.003 C138.879,135.003 151.379,133.671 151.379,122.504 C151.379,111.337 151.379,93.047 151.379,93.047 L145.049,93.047 L85.788,112.638 L67.821,127.816 Z"></path>
            <path fill="#F0F0FF" id="Shape" d="M93.288,122.67 L134.288,122.67 C139.788,122.67 144.288,118.17 144.288,112.67 L144.288,92.67 C144.288,91.827 144.171,91.013 143.974,90.23 C136.011,91.138 121.6,102.286 111.542,102.286 C96.204,102.286 91.297,95.347 90.132,83.192 C86.168,84.522 83.288,88.273 83.288,92.67 L83.288,112.67 C83.288,118.17 87.788,122.67 93.288,122.67 Z"></path>
            <path fill="#6E6E96" id="Shape" d="M34.909,127.318 C33.77,127.933 32.695,128.513 32.691,129.982 C32.689,130.853 33.163,131.654 33.925,132.072 C35.199,132.769 36.137,132.164 37.321,131.398 C38.391,130.709 38.725,129.294 38.076,128.2 C37.427,127.105 36.03,126.714 34.909,127.318 Z M34.749,127.414 C34.208,127.764 34.022,127.865 34.02,127.865 C35.131,127.263 36.435,127.679 37.09,128.76 C37.746,129.842 37.518,131.186 36.469,131.895 C36.521,131.862 36.757,131.712 37.16,131.497 C36.039,132.101 34.64,131.712 33.993,130.616 C33.345,129.518 33.679,128.104 34.749,127.414 Z"></path>
            <path fill="#CCCCE8" id="Shape" d="M58.193,197.4 C60.353,203.779 59.833,208.167 73.551,208.468 C73.551,208.468 82.293,208.588 86.608,203.015 C88.025,201.185 89.781,198.738 91.599,195.497 L57.591,195.497 C57.786,196.148 57.985,196.787 58.193,197.4 Z M135.365,195.499 C137.103,198.083 137.643,200.271 139.291,201.922 C146.893,209.522 156.189,208.382 156.189,208.382 C162.002,208.382 166.596,203.102 170.198,195.499 L135.365,195.499 Z"></path>
            <path opacity="0.15" fill="#6E6E96" id="Shape" d="M90.848,94.841 C90.848,94.841 94.859,108.809 64.273,130.404 C53.061,138.322 60.478,174.998 64.273,183.062 C69.017,193.142 85.147,192.075 88.941,178.791 C91.787,168.829 91.313,153.442 98.903,153.442 C106.493,153.442 108.39,170.996 106.493,172.893 L117.878,172.893 C117.878,172.893 107.442,148.225 115.507,144.43 C123.57,140.635 132.959,153.964 138.607,164.229 C146.725,178.989 153.045,169.667 153.045,169.667 C153.045,169.667 194.256,130.4 166.741,97.195 C166.741,97.195 189.848,113.324 180.023,158.391 C173.549,203.457 160.574,207.829 160.574,207.829 C160.574,207.829 138.263,217.928 128.79,179.533 C117.891,181.558 107.891,181.558 96.479,178.619 C96.479,178.619 95.321,189.653 86.608,203.013 C86.608,203.013 83.576,206.032 79.471,207.558 C72.63,210.102 62.809,210.471 59.083,200.263 C53.122,187.093 50.498,137.197 50.498,131.378 C50.498,131.378 49.386,127.081 42.927,127.081 C42.927,127.084 80.785,106.811 90.848,94.841 Z"></path>
            <path opacity="0.15" fill="#6E6E96" id="Shape" d="M102.045,101.17 C102.045,101.17 94.545,110.17 94.545,113.67 C94.545,117.17 133.045,113.67 133.045,113.67 C133.045,113.67 137.045,114.17 137.045,96.17 C137.045,78.17 137.045,95.063 137.045,95.063 L143.974,90.23 L143.974,115.486 C143.974,115.486 145.545,123.171 130.545,123.171 C115.545,123.171 93.288,123.171 93.288,123.171 C93.288,123.171 82.302,118.645 84.045,112.671 C85.788,106.697 98.045,100.171 98.045,100.171 L102.045,101.17 Z"></path>
            <path fill="#D9B896" id="Shape" d="M102.704,59.847 C116.132,82.141 99.471,103.546 71.975,118.422 C44.479,133.299 23.513,142.969 3.129,113.719 C-4.31,103.043 5.841,88.219 13.096,73.533 C20.347,58.848 25.425,43.837 39.173,36.397 C66.671,21.521 89.277,37.554 102.704,59.847 Z"></path>
            <path fill="#F0F0FF" id="Shape" d="M36.134,132.523 C43.856,129.697 6.988,91.88 2.013,96.856 C0.01,103.07 -0.277,108.831 3.13,113.719 C13.698,128.883 24.423,133.584 36.134,132.523 Z"></path>
            <path opacity="0.15" fill="#6E6E96" id="Shape" d="M6.846,114.805 C6.846,114.805 32.9,134.885 19.872,117.596 C6.846,100.309 3.688,98.532 3.688,98.532 C3.688,98.532 30.485,112.885 35.029,129.122 C35.137,129.512 35.317,129.894 35.317,130.295 C35.319,137.996 15.243,128.029 6.846,114.805 Z"></path>
            <path opacity="0.15" fill="#6E6E96" id="Shape" d="M13.269,99.047 C13.269,99.047 29.611,106.735 39.323,118.07 C49.035,129.404 117.656,68.946 68.763,33.987 C68.763,33.987 115.919,43.184 104.786,87.709 C104.312,89.607 104.312,89.607 104.312,89.607 C104.312,89.607 68.263,131.006 39.561,131.006 C39.562,131.007 19.946,103.253 13.269,99.047 Z"></path>
            <path opacity="0.27" fill="#F7F7FF" id="Shape" d="M36.35,114.9 C36.35,114.9 24.559,96.687 13.805,92.355 C13.805,92.355 36.066,40.027 66.608,40.027 C78.704,40.027 85.965,60.776 85.965,60.776 C85.965,60.776 83.192,28.93 52.089,33.914 C15.162,39.831 7.76,86.074 5.417,94.405 C5.417,94.405 26.332,104.684 36.35,114.9 Z"></path>
            <path fill="#6E6E96" id="Shape" d="M54.357,56.793 C55.904,60.085 55.204,64.635 52.79,66.943 C50.379,69.256 47.166,68.454 45.615,65.154 C44.066,61.862 44.766,57.311 47.183,55 C49.597,52.693 52.806,53.486 54.357,56.793 Z"></path>
            <ellipse ry="2.125" rx="4.375" cy="201.17" cx="68.17" fill="#F0F0FF" id="Oval"></ellipse>
            <ellipse ry="1.75" rx="4" cy="201.67" cx="149.295" fill="#F0F0FF" id="Oval"></ellipse>
            <path fill="#D9B896" id="Shape" d="M86.005,48.739 C102.772,38.14 116.126,39.61 116.126,39.61 C116.126,39.61 116.056,39.699 115.941,39.839 C116.584,39.932 117.088,40.179 117.417,40.619 C119.959,44.04 110.736,57.337 104.218,62.585 C93.411,71.283 86.127,68.065 81.854,65.419 C81.521,65.213 81.911,65.801 81.854,65.419 C76.831,62.65 74.104,56.262 86.005,48.739 Z"></path>
            <path opacity="0.15" fill="#6E6E96" id="Shape" d="M104.326,59.699 C104.326,59.699 121.644,44.569 100.365,50.813 C79.086,57.058 84.607,64.206 89.383,66.038 C89.383,66.038 73.297,67.163 79.086,57.058 C84.876,46.954 106.014,38.016 115.696,41.841 L116.23,42.818 C116.231,42.817 110.329,57.023 104.326,59.699 Z"></path>
        </g>
    </g>
</svg>