<svg viewBox="0 0 116.24 139.99" xmlns="http://www.w3.org/2000/svg"><defs><style>.cls-1{fill:#7dbe9b;}.cls-2{fill:#060001;}.cls-3{fill:#f4caca;}.cls-4{fill:#e492ab;}.cls-5{fill:#f8dddc;}</style></defs><title>资源 14</title><g id="图层_2"><g id="图层_1-2"><path d="M75.81,42.93a2,2,0,0,1-1.87-1.29c-.18-.49-4.54-12.22.61-20.87s17.53-10.42,18-10.49l.27,0a2,2,0,0,1,1.87,1.29c.19.5,4.55,12.22-.6,20.87S76.61,42.84,76.08,42.91Z" class="cls-1"></path><path d="M92.87,12.26s4.26,11.22-.45,19.14-16.61,9.53-16.61,9.53-4.26-11.22.46-19.14,16.6-9.53,16.6-9.53m0-4a3.23,3.23,0,0,0-.53,0,35.6,35.6,0,0,0-7.46,2c-5.5,2.15-9.66,5.4-12,9.42S69.57,29,70.3,34.83a35.78,35.78,0,0,0,1.77,7.52,4,4,0,0,0,3.74,2.58,3.27,3.27,0,0,0,.54,0,35.6,35.6,0,0,0,7.45-2c5.5-2.15,9.67-5.4,12.06-9.41s3.26-9.23,2.52-15.09a35.78,35.78,0,0,0-1.77-7.52,4,4,0,0,0-3.74-2.58Z" class="cls-2"></path><path d="M60.36,54.19a2,2,0,0,1-.82-.17c-.7-.32-17.23-7.9-20.81-22S46.07,3.4,46.54,2.79A2,2,0,0,1,49,2.18c.7.31,17.24,7.89,20.81,22S62.42,52.79,62,53.41A2,2,0,0,1,60.36,54.19Z" class="cls-1"></path><path d="M48.13,4s16.32,7.34,19.7,20.65-7.46,27.54-7.46,27.54-16.32-7.34-19.7-20.65S48.13,4,48.13,4m0-4A4,4,0,0,0,45,1.58c-.49.64-12,16-8.16,31s21.2,23,21.93,23.31a4,4,0,0,0,4.83-1.22c.49-.65,12-15.95,8.15-30.95S50.51.68,49.77.35A4,4,0,0,0,48.13,0Z" class="cls-2"></path><path d="M51.51,138c-10.86,0-16.82-5.35-18.91-10.62A63.34,63.34,0,0,1,12.92,110C4.48,98.61.82,84.77,2.34,70c1.09-10.61,4.49-19,10.09-24.8l.14-.13c4.88-5,11.48-8.2,19.63-9.51l.23,0c1.09-.15,2.2-.29,3.34-.4,1.77-.15,3.62-.23,5.5-.23a92.61,92.61,0,0,1,16.44,1.62,90.28,90.28,0,0,1,17.67-2,55.84,55.84,0,0,1,7.62.5c17.9,2.34,28.25,13.7,30.77,33.77a60.71,60.71,0,0,1-9.3,40.63c-8.94,13.67-23.46,23.42-42,28.21a1.61,1.61,0,0,1-.44.06l-6.14.18L53,138l-1,0Z" class="cls-3"></path><path d="M75.38,36.55a53.6,53.6,0,0,1,7.35.48q25.5,3.33,29.06,32c3.2,26-10.57,56.52-49.8,66.65l-6.14.18c-2.18.06-3.5.07-4,.09h-.35c-10.43,0-15.7-5.19-17.28-10a61.64,61.64,0,0,1-19.7-17.17C6,97.29,2.94,83.68,4.32,70.18q1.59-15.35,9.56-23.62l.09-.08c4.6-4.74,10.75-7.72,18.55-9h0c1.12-.15,2.24-.3,3.4-.41,1.7-.14,3.47-.22,5.32-.22a90.8,90.8,0,0,1,16.45,1.66,88.11,88.11,0,0,1,17.65-2m0-4h0a91.51,91.51,0,0,0-17.69,1.93,93.72,93.72,0,0,0-16.41-1.59c-1.94,0-3.85.08-5.67.24-1.19.11-2.31.25-3.39.4l-.33,0c-8.56,1.37-15.52,4.75-20.69,10l0,0-.19.18C5.07,50,1.49,58.71.35,69.77c-1.57,15.29,2.22,29.62,11,41.44A65,65,0,0,0,31,128.76C33.58,134.44,40.08,140,51.51,140H52l1,0L56,139.9l6.17-.18a4.24,4.24,0,0,0,.87-.12c19-4.92,33.94-15,43.16-29a62.76,62.76,0,0,0,9.61-42C114.46,58.22,111.07,50,105.7,44s-13-9.73-22.45-11a57.72,57.72,0,0,0-7.87-.51Z" class="cls-2"></path><path d="M62,135.72l-6.14.18c37.95-9.21,52.94-38.64,51.31-64.76Q105.48,43.35,82.73,37q25.5,3.33,29.06,32C115,95.11,101.22,125.59,62,135.72Z" class="cls-4"></path><path d="M67.76,34.53s-21.49,4.93-31,22.81" class="cls-3"></path><path d="M36.75,59.34a2,2,0,0,1-.94-.23A2,2,0,0,1,35,56.4C44.82,37.93,66.4,32.79,67.31,32.58a2,2,0,1,1,.9,3.9c-.21,0-20.73,5-29.69,21.8A2,2,0,0,1,36.75,59.34Z" class="cls-2"></path><path d="M10.39,79.46a137.66,137.66,0,0,0,4.14,29.37C6,97.29,2.94,83.68,4.32,70.18q1.59-15.35,9.56-23.62l.09-.08c4.6-4.74,10.75-7.72,18.55-9C21.17,46.32,10,60.56,10.39,79.46Z" class="cls-5"></path></g></g></svg>