<svg viewBox="0 0 117.34 146.53" xmlns="http://www.w3.org/2000/svg"><defs><style>.cls-1{fill:#7ebf9d;}.cls-2{fill:#060001;}.cls-3{fill:#efbb90;}.cls-4{fill:#f9d4b8;}.cls-5{fill:#dba37b;}</style></defs><title>资源 11</title><g id="图层_2"><g id="图层_1-2"><path d="M41.25,36.36a20.64,20.64,0,0,1-11-3C19.45,26.73,14.51,9.71,14.31,9a2,2,0,0,1,.94-2.29A29.7,29.7,0,0,1,28.44,3.37a20.73,20.73,0,0,1,11,3C50.26,13,55.19,30,55.39,30.73A2,2,0,0,1,54.45,33,29.55,29.55,0,0,1,41.25,36.36Z" class="cls-1"></path><path d="M28.44,5.37a18.72,18.72,0,0,1,10,2.71c10.28,6.3,15.08,23.2,15.08,23.2a27.69,27.69,0,0,1-12.22,3.08,18.77,18.77,0,0,1-9.94-2.71C21,25.36,16.23,8.45,16.23,8.45A27.68,27.68,0,0,1,28.44,5.37m0-4h0A31.75,31.75,0,0,0,14.27,5a4,4,0,0,0-1.89,4.58c.21.75,5.36,18.5,16.84,25.52a22.66,22.66,0,0,0,12,3.3,31.91,31.91,0,0,0,14.18-3.59,4,4,0,0,0,1.88-4.58C57.1,29.44,52,11.71,40.48,4.67a22.67,22.67,0,0,0-12-3.3Z" class="cls-2"></path><path d="M50.27,35.9a2,2,0,0,1-1.78-1.08c-.24-.47-5.79-11.47-1.69-20.52s16-12.11,16.55-12.24A2,2,0,0,1,63.83,2a2,2,0,0,1,1.78,1.09c.24.46,5.79,11.47,1.68,20.51s-16,12.12-16.54,12.24A2,2,0,0,1,50.27,35.9Z" class="cls-1"></path><path d="M63.83,4s5.39,10.51,1.64,18.77S50.27,33.9,50.27,33.9s-5.39-10.5-1.64-18.77S63.83,4,63.83,4m0-4a4.09,4.09,0,0,0-1,.12C62.32.26,49.48,3.57,45,13.48s1.47,21.75,1.73,22.25a4,4,0,0,0,3.55,2.17,4.11,4.11,0,0,0,1-.12c.54-.13,13.38-3.44,17.88-13.35S67.65,2.67,67.39,2.17A4,4,0,0,0,63.83,0Z" class="cls-2"></path><path d="M58.61,144.53a56.67,56.67,0,0,1-51.54-80,56.79,56.79,0,0,1,51.6-33.25,56.75,56.75,0,0,1,44.17,21.24,57.34,57.34,0,0,1,5.55,8.38.34.34,0,0,1,.06.12,56,56,0,0,1,1.76,50.31A56.76,56.76,0,0,1,58.61,144.53Z" class="cls-3"></path><path d="M58.67,33.23a54.76,54.76,0,0,1,42.61,20.49,55.59,55.59,0,0,1,5.36,8.09v0a54.61,54.61,0,0,1-70.58,75.79A54.66,54.66,0,0,1,8.89,65.31,54.66,54.66,0,0,1,58.67,33.23m0-4h0a58.65,58.65,0,0,0-24.25,112,58.1,58.1,0,0,0,24.19,5.26A58.76,58.76,0,0,0,112,112.1a58,58,0,0,0-1.8-52l-.08-.15a60,60,0,0,0-5.74-8.67A58.8,58.8,0,0,0,82.87,34.49a58.18,58.18,0,0,0-24.2-5.26Z" class="cls-2"></path><path d="M12.9,70.27a54.51,54.51,0,0,0-.23,44.63,50.12,50.12,0,0,1-3.6-4.09,54.63,54.63,0,0,1,92.21-57.09c.15.3.28.58.4.87A53.81,53.81,0,0,0,85.23,43.07,54.65,54.65,0,0,0,12.9,70.27Z" class="cls-4"></path><path d="M108.39,110.45a54.62,54.62,0,0,1-72.32,27.18,54,54,0,0,1-21.33-17.27c-.51-1-1-1.92-1.46-2.89a54.65,54.65,0,0,0,92.23-57.15c.38.49.76,1,1.13,1.49v0A54.37,54.37,0,0,1,108.39,110.45Z" class="cls-5"></path></g></g></svg>