<svg xmlns:xlink="http://www.w3.org/1999/xlink" xmlns="http://www.w3.org/2000/svg" version="1.1" viewBox="0 0 245 203" height="203px" width="245px">
    
    <title>Slice 1</title>
    <desc>Created with Sketch.</desc>
    <defs></defs>
    <g fill-rule="evenodd" fill="none" stroke-width="1" stroke="none" id="Page-1">
        <g id="牛">
            <path stroke-linecap="round" stroke-width="5" stroke="#6E6E96" id="Shape" d="M241.62,131.696 C241.62,131.696 235.79,78.848 206.791,49.848"></path>
            <path fill-rule="nonzero" fill="#E3B8B8" id="Shape" d="M67.817,144.85 C94.817,156.604 99.624,195.515 99.624,195.515 L118.532,195.289 C118.532,195.289 133.174,154.328 123.661,124.302"></path>
            <path fill-rule="nonzero" fill="#E3B8B8" id="Shape" d="M176.938,138.077 C179.169,158.666 189.065,158.117 193.242,166.752 C199.383,179.447 195.799,193.872 195.799,193.872 L217.922,193.607 C217.922,193.607 231.591,153.634 225.367,128.897 C225.367,128.897 221.112,110.719 204.022,104.376"></path>
            <path fill-rule="nonzero" fill="#FFCFCF" id="Shape" d="M238.46,116.517 C263.86,164.665 200.88,168.446 154.521,168.446 C108.165,168.446 70.583,158.428 70.583,116.517 C70.583,74.604 95.879,40.625 128.074,40.625 C174.433,40.626 232.021,104.312 238.46,116.517 Z"></path>
            <path fill-rule="nonzero" fill="#EBBFBF" id="Shape" d="M136.969,61.855 C136.969,61.855 140.079,47.529 168.267,61.607 C196.455,75.685 231.987,103.325 241.631,123.448 C241.631,123.448 202.167,50.155 132.756,40.996 L136.969,61.855 Z"></path>
            <path fill-rule="nonzero" fill="#EBBFBF" id="Shape" d="M151.032,56.124 C151.032,56.124 142.848,53.521 139.053,57.585 C135.197,61.717 135.766,72.55 140.948,77.314 C140.948,77.314 160.174,107.742 156.258,139.151 L177.504,139.151 C177.504,139.151 176.556,124.428 188.66,124.428 C203.432,124.428 203.766,137.188 203.766,137.188 C203.766,137.188 204.682,152.567 212.516,157.147 C220.348,161.727 221.414,201.888 221.414,201.888 L211.945,201.888 C211.945,201.888 214.841,176.284 205.984,166.155 C205.984,166.155 159.521,168.974 146.851,168.29 C146.851,168.29 153.761,127.7 138.453,120.502 C138.453,120.502 136.877,84.107 122.907,73.149 C122.907,73.149 136.917,60.305 132.755,40.997 C132.758,40.994 151.032,45.441 151.032,56.124 Z"></path>
            <path fill-rule="nonzero" fill="#FFCFCF" id="Shape" d="M88.271,151.471 C115.128,163.545 119.531,202.514 119.531,202.514 L138.438,202.514 C138.438,202.514 151.544,161.733 142.391,131.593"></path>
            <path fill-rule="nonzero" fill="#F0F0FF" id="Shape" d="M5.459,82.437 C5.459,82.437 25.9,113.38 48.296,113.829 C70.691,114.275 100.052,84.321 82.957,70.118 C60.148,51.166 48.847,97.524 17.966,75.163 C17.967,75.162 -9.613,52.384 5.459,82.437 Z"></path>
            <path opacity="0.59" fill-rule="nonzero" fill="#FCFCFC" id="Shape" d="M75.147,65.881 C57.137,61.362 45.12,94.824 17.966,75.163 C17.966,75.163 2.929,62.745 1.133,68.351 C8.961,76.665 22.691,91.745 37.255,92.035 C51.869,92.326 69.447,77.786 75.147,65.881 Z"></path>
            <path fill-rule="nonzero" fill="#F0F0FF" id="Shape" d="M98.518,2.003 C98.518,2.003 134.772,9.753 131.924,52.509 C130.236,77.87 104.634,87.258 95.855,73.142 C93.734,69.733 80.4,58.09 83.195,58.125 C94.332,58.265 115.924,30.045 94.933,10.285 C94.935,10.284 81.096,-2.929 98.518,2.003 Z"></path>
            <path opacity="0.59" fill-rule="nonzero" fill="#FCFCFC" id="Shape" d="M116.511,43.205 C118.58,17.726 102.634,7.651 92.176,2.589 C83.13,1.805 94.935,10.284 94.935,10.284 C115.925,30.044 94.333,58.263 83.196,58.124 C81.275,58.102 86.978,63.599 91.418,68.143 C102.086,68.614 115.19,59.478 116.511,43.205 Z"></path>
            <path fill-rule="nonzero" fill="#EBBFBF" id="Shape" d="M137.704,107.178 C138.987,140.142 128.702,170.044 102.641,175.449 C76.579,180.85 60.948,154.633 43.33,126.742 C24.514,96.951 52.333,63.873 78.394,58.473 C104.457,53.069 136.406,73.76 137.704,107.178 Z"></path>
            <path fill-rule="nonzero" fill="#FFCFCF" id="Shape" d="M121.208,98.132 C121.033,103.574 102.802,103 81.419,107.486 C60.035,111.975 58.622,142.008 44.166,118.826 C28.727,94.067 51.554,66.575 72.938,62.086 C94.322,57.595 120.143,70.355 121.208,98.132 Z"></path>
            <circle r="3.681" cy="97.678" cx="92.933" fill-rule="nonzero" fill="#6E6E96" id="Oval"></circle>
            <circle r="3.681" cy="107.712" cx="66.474" fill-rule="nonzero" fill="#6E6E96" id="Oval"></circle>
            <path fill-rule="nonzero" fill="#EBBFBF" id="Shape" d="M114.184,182.073 C114.184,182.073 117.885,171.757 129.659,173.504 C141.432,175.251 130.639,202.515 130.639,202.515 L138.438,202.515 C138.438,202.515 154.941,156.436 146.952,133.753 C146.952,133.753 121.166,168.635 110.586,172.912 L114.184,182.073 Z"></path>
            <ellipse ry="48.6228955" rx="30.5281901" cy="144.650664" cx="98.7976174" transform="translate(98.797617, 144.650664) rotate(73.208562) translate(-98.797617, -144.650664)" fill-rule="nonzero" fill="#F0F0FF" id="Oval"></ellipse>
            <path fill-rule="nonzero" fill="#FFFFFF" id="Shape" d="M86.822,117.619 C108.85,111.961 130.092,116.918 134.263,128.692 C138.437,140.463 123.964,154.596 101.935,160.255 C79.907,165.913 58.666,160.954 54.493,149.184 C50.32,137.408 64.794,123.278 86.822,117.619 Z"></path>
            <path fill-rule="nonzero" fill="#6E6E96" id="Shape" d="M81.474,135.532 C84.4,135.575 86.736,137.982 86.694,140.908 C86.651,143.836 84.244,146.171 81.317,146.129 C78.392,146.086 76.055,143.681 76.098,140.752 C76.141,137.828 78.548,135.49 81.474,135.532 Z"></path>
            <circle r="5.299" cy="132.182" cx="103.382" fill-rule="nonzero" fill="#6E6E96" id="Oval"></circle>
            <path fill-rule="nonzero" fill="#FFCFCF" id="Shape" d="M194.466,138.087 C196.451,161.846 206.355,161.351 210.426,171.358 C216.414,186.074 212.717,201.886 212.717,201.886 L234.842,201.886 C234.842,201.886 248.931,156.769 243,128.172"></path>
            <path fill-rule="nonzero" fill="#EBBFBF" id="Shape" d="M202.44,133.914 C202.44,133.914 206.362,151.577 211.6,156.816 C216.839,162.055 226.653,183.41 220.434,202.059 L213.565,201.733 C213.565,201.733 216.508,172.521 206.041,165.323 C195.569,158.126 194.263,135.641 194.263,135.641 L202.44,133.914 Z"></path>
        </g>
    </g>
</svg>