<svg xmlns:xlink="http://www.w3.org/1999/xlink" xmlns="http://www.w3.org/2000/svg" version="1.1" viewBox="0 0 206 254" height="254px" width="206px">
    
    <title>狗</title>
    <desc>Created with Sketch.</desc>
    <defs></defs>
    <g fill-rule="evenodd" fill="none" stroke-width="1" stroke="none" id="Page-1">
        <g fill-rule="nonzero" id="狗">
            <ellipse ry="17.668" rx="74" cy="236.309" cx="112.5" opacity="0.1" fill="#6E6E96" id="Oval"></ellipse>
            <path fill="#D4A5A5" id="Shape" d="M195.879,182.01 C187.702,197.489 176.717,210.387 152.643,204.833 L159.446,187.448 C159.446,187.448 166.543,191.785 179.694,173.484 C179.694,173.484 189.462,150.444 198.899,165.719 C198.898,165.721 201.951,170.844 195.879,182.01 Z"></path>
            <path fill="#C29797" id="Shape" d="M160.805,195.909 C160.805,195.909 168.399,201.521 178.634,191.286 C188.869,181.052 197.55,167.641 194.635,164.069 C194.635,164.069 207.362,175.106 183.917,198.548 C183.917,198.548 162.208,209.737 154.875,205.111 C147.543,200.483 154.187,205.799 154.187,205.799 L160.805,195.909 Z"></path>
            <path fill="#D4A5A5" id="Shape" d="M149.053,166.791 C133.686,144.607 128.834,139.649 121.063,127.723 C115.43,119.074 114.092,117.152 119.78,114.338 C133.617,107.49 97.479,101.942 97.479,101.942 C85.888,90.354 44.699,124.522 58.267,123.69 C67.844,123.104 73.221,131.164 70.891,133.492 C70.523,133.856 70.261,134.332 70.068,134.883 C68.699,135.978 67.304,137.404 65.887,139.222 C65.887,139.222 53.982,157.993 65.887,179.053 C77.789,200.116 75.5,234.914 75.5,234.914 L91.068,237.203 C91.068,237.203 101.401,220.552 93.206,197.963 C104.52,211.557 126.707,245.377 135.479,246.632 C148.811,248.535 167.632,239.317 167.632,210.925 C167.632,189.623 161.234,184.363 149.053,166.791 Z"></path>
            <path fill="#BA9191" id="Shape" d="M142.188,156.783 C142.188,156.783 160.266,184.309 157.958,208.045 C155.645,231.781 148.467,226.753 148.467,226.753 C148.467,226.753 158.916,236.08 154.851,241.513 C154.851,241.513 178.049,225.534 166.449,197.963 C154.848,170.394 142.188,156.783 142.188,156.783 Z"></path>
            <path fill="#C29797" id="Shape" d="M65.886,179.053 C65.886,179.053 58.705,144.262 77.28,134.176 C95.858,124.092 117.18,118.981 143.803,159.416 C136.115,142.874 109.099,118.102 119.5,111.065 C100.5,116.065 82.5,121.065 63.78,124.357 C63.78,124.357 72.098,131.308 65.883,139.222 C59.667,147.132 58.957,165.171 65.886,179.053 Z"></path>
            <path fill="#C29797" id="Shape" d="M94.523,200.264 C94.523,200.264 100.339,220.349 93.501,231.888 L83.649,224.5 C83.649,224.5 94.795,217.603 85.773,193.714 C85.773,193.714 84.282,188.96 86.401,187.172 C87.379,186.348 89.126,184.332 92.141,187.349 C92.141,187.349 96.121,191.328 99.837,195.044 C103.552,198.757 88.021,165.815 95.786,153.977 C95.786,153.977 111.249,201.68 108.596,218.131"></path>
            <path fill="#BA9191" id="Shape" d="M142.445,223.185 C142.445,223.185 146.199,185.711 137.025,167.087 C137.025,167.087 145.822,201.134 125.349,229.005 C125.352,229.006 119.5,263.176 142.445,223.185 Z"></path>
            <path fill="#D4A5A5" id="Shape" d="M98.247,145.096 C111.972,131.368 139.144,153.636 139.144,185.46 C139.144,215.227 128.152,225.295 128.152,225.295 C128.152,249.106 112.586,247.733 112.586,247.733 L107.093,231.251 C113,192.01 99.5,172.954 99.5,172.954 C99.5,172.954 87.333,156.009 98.247,145.096 Z"></path>
            <path fill="#C29797" id="Shape" d="M111.092,205.421 C111.092,205.421 111.067,214.243 119.915,214.243 C128.763,214.243 143.118,159.108 109.936,146.428 C109.936,146.428 140.684,145.6 139.143,185.462 C139.875,213.301 132.278,224.798 128.621,228.181 C127.165,229.528 127.946,234.151 127.946,234.151 C127.946,234.151 119.086,222.917 109.155,225.962 L111.092,205.421 Z"></path>
            <path fill="#D4A5A5" id="Shape" d="M92.945,231.332 C94.956,236.591 90.374,242.524 82.709,244.592 C75.043,246.653 67.144,246.38 65.132,241.119 C63.123,235.859 67.764,227.598 75.425,225.537 C83.092,223.475 90.932,226.072 92.945,231.332 Z"></path>
            <path fill="#D4A5A5" id="Shape" d="M127.924,232.615 C129.957,238.959 128.578,244.003 120.245,246.677 C111.914,249.344 99.783,248.633 97.753,242.288 C95.716,235.946 100.824,228.634 109.154,225.961 C117.49,223.289 125.895,226.265 127.924,232.615 Z"></path>
            <path fill="#C29797" id="Shape" d="M99.439,232.94 C99.439,232.94 95.941,244.909 111.07,240.563 C122.396,238.795 123.563,227.184 123.563,227.184 C123.563,227.184 137.558,239.305 120.245,246.674 C102.934,254.046 90.966,242.168 99.439,232.94 Z"></path>
            <path fill="#C29797" id="Shape" d="M68.234,230.029 C68.234,230.029 65.779,239.893 76.042,238.477 C86.303,237.062 86.303,228.51 86.303,228.51 C86.303,228.51 101.788,229.378 89.241,241.925 C76.071,251.122 53.725,244.533 68.234,230.029 Z"></path>
            <ellipse ry="10.8389462" rx="12.6219374" cy="237.644091" cx="139.027251" transform="translate(139.027251, 237.644091) rotate(152.276684) translate(-139.027251, -237.644091)" fill="#D4A5A5" id="Oval"></ellipse>
            <path fill="#D4A5A5" id="Shape" d="M77.827,214.727 L77.827,232.581 C77.827,232.581 89.281,237.841 89.281,211.348 L77.827,214.727 Z"></path>
            <path fill="#D4A5A5" id="Shape" d="M111.07,205.039 L107.757,233.245 L121.946,230.977 C121.946,230.977 130.909,212.477 130.159,191.434 C129.409,170.391 111.07,205.039 111.07,205.039 Z"></path>
            <path fill="#BA9191" id="Shape" d="M130.911,233.457 C130.911,233.457 128.502,242.985 137.478,240.022 C146.457,237.06 147.159,228.005 143.851,227.782 C140.538,227.554 158.083,225.432 152.142,239.159 C146.201,252.886 118.813,252.477 130.911,233.457 Z"></path>
            <path fill="#D4A5A5" id="Shape" d="M130.911,233.457 C130.911,233.457 142.053,220.703 143.164,209.591 L154.502,223.365 C154.502,223.365 138.98,249.566 130.911,233.457 Z"></path>
            <path fill="#BA9191" id="Shape" d="M153.79,224.615 C153.79,224.615 153.167,229.713 142.96,237.251 L142.537,247.605 C142.537,247.605 155.167,244.418 160.771,235.471 L153.79,224.615 Z"></path>
            <path fill="#C29797" id="Shape" d="M88.436,222.087 L86.298,228.646 C86.298,228.646 85.699,233.827 82.488,235.944 C82.488,235.944 89.776,237.229 90.574,235.007 C91.372,232.786 93.324,221.401 93.324,221.401 L88.436,222.087 Z"></path>
            <circle r="10.5" cy="188.851" cx="10.5" opacity="0.44" fill="#00A33D" id="Oval"></circle>
            <circle r="5.5" cy="124.851" cx="176.5" opacity="0.44" fill="#00A0C6" id="Oval"></circle>
            <circle r="9" cy="61.351" cx="197" opacity="0.33" fill="#FFBF00" id="Oval"></circle>
            <path fill="#D4A5A5" id="Shape" d="M79.697,66.548 C65.009,88.406 47.007,93.823 34.801,85.62 C22.595,77.418 20.806,58.704 35.494,36.846 C50.182,14.986 81.324,-2.491 90.062,3.381 C98.799,9.252 94.386,44.689 79.697,66.548 Z"></path>
            <path fill="#BA9191" id="Shape" d="M62.011,16.818 C62.011,16.818 30.5,45.386 37.616,85.78 L67.745,72.88 L62.011,16.818 Z"></path>
            <path fill="#D4A5A5" id="Shape" d="M158.917,61.408 C155.104,97.565 144.844,111.159 103.609,117.536 C71.588,122.486 43.143,131.758 34.726,114.098 C20.727,83.824 51.816,92.172 45.302,72.035 C40.326,22.795 72.295,0.79 106.111,1.518 C139.93,2.246 162.547,26.983 158.917,61.408 Z"></path>
            <path fill="#BA9191" id="Shape" d="M110.357,55.049 L125.669,112.772 C125.669,112.772 66.452,129.24 45.998,123.864 C45.998,123.864 27.346,121.356 31.736,96.346 L56.684,93.36 C56.684,93.36 52.411,99.563 51.169,104.949 C50.235,109.005 61.68,99.05 66.499,105.428 C68.136,107.595 66.478,112.044 66.478,112.044 C66.478,112.044 95.03,109.65 97.878,99.321 C104.404,75.652 101.803,63.603 110.357,55.049"></path>
            <path fill="#DBB1B1" id="Shape" d="M41.976,85.12 C40.036,88.958 36.203,86.488 31.736,96.346 C31.736,96.346 31.789,105.294 39.284,106.339 C46.78,107.385 62.021,95.185 59.131,76.728 C52.988,37.503 95.657,-15.878 141.447,14.24 C141.447,14.24 129.115,4.369 118.914,2.774 C102.598,-3.151 73.612,1.324 59.403,19.887 C35.834,49.425 50.385,68.488 41.976,85.12 Z"></path>
            <path fill="#BA9191" id="Shape" d="M162.282,77.137 C159.519,103.326 146.138,116.533 131.511,114.99 C116.888,113.448 106.556,97.743 109.318,71.552 C112.082,45.362 131.437,15.351 141.904,16.454 C152.376,17.56 165.045,50.948 162.282,77.137 Z"></path>
            <path fill="#D4A5A5" id="Shape" d="M155.16,63.551 C152.677,86.295 140.151,97.711 126.395,96.31 C112.643,94.911 102.862,81.222 105.344,58.478 C107.827,35.734 125.893,9.741 135.74,10.744 C145.591,11.747 157.644,40.808 155.16,63.551 Z"></path>
            <ellipse ry="8.018" rx="5.949" cy="52.333" cx="81.282" fill="#6E6E96" id="Oval"></ellipse>
            <path opacity="0.21" fill="#FFFFFF" id="Shape" d="M92.786,72.349 C92.786,75.581 88.265,74.984 82.687,74.984 C77.109,74.984 72.588,75.584 72.588,72.349 C72.588,69.114 77.109,66.495 82.687,66.495 C88.265,66.494 92.786,69.115 92.786,72.349 Z"></path>
        </g>
    </g>
</svg>