<svg xmlns:xlink="http://www.w3.org/1999/xlink" xmlns="http://www.w3.org/2000/svg" version="1.1" viewBox="0 0 218 201" height="201px" width="218px">
    
    <title>猪</title>
    <desc>Created with Sketch.</desc>
    <defs></defs>
    <g fill-rule="evenodd" fill="none" stroke-width="1" stroke="none" id="Page-1">
        <g fill-rule="nonzero" id="猪">
            <path opacity="0.27" fill="#6E6E96" id="Shape" d="M211.921,106.779 L211.921,153.851 C211.921,155.205 213.02,156.303 214.373,156.303 C215.726,156.303 216.824,155.203 216.824,153.851 L216.824,106.779 C216.824,105.425 215.726,104.327 214.373,104.327 C213.02,104.327 211.921,105.425 211.921,106.779 Z"></path>
            <path fill="#FFE8B0" id="Shape" d="M116.199,11.397 C70.32,11.397 41.564,30.115 26.894,56.378 C8.084,91.148 0.952,64.316 0.952,106.705 C0.952,139.034 6.807,124.492 28.312,144.381 C30.229,146.735 32.34,148.942 34.613,151.025 L34.579,151.011 C34.579,151.011 46.536,164.949 54.514,190.752 C58.107,202.373 74.359,201.085 77.248,188.308 C80.407,182.146 81.037,177.079 86.858,177.079 C94.813,179.183 103.876,180.38 113.5,180.38 C123.635,180.38 133.145,179.055 141.395,176.735 C150.507,176.735 151.375,184.096 151.375,191.627 C151.375,201.985 164.87,201.121 174.109,192.575 C199.372,169.21 210.73,137.623 214.388,125.377 C214.872,123.856 215.304,122.298 215.675,120.704 C215.752,120.391 215.789,120.225 215.789,120.225 C216.86,115.475 217.425,110.412 217.425,105.024 C221.607,56.564 185.652,11.397 116.199,11.397 Z"></path>
            <path fill="#FFF2B8" id="Shape" d="M199.818,72.319 C199.818,106.677 171.786,134.532 122.556,134.532 C91.788,134.532 52.785,123.651 36.767,107.103 C27.156,97.171 -1.445,100.666 4.14,89.722 C8.753,80.682 14.337,74.373 22.156,64.267 C40.812,40.151 71.968,14.127 106.656,14.127 C155.887,14.13 199.818,37.96 199.818,72.319 Z"></path>
            <path fill="#F2DBA2" id="Shape" d="M146.096,157.467 C146.096,157.467 156.145,182.313 163.257,182.313 C180.119,182.313 176.986,167.113 185.651,149.294 C190.299,139.731 214.007,135.688 214.007,82.831 C214.007,82.831 225.991,126.029 192.843,170.676 C185.028,181.201 179.469,195.006 160.479,199.964 C160.479,199.964 149.86,202.776 149.86,184.98 C149.86,170.554 136.639,182.834 113.504,180.381 C89.001,180.381 82.779,171.613 76.046,191.716 C76.046,191.716 64.32,209.568 54.518,190.755 C43.027,176.198 45.573,149.8 11.823,133.039 C11.823,133.039 1.16,131.171 1.16,115.41 C1.16,115.41 40.836,119.547 50.644,142.431 C56.183,155.357 53.559,183.015 66.338,183.292 C76.78,183.521 76.57,157.467 84.641,157.467 C84.638,157.467 109.809,170.87 146.096,157.467 Z"></path>
            <path fill="#FFF2B8" id="Shape" d="M49.287,55.059 C37.781,40.682 40.109,19.698 54.487,8.192 C68.865,-3.314 89.848,-0.986 101.354,13.392 C112.86,27.77 110.532,48.752 96.154,60.26"></path>
            <circle r="5.557" cy="80.645" cx="46.391" fill="#6E6E96" id="Oval"></circle>
            <path fill="#F2E2BA" id="Shape" d="M57.43,22.575 C71.808,11.069 92.791,13.397 104.297,27.775 C105.749,29.588 106.98,31.511 107.995,33.504 C107.781,26.538 105.391,19.58 100.701,13.722 C89.195,-0.658 68.212,-2.984 53.834,8.522 C41.271,18.576 37.909,35.865 44.937,49.662 C44.625,39.534 48.912,29.391 57.43,22.575 Z"></path>
            <path fill="#F2E2BA" id="Shape" d="M92.708,60.26 C92.708,60.26 88.471,65.861 95.098,67.57 C101.725,69.278 130.433,44.959 116.199,13.849 L102.944,14.612 C102.944,14.612 116.307,44.124 92.708,60.26 Z"></path>
            <path fill="#FFFFFF" id="Shape" d="M179.134,64.692 C175.758,72.256 164.231,63.769 153.387,58.93 C142.544,54.09 136.491,54.733 139.866,47.167 C143.241,39.603 154.769,37.393 165.613,42.231 C176.456,47.072 182.51,57.127 179.134,64.692 Z"></path>
        </g>
    </g>
</svg>