<svg viewBox="0 0 580.96 580.11" xmlns:xlink="http://www.w3.org/1999/xlink" xmlns="http://www.w3.org/2000/svg"><defs><style>.cls-1,.cls-13,.cls-14{fill:none;}.cls-2{fill:#a5d7d3;opacity:0.8;}.cls-3{fill:#f59a00;}.cls-4{fill:#1794a5;}.cls-5{fill:#009e8f;}.cls-6{clip-path:url(#clip-path);}.cls-7{fill:#54a8ba;}.cls-8{clip-path:url(#clip-path-2);}.cls-9{fill:#007e97;}.cls-10{fill:#fde3d8;}.cls-11{fill:#005560;}.cls-12{fill:#fff;}.cls-13{stroke:#e2d68a;}.cls-13,.cls-14,.cls-15{stroke-miterlimit:10;}.cls-13,.cls-14{stroke-width:8.36px;}.cls-14{stroke:#fcfcfc;}.cls-15{fill:#f8d590;stroke:#050505;stroke-width:6.94px;}</style><clipPath id="clip-path"><path d="M246,421.86l8.82.71-4.47,37.15c-.32,2.71-.64,5.53.3,8.09,1.92,5.25,8.29,7.38,13.87,7.39s11.24-1.36,16.7-.2c.82,6.23,6,11.26,12,13.29s12.49,1.47,18.59,0a64.5,64.5,0,0,0,26.91-13.87c1.64-1.43,3.27-3,5.33-3.69,2.25-.78,4.71-.47,7.09-.47,12.37,0,23.14-8.31,31.62-17.32,26.16-27.8,40.46-65.64,42.86-103.74.68-10.77.43-21.79-2.88-32.07s-9.36-19.13-15.83-27.6c-5.35-7-11.2-13.92-18.89-18.23-7-3.92-15.11-5.42-23.12-6.07a124.27,124.27,0,0,0-85.9,25.82c-3.31,2.59-6.57,5.47-8.44,9.23-2,4-2.23,8.61-2.24,13.07,0,14.89,2.06,30-.89,44.56C262.88,380.05,247.13,399.3,246,421.86Z" class="cls-1"></path></clipPath><clipPath id="clip-path-2"><path d="M497.84,364.82a135.19,135.19,0,0,0-12.9-33.7c-36.67-67.24-122.38-91.22-191.43-53.57s-95.3,122.7-58.63,189.94a135.61,135.61,0,0,0,21.46,29.22c49,7.44,95.89-6.53,139.82-30.93C439.34,442.68,477.25,410.36,497.84,364.82Z" class="cls-2"></path></clipPath></defs><title>reading</title><g id="Layer_2"><g id="Layer_1-2"><g id="reading"><path d="M212.93,557.47,197.41,544l-1.26-38.52a9.38,9.38,0,0,0-18.75.61l1.21,37.1a8.43,8.43,0,0,0-2.32,2l-12.92,16.49a8.76,8.76,0,1,0,13.79,10.8l3.75-4.78.12,3.92a8.76,8.76,0,1,0,17.51-.57l-.1-3,3,2.61a8.76,8.76,0,0,0,11.49-13.22Z" class="cls-3"></path><path d="M324.8,553.82l-15.53-13.49L308,501.81a9.38,9.38,0,0,0-18.75.61l1.21,37.1a8.3,8.3,0,0,0-2.32,2L275.24,558A8.76,8.76,0,0,0,289,568.85l3.75-4.78.12,3.92a8.76,8.76,0,0,0,17.51-.57l-.1-3,3,2.61a8.75,8.75,0,0,0,11.48-13.22Z" class="cls-3"></path><path d="M535.62,296.5c13.41-5.23-34.68-28.7-90.85-35.58S301.42,310,300.9,389.06s84.57,70.53,84.57,70.53c60.13-20.88,103.74-35.73,122.87-41.14.49-.14,11.92-4.87,34.77-14.33,9.17-3.8,13.76-5.76,14.12-9.18.9-8.63-25.38-20.15-25-19.89,0,0,36.54,7.34,47.4.6s-49.6-34.77-49.6-34.77,26.61-2.57,37.64-12.49-70.71-21.84-76-21.66S522.21,301.73,535.62,296.5Z" class="cls-4"></path><path d="M54.39,461.46c-7.44,1.86-59.56-9.31-54,0S58.11,511.71,138.14,521s209.07,3.87,270.49-94.77c59.71-95.9,40.33-251.4-97.26-273.3-8.24-1.31-16.54-2-24.77-.66-22.34,3.73-66.63,15.6-87,52.34C171.64,254.87,166.06,444.71,41.36,441,41.36,441,61.84,459.6,54.39,461.46Z" class="cls-5"></path><g class="cls-6"><path d="M497.84,364.82a135.19,135.19,0,0,0-12.9-33.7c-36.67-67.24-122.38-91.22-191.43-53.57s-95.3,122.7-58.63,189.94a135.61,135.61,0,0,0,21.46,29.22c49,7.44,95.89-6.53,139.82-30.93C439.34,442.68,477.25,410.36,497.84,364.82Z" class="cls-7"></path><path d="M497.84,364.82a135.19,135.19,0,0,0-12.9-33.7c-36.67-67.24-122.38-91.22-191.43-53.57s-95.3,122.7-58.63,189.94a135.61,135.61,0,0,0,21.46,29.22c49,7.44,95.89-6.53,139.82-30.93C439.34,442.68,477.25,410.36,497.84,364.82Z" class="cls-2"></path><g class="cls-8"><polygon points="258.81 355.4 233.53 369.18 253.5 375.06 258.81 355.4" class="cls-9"></polygon><polygon points="287.06 339.99 261.78 353.78 281.74 359.65 287.06 339.99" class="cls-9"></polygon><polygon points="315.31 324.58 290.03 338.37 309.99 344.25 315.31 324.58" class="cls-9"></polygon><polygon points="343.56 309.18 318.27 322.97 338.24 328.84 343.56 309.18" class="cls-9"></polygon><polygon points="371.8 293.78 346.52 307.56 366.49 313.44 371.8 293.78" class="cls-9"></polygon><polygon points="400.06 278.37 374.77 292.16 394.74 298.03 400.06 278.37" class="cls-9"></polygon><polygon points="428.3 262.96 403.02 276.75 422.98 282.63 428.3 262.96" class="cls-9"></polygon><polygon points="230.56 370.8 205.28 384.59 225.25 390.46 230.56 370.8" class="cls-9"></polygon><polygon points="263.72 330.8 238.44 344.58 258.4 350.46 263.72 330.8" class="cls-9"></polygon><polygon points="291.97 315.39 266.68 329.18 286.65 335.05 291.97 315.39" class="cls-9"></polygon><polygon points="320.22 299.99 294.94 313.77 314.9 319.65 320.22 299.99" class="cls-9"></polygon><polygon points="348.46 284.58 323.18 298.37 343.14 304.24 348.46 284.58" class="cls-9"></polygon><polygon points="376.71 269.18 351.43 282.96 371.39 288.84 376.71 269.18" class="cls-9"></polygon><polygon points="404.96 253.77 379.68 267.56 399.64 273.43 404.96 253.77" class="cls-9"></polygon><polygon points="235.47 346.2 210.19 359.99 230.15 365.86 235.47 346.2" class="cls-9"></polygon><polygon points="461.46 222.96 436.18 236.75 456.14 242.62 461.46 222.96" class="cls-9"></polygon><polygon points="217.04 312.41 191.76 326.2 211.72 332.07 217.04 312.41" class="cls-9"></polygon><polygon points="245.29 297 220.01 310.79 239.97 316.66 245.29 297" class="cls-9"></polygon><polygon points="273.54 281.6 248.26 295.39 268.22 301.26 273.54 281.6" class="cls-9"></polygon><polygon points="301.79 266.19 276.51 279.98 296.47 285.85 301.79 266.19" class="cls-9"></polygon><polygon points="330.04 250.79 304.75 264.58 324.71 270.45 330.04 250.79" class="cls-9"></polygon><polygon points="358.28 235.38 333 249.17 352.97 255.04 358.28 235.38" class="cls-9"></polygon><polygon points="386.53 219.98 361.25 233.77 381.21 239.64 386.53 219.98" class="cls-9"></polygon><polygon points="188.79 327.82 163.51 341.6 183.48 347.47 188.79 327.82" class="cls-9"></polygon><polygon points="443.03 189.17 417.75 202.96 437.71 208.82 443.03 189.17" class="cls-9"></polygon><polygon points="414.78 204.57 389.5 218.36 409.46 224.23 414.78 204.57" class="cls-9"></polygon><polygon points="240.38 321.6 215.1 335.39 235.06 341.26 240.38 321.6" class="cls-9"></polygon><polygon points="268.63 306.2 243.35 319.99 263.31 325.86 268.63 306.2" class="cls-9"></polygon><polygon points="296.88 290.79 271.6 304.58 291.56 310.45 296.88 290.79" class="cls-9"></polygon><polygon points="325.13 275.39 299.84 289.18 319.81 295.05 325.13 275.39" class="cls-9"></polygon><polygon points="353.37 259.98 328.09 273.77 348.06 279.64 353.37 259.98" class="cls-9"></polygon><polygon points="381.63 244.57 356.34 258.36 376.31 264.24 381.63 244.57" class="cls-9"></polygon><polygon points="212.13 337.01 186.85 350.8 206.82 356.67 212.13 337.01" class="cls-9"></polygon><polygon points="466.37 198.36 441.08 212.15 461.05 218.02 466.37 198.36" class="cls-9"></polygon><polygon points="438.12 213.77 412.84 227.55 432.8 233.43 438.12 213.77" class="cls-9"></polygon><polygon points="294.19 423.79 268.9 437.58 288.87 443.46 294.19 423.79" class="cls-9"></polygon><polygon points="322.44 408.39 297.15 422.18 317.12 428.05 322.44 408.39" class="cls-9"></polygon><polygon points="350.68 392.99 325.4 406.77 345.37 412.64 350.68 392.99" class="cls-9"></polygon><polygon points="378.93 377.58 353.65 391.37 373.61 397.24 378.93 377.58" class="cls-9"></polygon><polygon points="407.18 362.18 381.9 375.96 401.86 381.83 407.18 362.18" class="cls-9"></polygon><polygon points="435.43 346.77 410.15 360.56 430.11 366.43 435.43 346.77" class="cls-9"></polygon><polygon points="463.68 331.36 438.4 345.15 458.36 351.02 463.68 331.36" class="cls-9"></polygon><polygon points="265.94 439.2 240.66 452.99 260.62 458.86 265.94 439.2" class="cls-9"></polygon><polygon points="237.69 454.61 212.41 468.39 232.37 474.27 237.69 454.61" class="cls-9"></polygon><polygon points="520.17 300.56 494.89 314.34 514.85 320.21 520.17 300.56" class="cls-9"></polygon><polygon points="491.93 315.96 466.64 329.75 486.61 335.62 491.93 315.96" class="cls-9"></polygon><polygon points="215.83 444.6 190.55 458.39 210.51 464.26 215.83 444.6" class="cls-9"></polygon><polygon points="299.1 399.19 273.82 412.98 293.78 418.86 299.1 399.19" class="cls-9"></polygon><polygon points="327.34 383.79 302.06 397.58 322.02 403.45 327.34 383.79" class="cls-9"></polygon><polygon points="355.59 368.38 330.31 382.17 350.28 388.04 355.59 368.38" class="cls-9"></polygon><polygon points="383.84 352.98 358.56 366.76 378.52 372.64 383.84 352.98" class="cls-9"></polygon><polygon points="412.09 337.57 386.81 351.36 406.77 357.23 412.09 337.57" class="cls-9"></polygon><polygon points="440.34 322.17 415.06 335.95 435.02 341.83 440.34 322.17" class="cls-9"></polygon><polygon points="468.59 306.76 443.31 320.55 463.26 326.43 468.59 306.76" class="cls-9"></polygon><polygon points="270.85 414.6 245.57 428.39 265.53 434.26 270.85 414.6" class="cls-9"></polygon><polygon points="242.6 430 217.32 443.79 237.28 449.67 242.6 430" class="cls-9"></polygon><polygon points="496.83 291.36 471.55 305.14 491.51 311.02 496.83 291.36" class="cls-9"></polygon><polygon points="195.92 411.61 170.64 425.4 190.6 431.28 195.92 411.61" class="cls-9"></polygon><polygon points="252.42 380.81 227.14 394.59 247.1 400.47 252.42 380.81" class="cls-9"></polygon><polygon points="280.67 365.4 255.38 379.19 275.35 385.06 280.67 365.4" class="cls-9"></polygon><polygon points="308.91 349.99 283.63 363.78 303.6 369.65 308.91 349.99" class="cls-9"></polygon><polygon points="337.16 334.59 311.88 348.38 331.84 354.25 337.16 334.59" class="cls-9"></polygon><polygon points="365.41 319.18 340.13 332.97 360.09 338.85 365.41 319.18" class="cls-9"></polygon><polygon points="393.66 303.78 368.38 317.56 388.35 323.44 393.66 303.78" class="cls-9"></polygon><polygon points="421.91 288.37 396.63 302.16 416.59 308.03 421.91 288.37" class="cls-9"></polygon><polygon points="224.17 396.21 198.89 410 218.85 415.87 224.17 396.21" class="cls-9"></polygon><polygon points="450.16 272.97 424.87 286.75 444.84 292.63 450.16 272.97" class="cls-9"></polygon><polygon points="275.76 390 250.47 403.79 270.44 409.66 275.76 390" class="cls-9"></polygon><polygon points="304 374.59 278.72 388.38 298.69 394.26 304 374.59" class="cls-9"></polygon><polygon points="332.25 359.19 306.97 372.98 326.94 378.85 332.25 359.19" class="cls-9"></polygon><polygon points="360.5 343.78 335.22 357.57 355.18 363.45 360.5 343.78" class="cls-9"></polygon><polygon points="388.75 328.38 363.46 342.17 383.43 348.04 388.75 328.38" class="cls-9"></polygon><polygon points="416.99 312.97 391.71 326.76 411.68 332.63 416.99 312.97" class="cls-9"></polygon><polygon points="445.25 297.57 419.96 311.35 439.93 317.23 445.25 297.57" class="cls-9"></polygon><polygon points="247.5 405.4 222.23 419.19 242.19 425.07 247.5 405.4" class="cls-9"></polygon><polygon points="219.26 420.81 193.98 434.6 213.94 440.47 219.26 420.81" class="cls-9"></polygon><polygon points="501.74 266.76 476.46 280.55 496.42 286.42 501.74 266.76" class="cls-9"></polygon><polygon points="473.49 282.16 448.21 295.95 468.18 301.82 473.49 282.16" class="cls-9"></polygon><polygon points="302.8 506.79 277.52 520.57 297.48 526.45 302.8 506.79" class="cls-9"></polygon><polygon points="331.05 491.38 305.76 505.17 325.73 511.04 331.05 491.38" class="cls-9"></polygon><polygon points="359.3 475.98 334.01 489.76 353.98 495.64 359.3 475.98" class="cls-9"></polygon><polygon points="387.54 460.57 362.26 474.36 382.23 480.23 387.54 460.57" class="cls-9"></polygon><polygon points="415.79 445.17 390.51 458.95 410.47 464.83 415.79 445.17" class="cls-9"></polygon><polygon points="444.04 429.76 418.76 443.55 438.72 449.42 444.04 429.76" class="cls-9"></polygon><polygon points="472.29 414.36 447.01 428.14 466.97 434.02 472.29 414.36" class="cls-9"></polygon><polygon points="500.54 398.95 475.26 412.74 495.22 418.61 500.54 398.95" class="cls-9"></polygon><polygon points="532.21 359.75 506.93 373.54 526.89 379.42 532.21 359.75" class="cls-9"></polygon><polygon points="307.71 482.19 282.43 495.97 302.39 501.85 307.71 482.19" class="cls-9"></polygon><polygon points="335.95 466.78 310.67 480.57 330.64 486.44 335.95 466.78" class="cls-9"></polygon><polygon points="364.2 451.38 338.92 465.16 358.89 471.04 364.2 451.38" class="cls-9"></polygon><polygon points="392.45 435.97 367.17 449.76 387.14 455.63 392.45 435.97" class="cls-9"></polygon><polygon points="420.7 420.56 395.42 434.35 415.38 440.23 420.7 420.56" class="cls-9"></polygon><polygon points="448.95 405.16 423.67 418.95 443.63 424.82 448.95 405.16" class="cls-9"></polygon><polygon points="477.2 389.75 451.92 403.54 471.88 409.42 477.2 389.75" class="cls-9"></polygon><polygon points="279.46 497.59 254.18 511.38 274.14 517.25 279.46 497.59" class="cls-9"></polygon><polygon points="251.21 513 225.93 526.78 245.89 532.66 251.21 513" class="cls-9"></polygon><polygon points="505.45 374.35 480.17 388.13 500.13 394.01 505.45 374.35" class="cls-9"></polygon><polygon points="514.62 325.5 489.34 339.29 509.3 345.16 514.62 325.5" class="cls-9"></polygon><polygon points="261.03 463.8 235.75 477.58 255.71 483.46 261.03 463.8" class="cls-9"></polygon><polygon points="289.28 448.39 264 462.18 283.96 468.05 289.28 448.39" class="cls-9"></polygon><polygon points="317.53 432.99 292.25 446.77 312.21 452.65 317.53 432.99" class="cls-9"></polygon><polygon points="345.77 417.58 320.49 431.37 340.46 437.24 345.77 417.58" class="cls-9"></polygon><polygon points="374.02 402.18 348.74 415.96 368.71 421.84 374.02 402.18" class="cls-9"></polygon><polygon points="402.27 386.77 376.99 400.56 396.95 406.43 402.27 386.77" class="cls-9"></polygon><polygon points="430.52 371.37 405.24 385.15 425.21 391.02 430.52 371.37" class="cls-9"></polygon><polygon points="232.78 479.2 207.5 492.99 227.47 498.86 232.78 479.2" class="cls-9"></polygon><polygon points="487.02 340.55 461.74 354.34 481.7 360.22 487.02 340.55" class="cls-9"></polygon><polygon points="458.77 355.96 433.49 369.75 453.45 375.62 458.77 355.96" class="cls-9"></polygon><polygon points="284.37 472.99 259.09 486.78 279.05 492.65 284.37 472.99" class="cls-9"></polygon><polygon points="312.62 457.58 287.33 471.37 307.3 477.25 312.62 457.58" class="cls-9"></polygon><polygon points="340.86 442.18 315.58 455.97 335.55 461.84 340.86 442.18" class="cls-9"></polygon><polygon points="369.11 426.78 343.83 440.56 363.8 446.44 369.11 426.78" class="cls-9"></polygon><polygon points="397.36 411.37 372.08 425.16 392.04 431.03 397.36 411.37" class="cls-9"></polygon><polygon points="425.61 395.96 400.33 409.75 420.29 415.63 425.61 395.96" class="cls-9"></polygon><polygon points="453.86 380.56 428.58 394.35 448.54 400.22 453.86 380.56" class="cls-9"></polygon><polygon points="256.12 488.4 230.84 502.18 250.8 508.06 256.12 488.4" class="cls-9"></polygon><polygon points="537.12 335.15 511.84 348.94 531.8 354.81 537.12 335.15" class="cls-9"></polygon><polygon points="510.35 349.75 485.07 363.54 505.04 369.41 510.35 349.75" class="cls-9"></polygon><polygon points="482.11 365.15 456.83 378.94 476.79 384.82 482.11 365.15" class="cls-9"></polygon></g></g><path d="M68.59,495.35c-6.26-2-14.27-2.79-19.85-.38a277.54,277.54,0,0,0,89.4,26c80,9.31,209.07,3.87,270.49-94.77,59.71-95.9,40.33-251.4-97.26-273.3-8.24-1.31-16.54-2-24.77-.66-22.34,3.73-66.63,15.6-87,52.34-6,10.86-11,28.26-16.4,48.81,31.93,7.29,60.9,35.76,94.88,39.91,24.23,3,47.94-6.82,71.9-11.5a173.87,173.87,0,0,1,48.3-2.57c7.54.65,15.68,2.11,20.79,7.69,4.75,5.19,5.77,12.71,6.11,19.73,1.53,30.7-5.51,61.39-17,89.88-4.67,11.55-10.11,22.86-17.3,33-19.24,27.28-50,44.78-82.1,53.9s-65.84,10.62-99.21,11.35l8.76,11.65A148.23,148.23,0,0,1,140,503.37a29.1,29.1,0,0,1,3,11.79C117.2,516.08,93.22,503.17,68.59,495.35Z" class="cls-5"></path><path d="M130.18,162.18l7.12.93.32,27.39s8.08-3.14,9.14.91,9.42,24.24,24.87,43.33,100.92,39.4,128.4,46.17,127.43-35,145.55-47.38,28-37.88,31-36.9,7.16,5,9.15,1.92-3.43-32.43-3.43-32.43l8.16,2.95s-6.41-27.32-12.72-45.51-24.94-61.11-25-64.15,7-4.14,12-11.3,6.86-20.38,6.86-20.38-10.06,7.22-7.1.09,4.83-20.36,4.83-20.36-30.49,23.86-42.63,27.05-24,10.79-48.39,10.07-64.8,11.93-64.8,11.93-21.46-12.94-59-13.51S170.82-4.71,168.85.39s7.42,26.29,7.42,26.29l-13.73-8.47c-5.66,8.05,16,31.78,16,31.78s-18.94,28.64-32.78,59.24S130.18,162.18,130.18,162.18Z" class="cls-5"></path><path d="M311.64,205.07a85.32,85.32,0,1,0,0-115.34,85.32,85.32,0,1,0,0,115.34Z" class="cls-2"></path><path d="M312.65,241.22s12.59-29.66,33.26-40.45S312.65,172,312.65,172s-53.92,18-33.25,28.76S312.65,241.22,312.65,241.22Z" class="cls-3"></path><path d="M311.64,169.38a66.59,66.59,0,1,0,0-44,66.59,66.59,0,1,0,0,44Z" class="cls-10"></path><circle r="43.14" cy="164.48" cx="252.89" class="cls-11"></circle><path d="M288.84,153.69A15.28,15.28,0,1,0,273.56,169,15.28,15.28,0,0,0,288.84,153.69Z" class="cls-12"></path><path d="M245.25,181.55a8.54,8.54,0,1,0-8.54,8.54A8.54,8.54,0,0,0,245.25,181.55Z" class="cls-12"></path><circle r="43.14" cy="161.23" cx="373.77" class="cls-11"></circle><path d="M409.72,150.45a15.28,15.28,0,1,0-15.28,15.27A15.28,15.28,0,0,0,409.72,150.45Z" class="cls-12"></path><path d="M366.13,178.31a8.54,8.54,0,1,0-8.54,8.53A8.54,8.54,0,0,0,366.13,178.31Z" class="cls-12"></path><circle r="53.73" cy="161.23" cx="252.89" class="cls-13"></circle><circle r="53.73" cy="156.69" cx="373.77" class="cls-13"></circle><path d="M306.43,156.69s8.42-7,13.61,0" class="cls-14"></path><line y2="150.45" x2="199.16" y1="118.09" x1="142.01" class="cls-13"></line><line y2="107.5" x2="471.68" y1="153.69" x1="427.5" class="cls-13"></line><polygon points="509.47 289.82 432.9 332.38 346.01 293.67 327.81 435.88 437.71 464.32 498.64 421.06 509.47 289.82" class="cls-15"></polygon><line y2="342.13" x2="437.71" y1="360.53" x1="437.71" class="cls-15"></line><line y2="368.81" x2="437.71" y1="464.32" x1="437.71" class="cls-15"></line><path d="M328.67,305c14.07-4.09-33.91-32.14-91.15-44.11s-150,36.86-155.13,116.83,82.66,78.92,82.66,78.92c39.38-3.54,87.82-26,128.51-30.66s60.48,7.3,73.28,2.33-46.21-44.12-46.21-44.12,48.13,14.31,59.67,8.47-59.93-43.24-59.93-43.24,43,5.55,54.87-3.51-86.8-34.18-92.22-34.47S314.6,309.11,328.67,305Z" class="cls-9"></path><path d="M231.28,312.61c-5.89-13-58.33,13.23-65.85,15.47s1.48-6.43,7.13-18.9-23.78-.08-47.41,29.74-16,57.47-16,57.47c13.93,37.95,71.57,25.73,101.85,22.87s68.71-4.55,93-11.59-38.41-37-38.41-37,10.7-9,25.18-21.29-71.87-8.08-71.87-8.08S237.16,325.62,231.28,312.61Z" class="cls-2"></path></g></g></g></svg>