<svg viewBox="0 0 600 600" xmlns="http://www.w3.org/2000/svg"><defs><style>.cls-1{fill:#1a2020;}.cls-2{fill:#e9dfc8;}.cls-3{fill:#fffff1;}.cls-4{fill:#1d4057;}.cls-5{fill:#1b2121;}.cls-6{fill:#1b2020;}.cls-7{fill:#1e2323;}.cls-8{fill:#1f435b;}.cls-9{fill:#1f435a;}.cls-10{fill:#22445c;}.cls-11{fill:#23445c;}.cls-12{fill:#23455c;}.cls-13{fill:#d95132;}.cls-14{fill:#d75033;}.cls-15{fill:none;}</style></defs><g id="图层_2"><g id="图层_1-2"><path d="M303.48,120.32a476.45,476.45,0,0,1,99.92,9.88c20.78,4.36,41.1,10.24,60.53,18.93a142.57,142.57,0,0,1,25.86,14.62,70.66,70.66,0,0,1,15.15,14.4A38.8,38.8,0,0,1,513,200c1.19,20.26-3,39.48-10.5,58a230.93,230.93,0,0,1-54.54,80.67c-.81.78-2.08,1.39-2.4,2.33-2.23,6.5-9,6.87-13.53,10.3a2.82,2.82,0,0,1-1.25.48c-13.81,2.18-27,7.08-40.82,9.21a397.91,397.91,0,0,1-48.45,4.74,334.5,334.5,0,0,1-54.7-2.76c-21.52-2.88-42.57-7.69-62.63-16.28A129,129,0,0,1,194.67,329a29.12,29.12,0,0,1-4.58-5,233.46,233.46,0,0,1-21.19-31.37c-12.14-21.69-22.58-44.15-29.15-68.24a30,30,0,0,0-2.81-6.85c-3.32-5.92-4.71-12.16-2.59-18.86a18.58,18.58,0,0,0,.51-6q-.09-4.4,0-8.8c0-2.06.23-4.52,1.9-5.58,3-1.9,3.71-4.93,5.09-7.69a47.27,47.27,0,0,1,12.91-15.47,97.69,97.69,0,0,1,21.39-12.87c15.26-7,31.32-11.41,47.71-14.67A400.11,400.11,0,0,1,303.48,120.32Z" class="cls-1"></path><path d="M305.05,130.2c38.29.15,76.11,4.17,113.26,13.71,16.85,4.32,33.29,9.86,48.85,17.75a109.15,109.15,0,0,1,20.52,13.05A50.6,50.6,0,0,1,499,187.16c5.62,9.23,5.18,17.81-1.43,26.39a51.37,51.37,0,0,1-13.17,11.55c-9.16,5.93-19.12,10.12-29.43,13.51-16.56,5.44-33.56,8.78-50.81,11.1a432,432,0,0,1-73,3.44,464,464,0,0,1-85.86-10.55c-17.86-4-35.35-9.19-52.15-16.52a140.89,140.89,0,0,1-23.16-12.57,74.58,74.58,0,0,1-12.41-10.43,38.18,38.18,0,0,1-6.91-10c-3.25-6.89-2.71-13.56,1.1-20a40.8,40.8,0,0,1,11.09-11.73c8.94-6.7,19-11.23,29.43-15,16.2-5.83,32.95-9.43,49.93-11.88A415.61,415.61,0,0,1,305.05,130.2Z" class="cls-2"></path><path d="M154.46,235.89c.55,0,.83,0,1,.08,20.14,12.56,42.38,19.82,65.19,25.51a476.83,476.83,0,0,0,65.26,11.26A570.56,570.56,0,0,0,365,276.09c26.63-.87,53.12-3.17,79.2-9,13-2.93,25.77-6.58,37.84-12.31,4.23-2,8.3-4.36,12.43-6.55,1,1.52.11,2.7-.36,3.91a222.7,222.7,0,0,1-31.22,55.14,208.13,208.13,0,0,1-24.67,26.9,37.82,37.82,0,0,1-15.06,8.65,301.37,301.37,0,0,1-44.86,9.84,335.8,335.8,0,0,1-52,3.18c-25.58-.42-50.84-3.32-75.53-10.29a152.4,152.4,0,0,1-28.42-10.71,140.35,140.35,0,0,1-12.89-7.39,62.43,62.43,0,0,1-16.5-15.8c-15.87-21.89-27.79-45.82-37.61-70.89-.49-1.26-.86-2.57-1.25-3.86C154.06,236.7,154.24,236.47,154.46,235.89Z" class="cls-3"></path><path d="M349.19,265.64c-8.35,0-16.69,0-25,0-4.71,0-9.45.4-14.09-1.11-1.44-.47-3.13-.18-4.7-.22-4.27-.1-8.47-.07-12.74-1s-8.9-1-13.35-1.43c-10.27-1.06-20.44-2.71-30.56-4.55s-20.22-4-30.2-6.6C200.59,246.09,183.18,240,167,231c-6.11-3.39-11.89-7.27-16.64-12.53a14.84,14.84,0,0,1-3.16-5.14c-.51-1.5-1-3.61.06-4.5,1.7-1.37,2.56,1,3.59,1.9A137.28,137.28,0,0,0,191.24,236c6,2.41,12,5,18.27,7,13.49,4.26,27.17,7.71,41,10.78,9.43,2.1,19,3.45,28.46,4.87,5.27.79,10.68,1.39,16,1.95,5.83.61,11.69.45,17.45,1.19,19.78,2.54,39.62.61,59.42,1.17a31.31,31.31,0,0,0,5.33-.66,12.49,12.49,0,0,1,2.63-.52c7,.59,13.87-1.14,20.82-1.53a108.85,108.85,0,0,0,13.33-1.67c8.81-1.6,17.68-3.06,26.33-5.31a258.54,258.54,0,0,0,29.53-9.43,104.22,104.22,0,0,0,22.55-12.06c2.37-1.69,4.57-3.63,6.92-5.36a1.87,1.87,0,0,1,1.78-.1,2.33,2.33,0,0,1,.27,1.84c-.15.88-.77,1.7-.8,2.56-.12,2.79-1.43,4.06-4.24,3.91-1.71-.1-2.95.93-4.12,2.05-5.47,5.25-12.24,8.36-19.08,11.27-10.36,4.42-21.21,7.28-32.2,9.64-8.11,1.74-16.19,3.62-24.5,4.13-5.53,2.32-11.68.36-17.29,2.49-1.39.52-3.13.14-4.71.16a22.44,22.44,0,0,0-4.72.11c-9.14,2.19-18.41.94-27.61,1.24-4.28.14-8.57,0-12.86,0Z" class="cls-4"></path><path d="M300.85,134.52c33.32.53,65.58,3.56,97.16,12a196.22,196.22,0,0,1,33.09,11.7,31.22,31.22,0,0,1,5.24,3,4.51,4.51,0,0,1,1.09,5.53,4.75,4.75,0,0,1-5,2.63,16.88,16.88,0,0,1-3.78-1.4c-18.47-8.79-38.11-13.71-58.11-17.37-31-5.67-62.3-7-93.69-5.23-22.78,1.28-45.31,4.51-67,12.05a97.19,97.19,0,0,0-16.66,7.38c-5.72,3.28-11,7.09-14.6,12.8a7.64,7.64,0,0,1-.79,1.1,5.08,5.08,0,0,1-6.66,1.16,4.84,4.84,0,0,1-1.61-6,22.21,22.21,0,0,1,4.49-6.7,57.85,57.85,0,0,1,16.18-12.07,138.84,138.84,0,0,1,30.34-11.29,270.8,270.8,0,0,1,40.59-7.09C274.56,135.36,288.07,134.79,300.85,134.52Z" class="cls-5"></path><path d="M335.83,238.43a32.78,32.78,0,0,1-11.54-1.56c-3.12-.94-5.53-.32-8.32.87a41.37,41.37,0,0,1-31.61.77,24.48,24.48,0,0,1-9.07-5.72c-6.38-6.48-6.64-14.94-.59-21.83,4.18-4.75,9.69-7.33,15.68-8.76,9.24-2.22,18.37-1.81,27.09,2.22a7.77,7.77,0,0,0,6.37,0,51.85,51.85,0,0,1,30.6-1,24.17,24.17,0,0,1,11.21,6c5.51,5.39,5.89,12.26.94,18.13a26.24,26.24,0,0,1-9.87,6.93A55.22,55.22,0,0,1,335.83,238.43Z" class="cls-6"></path><path d="M461.51,175.82a16.94,16.94,0,0,1,5.67,1.47c9.08,4.34,13.69,11.85,15.33,21.47a8.53,8.53,0,0,1,0,2,5.18,5.18,0,0,1-4.55,5,5,5,0,0,1-5-3.64c-.41-1.28-.56-2.63-.88-3.93-1.47-6.08-4.81-10.51-11-12.44a15.18,15.18,0,0,1-1.91-.61,5.22,5.22,0,0,1-3.26-5.34C456.37,177.34,458.5,175.76,461.51,175.82Z" class="cls-7"></path><path d="M283.42,290a58.22,58.22,0,0,1,7.71.64c5.08,1,6.85,5.57,3.6,9.66-4.92,6.18-11.32,10.29-19.25,11.38-5.11.7-10.3,1-15.46,1.22-4.78.25-9.34-1-13.86-2.48-3.77-1.22-5-4.24-5.61-7.69a3.94,3.94,0,0,1,2-4,19.24,19.24,0,0,1,5.42-2.66C259.27,293.23,270.61,290.32,283.42,290Z" class="cls-8"></path><path d="M358.69,293.77c2.24,0,4.5-.18,6.72,0,5.36.54,10.73,1.13,16,2,4.21.67,8.34,1.76,11.75,4.64a8.52,8.52,0,0,1,2.53,3.08,5.08,5.08,0,0,1-1.78,6,4.68,4.68,0,0,1-1.15.69c-11.57,3.95-23.24,7.12-35.6,4.07A27.28,27.28,0,0,1,344,306.65a7.12,7.12,0,0,1-2-7.38c.83-3,3.19-4.28,6-4.66,3.56-.49,7.15-.72,10.72-1.07Z" class="cls-9"></path><path d="M204.22,296.7c-8.94-.39-16.76-3.14-22.12-10.87-1.54-2.22-3.13-4.42-4.76-6.57-2.05-2.72-2.38-5.77-1.87-9a6.7,6.7,0,0,1,7.75-5.8,6.9,6.9,0,0,1,1.95.49c5.58,2.42,11.2,4.79,16.31,8.13,4.83,3.15,8.23,7.66,11,12.65a7.7,7.7,0,0,1-1.83,9.77,4.76,4.76,0,0,1-2.36,1.15A28.76,28.76,0,0,1,204.22,296.7Z" class="cls-9"></path><path d="M440.59,295.91a8,8,0,0,1,2.75-6C449.58,284.46,455,278,462,273.4a50.66,50.66,0,0,1,5.31-2.92c2.3-1.14,4.35-.56,6.15,1.17a5.28,5.28,0,0,1,1.4,5.56,8.26,8.26,0,0,1-.71,1.89c-4.66,8.34-10.35,15.79-18.43,21.14a17.54,17.54,0,0,1-6.71,3A7.14,7.14,0,0,1,440.59,295.91Z" class="cls-8"></path><path d="M315.43,313.53a9.52,9.52,0,0,1-7.52-3.88c-1.68-2-1.31-6.1.57-8.89,3.43-5.08,12.4-5.79,16.67-1.32a6.31,6.31,0,0,1,.17,9.07C322.63,311.27,319.6,313.59,315.43,313.53Z" class="cls-10"></path><path d="M421.66,309.44c-1.27,0-1.72,0-2.16,0-5.32.23-7.64-4-5.66-8.58a15.24,15.24,0,0,1,5.35-6.73,7.23,7.23,0,0,1,8.19-.46,7.49,7.49,0,0,1,4,7.23c-.22,4.88-2.92,7.8-7.84,8.42A17.82,17.82,0,0,1,421.66,309.44Z" class="cls-11"></path><path d="M224.08,290c1,0,1.42,0,1.87.09,3.43.37,5.85,2.32,6.34,5.1a7.77,7.77,0,0,1-4.65,8.19,7.51,7.51,0,0,1-8.71-1.53,7.12,7.12,0,0,1-.67-8.73A6.34,6.34,0,0,1,224.08,290Z" class="cls-12"></path><path d="M301.19,211.35a24.11,24.11,0,0,1,10.41,1.52,21.5,21.5,0,0,1,4.22,2.08c5.09,3.51,5.3,7.79.28,11.39-6.52,4.69-14,6-21.82,4.7-4.26-.69-8.37-1.89-11.62-4.95-2.64-2.49-2.75-5.74-.27-8.34a14.9,14.9,0,0,1,3.12-2.54,26.49,26.49,0,0,1,12.1-3.85C299,211.29,300.31,211.35,301.19,211.35Z" class="cls-13"></path><path d="M340.91,211.66a32.1,32.1,0,0,1,14.68,2.94c5.1,2.33,5.26,5.71.65,9a4.21,4.21,0,0,1-.57.36,37.6,37.6,0,0,1-24.76,4.08c-1.49-.26-2.53-1-1.89-2.75.87-2.4.71-4.86.57-7.34-.08-1.47-1.79-3.07-.21-4.34.95-.75,2.51-.74,3.79-1.1A24.07,24.07,0,0,1,340.91,211.66Z" class="cls-14"></path><rect height="600" width="600" class="cls-15"></rect></g></g></svg>