<svg viewBox="0 0 240 240" xmlns:xlink="http://www.w3.org/1999/xlink" xmlns="http://www.w3.org/2000/svg" id="图层_1"><defs><style>.cls-1,.cls-2{fill:#e83840;}.cls-1,.cls-4,.cls-5,.cls-6{stroke:#000;stroke-miterlimit:10;stroke-width:1.96px;}.cls-3{clip-path:url(#clip-path);}.cls-4,.cls-6{fill:#007560;}.cls-5{fill:none;}.cls-6{stroke-linecap:round;}.cls-7{clip-path:url(#clip-path-2);}</style><clipPath id="clip-path"><path d="M56.48,89.4H186.2a0,0,0,0,1,0,0v99.43a5.87,5.87,0,0,1-5.87,5.87h-118a5.87,5.87,0,0,1-5.87-5.87V89.4A0,0,0,0,1,56.48,89.4Z" class="cls-1"></path></clipPath><clipPath id="clip-path-2"><rect rx="5.87" height="15.53" width="145.84" y="73.6" x="48.43" class="cls-1"></rect></clipPath></defs><title>长图总结</title><path d="M56.48,89.4H186.2a0,0,0,0,1,0,0v99.43a5.87,5.87,0,0,1-5.87,5.87h-118a5.87,5.87,0,0,1-5.87-5.87V89.4A0,0,0,0,1,56.48,89.4Z" class="cls-2"></path><g class="cls-3"><rect height="118.15" width="21.25" y="79.98" x="105.53" class="cls-4"></rect><rect height="21.42" width="147.97" y="129.18" x="48.88" class="cls-4"></rect></g><path d="M56.48,89.4H186.2a0,0,0,0,1,0,0v99.43a5.87,5.87,0,0,1-5.87,5.87h-118a5.87,5.87,0,0,1-5.87-5.87V89.4A0,0,0,0,1,56.48,89.4Z" class="cls-5"></path><path d="M138.28,81.37,156.17,55.6c4.34-6.26,3.93-14.11-1.57-16.5l-20.18-8.78c-5.5-2.39-11.52,2.67-13.14,10.11l-6.65,30.66a7.1,7.1,0,0,0,4.25,7.64l10.9,4.74A7.1,7.1,0,0,0,138.28,81.37Z" class="cls-4"></path><line y2="72.35" x2="124.48" y1="59.35" x1="127.88" class="cls-6"></line><line y2="74.35" x2="128.68" y1="63.95" x1="137.18" class="cls-6"></line><path d="M121.81,70.47,110.92,41.05c-2.64-7.15-9.31-11.31-14.42-8.17L77.75,44.4c-5.11,3.14-4.41,11,.76,16.56L99.84,84a7.1,7.1,0,0,0,8.7.89l10.13-6.22A7.11,7.11,0,0,0,121.81,70.47Z" class="cls-4"></path><line y2="76.61" x2="106.51" y1="66.38" x1="97.81" class="cls-6"></line><line y2="74.32" x2="110.56" y1="61.4" x1="106.9" class="cls-6"></line><rect rx="5.87" height="15.53" width="145.84" y="73.6" x="48.43" class="cls-2"></rect><g class="cls-7"><rect height="118.15" width="25.1" y="22.29" x="103.55" class="cls-4"></rect></g><rect rx="5.87" height="15.53" width="145.84" y="73.6" x="48.43" class="cls-5"></rect></svg>