<svg viewBox="0 0 500 500" xmlns="http://www.w3.org/2000/svg" id="规范"><defs><style>.cls-1{fill:#d56834;}.cls-1,.cls-2,.cls-3,.cls-4{stroke:#f7b52c;stroke-width:4.21px;}.cls-1,.cls-2,.cls-3,.cls-4,.cls-7{stroke-linecap:round;stroke-linejoin:round;}.cls-2{fill:none;}.cls-3{fill:#c30d23;}.cls-4{fill:#940012;}.cls-5{fill:#fff000;}.cls-6{fill:#231815;}.cls-7{fill:#fff;stroke:#c30d23;stroke-width:4.35px;}</style></defs><title>扫码符</title><path d="M195.39,163.74c9.34-9.06,27.7-10.25,40.9-12.05,31.68,2.15,40.17,1.57,72.81,12.53-6.68,4.5-10.54,5.76-19.67,11.24-6.9,4.15-12.64,6.75-16.81,13.63" class="cls-1"></path><path d="M224.79,167.29c6.35-5.74,20.81-12.14,29.2-13.83" class="cls-2"></path><path d="M247.34,176.57c10-9.87,31.1-17.42,45.08-16" class="cls-2"></path><path d="M233.14,173.1c24.43,8.32,72.3,37.93,94.91,30,20.64-7.23,28.55-23.44,44.25-32.66,2.37-1.39,4.91-2.76,7.66-2.84,6.84-.22,11.45,7.52,11.44,14.36A235.85,235.85,0,0,1,390,207.47c-1.83,13.35,2.69,19.79,14.68,28.32,11,7.82,31.28,15.41,31.66,30.85.46,18.68-54.7,19-76.15,14.4-24.11-5.19-47.31,20.8-82.26,35.14-40.06,16.45-95.88,20-147.89-.74-21.66-8.65-51.37-30-64-49.58C54,247.43,49.56,230.3,60.59,216.37c14.27-18,32.93-36.86,56.61-44.85C135.38,165.39,176.75,153.9,233.14,173.1Z" class="cls-3"></path><path d="M167.45,164.43c12.09,12.94,21.7,64.21,1.52,91.19-26.34,35.23-68.35,33.69-80.84,32.9" class="cls-2"></path><path d="M223.89,202.51a60,60,0,0,1,10.77,20.11c.89,2.88,1.56,6,.79,8.87-1.48,5.59-7.53,8.46-12.9,10.6" class="cls-2"></path><path d="M205.76,242a37,37,0,0,1,3.6,24.39c-1.28,6-4.31,11.68-9.63,15.34a24.49,24.49,0,0,1-20.58,2.82" class="cls-2"></path><path d="M226.15,264.45c2,7.11,3.3,14.68,1.44,21.81s-7.69,13.67-15,14.28" class="cls-2"></path><path d="M244.28,240.45c4.85,7,8.83,15,8.74,23.49s-5.2,17.36-13.4,19.56" class="cls-2"></path><path d="M270.49,275.37a54.41,54.41,0,0,1-1.07,17.12,24,24,0,0,1-4.26,9.89c-2.27,2.82-5.78,4.83-9.38,4.55" class="cls-2"></path><path d="M267.66,212.14a28.53,28.53,0,0,1,1.45,43" class="cls-2"></path><path d="M292.3,249c2.28,4.41,4.77,8.83,5.92,13.67,2.1,8.78.77,14.69-3.47,21.42" class="cls-2"></path><path d="M299.91,218.54c12.44,4.09,8.88,24.52,6.27,25.46" class="cls-2"></path><path d="M324,233.24c3.19,3.19,6.42,6.66,8,10.9,1.61,4.45.13,10.11-1.91,10.45" class="cls-2"></path><path d="M348.69,205.5q15.85-7.11,31.08-15.5l-2.69,1" class="cls-4"></path><path d="M353.4,222.05l25.39-12.11L376,211.29" class="cls-4"></path><path d="M359.81,240.44a76.49,76.49,0,0,1,22-7" class="cls-4"></path><path d="M364,255.31a82,82,0,0,1,30.7-6" class="cls-4"></path><path d="M366.33,269.5a86.12,86.12,0,0,1,44.14-7.72" class="cls-4"></path><path d="M74.29,205c5.88,2.33,8.5,46.73-10.4,55.43" class="cls-2"></path><circle r="19.12" cy="225.63" cx="132.18" class="cls-5"></circle><circle r="10.3" cy="225.63" cx="132.18" class="cls-6"></circle><path d="M165.25,304.08,189.48,340c2.25,3.33,4.81,6.9,8.69,8,4.33,1.22,8.82-1.07,12.65-3.43,3.39-2.1,6.85-4.48,8.61-8.05,2.18-4.45,1.2-10-1.43-14.17s-6.67-7.31-10.82-10a104.48,104.48,0,0,0-22.66-11.17,13,13,0,0,1-4.81-2.42" class="cls-1"></path><path d="M187.19,312.58A60,60,0,0,0,203,325.47" class="cls-4"></path><path d="M260.85,241.8c10.25-6.1,24.58-4.18,32.85,4.41.22-7.44,9.44-13,16.11-9.68,2.64,1.31,4.68,3.62,7.32,4.92,8.46,4.14,18.17-3.45,27.56-2.82,8.61.58,15.4,8.27,17.76,16.57s1.25,17.14.11,25.7c5.24-8.67,17.47-10.5,27.18-7.61s17.92,9.28,26.89,14,19.94,7.72,29.1,3.39c-14.28,15.91-37.19,8-56.58-1-3.58-1.67-6.75,4-7.58,7.91s-.42,8-1.61,11.74c-1.14,3.61-3.64,6.62-6.32,9.3-5.32,5.32-12,9.86-19.55,10.2s-15.6-4.82-16.33-12.31a25.17,25.17,0,0,1-47.3,4.46c-10.09,14-34.59,13.58-44.15-.82-1.39-2.1-2.57-4.48-4.7-5.82-2.55-1.61-5.81-1.34-8.75-2-10-2.22-14.21-15.91-9.16-24.83,5.66-10,18.18-8.13,23.6-16.24C253.91,261.41,247.33,249.86,260.85,241.8Z" class="cls-7"></path><path d="M272.31,268.67c5.18,1.06,10.34,3.52,13.25,7.93s2.77,11-1.29,14.42c-2.82,2.36-6.83,2.73-10.47,2.26-11.94-1.54-22.46-15.22-24-27.15" class="cls-7"></path><path d="M331.24,303.24a9.84,9.84,0,0,1-11.33,3.47,9.21,9.21,0,0,1-5.44-10.38c1-4.27,5.34-7.17,9.71-7.78s11.78,1,15.49,5.07,6,11.77,3.35,16.71-3.72,7.8-8.55,13" class="cls-7"></path><path d="M246.31,293.48c4-.56,9-5.52,9-9.52s-4.45-11.51-11.88-8.91" class="cls-7"></path><path d="M297.21,260.71c-6.2-5-5.08-10.55-3.23-15.75" class="cls-7"></path></svg>