<svg viewBox="0 0 126.95 130.29" xmlns="http://www.w3.org/2000/svg"><defs><style>.cls-1{fill:#eab7cf;}.cls-2{fill:#060001;}.cls-3{fill:#f5d5e4;}.cls-4{fill:#7dbe9b;}.cls-5{fill:#e095b8;}</style></defs><title>资源 13</title><g id="图层_2"><g id="图层_1-2"><path d="M49.2,128.29c-12,0-23.52-7.56-33.27-21.88-.95-1.39-1.87-2.83-2.81-4.4-1.14-1.9-2.27-3.93-3.34-6a92,92,0,0,1-4.24-9.45c0-.1-.06-.19-.08-.29A54.29,54.29,0,0,1,2,68.32C1.57,47,13.9,30.08,35.84,22c.7-.26,1.43-.52,2.16-.76q.47-.16,1-.3A87.43,87.43,0,0,1,62.42,17.1Q64.16,17,65.87,17c13.37,0,25.56,2.77,35.23,8a53,53,0,0,1,5.56,3.46c11.65,8.37,18,20.69,18.28,35.63a1,1,0,0,1,0,.17,55,55,0,0,1-2.72,18,2,2,0,0,1,0,.24c-.52,1.65-13,40.54-39.59,44.44a28.74,28.74,0,0,1-4.25.31,31.32,31.32,0,0,1-5.89-.57,38.07,38.07,0,0,1-7.73-2.39A34.47,34.47,0,0,1,49.2,128.29Z" class="cls-1"></path><path d="M65.86,19c12.91,0,24.77,2.61,34.29,7.76a48,48,0,0,1,5.34,3.33c10.53,7.56,17.14,18.94,17.46,34h0a53.06,53.06,0,0,1-2.71,17.77h0S108,121.24,82.29,125a26.9,26.9,0,0,1-4,.29,29.6,29.6,0,0,1-5.52-.53,36.57,36.57,0,0,1-8.18-2.64,32.75,32.75,0,0,1-15.44,4.17c-13.93,0-24.56-10.64-31.62-21-1-1.45-1.9-2.89-2.74-4.3-1.25-2.08-2.35-4.08-3.28-5.91a91.4,91.4,0,0,1-4.14-9.22h0A52.37,52.37,0,0,1,4,68.28C3.55,46.2,16.88,31.12,36.53,23.91c.69-.25,1.39-.5,2.1-.73.29-.1.58-.2.88-.28a85.79,85.79,0,0,1,23-3.8c1.13,0,2.26-.06,3.37-.06m54.4,62.9h0M65.87,15h0c-1.15,0-2.33,0-3.51.06a89.74,89.74,0,0,0-24,4l-1,.32c-.8.27-1.54.53-2.21.78C12.36,28.51-.45,46.08,0,68.37A56.12,56.12,0,0,0,3.54,86.81a2.64,2.64,0,0,0,.12.4A92.23,92.23,0,0,0,8,96.89C9.1,99,10.24,101.1,11.41,103c.94,1.57,1.91,3.09,2.87,4.49,10.13,14.89,22.21,22.76,34.92,22.76a35.9,35.9,0,0,0,15.58-3.77,39.91,39.91,0,0,0,7.29,2.17,33.44,33.44,0,0,0,6.27.6,31.28,31.28,0,0,0,4.53-.33C110.12,125,123,86.59,124,83.3a3.21,3.21,0,0,0,.15-.53,56.78,56.78,0,0,0,2.77-18.43,1,1,0,0,0,0-.25c-.32-15.6-6.93-28.46-19.12-37.21a55.36,55.36,0,0,0-5.77-3.6C92.09,17.89,79.57,15,65.87,15Z" class="cls-2"></path><path d="M16.65,104.08c-.94-1.47-1.81-2.94-2.62-4.37-1.18-2.11-2.22-4.15-3.1-6a90.1,90.1,0,0,1-3.86-9.33h0A52,52,0,0,1,4.19,66.72c.19-22.09,14-36.83,33.8-43.52.7-.24,1.41-.46,2.12-.68l.89-.26C24.3,33.34,2.88,57.69,16.65,104.08Z" class="cls-3"></path><path d="M64.17,40.34a42,42,0,0,1-17.89-4.09,2,2,0,0,1,1.84-3.55c.23.11,16.23,8.17,31.09-.24a2,2,0,1,1,2,3.48A34.12,34.12,0,0,1,64.17,40.34Z" class="cls-2"></path><path d="M54.49,22.1a15,15,0,0,1-3.13-.33C42.85,19.93,36.08,10.52,35.8,10.13A2,2,0,0,1,36,7.57C36.22,7.34,41.53,2,48.83,2h0A15,15,0,0,1,52,2.33C60.48,4.18,67.24,13.58,67.52,14a2,2,0,0,1-.2,2.55C67.1,16.76,61.79,22.1,54.49,22.1Z" class="cls-4"></path><path d="M48.83,4a12.73,12.73,0,0,1,2.7.29C59.39,6,65.89,15.13,65.89,15.13s-4.86,5-11.4,5a12.73,12.73,0,0,1-2.7-.29C43.94,18.12,37.43,9,37.43,9s4.86-5,11.4-5m0-4h0c-8.13,0-14,5.92-14.26,6.17a4,4,0,0,0-.4,5.11c.76,1.07,7.67,10.48,16.77,12.44a16.92,16.92,0,0,0,3.55.38c8.13,0,14-5.92,14.26-6.17a4,4,0,0,0,.4-5.11C68.4,11.75,61.49,2.35,52.38.38A16.92,16.92,0,0,0,48.83,0Z" class="cls-2"></path><path d="M64.12,40.31a2,2,0,0,1-2-1.64c-3.28-18.16,12-30.51,12.67-31a2,2,0,1,1,2.48,3.13h0c-.14.11-14.06,11.41-11.22,27.18a2,2,0,0,1-1.61,2.32Z" class="cls-2"></path><path d="M123.13,65.73a53.34,53.34,0,0,1-3.23,17.7h0s-13.43,39-39.21,42.07c43.57-40,30.05-80.32,20.75-97.75a50,50,0,0,1,5.24,3.47c10.29,7.84,16.56,19.39,16.43,34.51Z" class="cls-5"></path></g></g></svg>