<svg xmlns:xlink="http://www.w3.org/1999/xlink" xmlns="http://www.w3.org/2000/svg" version="1.1" viewBox="0 0 244 194" height="194px" width="244px">
    <title>编组 19</title>
    <defs>
        <linearGradient id="linearGradient-1" y2="72.107608%" x2="56.9281308%" y1="31.8076234%" x1="36.4897229%">
            <stop offset="0%" stop-color="#6F0272"></stop>
            <stop offset="100%" stop-color="#3C013E"></stop>
        </linearGradient>
        <path id="path-2" d="M6.93087643,27.610862 C7.04049008,52.1161799 9.02888523,69.3288933 12.8960619,79.2490021 C18.6968268,94.1291655 40.527468,128.173098 78.3989188,133.131534 C116.270369,138.089971 135.41379,128.084322 145.547807,106.859089 C155.681823,85.6338572 132.188922,58.4163409 99.7975929,58.4163409 C67.4062639,58.4163409 48.7817517,45.3368844 48.7817517,39.4151724 C48.7817517,33.4934604 37.5040065,17.0200198 24.7498103,20.9922979 C16.2470129,23.6404833 10.3073682,25.8466713 6.93087643,27.610862 Z"></path>
        <filter id="filter-3" filterUnits="objectBoundingBox" height="107.9%" width="106.4%" y="-3.9%" x="-3.2%">
            <feGaussianBlur result="shadowBlurInner1" in="SourceAlpha" stdDeviation="4"></feGaussianBlur>
            <feOffset result="shadowOffsetInner1" in="shadowBlurInner1" dy="1" dx="0"></feOffset>
            <feComposite result="shadowInnerInner1" k3="1" k2="-1" operator="arithmetic" in2="SourceAlpha" in="shadowOffsetInner1"></feComposite>
            <feColorMatrix in="shadowInnerInner1" type="matrix" values="0 0 0 0 0.70480612   0 0 0 0 0.128143553   0 0 0 0 0.662090375  0 0 0 1 0"></feColorMatrix>
        </filter>
        <linearGradient id="linearGradient-4" y2="63.2381796%" x2="32.1372198%" y1="35.9564811%" x1="34.3750865%">
            <stop offset="0%" stop-color="#853980"></stop>
            <stop offset="100%" stop-color="#5E285A"></stop>
        </linearGradient>
        <linearGradient id="linearGradient-5" y2="75.8102052%" x2="50%" y1="36.4155838%" x1="35.5953651%">
            <stop offset="0%" stop-color="#AB59A6"></stop>
            <stop offset="100%" stop-color="#70386C"></stop>
        </linearGradient>
        <path id="path-6" d="M1.11151473,0.983501119 C-0.370504911,4.14417028 -0.370504911,6.69648426 1.11151473,8.64044305 C3.3345442,11.5563812 6.01344028,15.6015525 6.01344028,18.9505219 C6.01344028,22.2994912 7.1459807,24.7380524 3.13978026,31.7052773 C-0.866420183,38.6725021 5.14806374,59.6357206 5.14806374,59.6357206 C5.14806374,59.6357206 5.43652259,62.7571471 6.01344028,69 C7.73188915,66.6882371 8.79459654,64.7494295 9.20156245,63.1835773 C9.60852835,61.617725 9.60852835,59.467633 9.20156245,56.7333011 C10.7600352,59.1199145 12.0009681,60.7946887 12.9243612,61.7576237 C13.8477544,62.7205587 15.2558555,63.8082565 17.1486646,65.020717 C17.5022343,60.3493827 17.5022343,56.8617789 17.1486646,54.5579056 C16.795095,52.2540323 15.7872801,49.1746748 14.1252198,45.3198333 C16.6962414,46.9849903 18.6943227,48.4652074 20.1194637,49.7604847 C21.5446047,51.0557619 23.7324486,53.3800341 26.6829952,56.7333011 C28.6569811,51.3044145 29.7626494,47.4999253 30,45.3198333 C30.9744325,36.369562 29.1638621,31.7052773 28.349943,31.7052773 C26.6829952,31.7052773 44.1688121,41.1524772 44.9635223,41.1524772 C45.4933291,41.1524772 45.4933291,38.7041396 44.9635223,33.8074645 C52.6014645,36.7150973 57.3552176,36.7150973 59.2247816,33.8074645 C62.0291275,29.4460151 56.7303633,33.9645394 51.2442979,31.7052773 C45.7582325,29.4460151 42.8513354,19.3894373 30,16.7663427 C17.1486646,14.1432481 22.2369992,17.6116756 14.1252198,10.8761769 C10.526451,7.88799136 7.79917337,2.30055277 5.14806374,0.368810645 C4.25959677,-0.278574531 2.91408043,-0.0736777062 1.11151473,0.983501119 Z"></path>
        <filter id="filter-7" filterUnits="objectBoundingBox" height="105.8%" width="103.3%" y="-1.4%" x="-1.7%">
            <feOffset result="shadowOffsetOuter1" in="SourceAlpha" dy="2" dx="0"></feOffset>
            <feColorMatrix in="shadowOffsetOuter1" type="matrix" values="0 0 0 0 0   0 0 0 0 0   0 0 0 0 0  0 0 0 0.5 0"></feColorMatrix>
        </filter>
        <linearGradient id="linearGradient-8" y2="72.1630502%" x2="56.9281308%" y1="31.7619999%" x1="36.4897229%">
            <stop offset="0%" stop-color="#6F0272"></stop>
            <stop offset="100%" stop-color="#3C013E"></stop>
        </linearGradient>
        <path id="path-9" d="M7.03336302,28.1371549 C7.14764108,53.7172674 9.22064878,71.6849244 13.2523861,82.0401258 C19.2999922,97.5729278 42.0595968,133.110015 81.5425986,138.285927 C121.0256,143.461839 140.983635,133.017345 151.548886,110.861182 C162.114137,88.7050183 137.621538,60.2937513 103.851855,60.2937513 C70.0821712,60.2937513 50.6651265,46.6406345 50.6651265,40.4591982 C50.6651265,34.277762 38.9074774,17.0818021 25.6105494,21.2283029 C16.7459308,23.9926368 10.5535353,26.2955874 7.03336302,28.1371549 Z"></path>
        <filter id="filter-10" filterUnits="objectBoundingBox" height="107.6%" width="106.1%" y="-3.8%" x="-3.1%">
            <feGaussianBlur result="shadowBlurInner1" in="SourceAlpha" stdDeviation="4"></feGaussianBlur>
            <feOffset result="shadowOffsetInner1" in="shadowBlurInner1" dy="1" dx="0"></feOffset>
            <feComposite result="shadowInnerInner1" k3="1" k2="-1" operator="arithmetic" in2="SourceAlpha" in="shadowOffsetInner1"></feComposite>
            <feColorMatrix in="shadowInnerInner1" type="matrix" values="0 0 0 0 0.70480612   0 0 0 0 0.128143553   0 0 0 0 0.662090375  0 0 0 1 0"></feColorMatrix>
        </filter>
        <linearGradient id="linearGradient-11" y2="63.0154772%" x2="32.1372198%" y1="36.1927315%" x1="34.3750865%">
            <stop offset="0%" stop-color="#853980"></stop>
            <stop offset="100%" stop-color="#5E285A"></stop>
        </linearGradient>
        <linearGradient id="linearGradient-12" y2="76.2660058%" x2="50%" y1="36.175687%" x1="35.5953651%">
            <stop offset="0%" stop-color="#AB59A6"></stop>
            <stop offset="100%" stop-color="#70386C"></stop>
        </linearGradient>
        <path id="path-13" d="M1.16709047,1.02626204 C-0.389030157,4.32435159 -0.389030157,6.98763574 1.16709047,9.01611449 C3.50127141,12.0588326 6.31411229,16.2798809 6.31411229,19.7744576 C6.31411229,23.2690343 7.50327974,25.8136199 3.29676927,33.0837676 C-0.909741192,40.3539153 5.40546693,62.228578 5.40546693,62.228578 C5.40546693,62.228578 5.70834872,65.4857187 6.31411229,72 C8.11848361,69.5877257 9.23432637,67.5646221 9.66164057,65.9306893 C10.0889548,64.2967565 10.0889548,62.0531822 9.66164057,59.1999663 C11.2980369,61.6903455 12.6010165,63.437936 13.5705793,64.4427378 C14.5401421,65.4475396 16.0186483,66.5825285 18.0060979,67.8477047 C18.377346,62.9732689 18.377346,59.3340301 18.0060979,56.9299884 C17.6348498,54.5259467 16.5766441,51.3127042 14.8314808,47.2902609 C17.5310535,49.027816 19.6290388,50.5723903 21.1254369,51.923984 C22.621835,53.2755777 24.919071,55.7009051 28.017145,59.1999663 C30.0898302,53.5350413 31.2507818,49.5651394 31.5,47.2902609 C32.5231542,37.9508474 30.6220552,33.0837676 29.7674402,33.0837676 C28.017145,33.0837676 46.3772527,42.9417153 47.2116984,42.9417153 C47.7679956,42.9417153 47.7679956,40.3869283 47.2116984,35.2773542 C55.2315378,38.3114059 60.2229785,38.3114059 62.1860206,35.2773542 C65.1305838,30.7262767 59.5668815,35.4412585 53.8065128,33.0837676 C48.0461441,30.7262767 44.9939021,20.2324563 31.5,17.4953141 C18.0060979,14.7581719 23.3488492,18.3774006 14.8314808,11.3490541 C11.0527736,8.2309475 8.18913204,2.4005768 5.40546693,0.384845891 C4.4725766,-0.290686467 3.05978445,-0.0768810848 1.16709047,1.02626204 Z"></path>
        <filter id="filter-14" filterUnits="objectBoundingBox" height="105.6%" width="103.2%" y="-1.4%" x="-1.6%">
            <feOffset result="shadowOffsetOuter1" in="SourceAlpha" dy="2" dx="0"></feOffset>
            <feColorMatrix in="shadowOffsetOuter1" type="matrix" values="0 0 0 0 0   0 0 0 0 0   0 0 0 0 0  0 0 0 0.5 0"></feColorMatrix>
        </filter>
    </defs>
    <g fill-rule="evenodd" fill="none" stroke-width="1" stroke="none" id="页面-1">
        <g transform="translate(0.089445, 0.344763)" id="编组-19">
            <g transform="translate(144.871937, 96.176643) rotate(32.000000) translate(-144.871937, -96.176643) translate(70.906499, 28.985958)" id="编组-6">
                <g id="路径-32">
                    <use xlink:href="#path-2" fill-rule="evenodd" fill="url(#linearGradient-1)"></use>
                    <use xlink:href="#path-2" filter="url(#filter-3)" fill-opacity="1" fill="black"></use>
                </g>
                <path fill="url(#linearGradient-4)" id="路径-32" d="M18.6383531,37.0989044 C18.7230899,54.4960762 20.2602181,66.7159762 23.2497376,73.7586042 C27.7340169,84.3225462 44.6101863,108.49151 73.8866979,112.011675 C103.163209,115.531841 117.962024,108.428485 125.796122,93.359959 C133.63022,78.2914333 115.469041,58.9687782 90.4289354,58.9687782 C65.3888299,58.9687782 55.7548014,51.6525856 50.9911574,45.4791923 C46.2275134,39.3057989 42.2729005,29.5800997 32.4132736,32.4001571 C25.8401891,34.2801954 21.2485489,35.8464445 18.6383531,37.0989044 Z"></path>
                <path fill="url(#linearGradient-5)" id="路径-32" d="M25.0732009,44.657125 C26.6743656,55.357231 28.579216,63.2525451 30.787752,68.3430672 C34.1005561,75.9788504 44.7673823,94.6782998 66.3956841,97.2227306 C88.023986,99.7671615 98.4495092,96.2152656 104.237024,85.3234987 C110.024538,74.4317317 99.2427832,64.618181 79.2784256,64.618181 C59.314068,64.618181 40.4180297,44.6553474 40.4180297,41.61661 C40.4180297,38.5778726 38.0716453,31.3256727 30.787752,33.3640545 C25.9318232,34.7229757 24.0269728,38.4873326 25.0732009,44.657125 Z"></path>
                <g id="路径-33">
                    <use xlink:href="#path-6" filter="url(#filter-7)" fill-opacity="1" fill="black"></use>
                    <use xlink:href="#path-6" fill-rule="evenodd" fill="#749057"></use>
                </g>
                <path fill="#90AC5E" id="路径-4" d="M13.0346333,21.3937301 C8.20716198,26.2265111 8.02790657,31.0235468 9.0320998,36.6852301 C10.036293,42.3469134 16.8450029,45.200787 18.3985175,45.3799078 C23.3480551,45.9505911 24.4841777,41.0282763 24.8697054,38.1543831 C25.3762389,34.378459 25.1332635,33.3791023 28.0071698,31.4862306 C30.881076,29.5933589 40.5412998,30.562653 40.5412998,30.3473017 C40.5412998,30.1319505 38.7657619,21.9782929 30.881076,19.2489343 C22.9963902,16.5195757 17.8621047,16.5609492 13.0346333,21.3937301 Z"></path>
                <path fill="#90AC5E" id="路径-4备份" d="M1.48534336,3.94722219 C0.106879703,5.98997655 4.11925124,9.68479124 6.15317159,13.8290056 C8.6633578,18.9436353 8.19986364,24.160845 9.63654263,21.8216507 C12.2373148,17.587085 18.2031172,17.0474207 18.2031172,16.83684 C18.2031172,16.6262593 13.7944759,14.6937669 10.046322,10.3101156 C6.29816811,5.92646442 4.5650538,-0.616620965 1.48534336,3.94722219 Z"></path>
            </g>
            <g transform="translate(94.057587, 104.281624) rotate(17.000000) translate(-94.057587, -104.281624) translate(17.040905, 34.486334)" id="编组-6">
                <g id="路径-32">
                    <use xlink:href="#path-9" fill-rule="evenodd" fill="url(#linearGradient-8)"></use>
                    <use xlink:href="#path-9" filter="url(#filter-10)" fill-opacity="1" fill="black"></use>
                </g>
                <path fill="url(#linearGradient-11)" id="路径-32" d="M19.5345568,38.9543508 C19.6231806,56.9958623 21.2308192,69.6683511 24.3574726,76.9718172 C29.0474528,87.9270163 46.6977585,112.991127 77.3172293,116.641669 C107.9367,120.292211 123.414359,112.925767 131.60782,97.2991481 C139.80128,81.6725289 120.807019,61.6342199 94.618285,61.6342199 C68.4295508,61.6342199 58.3535944,54.0470572 53.3714346,47.6450196 C48.3892748,41.242982 44.2532577,31.1570717 33.9413544,34.0815758 C27.0667522,36.0312451 22.2644863,37.6555034 19.5345568,38.9543508 Z"></path>
                <path fill="url(#linearGradient-12)" id="路径-32" d="M26.161499,45.9395275 C27.8219661,57.1334845 29.7973665,65.3931977 32.0877002,70.718667 C35.5232007,78.7068709 46.5850945,98.2693718 69.0144446,100.931238 C91.4437946,103.593104 102.255448,99.8772746 108.257315,88.4828107 C114.259182,77.0883468 103.078103,66.821863 82.3743246,66.821863 C61.6705463,66.821863 42.0746548,45.9376678 42.0746548,42.758681 C42.0746548,39.5796942 39.6413673,31.9927774 32.0877002,34.1252383 C27.0519221,35.546879 25.0765217,39.4849754 26.161499,45.9395275 Z"></path>
                <g id="路径-33">
                    <use xlink:href="#path-13" filter="url(#filter-14)" fill-opacity="1" fill="black"></use>
                    <use xlink:href="#path-13" fill-rule="evenodd" fill="#749057"></use>
                </g>
                <path fill="#90AC5E" id="路径-4" d="M13.5365538,22.7684467 C8.55822397,27.773827 8.37336682,32.7421854 9.40894109,38.6060717 C10.4445154,44.4699579 17.4659974,47.4257556 19.0680593,47.6112736 C24.17227,48.2023385 25.3438964,43.1042267 25.7414718,40.1276944 C26.2638345,36.2169159 26.0132662,35.1818679 28.976982,33.2213937 C31.9406978,31.2609194 41.9028035,32.2648311 41.9028035,32.0417887 C41.9028035,31.8187464 40.0717801,23.3738868 31.9406978,20.5470511 C23.8096156,17.7202154 18.5148836,17.7630665 13.5365538,22.7684467 Z"></path>
                <path fill="#90AC5E" id="路径-4备份" d="M1.55611993,3.8199218 C0.0965701795,5.96481387 4.34496357,9.8443693 6.4985263,14.1957943 C9.15637052,19.5661556 8.665612,25.0442258 10.1868015,22.5880717 C12.9405603,18.1417777 19.2572922,17.5751303 19.2572922,17.3540205 C19.2572922,17.1329108 14.5893191,15.1037937 10.6206856,10.5009599 C6.65205203,5.89812613 4.81698981,-0.972113517 1.55611993,3.8199218 Z"></path>
            </g>
        </g>
    </g>
</svg>