<svg viewBox="0 0 105.3 144.77" xmlns="http://www.w3.org/2000/svg"><defs><style>.cls-1{fill:#80c09e;}.cls-2{fill:#060001;}.cls-3{fill:#eebbd2;}</style></defs><title>资源 12</title><g id="图层_2"><g id="图层_1-2"><path d="M44.66,52.2h-.27c-.66-.09-16.28-2.25-23.63-11-7.6-9-3.28-21-3.09-21.5a2,2,0,0,1,1.87-1.3h.27c.66.09,16.3,2.25,23.63,11,7.6,9,3.28,21,3.09,21.5A2,2,0,0,1,44.66,52.2Z" class="cls-1"></path><path d="M19.55,20.42s15.44,2,22.36,10.27S44.66,50.2,44.66,50.2s-15.43-2-22.37-10.27-2.74-19.51-2.74-19.51m0-4A4,4,0,0,0,15.79,19c-.2.55-4.9,13.6,3.44,23.49,7.85,9.3,24.21,11.57,24.9,11.66a4.71,4.71,0,0,0,.53,0,4,4,0,0,0,3.75-2.61C48.61,51,53.31,38,45,28.11c-7.83-9.3-24.21-11.57-24.9-11.66a4.71,4.71,0,0,0-.53,0Z" class="cls-2"></path><path d="M56.84,52.54A2,2,0,0,1,55,51.17c-.17-.51-4.12-12.73,3.77-21.33,7.61-8.32,23.31-9.62,24-9.67h.15a2,2,0,0,1,1.9,1.36c.17.52,4.12,12.73-3.77,21.34-7.63,8.32-23.32,9.61-24,9.66Z" class="cls-1"></path><path d="M82.85,22.17s3.84,11.51-3.34,19.35-22.67,9-22.67,9S53,39,60.19,31.19s22.66-9,22.66-9m0-4h-.31c-.69.05-17.16,1.41-25.3,10.31C48.57,38,52.86,51.24,53.05,51.8a4,4,0,0,0,3.79,2.74h.31c.7-.06,17.15-1.41,25.3-10.31,8.68-9.46,4.38-22.76,4.2-23.32a4,4,0,0,0-3.8-2.73Z" class="cls-2"></path><path d="M52.83,57a2,2,0,0,1-1.42-.6c-.61-.62-15-15.39-15.65-30.08C35.12,11.24,49.05,2.65,49.64,2.29a2,2,0,0,1,1-.29,2,2,0,0,1,1.42.6c.61.62,15,15.41,15.65,30.08.64,15.1-13.29,23.7-13.88,24.06A2,2,0,0,1,52.83,57Z" class="cls-1"></path><path d="M50.68,4S65.17,18.69,65.75,32.77,52.83,55,52.83,55,38.35,40.35,37.76,26.26,50.68,4,50.68,4m0-4a3.94,3.94,0,0,0-2.06.58C48,1,33.07,10.16,33.76,26.43,34.42,41.89,49.35,57.19,50,57.84a4,4,0,0,0,4.91.61c.64-.38,15.53-9.58,14.85-25.85C69.11,17.16,54.16,1.84,53.52,1.19A4,4,0,0,0,50.67,0Z" class="cls-2"></path><path d="M52.3,142.77a21.62,21.62,0,0,1-15.52-6.54C24.77,124,11.07,101.15,4.19,81.9.89,72.66,1.33,63.31,5.43,55.59c3-5.59,7.73-9.82,12.43-11a126.88,126.88,0,0,1,31-3.48c14.39,0,28.54,1.93,39.84,5.44a19.81,19.81,0,0,1,11.8,10.16c3.94,7.75,3.73,18.13-.61,30.83C92.55,109,78.23,127.9,67.28,137.13a23.34,23.34,0,0,1-15,5.64Z" class="cls-3"></path><path d="M48.86,43.08c13.58,0,27.66,1.75,39.25,5.35C96.48,51,106.63,61.61,98,86.87c-7.49,21.9-22,40.26-32,48.73a21.18,21.18,0,0,1-13.69,5.17,19.66,19.66,0,0,1-14.09-5.94c-11.49-11.69-25.15-34-32.13-53.61C-.51,62.79,9.91,48.67,18.36,46.5a125.38,125.38,0,0,1,30.5-3.42m0-4a129.44,129.44,0,0,0-31.5,3.54c-5.31,1.37-10.43,5.87-13.7,12C-.7,62.88-1.18,72.79,2.31,82.57c7,19.5,20.86,42.66,33,55.06a23.6,23.6,0,0,0,16.95,7.14,25.36,25.36,0,0,0,16.27-6.11c11.16-9.41,25.75-28.68,33.21-50.5,4.53-13.24,4.69-24.13.5-32.39a21.73,21.73,0,0,0-13-11.16C77.8,41,63.44,39.08,48.86,39.08Z" class="cls-2"></path><path d="M52.23,71.6a.44.44,0,0,0,.82,0l3.3-6.92a3.82,3.82,0,0,0-3.64-4,3.87,3.87,0,0,0-3.62,3.84Zm-.32,20.86a.44.44,0,0,0,.81,0L56,85.55a3.64,3.64,0,1,0-7.26-.15Zm-.44,28.45a.44.44,0,0,0,.81,0L55.59,114A3.82,3.82,0,0,0,52,110a3.87,3.87,0,0,0-3.62,3.84ZM33.2,102.84a.44.44,0,0,0,.82,0l3.3-6.92a3.81,3.81,0,0,0-3.64-4,3.85,3.85,0,0,0-3.62,3.83Zm36.65,1a.44.44,0,0,0,.82,0L74,96.94a3.81,3.81,0,0,0-3.64-4,3.87,3.87,0,0,0-3.62,3.84ZM25.46,81.61a.44.44,0,0,0,.82,0l3.3-6.92a3.8,3.8,0,0,0-3.64-4,3.86,3.86,0,0,0-3.62,3.83Zm53.7,1.49a.44.44,0,0,0,.81,0l3.31-6.92A3.64,3.64,0,1,0,76,76Z" class="cls-2"></path></g></g></svg>