<svg xml:space="preserve" style="enable-background:new 0 0 1024 1024;" viewBox="0 0 1024 1024" y="0px" x="0px" xmlns:xlink="http://www.w3.org/1999/xlink" xmlns="http://www.w3.org/2000/svg" id="图层_1" version="1.1">
<style type="text/css">
	.st0{fill:#709848;}
	.st1{fill:#6D9147;}
	.st2{fill:#A0C872;}
	.st3{fill:#FFFFFF;}
	.st4{fill:#587D39;}
	.st5{fill:#40301B;}
	.st6{fill:#3C4945;}
	.st7{fill:#D3DCDE;}
	.st8{fill:#6F796F;}
	.st9{fill:#384452;}
	.st10{fill:#FCFDFF;}
	.st11{fill:#111522;}
	.st12{fill:#7B777A;}
	.st13{fill:#726F72;}
	.st14{fill:#C4C3C3;}
	.st15{fill:#A2A1A2;}
	.st16{fill:#F2EFF0;}
	.st17{fill:#C3BDBD;}
	.st18{fill:#747572;}
	.st19{fill:#E8E8E8;}
	.st20{fill:#4C4B4C;}
	.st21{fill:#787B7E;}
	.st22{fill:#E3E7EE;}
	.st23{fill:#403E3D;}
	.st24{fill:#828185;}
	.st25{fill:#868989;}
	.st26{fill:#605B60;}
	.st27{fill:#4F5459;}
	.st28{fill:#4F4C59;}
	.st29{fill:#ACA8AA;}
	.st30{fill:#2A3B4C;}
	.st31{fill:#DFE2EB;}
	.st32{fill:#4F5363;}
	.st33{fill:#626363;}
	.st34{fill:#2E3338;}
	.st35{fill:#3A3F4C;}
	.st36{fill:#A6A9B1;}
	.st37{fill:#D8CED2;}
	.st38{fill:#878591;}
	.st39{fill:#C2D0CB;}
	.st40{fill:#AFCADD;}
	.st41{fill:#2E393F;}
	.st42{fill:#7E868A;}
	.st43{fill:#BCD0DC;}
	.st44{fill:#6C806E;}
	.st45{fill:#F8D4D6;}
	.st46{fill:#E9B5B5;}
	.st47{fill:#FBE6E9;}
	.st48{fill:#E5BFC3;}
	.st49{fill:#C1959B;}
	.st50{fill:#F1D5D9;}
	.st51{fill:#AD1E23;}
	.st52{fill:#C11F1F;}
	.st53{fill:#F4DACA;}
	.st54{fill:#F6C6B0;}
	.st55{fill:#E2A88E;}
	.st56{fill:#E0BBAE;}
	.st57{fill:#DDB7A7;}
	.st58{fill:#EFCBBC;}
	.st59{fill:#FDEDDF;}
	.st60{fill:#F7C6BD;}
	.st61{fill:#EA7E75;}
	.st62{opacity:0.67;fill:#D2655F;}
	.st63{fill:#C02225;}
	.st64{fill:#E7434C;}
	.st65{fill:#F6D5C4;}
	.st66{fill:#FDF4E6;}
	.st67{fill:#F3AAAB;}
	.st68{fill:#F7C39C;}
	.st69{fill:#A23B24;}
	.st70{fill:#C5481C;}
	.st71{fill:#E03029;}
	.st72{fill:#367437;}
	.st73{fill:#DA4A49;}
	.st74{fill:#2A5E30;}
	.st75{fill:#C02322;}
	.st76{fill:#E95513;}
	.st77{fill:#77AB6C;}
	.st78{fill:#649459;}
	.st79{fill:#539343;}
	.st80{fill:#E56437;}
	.st81{fill:#D04E2C;}
	.st82{fill:#3D7236;}
	.st83{fill:#02331A;}
	.st84{fill:#5E9854;}
	.st85{fill:#E3E7D0;}
	.st86{fill:none;stroke:#528445;stroke-width:13.4352;stroke-miterlimit:10;}
	.st87{fill:#2E9A39;}
	.st88{fill:none;stroke:#25933A;stroke-width:7.6257;stroke-linecap:round;stroke-linejoin:round;stroke-miterlimit:10;}
	.st89{fill:#25933A;}
	.st90{fill:#29833A;}
	.st91{fill:#D9B665;}
	.st92{fill:#9B814E;}
	.st93{fill:#1EAA39;}
	.st94{fill:#74B73E;}
	.st95{fill:#49B254;}
	.st96{fill:#FCFBE1;}
	.st97{fill:#F9D79C;}
	.st98{fill:#F6B957;}
	.st99{fill:none;stroke:#3DA145;stroke-width:13.4077;stroke-linecap:round;stroke-linejoin:round;stroke-miterlimit:10;}
	.st100{fill:none;stroke:#3DA145;stroke-width:10.6658;stroke-linecap:round;stroke-linejoin:round;stroke-miterlimit:10;}
</style>
<g>
	<path d="M629.34,866.04c0,0-64.89-133.9-19.59-207.62s80.53-103.31,77.27-154.62c-3.27-51.3-60.03-133.11-24.31-203.26
		c0,0-11.88-115.01,74.28-132.52s107.77,100.66,107.77,100.66s49.84,75.22,37.52,117.29c-12.32,42.08-2.49,121.71-63.2,175.06
		c-60.72,53.35-19.97,238.33-100.12,300.11S629.34,866.04,629.34,866.04z" class="st0"></path>
	<path d="M681.56,864.8c-6.96-5.14-38.91-54.86,14.59-101.07c53.5-46.21,53.5-124.03,53.5-143.49
		c0-19.46-74.46-51.07-40.88-119.17c0,0-68.56-155.64,14.13-195.77c0,0-9.73-66.88,58.37-76.61
		c68.09-9.73,102.14,143.49,92.41,187.26s-46.21,107.01-34.05,145.92c0,0,124.16,231.32-68.03,302.92
		C771.6,864.8,722.9,895.34,681.56,864.8z" class="st1"></path>
	<path d="M491.24,757.78c-4.7-12.21-8.16-24.69-10.4-36.82c-5.21-28.28-9.71-56.77-12.37-85.41
		c-1.88-20.22,6.72-58.49,0.51-76.1c-14.59-41.34-17.73-124.03-2.78-165.37c0,0-11.81-170.24,80.61-187.26
		c0,0,77.82-75.39,153.21-14.59S782.7,343,763.24,384.35c0,0,7.3,116.73-43.78,133.76c0,0-21.89,128.89-68.09,175.1
		c-46.21,46.21-38.91,124.31-9.73,144.84c0.13,0.09-49.61,12.59-58.17,10.69C538.2,838.72,507.42,799.87,491.24,757.78z" class="st2"></path>
	<path d="M641.04,879.25c0,0-140.45-41.95-131.33-200.64l9.12-113.09c0,0,8.27-45.6-9.55-74.78
		s-21.46-71.13-21.46-71.13s22.8,50.16,51.07,71.13c37.89,28.12,18.24,56.54,18.24,56.54s3.65-72.96-5.47-89.37
		c-9.12-16.42-25.54-71.13-41.95-76.61c0,0,29.18,3.65,47.42,43.78c0,0-12.77-102.14,16.42-138.62c0,0-9.12,54.72,3.65,74.78
		c0,0-1.82-85.73,32.83-111.26c0,0-31.01,87.55-3.65,176.92c0,0,36.48-45.6,43.78-80.25c0,0-9.12,85.73-41.95,124.03l-9.12,56.54
		c0,0,27.36-43.78,51.07-56.54c23.71-12.77,40.13-47.42,40.13-47.42s1.82,54.72-31.01,76.61c-32.83,21.89-56.54,151.39-56.54,151.39
		s36.48-27.36,49.25-71.13c0,0-18.24,94.85-54.72,120.38c0,0,7.3,98.49,43.78,127.68C677.52,857.36,663.01,888.37,641.04,879.25z" class="st3"></path>
	<path d="M679.34,872.86c0,0-16.42-49.25,15.5-80.25c31.92-31.01,83.9-69.31,83.9-107.61s-14.59-90.49-35.57-119.57
		c0,0,41.04,3.75,49.25,53c0,0-9.12-78.43-6.38-97.58c2.74-19.15-10.03-65.66-10.03-65.66s25.54,36.48,22.8,62.01
		c0,0,41.95-106.7,28.27-163.24c1.52,8.25,20.33,76.83-9.12,163.24c0,0-12.77,23.51-0.91,48.23
		c11.86,24.72,65.66,235.39-66.57,307.44C750.48,872.86,708.06,908.63,679.34,872.86z" class="st3"></path>
	<path d="M700.72,897.12h-89.74c-10.31,0-18.75-8.44-18.75-18.75v0c0-10.31,8.44-18.75,18.75-18.75h89.74
		c10.31,0,18.75,8.44,18.75,18.75v0C719.47,888.69,711.03,897.12,700.72,897.12z" class="st4"></path>
	<path d="M663.94,880.87h-50.8c-4.46,0-8.11-3.65-8.11-8.11v0c0-4.46,3.65-8.11,8.11-8.11h50.8
		c4.46,0,8.11,3.65,8.11,8.11v0C672.05,877.22,668.4,880.87,663.94,880.87z" class="st3"></path>
</g>
<g>
	<path d="M449.23,920.12c0,0-121.27-106.07-107.26-198.69s36.63-137.02,11.7-186.78
		c-24.93-49.76-116.09-107.34-110.12-192.35c0,0-60.44-109.63,18.05-163.49s149.96,54.81,149.96,54.81s81.47,53.92,86.97,101.07
		c5.5,47.15,48.95,122.38,10.96,201.22s80.79,246.03,27,341.48S449.23,920.12,449.23,920.12z" class="st0"></path>
	<path d="M500.76,896.82c-9.11-2.19-61.97-38.25-28.16-106.92s0.93-146.25-7.29-165.65
		c-8.22-19.4-95.81-19.45-91.1-101.52c0,0-134.11-126.19-68.64-201.13c0,0-37.96-62.56,25.82-101.03s162.45,99.88,171.25,147.63
		c8.8,47.75-0.85,126.2,27.71,159.85c0,0,221.52,178.14,60.18,330.72C590.53,858.77,554.88,909.8,500.76,896.82z" class="st1"></path>
	<path d="M265.81,870.56c-9.84-10.19-18.57-21.17-25.93-32.32c-17.14-25.99-33.67-52.49-48.42-79.92
		c-10.42-19.36-18.01-61.15-31.65-76.08c-32.02-35.05-70.08-116.15-72.65-163.68c0,0-83.7-164.72,1.23-220.74
		c0,0,45.72-108.04,146.57-79.28s146.14,115.37,144.21,164.81c0,0,56.6,113.29,12.88,151.84c0,0,32.64,137.74,6.1,203.33
		c-26.54,65.59,13.74,140.37,51.5,148.5c0.16,0.04-44.13,33.51-53.47,35.24C346.83,931.39,299.73,905.68,265.81,870.56z" class="st2"></path>
	<path d="M466.47,928.35c0,0-157.73,17.52-215.69-144.52l-38.69-116.59c0,0-11.02-48.95-41.11-70.52
		c-30.09-21.57-51.45-61.84-51.45-61.84s43.92,40.37,80.97,49.33c49.66,12.02,42.07,48.66,42.07,48.66s-27.19-74.27-43.22-86.78
		s-55.51-60.12-74.19-58.64c0,0,30.63-8.69,65.77,23.6c0,0-55.89-96.43-42.21-145.13c0,0,14.03,58.4,35.24,73.01
		c0,0-38.04-84.69-14.28-124.79c0,0,6.08,100.38,71.12,177.91c0,0,17.1-60.87,9.73-98.5c0,0,27.13,89.31,10.59,141.37l14.8,60.22
		c0,0,8.78-55.2,27.02-77.95c18.24-22.75,19.96-64.23,19.96-64.23s24.94,53.78,1.46,89.47c-23.48,35.69,7.6,174.81,7.6,174.81
		s24.81-42.69,19.04-91.72c0,0,21.89,102.26-3.68,143.13c0,0,48.89,95.1,97.59,108.78S492.23,928.15,466.47,928.35z" class="st3"></path>
	<path d="M501.96,905.8c0,0-37.17-42.16-18.46-86.56c18.72-44.4,54.35-104.55,38.17-142.73
		c-16.18-38.18-52.78-84.04-85.98-104.17c0,0,42.5-13.6,71.49,32.02c0,0-42.23-74.33-47.6-94.58s-37.75-61.22-37.75-61.22
		s40.87,25.58,48.93,52.19c0,0-3.27-124.1-40.79-174.68c5,7.58,52.73,68,59.89,166.59c0,0-2.79,28.83,19.47,48.47
		c22.27,19.64,164.92,206.91,63.54,334.61C572.87,875.74,545.69,929.32,501.96,905.8z" class="st3"></path>
	<path d="M533.52,920.95l-89.46,37.92c-10.28,4.36-22.25-0.49-26.61-10.77h0c-4.36-10.28,0.49-22.25,10.77-26.61
		l89.46-37.92c10.28-4.36,22.25,0.49,26.61,10.77l0,0C548.65,904.62,543.8,916.59,533.52,920.95z" class="st4"></path>
	<path d="M489.99,920.29l-50.64,21.46c-4.44,1.88-9.62-0.21-11.51-4.66l0,0c-1.88-4.45,0.21-9.62,4.66-11.51
		l50.64-21.46c4.44-1.88,9.62,0.21,11.51,4.66l0,0C496.53,913.23,494.43,918.4,489.99,920.29z" class="st3"></path>
</g>
</svg>
