<svg xml:space="preserve" style="enable-background:new 0 0 1024 1024;" viewBox="0 0 1024 1024" y="0px" x="0px" xmlns:xlink="http://www.w3.org/1999/xlink" xmlns="http://www.w3.org/2000/svg" id="图层_1" version="1.1">
<style type="text/css">
	.st0{fill:#709848;}
	.st1{fill:#6D9147;}
	.st2{fill:#A0C872;}
	.st3{fill:#FFFFFF;}
	.st4{fill:#587D39;}
	.st5{fill:#40301B;}
	.st6{fill:#3C4945;}
	.st7{fill:#D3DCDE;}
	.st8{fill:#6F796F;}
	.st9{fill:#384452;}
	.st10{fill:#FCFDFF;}
	.st11{fill:#111522;}
	.st12{fill:#7B777A;}
	.st13{fill:#726F72;}
	.st14{fill:#C4C3C3;}
	.st15{fill:#A2A1A2;}
	.st16{fill:#F2EFF0;}
	.st17{fill:#C3BDBD;}
	.st18{fill:#747572;}
	.st19{fill:#E8E8E8;}
	.st20{fill:#4C4B4C;}
	.st21{fill:#787B7E;}
	.st22{fill:#E3E7EE;}
	.st23{fill:#403E3D;}
	.st24{fill:#828185;}
	.st25{fill:#868989;}
	.st26{fill:#605B60;}
	.st27{fill:#4F5459;}
	.st28{fill:#4F4C59;}
	.st29{fill:#ACA8AA;}
	.st30{fill:#2A3B4C;}
	.st31{fill:#DFE2EB;}
	.st32{fill:#4F5363;}
	.st33{fill:#626363;}
	.st34{fill:#2E3338;}
	.st35{fill:#3A3F4C;}
	.st36{fill:#A6A9B1;}
	.st37{fill:#D8CED2;}
	.st38{fill:#878591;}
	.st39{fill:#C2D0CB;}
	.st40{fill:#AFCADD;}
	.st41{fill:#2E393F;}
	.st42{fill:#7E868A;}
	.st43{fill:#BCD0DC;}
	.st44{fill:#6C806E;}
	.st45{fill:#F8D4D6;}
	.st46{fill:#E9B5B5;}
	.st47{fill:#FBE6E9;}
	.st48{fill:#E5BFC3;}
	.st49{fill:#C1959B;}
	.st50{fill:#F1D5D9;}
	.st51{fill:#AD1E23;}
	.st52{fill:#C11F1F;}
	.st53{fill:#F4DACA;}
	.st54{fill:#F6C6B0;}
	.st55{fill:#E2A88E;}
	.st56{fill:#E0BBAE;}
	.st57{fill:#DDB7A7;}
	.st58{fill:#EFCBBC;}
	.st59{fill:#FDEDDF;}
	.st60{fill:#F7C6BD;}
	.st61{fill:#EA7E75;}
	.st62{opacity:0.67;fill:#D2655F;}
	.st63{fill:#C02225;}
	.st64{fill:#E7434C;}
	.st65{fill:#F6D5C4;}
	.st66{fill:#FDF4E6;}
	.st67{fill:#F3AAAB;}
	.st68{fill:#F7C39C;}
	.st69{fill:#A23B24;}
	.st70{fill:#C5481C;}
	.st71{fill:#E03029;}
	.st72{fill:#367437;}
	.st73{fill:#DA4A49;}
	.st74{fill:#2A5E30;}
	.st75{fill:#C02322;}
	.st76{fill:#E95513;}
	.st77{fill:#77AB6C;}
	.st78{fill:#649459;}
	.st79{fill:#539343;}
	.st80{fill:#E56437;}
	.st81{fill:#D04E2C;}
	.st82{fill:#3D7236;}
	.st83{fill:#02331A;}
	.st84{fill:#5E9854;}
	.st85{fill:#E3E7D0;}
	.st86{fill:none;stroke:#528445;stroke-width:13.4352;stroke-miterlimit:10;}
	.st87{fill:#2E9A39;}
	.st88{fill:none;stroke:#25933A;stroke-width:7.6257;stroke-linecap:round;stroke-linejoin:round;stroke-miterlimit:10;}
	.st89{fill:#25933A;}
	.st90{fill:#29833A;}
	.st91{fill:#D9B665;}
	.st92{fill:#9B814E;}
	.st93{fill:#1EAA39;}
	.st94{fill:#74B73E;}
	.st95{fill:#49B254;}
	.st96{fill:#FCFBE1;}
	.st97{fill:#F9D79C;}
	.st98{fill:#F6B957;}
	.st99{fill:none;stroke:#3DA145;stroke-width:13.4077;stroke-linecap:round;stroke-linejoin:round;stroke-miterlimit:10;}
	.st100{fill:none;stroke:#3DA145;stroke-width:10.6658;stroke-linecap:round;stroke-linejoin:round;stroke-miterlimit:10;}
</style>
<g>
	<ellipse ry="227.93" rx="242.31" cy="460.17" cx="690.03" class="st71"></ellipse>
	<path d="M627.83,282.71l10.68,4.45c11.91,4.96,21.35,3.04,34.18,1.79l14.02-2.18c0,0,12.98,0.31,10.49-22.12
		c0,0-0.83-43.2,51.51-43.2c0,0-24.09,12.95-17.45,34.72s-18.28,43.37-18.28,43.37s36.56,14.95,65.63,0s39.88,24.09,39.88,24.09
		s-21.6-15.79-42.37,3.32c-20.77,19.11-60.65,5.82-60.65,5.82s25.76,17.14,18.28,41.23c0,0-25.76-15.79-40.19-17.45
		c-14.43-1.66-10.49-26.27-10.49-26.27s-16.62,17.45-36.56,14.95c-19.94-2.49-33.23-13.29-45.69-6.65c0,0,25.76-27.11,48.19-26.27
		c22.43,0.83,28.25-7.79,28.25-7.79s-88.9,21.6-96.37-19.11C580.89,285.41,609.55,266.93,627.83,282.71z" class="st72"></path>
	<circle r="22.43" cy="372.65" cx="841.77" class="st73"></circle>
	<path d="M683.22,298.83c-0.74-0.94,2.22-12.17,2.28-13.87c0.16-4.79-0.37-9.65-1.9-14.2
		c-2.57-7.65-10.12-12.91,0.46-18.35c3.41-1.75,10.49-4.01,13.49-0.71c4.83,5.32,8.08,14.14,10.3,20.84
		c1.5,4.54,2.6,9.23,3.13,13.99c0.23,2.06,1.63,14.7-0.42,15.7C710.55,302.23,692.74,310.87,683.22,298.83z" class="st74"></path>
</g>
<g>
	<ellipse ry="251.39" rx="267.26" cy="590.86" cx="360.56" class="st75"></ellipse>
	<ellipse ry="242.2" rx="257.48" cy="577.66" cx="349.14" class="st71"></ellipse>
	<path d="M291.96,395.14l11.78,4.9c13.13,5.47,23.54,3.36,37.7,1.97l15.46-2.41c0,0,14.32,0.34,11.57-24.4
		c0,0-0.92-47.65,56.81-47.65c0,0-26.57,14.28-19.24,38.3c7.33,24.01-20.16,47.84-20.16,47.84s40.32,16.49,72.39,0
		s43.98,26.57,43.98,26.57s-23.82-17.41-46.73,3.67s-66.89,6.41-66.89,6.41s28.41,18.9,20.16,45.47c0,0-28.42-17.41-44.33-19.24
		c-15.91-1.83-11.57-28.98-11.57-28.98s-18.33,19.24-40.32,16.49c-21.99-2.75-36.65-14.66-50.4-7.33c0,0,28.41-29.9,53.15-28.98
		s31.16-8.59,31.16-8.59s-98.05,23.82-106.3-21.08C240.18,398.12,271.8,377.73,291.96,395.14z" class="st75"></path>
	<path d="M286.9,379.86l11.78,4.9c13.13,5.47,23.54,3.36,37.7,1.97l15.46-2.41c0,0,14.32,0.34,11.57-24.4
		c0,0-0.92-47.65,56.81-47.65c0,0-26.57,14.28-19.24,38.3c7.33,24.01-20.16,47.84-20.16,47.84s40.32,16.49,72.39,0
		c32.07-16.49,43.98,26.57,43.98,26.57s-23.82-17.41-46.73,3.67s-66.89,6.41-66.89,6.41s28.41,18.9,20.16,45.47
		c0,0-28.42-17.41-44.33-19.24s-11.57-28.98-11.57-28.98s-18.33,19.24-40.32,16.49s-36.65-14.66-50.4-7.33
		c0,0,28.41-29.9,53.15-28.98c24.74,0.92,31.16-8.59,31.16-8.59s-98.05,23.82-106.3-21.08C235.13,382.84,266.74,362.45,286.9,379.86
		z" class="st72"></path>
	<circle r="24.74" cy="494.33" cx="527.91" class="st73"></circle>
	<path d="M353.05,412.92c-0.82-1.04,2.45-13.42,2.51-15.29c0.18-5.28-0.41-10.64-2.1-15.66
		c-2.84-8.44-11.16-14.23,0.51-20.24c3.76-1.93,11.57-4.43,14.88-0.78c5.33,5.87,8.91,15.6,11.36,22.98
		c1.66,5.01,2.86,10.18,3.45,15.43c0.25,2.27,1.8,16.21-0.46,17.31C383.19,416.67,363.54,426.2,353.05,412.92z" class="st74"></path>
</g>
</svg>
