<svg xml:space="preserve" style="enable-background:new 0 0 1024 1024;" viewBox="0 0 1024 1024" y="0px" x="0px" xmlns:xlink="http://www.w3.org/1999/xlink" xmlns="http://www.w3.org/2000/svg" id="图层_1" version="1.1">
<style type="text/css">
	.st0{fill:#709848;}
	.st1{fill:#6D9147;}
	.st2{fill:#A0C872;}
	.st3{fill:#FFFFFF;}
	.st4{fill:#587D39;}
	.st5{fill:#40301B;}
	.st6{fill:#3C4945;}
	.st7{fill:#D3DCDE;}
	.st8{fill:#6F796F;}
	.st9{fill:#384452;}
	.st10{fill:#FCFDFF;}
	.st11{fill:#111522;}
	.st12{fill:#7B777A;}
	.st13{fill:#726F72;}
	.st14{fill:#C4C3C3;}
	.st15{fill:#A2A1A2;}
	.st16{fill:#F2EFF0;}
	.st17{fill:#C3BDBD;}
	.st18{fill:#747572;}
	.st19{fill:#E8E8E8;}
	.st20{fill:#4C4B4C;}
	.st21{fill:#787B7E;}
	.st22{fill:#E3E7EE;}
	.st23{fill:#403E3D;}
	.st24{fill:#828185;}
	.st25{fill:#868989;}
	.st26{fill:#605B60;}
	.st27{fill:#4F5459;}
	.st28{fill:#4F4C59;}
	.st29{fill:#ACA8AA;}
	.st30{fill:#2A3B4C;}
	.st31{fill:#DFE2EB;}
	.st32{fill:#4F5363;}
	.st33{fill:#626363;}
	.st34{fill:#2E3338;}
	.st35{fill:#3A3F4C;}
	.st36{fill:#A6A9B1;}
	.st37{fill:#D8CED2;}
	.st38{fill:#878591;}
	.st39{fill:#C2D0CB;}
	.st40{fill:#AFCADD;}
	.st41{fill:#2E393F;}
	.st42{fill:#7E868A;}
	.st43{fill:#BCD0DC;}
	.st44{fill:#6C806E;}
	.st45{fill:#F8D4D6;}
	.st46{fill:#E9B5B5;}
	.st47{fill:#FBE6E9;}
	.st48{fill:#E5BFC3;}
	.st49{fill:#C1959B;}
	.st50{fill:#F1D5D9;}
	.st51{fill:#AD1E23;}
	.st52{fill:#C11F1F;}
	.st53{fill:#F4DACA;}
	.st54{fill:#F6C6B0;}
	.st55{fill:#E2A88E;}
	.st56{fill:#E0BBAE;}
	.st57{fill:#DDB7A7;}
	.st58{fill:#EFCBBC;}
	.st59{fill:#FDEDDF;}
	.st60{fill:#F7C6BD;}
	.st61{fill:#EA7E75;}
	.st62{opacity:0.67;fill:#D2655F;}
	.st63{fill:#C02225;}
	.st64{fill:#E7434C;}
	.st65{fill:#F6D5C4;}
	.st66{fill:#FDF4E6;}
	.st67{fill:#F3AAAB;}
	.st68{fill:#F7C39C;}
	.st69{fill:#A23B24;}
	.st70{fill:#C5481C;}
	.st71{fill:#E03029;}
	.st72{fill:#367437;}
	.st73{fill:#DA4A49;}
	.st74{fill:#2A5E30;}
	.st75{fill:#C02322;}
	.st76{fill:#E95513;}
	.st77{fill:#77AB6C;}
	.st78{fill:#649459;}
	.st79{fill:#539343;}
	.st80{fill:#E56437;}
	.st81{fill:#D04E2C;}
	.st82{fill:#3D7236;}
	.st83{fill:#02331A;}
	.st84{fill:#5E9854;}
	.st85{fill:#E3E7D0;}
	.st86{fill:none;stroke:#528445;stroke-width:13.4352;stroke-miterlimit:10;}
	.st87{fill:#2E9A39;}
	.st88{fill:none;stroke:#25933A;stroke-width:7.6257;stroke-linecap:round;stroke-linejoin:round;stroke-miterlimit:10;}
	.st89{fill:#25933A;}
	.st90{fill:#29833A;}
	.st91{fill:#D9B665;}
	.st92{fill:#9B814E;}
	.st93{fill:#1EAA39;}
	.st94{fill:#74B73E;}
	.st95{fill:#49B254;}
	.st96{fill:#FCFBE1;}
	.st97{fill:#F9D79C;}
	.st98{fill:#F6B957;}
	.st99{fill:none;stroke:#3DA145;stroke-width:13.4077;stroke-linecap:round;stroke-linejoin:round;stroke-miterlimit:10;}
	.st100{fill:none;stroke:#3DA145;stroke-width:10.6658;stroke-linecap:round;stroke-linejoin:round;stroke-miterlimit:10;}
</style>
<g>
	<path d="M294.04,857.08c0,0-74.63-280.62-41.79-440.18s177.33-145.31,195.87-31.39
		c16.23,99.73-18.47,401.44-66.67,547.78c-9.25,28.08-48.22,30.62-61.16,4.04C311.18,918.62,301.88,892.75,294.04,857.08z" class="st76"></path>
	<path d="M334.45,318.85l-22.7-160.94c0,0,8.61-35.08,36.29-26.82l11.17,187.76H334.45z" class="st77"></path>
	<path d="M348.04,322.98l11.17-223.53c0,0,19.95-17.19,40.58,0l-32.33,223.53H348.04z" class="st78"></path>
	<path d="M358.52,312.66l59.84-173.32c0,0,19.95-11.69,25.45,13.07l-69.89,163L358.52,312.66z" class="st79"></path>
	<path d="M320.3,937.3c3.65,7.49,9.45,12.42,15.99,15.37c-49.03-148.25-76.97-431-51.35-518.99
		c31.54-108.32,139.55-102.26,140.24-102.22c-46.98-58.92-146.38-43.52-172.92,85.41c-32.84,159.57,41.79,440.18,41.79,440.18
		C301.88,892.72,311.19,918.59,320.3,937.3z" class="st80"></path>
	<path d="M437.62,412.11c0,0-12.26,26.4-149.94,25.46C287.68,437.57,403.67,475.29,437.62,412.11z" class="st81"></path>
	<path d="M430.63,462.11c0,0-3.95,27.49-113.42,33.93C317.21,496.04,418.48,517.53,430.63,462.11z" class="st81"></path>
	<path d="M393.85,829.75c0,0-10.18,21.28-69.27,5.4C324.58,835.15,371.14,871.85,393.85,829.75z" class="st81"></path>
	<path d="M412.77,531.71c0,0-0.99,23.57-61.57,32.19C351.19,563.9,408.44,579.35,412.77,531.71z" class="st81"></path>
	<path d="M391.1,802.88c0,0-7.69,16.08-52.35,4.08C338.76,806.95,373.95,834.69,391.1,802.88z" class="st81"></path>
</g>
<g>
	<path d="M442.58,903.73c0,0-49.89-337.78,9.69-519.84s226.5-146.2,233.02-10.63
		c5.71,118.68-74.95,466.57-150.71,631.14c-14.54,31.58-60.41,29.37-72-3.41C454.43,977.9,447,946.44,442.58,903.73z" class="st76"></path>
	<path d="M561.34,280.25L556.21,89.2c0,0,14.72-39.84,45.96-26.52l-11.91,220.86L561.34,280.25z" class="st77"></path>
	<path d="M576.67,286.88L619.43,27.2c0,0,25.59-17.44,47.41,5.39l-67.48,256.87L576.67,286.88z" class="st78"></path>
	<path d="M590.29,276.22l92.95-194.55c0,0,24.86-11.01,28,18.65L607.9,281.48L590.29,276.22z" class="st79"></path>
	<path d="M462.59,1000.94c3.27,9.24,9.39,15.77,16.63,20.08c-37.57-179.73-32.64-513.79,8.99-613.19
		c51.24-122.37,176.64-100.93,177.44-100.79c-47.06-75.08-165.24-70.3-213.39,76.81c-59.58,182.06-9.69,519.84-9.69,519.84
		C447,946.41,454.43,977.86,462.59,1000.94z" class="st80"></path>
	<path d="M669.48,402.92c0,0-17.83,29.22-178.56,9.82C490.91,412.73,621.42,472.22,669.48,402.92z" class="st81"></path>
	<path d="M654.66,460.41c0,0-8.27,31.59-137.03,24.57C517.64,484.97,633.1,523.54,654.66,460.41z" class="st81"></path>
	<path d="M562.82,885.06c0,0-14.72,23.51-81.65-2.9C481.17,882.16,530.7,931.23,562.82,885.06z" class="st81"></path>
	<path d="M624.55,539.36c0,0-4.3,27.41-76.22,29.42C548.33,568.78,613.15,594.44,624.55,539.36z" class="st81"></path>
	<path d="M563.19,853.29c0,0-11.13,17.77-61.7-2.19C501.49,851.1,538.91,888.19,563.19,853.29z" class="st81"></path>
</g>
<g>
	<path d="M704.59,896.99c0,0-81.04-241.2-61.3-382.58s146.9-137.04,169.52-38.46c19.8,86.3,6.42,352.09-27.5,482.77
		c-6.51,25.08-40.45,29.49-53.26,6.97C723.04,949.84,713.46,927.74,704.59,896.99z" class="st76"></path>
	<path d="M709.66,424.05l-28.9-139.46c0,0,5.56-31.16,30.22-25.5l20.33,163.57L709.66,424.05z" class="st77"></path>
	<path d="M721.78,426.89l-2.8-196.1c0,0,16.48-16.16,35.49-2.28l-15.7,197.29L721.78,426.89z" class="st78"></path>
	<path d="M730.36,417.28l42.58-154.93c0,0,16.78-11.35,22.99,10l-51.95,146.47L730.36,417.28z" class="st79"></path>
	<path d="M732.06,965.66c3.61,6.35,8.96,10.33,14.84,12.54c-51.21-126.89-91.55-372.57-74.09-450.96
		c21.49-96.5,116.28-97.28,116.89-97.28c-44.4-48.88-130.45-29.82-146.41,84.42c-19.75,141.38,61.3,382.58,61.3,382.58
		C713.45,927.72,723.04,949.81,732.06,965.66z" class="st80"></path>
	<path d="M805.12,499.79c0,0-9.24,23.78-129.68,30.7C675.44,530.49,778.99,556.95,805.12,499.79z" class="st81"></path>
	<path d="M801.82,543.91c0,0-1.91,24.26-97.28,36.05C704.55,579.96,794.32,593.06,801.82,543.91z" class="st81"></path>
	<path d="M790.33,867.48c0,0-7.7,19.18-60.27,8.61C730.06,876.09,772.85,905.57,790.33,867.48z" class="st81"></path>
	<path d="M790.12,605.78c0,0,0.46,20.67-52.04,31.61C738.08,637.39,789.01,647.68,790.12,605.78z" class="st81"></path>
	<path d="M786.42,844.13c0,0-5.82,14.5-45.55,6.51C740.88,850.64,773.21,872.91,786.42,844.13z" class="st81"></path>
</g>
</svg>
