<svg xml:space="preserve" style="enable-background:new 0 0 1024 1024;" viewBox="0 0 1024 1024" y="0px" x="0px" xmlns:xlink="http://www.w3.org/1999/xlink" xmlns="http://www.w3.org/2000/svg" id="图层_1" version="1.1">
<style type="text/css">
	.st0{fill:#709848;}
	.st1{fill:#6D9147;}
	.st2{fill:#A0C872;}
	.st3{fill:#FFFFFF;}
	.st4{fill:#587D39;}
	.st5{fill:#40301B;}
	.st6{fill:#3C4945;}
	.st7{fill:#D3DCDE;}
	.st8{fill:#6F796F;}
	.st9{fill:#384452;}
	.st10{fill:#FCFDFF;}
	.st11{fill:#111522;}
	.st12{fill:#7B777A;}
	.st13{fill:#726F72;}
	.st14{fill:#C4C3C3;}
	.st15{fill:#A2A1A2;}
	.st16{fill:#F2EFF0;}
	.st17{fill:#C3BDBD;}
	.st18{fill:#747572;}
	.st19{fill:#E8E8E8;}
	.st20{fill:#4C4B4C;}
	.st21{fill:#787B7E;}
	.st22{fill:#E3E7EE;}
	.st23{fill:#403E3D;}
	.st24{fill:#828185;}
	.st25{fill:#868989;}
	.st26{fill:#605B60;}
	.st27{fill:#4F5459;}
	.st28{fill:#4F4C59;}
	.st29{fill:#ACA8AA;}
	.st30{fill:#2A3B4C;}
	.st31{fill:#DFE2EB;}
	.st32{fill:#4F5363;}
	.st33{fill:#626363;}
	.st34{fill:#2E3338;}
	.st35{fill:#3A3F4C;}
	.st36{fill:#A6A9B1;}
	.st37{fill:#D8CED2;}
	.st38{fill:#878591;}
	.st39{fill:#C2D0CB;}
	.st40{fill:#AFCADD;}
	.st41{fill:#2E393F;}
	.st42{fill:#7E868A;}
	.st43{fill:#BCD0DC;}
	.st44{fill:#6C806E;}
	.st45{fill:#F8D4D6;}
	.st46{fill:#E9B5B5;}
	.st47{fill:#FBE6E9;}
	.st48{fill:#E5BFC3;}
	.st49{fill:#C1959B;}
	.st50{fill:#F1D5D9;}
	.st51{fill:#AD1E23;}
	.st52{fill:#C11F1F;}
	.st53{fill:#F4DACA;}
	.st54{fill:#F6C6B0;}
	.st55{fill:#E2A88E;}
	.st56{fill:#E0BBAE;}
	.st57{fill:#DDB7A7;}
	.st58{fill:#EFCBBC;}
	.st59{fill:#FDEDDF;}
	.st60{fill:#F7C6BD;}
	.st61{fill:#EA7E75;}
	.st62{opacity:0.67;fill:#D2655F;}
	.st63{fill:#C02225;}
	.st64{fill:#E7434C;}
	.st65{fill:#F6D5C4;}
	.st66{fill:#FDF4E6;}
	.st67{fill:#F3AAAB;}
	.st68{fill:#F7C39C;}
	.st69{fill:#A23B24;}
	.st70{fill:#C5481C;}
	.st71{fill:#E03029;}
	.st72{fill:#367437;}
	.st73{fill:#DA4A49;}
	.st74{fill:#2A5E30;}
	.st75{fill:#C02322;}
	.st76{fill:#E95513;}
	.st77{fill:#77AB6C;}
	.st78{fill:#649459;}
	.st79{fill:#539343;}
	.st80{fill:#E56437;}
	.st81{fill:#D04E2C;}
	.st82{fill:#3D7236;}
	.st83{fill:#02331A;}
	.st84{fill:#5E9854;}
	.st85{fill:#E3E7D0;}
	.st86{fill:none;stroke:#528445;stroke-width:13.4352;stroke-miterlimit:10;}
	.st87{fill:#2E9A39;}
	.st88{fill:none;stroke:#25933A;stroke-width:7.6257;stroke-linecap:round;stroke-linejoin:round;stroke-miterlimit:10;}
	.st89{fill:#25933A;}
	.st90{fill:#29833A;}
	.st91{fill:#D9B665;}
	.st92{fill:#9B814E;}
	.st93{fill:#1EAA39;}
	.st94{fill:#74B73E;}
	.st95{fill:#49B254;}
	.st96{fill:#FCFBE1;}
	.st97{fill:#F9D79C;}
	.st98{fill:#F6B957;}
	.st99{fill:none;stroke:#3DA145;stroke-width:13.4077;stroke-linecap:round;stroke-linejoin:round;stroke-miterlimit:10;}
	.st100{fill:none;stroke:#3DA145;stroke-width:10.6658;stroke-linecap:round;stroke-linejoin:round;stroke-miterlimit:10;}
</style>
<g>
	<path d="M212.32,417.58c0,0-64.94,139.94-54.88,155.49c0,0,32.93,14.63,63.11-13.72s75-3.66,84.15,7.32
		c9.15,10.98,29.27,40.25,69.51,5.49L212.32,417.58z" class="st27"></path>
	<path d="M735.05,1001.59c0,0-10.06-103.36,27.44-166.47c37.5-63.11,1.83-98.78,1.83-98.78s57.62,17.38,91.47,1.83
		c33.84-15.55,118.91-47.56,154.58-24.7C1010.37,713.47,842.98,793.05,735.05,1001.59z" class="st28"></path>
	<path d="M796.33,779.33c-7.82-4.74-188.8-105.09-251.53-119.82C439.61,634.81,146,461.94,99.36,214.06
		c0,0-22.87-63.11,42.07-78.66s191.01,78.26,235.99,98.78c35.3,16.11,337.51,286.29,409.77,493.92
		C787.19,728.11,820.44,793.94,796.33,779.33z" class="st29"></path>
	<path d="M695.09,685.35c-85.8-60.55-429.26-230.22-509.52-392.8c-35.58-72.07-63.61-110.66-83.84-131.4
		c-13.32,23.5-2.95,52.35-2.95,52.35c46.65,247.88,340.26,420.75,445.44,445.44c62.74,14.73,243.71,115.08,251.53,119.82
		c5.1,3.09,7.52,2.45,8.35-0.27C781.79,755.34,744.87,720.48,695.09,685.35z" class="st30"></path>
	<circle r="22.31" cy="227.32" cx="167.96" class="st31"></circle>
	<path d="M231.62,306.81c0,0,141.77,150.92,171.96,129.88c0,0,3.66-54.88-118.91-160.98c0,0,10.29,29.96-14.06,26.87
		C246.26,299.49,231.62,306.81,231.62,306.81z" class="st32"></path>
	<path d="M148.82,269.51c0,0,33.84-10.06,73.17,1.83s49.39-43.9,34.3-71.8c0,0,19.68,15.01,19.67,48.93
		c-0.02,34.31-20.12,47.56-44.82,44.82C206.45,290.55,170.52,265.98,148.82,269.51z" class="st33"></path>
	<circle r="15.72" cy="227.32" cx="168.78" class="st34"></circle>
	<path d="M101.73,161.14c0,0,25.06-9.28,42.44-2.88s21.95-16.46-2.74-22.87S101.73,161.14,101.73,161.14z" class="st34"></path>
	<path d="M101.73,161.14c0,0,8.67-11.64,24.41-11.37c15.74,0.26,23.25,11.53,26.87,9.16c0,0-6.71,6.81-16.35,1.36
		S106.17,157.39,101.73,161.14z" class="st27"></path>
	<path d="M503.7,638.4c0,0,27.44,43.9,26.53,61.28s17.38,77.75,41.16,96.04c0,0,7.07-8.9,3.08-41.5
		c-3.99-32.59,51.8-68.27,59.12-66.44C640.9,689.63,503.7,638.4,503.7,638.4z" class="st27"></path>
	<path d="M642.31,492.48c0,0,43.9,27.44,61.28,26.53s77.75,17.38,96.04,41.16c0,0-8.9,7.07-41.5,3.08
		c-32.59-3.99-68.27,51.8-66.44,59.12C693.53,629.68,642.31,492.48,642.31,492.48z" class="st29"></path>
	<path d="M401.2,261.62c0,0,39.33-11.89,57.62-2.74c18.29,9.15,57.4-2.52,55.22,15.21
		c-2.17,17.72-64.37,36.02-64.37,36.02L401.2,261.62z" class="st29"></path>
	<path d="M250.16,314.02l58.46,53.87l-44.34-53.87l51.03,36.42l-32.58-36.42l32.58,21.08l-24.9-25l24.9,5.84
		l-6.69-15.33C308.62,300.6,268.7,321.24,250.16,314.02z" class="st35"></path>
	<path d="M148.82,269.51c0,0,28.12-10.01,53.23,0c25.11,10.01,87.22,8.18,54.25-69.97c0,0,12.07,61.64-34.89,60.75
		S160.57,256.63,148.82,269.51z" class="st36"></path>
	<path d="M447.59,302.52c0.6,1.45,33.26-14.53,33.26-14.53l-33.26,7.27l12.17-7.27l-17.67,2.75l12.17-9.82l-24.8,3.93
		l15.77-9.14h-21.86l16.38-5.78h-24.76l16.89-4.71h-25.13C406.75,265.21,442.88,291.13,447.59,302.52z" class="st37"></path>
	<circle r="7.08" cy="223.46" cx="167.99" class="st38"></circle>
</g>
</svg>
