<svg xml:space="preserve" style="enable-background:new 0 0 1024 1024;" viewBox="0 0 1024 1024" y="0px" x="0px" xmlns:xlink="http://www.w3.org/1999/xlink" xmlns="http://www.w3.org/2000/svg" id="图层_1" version="1.1">
<style type="text/css">
	.st0{fill:#709848;}
	.st1{fill:#6D9147;}
	.st2{fill:#A0C872;}
	.st3{fill:#FFFFFF;}
	.st4{fill:#587D39;}
	.st5{fill:#40301B;}
	.st6{fill:#3C4945;}
	.st7{fill:#D3DCDE;}
	.st8{fill:#6F796F;}
	.st9{fill:#384452;}
	.st10{fill:#FCFDFF;}
	.st11{fill:#111522;}
	.st12{fill:#7B777A;}
	.st13{fill:#726F72;}
	.st14{fill:#C4C3C3;}
	.st15{fill:#A2A1A2;}
	.st16{fill:#F2EFF0;}
	.st17{fill:#C3BDBD;}
	.st18{fill:#747572;}
	.st19{fill:#E8E8E8;}
	.st20{fill:#4C4B4C;}
	.st21{fill:#787B7E;}
	.st22{fill:#E3E7EE;}
	.st23{fill:#403E3D;}
	.st24{fill:#828185;}
	.st25{fill:#868989;}
	.st26{fill:#605B60;}
	.st27{fill:#4F5459;}
	.st28{fill:#4F4C59;}
	.st29{fill:#ACA8AA;}
	.st30{fill:#2A3B4C;}
	.st31{fill:#DFE2EB;}
	.st32{fill:#4F5363;}
	.st33{fill:#626363;}
	.st34{fill:#2E3338;}
	.st35{fill:#3A3F4C;}
	.st36{fill:#A6A9B1;}
	.st37{fill:#D8CED2;}
	.st38{fill:#878591;}
	.st39{fill:#C2D0CB;}
	.st40{fill:#AFCADD;}
	.st41{fill:#2E393F;}
	.st42{fill:#7E868A;}
	.st43{fill:#BCD0DC;}
	.st44{fill:#6C806E;}
	.st45{fill:#F8D4D6;}
	.st46{fill:#E9B5B5;}
	.st47{fill:#FBE6E9;}
	.st48{fill:#E5BFC3;}
	.st49{fill:#C1959B;}
	.st50{fill:#F1D5D9;}
	.st51{fill:#AD1E23;}
	.st52{fill:#C11F1F;}
	.st53{fill:#F4DACA;}
	.st54{fill:#F6C6B0;}
	.st55{fill:#E2A88E;}
	.st56{fill:#E0BBAE;}
	.st57{fill:#DDB7A7;}
	.st58{fill:#EFCBBC;}
	.st59{fill:#FDEDDF;}
	.st60{fill:#F7C6BD;}
	.st61{fill:#EA7E75;}
	.st62{opacity:0.67;fill:#D2655F;}
	.st63{fill:#C02225;}
	.st64{fill:#E7434C;}
	.st65{fill:#F6D5C4;}
	.st66{fill:#FDF4E6;}
	.st67{fill:#F3AAAB;}
	.st68{fill:#F7C39C;}
	.st69{fill:#A23B24;}
	.st70{fill:#C5481C;}
	.st71{fill:#E03029;}
	.st72{fill:#367437;}
	.st73{fill:#DA4A49;}
	.st74{fill:#2A5E30;}
	.st75{fill:#C02322;}
	.st76{fill:#E95513;}
	.st77{fill:#77AB6C;}
	.st78{fill:#649459;}
	.st79{fill:#539343;}
	.st80{fill:#E56437;}
	.st81{fill:#D04E2C;}
	.st82{fill:#3D7236;}
	.st83{fill:#02331A;}
	.st84{fill:#5E9854;}
	.st85{fill:#E3E7D0;}
	.st86{fill:none;stroke:#528445;stroke-width:13.4352;stroke-miterlimit:10;}
	.st87{fill:#2E9A39;}
	.st88{fill:none;stroke:#25933A;stroke-width:7.6257;stroke-linecap:round;stroke-linejoin:round;stroke-miterlimit:10;}
	.st89{fill:#25933A;}
	.st90{fill:#29833A;}
	.st91{fill:#D9B665;}
	.st92{fill:#9B814E;}
	.st93{fill:#1EAA39;}
	.st94{fill:#74B73E;}
	.st95{fill:#49B254;}
	.st96{fill:#FCFBE1;}
	.st97{fill:#F9D79C;}
	.st98{fill:#F6B957;}
	.st99{fill:none;stroke:#3DA145;stroke-width:13.4077;stroke-linecap:round;stroke-linejoin:round;stroke-miterlimit:10;}
	.st100{fill:none;stroke:#3DA145;stroke-width:10.6658;stroke-linecap:round;stroke-linejoin:round;stroke-miterlimit:10;}
</style>
<g>
	<path d="M628.38,556.4c0,0,131.4-317.12,172.65-361.45l68.87,34.49c0,0-157.31,259.36-173.74,343.64L628.38,556.4z" class="st82"></path>
	<path d="M661.79,472.59c3.24-1.06,63.15-136.66,63.15-136.66l-2.26,24.32l14.55-33.61l-3.66,28.52l17.54-39.73
		l-5.21,29.45l27.05-43.07l-10.73,29.51l26.33-40.13l-14.5,44.76l27.15-56.19l-53.82,166.86L661.79,472.59z" class="st83"></path>
	<polygon points="755.36,435.89 941.53,203.89 977.79,220.72 783.87,444.81" class="st83"></polygon>
	<path d="M904.24,149.44c0,0-297.27,392.8-326.91,440.19S468.86,758.94,436.2,776.33s-65.19,54.31-59.35,94.74
		s52.37,74.99,90.96,34.24s125.68-195.4,129.67-200.77c3.99-5.37,152.36-208.9,168.31-230.37
		c15.95-21.47,118.11-211.37,175.74-270.28L904.24,149.44z" class="st84"></path>
	<path d="M532.18,831.89c13.7-36.35,163.98-258.81,163.98-258.81l75.51-108.42l-82.41,98.09l44.96-83.91l-58.59,77.76
		l35.82-73.52l-51.59,72.05l33.93-72.32l-50.19,74.75l31.56-74.85l-46.78,73.68l22.42-55.88c0,0-22.67,35.71-39.59,62.34
		l22.47-51.12c0,0-111.92,146.22-122.5,164.95s-64.89,64.76-110.94,127c-63.66,86.05-8.55,109.98,35.95,135.09
		C480.68,963.89,518.47,868.24,532.18,831.89z M595.13,599.43L595.13,599.43L595.13,599.43L595.13,599.43z" class="st3"></path>
	<path d="M478.42,885.43c0,0-23.47,33.93-66.76,0.4c0,0-13.82,5.01-0.75,20.27c13.07,15.26,46.1,36.25,73.64,4.72
		C484.56,910.81,504.09,870.58,478.42,885.43z" class="st85"></path>
	<path d="M896.78,184.16c-15.23,22-202.29,281.48-202.29,281.48" class="st86"></path>
	<polygon points="941.53,203.89 918.34,241.35 939.68,229.86 905.47,264.18 935.01,242.58 903.09,285.55 
		933.72,253.19 896.27,303.62 934.07,265.02 895.36,315.98 977.79,220.72" class="st72"></polygon>
	<g>
		<path d="M370.45,938.54c-1.8-1.34-2.89-3.54-2.7-5.94c1.97-24.39,21.45-28.66,22.28-28.83
			c3.63-0.74,7.18,1.6,7.93,5.23c0.74,3.6-1.56,7.13-5.16,7.91c-1.15,0.28-10.54,2.96-11.66,16.77c-0.3,3.69-3.54,6.45-7.24,6.15
			C372.61,939.74,371.42,939.27,370.45,938.54z" class="st85"></path>
	</g>
	<g>
		<path d="M407.64,959.22c-2.91-2.16-3.58-6.27-1.49-9.25c8.43-12.01,2.04-19.29,1.28-20.08
			c-2.54-2.64-2.52-6.88,0.08-9.46c2.61-2.58,6.79-2.62,9.38-0.08c5.43,5.3,12.49,19.93,0.26,37.35c-2.13,3.03-6.33,3.77-9.36,1.64
			C407.74,959.3,407.69,959.26,407.64,959.22z" class="st85"></path>
	</g>
	<g>
		<path d="M433.39,963.8c-2.52-1.87-3.45-5.31-2.06-8.26c3.58-7.58-4.02-13.91-4.9-14.6c-2.89-2.3-3.4-6.51-1.13-9.42
			s6.6-3.24,9.38-1.19c5.93,4.58,15.41,16.94,8.8,30.95c-1.58,3.35-5.59,4.79-8.94,3.21C434.12,964.29,433.75,964.06,433.39,963.8z" class="st85"></path>
	</g>
	<g>
		<path d="M387.06,943.94c-2.62-1.95-3.5-5.57-1.92-8.55l8.11-15.22c-5.04-3.64-14.46-8.71-23.72-4.38
			c-3.35,1.56-7.36,0.13-8.93-3.25c-1.57-3.36-0.12-7.36,3.25-8.93c22.11-10.32,41.86,9.34,42.68,10.18
			c2.06,2.09,2.52,5.28,1.15,7.87l-10.67,20.04c-1.75,3.28-5.81,4.52-9.09,2.78C387.62,944.32,387.33,944.14,387.06,943.94z" class="st85"></path>
	</g>
</g>
<g>
	<path d="M530.59,518.4c0,0,131.4-317.12,172.65-361.45l68.87,34.49c0,0-157.31,259.36-173.74,343.64L530.59,518.4z" class="st82"></path>
	<path d="M564,434.6c3.24-1.06,63.15-136.66,63.15-136.66l-2.26,24.32l14.55-33.61l-3.66,28.52l17.54-39.73
		l-5.21,29.45l27.05-43.07l-10.73,29.51l26.33-40.13l-14.5,44.76l27.15-56.19l-53.82,166.86L564,434.6z" class="st83"></path>
	<polygon points="657.57,397.89 843.74,165.9 880,182.73 686.08,406.82" class="st83"></polygon>
	<path d="M806.45,111.44c0,0-297.27,392.8-326.91,440.19S371.07,720.95,338.41,738.34s-65.19,54.31-59.35,94.74
		s52.37,74.99,90.96,34.24s125.68-195.4,129.67-200.77c3.99-5.37,152.36-208.9,168.31-230.37
		c15.95-21.47,118.11-211.37,175.74-270.28L806.45,111.44z" class="st84"></path>
	<path d="M434.39,793.89c13.7-36.35,163.98-258.81,163.98-258.81l75.51-108.42l-82.41,98.09l44.96-83.91l-58.59,77.76
		l35.82-73.52l-51.59,72.05l33.93-72.32l-50.19,74.75l31.56-74.85l-46.78,73.68L553,462.52c0,0-22.67,35.71-39.59,62.34l22.47-51.12
		c0,0-111.92,146.22-122.5,164.95c-10.59,18.73-64.89,64.76-110.94,127c-63.66,86.05-8.55,109.98,35.95,135.09
		C382.89,925.89,420.68,830.25,434.39,793.89z M497.34,561.44L497.34,561.44L497.34,561.44L497.34,561.44z" class="st3"></path>
	<path d="M380.63,847.43c0,0-23.47,33.93-66.76,0.4c0,0-13.82,5.01-0.75,20.27c13.07,15.26,46.1,36.25,73.64,4.72
		C386.77,872.81,406.3,832.58,380.63,847.43z" class="st85"></path>
	<path d="M798.99,146.16c-15.23,22-202.29,281.48-202.29,281.48" class="st86"></path>
	<polygon points="843.74,165.9 820.55,203.36 841.89,191.86 807.68,226.19 837.22,204.59 805.3,247.56 835.93,215.2 
		798.48,265.63 836.28,227.03 797.57,277.98 880,182.73" class="st72"></polygon>
	<g>
		<path d="M272.66,900.55c-1.8-1.34-2.89-3.54-2.7-5.94c1.97-24.39,21.45-28.66,22.28-28.83
			c3.63-0.74,7.18,1.6,7.93,5.23c0.74,3.6-1.56,7.13-5.16,7.91c-1.15,0.28-10.54,2.96-11.66,16.77c-0.3,3.69-3.54,6.45-7.24,6.15
			C274.82,901.74,273.63,901.27,272.66,900.55z" class="st85"></path>
	</g>
	<g>
		<path d="M309.85,921.23c-2.91-2.16-3.58-6.27-1.49-9.25c8.43-12.01,2.04-19.29,1.28-20.08
			c-2.54-2.64-2.52-6.88,0.08-9.46c2.61-2.58,6.79-2.62,9.38-0.08c5.43,5.3,12.49,19.93,0.26,37.35c-2.13,3.03-6.33,3.77-9.36,1.64
			C309.95,921.3,309.9,921.27,309.85,921.23z" class="st85"></path>
	</g>
	<g>
		<path d="M335.6,925.81c-2.52-1.87-3.45-5.31-2.06-8.26c3.58-7.58-4.02-13.91-4.9-14.6c-2.89-2.3-3.4-6.51-1.13-9.42
			c2.27-2.91,6.6-3.24,9.38-1.19c5.93,4.58,15.41,16.94,8.8,30.95c-1.58,3.35-5.59,4.79-8.94,3.21
			C336.33,926.3,335.96,926.07,335.6,925.81z" class="st85"></path>
	</g>
	<g>
		<path d="M289.27,905.94c-2.62-1.95-3.5-5.57-1.92-8.55l8.11-15.22c-5.04-3.64-14.46-8.71-23.72-4.38
			c-3.35,1.56-7.36,0.13-8.93-3.25c-1.57-3.36-0.12-7.36,3.25-8.93c22.11-10.32,41.86,9.34,42.68,10.18
			c2.06,2.09,2.52,5.28,1.15,7.87l-10.67,20.04c-1.75,3.28-5.81,4.52-9.09,2.78C289.83,906.32,289.54,906.14,289.27,905.94z" class="st85"></path>
	</g>
</g>
<g>
	<path d="M424.24,432.89c0,0,131.4-317.12,172.65-361.45l68.87,34.49c0,0-157.31,259.36-173.74,343.64L424.24,432.89z" class="st82"></path>
	<path d="M457.65,349.09c3.24-1.06,63.15-136.66,63.15-136.66l-2.26,24.32l14.55-33.61l-3.66,28.52l17.54-39.73
		l-5.21,29.45l27.05-43.07l-10.73,29.51l26.33-40.13l-14.5,44.76l27.15-56.19l-53.82,166.86L457.65,349.09z" class="st83"></path>
	<polygon points="551.22,312.38 737.39,80.39 773.65,97.21 579.73,321.31" class="st83"></polygon>
	<path d="M700.1,25.93c0,0-297.27,392.8-326.91,440.19c-29.64,47.39-108.47,169.31-141.13,186.71
		s-65.19,54.31-59.35,94.74s52.37,74.99,90.96,34.24s125.68-195.4,129.67-200.77c3.99-5.37,152.36-208.9,168.31-230.37
		C577.6,329.19,679.76,139.3,737.39,80.39L700.1,25.93z" class="st84"></path>
	<path d="M328.04,708.38c13.7-36.35,163.98-258.81,163.98-258.81l75.51-108.42l-82.41,98.09l44.96-83.91l-58.59,77.76
		l35.82-73.52l-51.59,72.05l33.93-72.32l-50.19,74.75l31.56-74.85l-46.78,73.68l22.42-55.88c0,0-22.67,35.71-39.59,62.34
		l22.47-51.12c0,0-111.92,146.22-122.5,164.95c-10.59,18.73-64.89,64.76-110.94,127c-63.66,86.05-8.55,109.98,35.95,135.09
		C276.54,840.38,314.34,744.74,328.04,708.38z M390.99,475.93L390.99,475.93L390.99,475.93L390.99,475.93z" class="st3"></path>
	<path d="M274.28,761.92c0,0-23.47,33.93-66.76,0.4c0,0-13.82,5.01-0.75,20.27c13.07,15.26,46.1,36.25,73.64,4.72
		C280.42,787.3,299.95,747.07,274.28,761.92z" class="st85"></path>
	<path d="M692.64,60.65c-15.23,22-202.29,281.48-202.29,281.48" class="st86"></path>
	<polygon points="737.39,80.39 714.2,117.84 735.55,106.35 701.33,140.68 730.87,119.08 698.96,162.05 729.58,129.69 
		692.13,180.12 729.94,141.52 691.22,192.47 773.65,97.21" class="st72"></polygon>
	<g>
		<path d="M166.31,815.04c-1.8-1.34-2.89-3.54-2.7-5.94c1.97-24.39,21.45-28.66,22.28-28.83
			c3.63-0.74,7.18,1.6,7.93,5.23c0.74,3.6-1.56,7.13-5.16,7.91c-1.15,0.28-10.54,2.96-11.66,16.77c-0.3,3.69-3.54,6.45-7.24,6.15
			C168.47,816.23,167.28,815.76,166.31,815.04z" class="st85"></path>
	</g>
	<g>
		<path d="M203.5,835.72c-2.91-2.16-3.58-6.27-1.49-9.25c8.43-12.01,2.04-19.29,1.28-20.08
			c-2.54-2.64-2.52-6.88,0.08-9.46c2.61-2.58,6.79-2.62,9.38-0.08c5.43,5.3,12.49,19.93,0.26,37.35c-2.13,3.03-6.33,3.77-9.36,1.64
			C203.6,835.79,203.56,835.75,203.5,835.72z" class="st85"></path>
	</g>
	<g>
		<path d="M229.26,840.3c-2.52-1.87-3.45-5.31-2.06-8.26c3.58-7.58-4.02-13.91-4.9-14.6c-2.89-2.3-3.4-6.51-1.13-9.42
			c2.27-2.91,6.6-3.24,9.38-1.19c5.93,4.58,15.41,16.94,8.8,30.95c-1.58,3.35-5.59,4.79-8.94,3.21
			C229.99,840.79,229.61,840.56,229.26,840.3z" class="st85"></path>
	</g>
	<g>
		<path d="M182.93,820.43c-2.62-1.95-3.5-5.57-1.92-8.55l8.11-15.22c-5.04-3.64-14.46-8.71-23.72-4.38
			c-3.35,1.56-7.36,0.13-8.93-3.25c-1.57-3.36-0.12-7.36,3.25-8.93c22.11-10.32,41.86,9.34,42.68,10.18
			c2.06,2.09,2.52,5.28,1.15,7.87l-10.67,20.04c-1.75,3.28-5.81,4.52-9.09,2.78C183.48,820.81,183.19,820.63,182.93,820.43z" class="st85"></path>
	</g>
</g>
</svg>
