<svg xml:space="preserve" style="enable-background:new 0 0 1024 1024;" viewBox="0 0 1024 1024" y="0px" x="0px" xmlns:xlink="http://www.w3.org/1999/xlink" xmlns="http://www.w3.org/2000/svg" id="图层_1" version="1.1">
<style type="text/css">
	.st0{fill:#709848;}
	.st1{fill:#6D9147;}
	.st2{fill:#A0C872;}
	.st3{fill:#FFFFFF;}
	.st4{fill:#587D39;}
	.st5{fill:#40301B;}
	.st6{fill:#3C4945;}
	.st7{fill:#D3DCDE;}
	.st8{fill:#6F796F;}
	.st9{fill:#384452;}
	.st10{fill:#FCFDFF;}
	.st11{fill:#111522;}
	.st12{fill:#7B777A;}
	.st13{fill:#726F72;}
	.st14{fill:#C4C3C3;}
	.st15{fill:#A2A1A2;}
	.st16{fill:#F2EFF0;}
	.st17{fill:#C3BDBD;}
	.st18{fill:#747572;}
	.st19{fill:#E8E8E8;}
	.st20{fill:#4C4B4C;}
	.st21{fill:#787B7E;}
	.st22{fill:#E3E7EE;}
	.st23{fill:#403E3D;}
	.st24{fill:#828185;}
	.st25{fill:#868989;}
	.st26{fill:#605B60;}
	.st27{fill:#4F5459;}
	.st28{fill:#4F4C59;}
	.st29{fill:#ACA8AA;}
	.st30{fill:#2A3B4C;}
	.st31{fill:#DFE2EB;}
	.st32{fill:#4F5363;}
	.st33{fill:#626363;}
	.st34{fill:#2E3338;}
	.st35{fill:#3A3F4C;}
	.st36{fill:#A6A9B1;}
	.st37{fill:#D8CED2;}
	.st38{fill:#878591;}
	.st39{fill:#C2D0CB;}
	.st40{fill:#AFCADD;}
	.st41{fill:#2E393F;}
	.st42{fill:#7E868A;}
	.st43{fill:#BCD0DC;}
	.st44{fill:#6C806E;}
	.st45{fill:#F8D4D6;}
	.st46{fill:#E9B5B5;}
	.st47{fill:#FBE6E9;}
	.st48{fill:#E5BFC3;}
	.st49{fill:#C1959B;}
	.st50{fill:#F1D5D9;}
	.st51{fill:#AD1E23;}
	.st52{fill:#C11F1F;}
	.st53{fill:#F4DACA;}
	.st54{fill:#F6C6B0;}
	.st55{fill:#E2A88E;}
	.st56{fill:#E0BBAE;}
	.st57{fill:#DDB7A7;}
	.st58{fill:#EFCBBC;}
	.st59{fill:#FDEDDF;}
	.st60{fill:#F7C6BD;}
	.st61{fill:#EA7E75;}
	.st62{opacity:0.67;fill:#D2655F;}
	.st63{fill:#C02225;}
	.st64{fill:#E7434C;}
	.st65{fill:#F6D5C4;}
	.st66{fill:#FDF4E6;}
	.st67{fill:#F3AAAB;}
	.st68{fill:#F7C39C;}
	.st69{fill:#A23B24;}
	.st70{fill:#C5481C;}
	.st71{fill:#E03029;}
	.st72{fill:#367437;}
	.st73{fill:#DA4A49;}
	.st74{fill:#2A5E30;}
	.st75{fill:#C02322;}
	.st76{fill:#E95513;}
	.st77{fill:#77AB6C;}
	.st78{fill:#649459;}
	.st79{fill:#539343;}
	.st80{fill:#E56437;}
	.st81{fill:#D04E2C;}
	.st82{fill:#3D7236;}
	.st83{fill:#02331A;}
	.st84{fill:#5E9854;}
	.st85{fill:#E3E7D0;}
	.st86{fill:none;stroke:#528445;stroke-width:13.4352;stroke-miterlimit:10;}
	.st87{fill:#2E9A39;}
	.st88{fill:none;stroke:#25933A;stroke-width:7.6257;stroke-linecap:round;stroke-linejoin:round;stroke-miterlimit:10;}
	.st89{fill:#25933A;}
	.st90{fill:#29833A;}
	.st91{fill:#D9B665;}
	.st92{fill:#9B814E;}
	.st93{fill:#1EAA39;}
	.st94{fill:#74B73E;}
	.st95{fill:#49B254;}
	.st96{fill:#FCFBE1;}
	.st97{fill:#F9D79C;}
	.st98{fill:#F6B957;}
	.st99{fill:none;stroke:#3DA145;stroke-width:13.4077;stroke-linecap:round;stroke-linejoin:round;stroke-miterlimit:10;}
	.st100{fill:none;stroke:#3DA145;stroke-width:10.6658;stroke-linecap:round;stroke-linejoin:round;stroke-miterlimit:10;}
</style>
<g>
	<path d="M841.66,861.6c0,0,70.34-68.92,36.27-165.32c-25.52-72.2-86.18-181.64-147.08-199.75
		c0,0,101.3,27.48,142.88,84.11s112.34,138.78,84.88,219.87S878.29,903.31,841.66,861.6z" class="st12"></path>
	<path d="M300.44,171.25c0,0,59.86,18.13,103.12,66.24c20.11,22.36,176.03,209.22,202.91,296.19
		c13.94,45.12,76.63,170.83,76.63,170.83L300.44,171.25z" class="st12"></path>
	<path d="M307.57,191c0,0,54.15,27.57,91.15,53.04c0,0-24.45-13.52-52.75-23c0,0,65.78,29.42,83.26,53.69
		c0,0-48.95-30.94-64.88-33.79c0,0,59.76,26.79,77.14,50.82c0,0-29.11-23.29-60.76-30.48c0,0,58.63,27.54,79.06,55.8
		c0,0-27.33-25.88-52.54-21.86c0,0,41.17,15.17,64.22,42.55c0,0-38.29-22.85-52.04-21.36c0,0,63.88,32.95,84.34,61.63
		c0,0-42.42-36.9-63.09-31.65c0,0,66.62,36.23,85.42,62.96c0,0-35.77-35.74-71.02-38.91c0,0,69.73,36.23,92.19,69.06
		c0,0-49.67-34.74-69.47-34.85c0,0,70.42,45.28,91.94,67.68c0,0-40.98-30.89-64.13-32.17c0,0,65.98,30.12,83.42,61.8
		c0,0-29.48-30.56-54.14-27.16c0,0,61.76,34.77,71.57,58.84c0,0-18.03-20.9-40.05-20.41c0,0,44.64,32.7,52.82,51.37
		c0,0-26.74-16.03-40.42-20.28c0,0,40.97,22.38,55.07,53.47c0,0-13.3-28.74-37.28-29c0,0,42.34,40.35,49.57,56.14l-27.35-16.86
		l37.03,37.93l-18.01-8.01l32.26,38.74l-21.72-15.84l29.64,32.76l-23.86-11.97L307.57,191z" class="st13"></path>
	<path d="M86.72,64.04c0,0,70.42,29.1,87.82,35.76s93.64,24.16,125.9,71.45s250.74,326.92,307.82,419.83
		S762.13,830,835.05,845.85s107.27,7.15,123.56-45.33c0,0-14.27,141.63-172.57,126.5S367.06,579.99,359.63,549.31
		S84.92,175.11,75.81,164.33c-9.1-10.79-57.88-72.06-47.15-79.64c0,0,32.73,7.09,46.81,20.37s41.41,31.14,41.41,31.14L81.73,76.05
		C81.73,76.05,77.98,60.44,86.72,64.04z" class="st14"></path>
	<path d="M116.88,136.2c0,0,97.72,118.33,144.6,168.53c0,0-40.48-19-37.79-18.95c2.69,0.04,51.55,42.16,51.55,42.16
		l-29.45-13.78l43.41,43.61l-25.6-6.62c0,0,229.92,348.71,280.99,385.94s205.53,225.62,354.86,164.98
		c0,0-121.88,120.91-345.42-120.47S125.35,236.44,125.35,236.44S12.21,95.79,28.66,84.69S116.88,136.2,116.88,136.2z" class="st15"></path>
	<path d="M215.04,303.03c0,0,280.41,457.14,493.88,577.26c0,0-219.84-171.06-356.06-396.65
		C216.19,257.33,215.04,303.03,215.04,303.03z" class="st16"></path>
	<path d="M446.46,573.29c0,0,114.39,167.17,183.31,216.6c0,0-106.12-103.45-177.62-227.94
		C452.15,561.95,437.3,560.16,446.46,573.29z" class="st17"></path>
	<path d="M495.79,583.94c0,0,188.61,298.72,361.74,310.12c0,0-157.3,19.05-376.17-316.64c0,0-8.95-13.83,1.11-10.73
		C486.08,567.79,491.44,579.57,495.79,583.94z" class="st16"></path>
	<path d="M834.43,583.56c0,0,113.19,130.9,68.15,220.7C902.57,804.26,970.18,728.39,834.43,583.56z" class="st16"></path>
	<path d="M928.3,773.9c0,0,16.47-34.47-8.55-71.91C919.75,702,955.75,734.78,928.3,773.9z" class="st16"></path>
	<circle r="20.39" cy="131.71" cx="176.15" class="st18"></circle>
	<circle r="15.64" cy="130.67" cx="176.93" class="st19"></circle>
	<circle r="11.19" cy="132.14" cx="177.67" class="st20"></circle>
	<path d="M244.79,189.28c0,0,65.88,28.26,59.6,52.31c-6.28,24.05-62.74-11.73-71.81-23.64
		C232.58,217.95,211.06,184.16,244.79,189.28z" class="st20"></path>
	<path d="M234.89,126.47c0,0,15.06,36.3,8.52,52.09s-35.75,8.73-48.94,6.62c-13.19-2.11-38.66-0.99-38.66-0.99
		s66.47,18.35,82.11,15.79S254.28,158.87,234.89,126.47z" class="st20"></path>
	<path d="M81.63,65.37c0,0,8.37,18.84,14.99,25.02s28.18,42.26,23.51,48.47c-4.67,6.21-17.15-12.17-17.15-12.17
		s8.61,6.72,9.7,3.77c1.09-2.95-16.42-16.4-16.24-22.66C96.63,101.55,74.73,77.71,81.63,65.37z" class="st20"></path>
	<path d="M28.66,84.69c0,0,14.74,19.58,22.96,34.2s62.39,94.28,62.39,94.28S18.06,111.12,28.66,84.69z" class="st20"></path>
	<path d="M146.86,206.4c8.08,4.05,33.24,12.79,33.24,12.79l-10.26,3.41l10.56,9.96l-10.88-0.01l12.73,11.83l-11.5-1.88
		l41.88,65.33l-67.66-82.15l16.16,1.89L146.86,206.4z" class="st21"></path>
	<path d="M237.91,199.98c0,0,17.79,7.32-5.33,17.97c0,0-13.51-6.14-15.03-17.88
		C217.55,200.07,217.83,199.89,237.91,199.98z" class="st21"></path>
	<circle r="6.54" cy="125.87" cx="177.73" class="st22"></circle>
	<path d="M89.73,125.62c0,0-22.26-19.06-32.21-21.97s28.81,42.95,45.71,39.08
		C103.23,142.73,109.34,140.71,89.73,125.62z" class="st22"></path>
	<path d="M131.75,86.63c0,0,14.73,23.62,3.77,55.8c0,0-2.71-46.27-18.16-63.01L131.75,86.63z" class="st22"></path>
	<path d="M143.44,92.5c0,0,8.02,11.98,4.55,25.09c0,0,6.59-15.19,16.57-16.49L143.44,92.5z" class="st23"></path>
	<path d="M103.73,81.44c0,0-15.8-20.45-11.46-5.75c4.35,14.7,21.94,29.1,21.94,29.1L103.73,81.44z" class="st17"></path>
	<path d="M241.28,145.45c0,0,12.08,42.17-85.48,38.73C155.8,184.18,276.21,215.25,241.28,145.45z" class="st17"></path>
	<path d="M248.97,199.33c-2.77-10.34,49.77,31.13,49.77,31.13l-42.91-17.8l32.97,23.15l-33.3-13.43l20.04,17.12
		l-42.95-21.55C232.58,217.95,254.53,220.12,248.97,199.33z" class="st17"></path>
	<path d="M187.94,153.7c0,0-7.25,8.45-22.86,3.56C165.08,157.25,179.56,173.16,187.94,153.7z" class="st17"></path>
	<path d="M202.25,125.29c0,0,8.79,9.23-2.76,18.82C199.49,144.11,219.2,137.09,202.25,125.29z" class="st17"></path>
	<path d="M147.99,117.59c0,0-9.02,25.06,7.08,34.65c0,0-19.44,1.3-16.22-25.25S147.99,117.59,147.99,117.59z" class="st17"></path>
	<path d="M111.34,91.44c0,0,16.94,11.73,14.68,50.86C126.02,142.3,139.9,107.32,111.34,91.44z" class="st17"></path>
	<path d="M95.15,173.33c-2.18-4.07,27.34,36.13,51.02,42.7l6.52,7.94C152.69,223.96,124.17,227.52,95.15,173.33z" class="st24"></path>
	<path d="M41.06,97.18c0,0,41.28,59.07,86.38,89.2c0,0,11.74,8.83,9.55,20.71C136.99,207.09,67.11,152.21,41.06,97.18z" class="st24"></path>
	<path d="M203.07,203.89c-0.92-2.72-28.42-13.38-29.93-7.9c-1.51,5.48,18.38,4.57,24.89,17.95s38.38,23.1,38.38,23.1
		s13.92,3.04,20.97,1.21C257.38,238.24,207.89,218.14,203.07,203.89z" class="st17"></path>
	<path d="M259.61,148.78c0,0-5.31,8.15,0.9,15.84c6.22,7.69,50.4,35.36,60.8,53.9
		C321.32,218.51,313.76,180.87,259.61,148.78z" class="st17"></path>
	<path d="M333.06,232.3c0,0,290.05,393.25,310.22,452.24c20.18,58.99,219.52,257.31,303.68,144.09
		c0,0-99.37,94.94-257.35-112.42S357.7,226.59,300.44,171.25c0,0-17.76-6.71-22.75-10.35L333.06,232.3z" class="st25"></path>
	<path d="M328.05,195.05c0,0,47.09,16.53,66.07,38.8C394.12,233.85,381,201.11,328.05,195.05z" class="st17"></path>
	<path d="M424.74,269.41c0,0-29.53-30.06-54.13-36.28C370.6,233.14,412.47,258.21,424.74,269.41z" class="st17"></path>
	<path d="M440.27,288.75c0,0-29.53-30.06-54.13-36.28C386.13,252.47,428,277.55,440.27,288.75z" class="st17"></path>
	<path d="M470,335.24c0,0-29.53-30.06-54.13-36.28C415.87,298.96,457.74,324.03,470,335.24z" class="st17"></path>
	<path d="M336.68,263.11c0,0,309.97,474.66,394.16,526.96c0,0-66.99-77.17-105.94-140.65S368.98,284.63,336.68,263.11z" class="st17"></path>
	<path d="M297.87,265.45c0.6,17.41,1.49,52.85,1.49,52.85s9.37-37.29,8.44-35.43s16.38,71.2,16.38,71.2l6.58-39.47
		l22.59,82.09l6.08-40.49l31.15,93.39l-3.98-49.43c0,0,43.38,110.41,88.69,161.13c0,0-69.45-140.59-90.52-194.71l-3.45,27.04
		l-18.27-58.15l-10.59,19.57l-19.51-58.77l-10.9,15.53l-12.06-48.82l-6.23,7.76L297.87,265.45z" class="st16"></path>
	<polygon points="325.46,352.64 314.87,387.96 338.68,378.14 333.91,437.95 355.11,417.48 365.08,481.58 
		376.92,457.97 396.64,517.63 397.09,489.86 440.17,558.12 395.44,459.48 392.6,477.67 373.95,429.06 368.79,451.38 360.11,394.94 
		345.6,411.82 342.35,361.12 328.15,375.88" class="st16"></polygon>
	<path d="M939.28,822.67c0,0,12.35-15.11,18.51-44.78l-9.65,11.49l15.93-40l-11.39,12.34l3.8-46.57l-6.5,12.95
		l-2.63-35.86l-4.85,9.67l-9.08-36.19l-3.59,7.16l-18.17-34l16.8,45.75l3.64-7.25l10.34,32.92l3.33-8.18l1.63,35.29l4.57-9.11
		l-1.52,37.86l7.68-7.04l-14.66,36.97l7.68-7.04C951.15,789.07,953.29,791.75,939.28,822.67z" class="st26"></path>
</g>
</svg>
