<svg xml:space="preserve" style="enable-background:new 0 0 1024 1024;" viewBox="0 0 1024 1024" y="0px" x="0px" xmlns:xlink="http://www.w3.org/1999/xlink" xmlns="http://www.w3.org/2000/svg" id="图层_1" version="1.1">
<style type="text/css">
	.st0{fill:#709848;}
	.st1{fill:#6D9147;}
	.st2{fill:#A0C872;}
	.st3{fill:#FFFFFF;}
	.st4{fill:#587D39;}
	.st5{fill:#40301B;}
	.st6{fill:#3C4945;}
	.st7{fill:#D3DCDE;}
	.st8{fill:#6F796F;}
	.st9{fill:#384452;}
	.st10{fill:#FCFDFF;}
	.st11{fill:#111522;}
	.st12{fill:#7B777A;}
	.st13{fill:#726F72;}
	.st14{fill:#C4C3C3;}
	.st15{fill:#A2A1A2;}
	.st16{fill:#F2EFF0;}
	.st17{fill:#C3BDBD;}
	.st18{fill:#747572;}
	.st19{fill:#E8E8E8;}
	.st20{fill:#4C4B4C;}
	.st21{fill:#787B7E;}
	.st22{fill:#E3E7EE;}
	.st23{fill:#403E3D;}
	.st24{fill:#828185;}
	.st25{fill:#868989;}
	.st26{fill:#605B60;}
	.st27{fill:#4F5459;}
	.st28{fill:#4F4C59;}
	.st29{fill:#ACA8AA;}
	.st30{fill:#2A3B4C;}
	.st31{fill:#DFE2EB;}
	.st32{fill:#4F5363;}
	.st33{fill:#626363;}
	.st34{fill:#2E3338;}
	.st35{fill:#3A3F4C;}
	.st36{fill:#A6A9B1;}
	.st37{fill:#D8CED2;}
	.st38{fill:#878591;}
	.st39{fill:#C2D0CB;}
	.st40{fill:#AFCADD;}
	.st41{fill:#2E393F;}
	.st42{fill:#7E868A;}
	.st43{fill:#BCD0DC;}
	.st44{fill:#6C806E;}
	.st45{fill:#F8D4D6;}
	.st46{fill:#E9B5B5;}
	.st47{fill:#FBE6E9;}
	.st48{fill:#E5BFC3;}
	.st49{fill:#C1959B;}
	.st50{fill:#F1D5D9;}
	.st51{fill:#AD1E23;}
	.st52{fill:#C11F1F;}
	.st53{fill:#F4DACA;}
	.st54{fill:#F6C6B0;}
	.st55{fill:#E2A88E;}
	.st56{fill:#E0BBAE;}
	.st57{fill:#DDB7A7;}
	.st58{fill:#EFCBBC;}
	.st59{fill:#FDEDDF;}
	.st60{fill:#F7C6BD;}
	.st61{fill:#EA7E75;}
	.st62{opacity:0.67;fill:#D2655F;}
	.st63{fill:#C02225;}
	.st64{fill:#E7434C;}
	.st65{fill:#F6D5C4;}
	.st66{fill:#FDF4E6;}
	.st67{fill:#F3AAAB;}
	.st68{fill:#F7C39C;}
	.st69{fill:#A23B24;}
	.st70{fill:#C5481C;}
	.st71{fill:#E03029;}
	.st72{fill:#367437;}
	.st73{fill:#DA4A49;}
	.st74{fill:#2A5E30;}
	.st75{fill:#C02322;}
	.st76{fill:#E95513;}
	.st77{fill:#77AB6C;}
	.st78{fill:#649459;}
	.st79{fill:#539343;}
	.st80{fill:#E56437;}
	.st81{fill:#D04E2C;}
	.st82{fill:#3D7236;}
	.st83{fill:#02331A;}
	.st84{fill:#5E9854;}
	.st85{fill:#E3E7D0;}
	.st86{fill:none;stroke:#528445;stroke-width:13.4352;stroke-miterlimit:10;}
	.st87{fill:#2E9A39;}
	.st88{fill:none;stroke:#25933A;stroke-width:7.6257;stroke-linecap:round;stroke-linejoin:round;stroke-miterlimit:10;}
	.st89{fill:#25933A;}
	.st90{fill:#29833A;}
	.st91{fill:#D9B665;}
	.st92{fill:#9B814E;}
	.st93{fill:#1EAA39;}
	.st94{fill:#74B73E;}
	.st95{fill:#49B254;}
	.st96{fill:#FCFBE1;}
	.st97{fill:#F9D79C;}
	.st98{fill:#F6B957;}
	.st99{fill:none;stroke:#3DA145;stroke-width:13.4077;stroke-linecap:round;stroke-linejoin:round;stroke-miterlimit:10;}
	.st100{fill:none;stroke:#3DA145;stroke-width:10.6658;stroke-linecap:round;stroke-linejoin:round;stroke-miterlimit:10;}
</style>
<g>
	<path d="M552.69,574.43c-1.64-8.4-3.2-16.66-4.75-24.72c-14.74-76.62-42.96-145.31-107.2-223.33
		C360.15,228.51,178,150.44,279.35,67.92C360.9,1.5,744.3,294.21,871.19,515.73c82.36,143.78,57.18,302.53-18.15,333.85
		c-59.77,24.85-157.73-25.28-214.29-84.36C581.69,705.61,564.74,636.04,552.69,574.43z" class="st87"></path>
	<path d="M270.67,93.84c-20.79,31.83,28.55,66.36,40.74,77.83c35.24,33.15,73.25,60.62,110.77,90.77
		c59.11,47.5,111.22,108.44,146.6,177.07c39.31,76.23,45.27,153.93,64.39,235.2c23.15,98.42,112.18,150.07,182.73,135.84" class="st88"></path>
	<path d="M278.26,89.47c-3.72,20.51,46.47,58.34,58.67,69.81c35.24,33.15,73.25,60.62,110.77,90.77
		c59.11,47.5,111.22,108.44,146.6,177.07c39.31,76.23,41.1,155.03,64.39,235.2c22.35,76.93,89.14,135.56,157.22,148.24" class="st88"></path>
	<g>
		<path d="M293.28,90.52c-0.34,0.52-0.72,1.04-1.14,1.53c-5.43,6.41-15.04,7.22-21.46,1.79
			c-0.46-0.37-27.37-22.54-55.83-21.51c-8.42,0.3-15.49-6.28-15.79-14.69c-0.29-8.45,6.29-15.5,14.7-15.8
			c40.5-1.45,75.15,27.48,76.6,28.71C296.3,75.57,297.43,84.17,293.28,90.52z" class="st89"></path>
	</g>
	<path d="M866.75,807.06C966.92,610.57,631.66,278.7,516.62,183.4S279.35,67.92,279.35,67.92
		s235.98,98.52,333.44,254.88s246.38,372.52,229.15,482.16" class="st88"></path>
	<path d="M486.78,364.42c0,0,77.27,39.36,92.59,209.05c7.4,81.99,60.5,209.53,139.77,239.41s86.99-4.49,86.99-4.49" class="st88"></path>
	<path d="M779.69,845.11c11-4.57,23.07-11.72,29.9-21.73c10.92-16-1.07-23.19-12.38-32.52
		c-50.45-41.66-63.69-106.09-76.98-167.17c-12.01-55.19-32.85-108.13-59.91-157.64c-53.14-97.23-129.32-181-206.14-258.74
		c-49.56-50.16-109.36-93.08-175.91-117.84" class="st88"></path>
	<path d="M821.35,842.63c0,0,17.96-17.16,6.26-24.62" class="st88"></path>
	<path d="M862.8,828.91c-0.9-2.1-7.62-25.99-41.14-23.86" class="st88"></path>
	<path d="M862.34,808.84c-59.77,24.85-157.73-25.28-214.29-84.36c-57.06-59.61-74.01-129.18-86.06-190.79
		c-1.64-8.4-3.2-16.66-4.75-24.72c-14.74-76.62-42.96-145.31-107.2-223.33C389.69,212.36,272.41,150.17,259.85,88.9
		c-50.58,74.88,107.75,147.78,181.39,237.22c64.24,78.02,92.46,146.7,107.2,223.32c1.55,8.06,3.1,16.32,4.75,24.72
		c12.05,61.6,29,131.18,86.06,190.79c56.57,59.08,154.52,109.21,214.29,84.36c35.5-14.76,59.63-57.99,66.85-114.44
		C908.78,771.02,888.74,797.86,862.34,808.84z" class="st90"></path>
	<path d="M816.6,786.35c-6.03-3.94-14.12-2.25-18.06,3.79c-1.33,2.03-1.8,4.29-1.89,6.55c-2.03,1-3.91,2.33-5.24,4.37
		c-3.94,6.03-2.25,14.12,3.79,18.06c0.5,0.33,1.07,0.39,1.6,0.64c-0.4,4.63,1.52,9.34,5.69,12.06c6.03,3.94,14.12,2.25,18.06-3.79
		c6.03,3.94,14.12,2.25,18.06-3.79c3.94-6.03,2.25-14.12-3.79-18.06c-0.71-0.47-1.52-0.6-2.28-0.91c2.31-0.97,4.44-2.4,5.91-4.65
		c3.94-6.03,2.25-14.12-3.79-18.06C828.62,778.62,820.54,780.32,816.6,786.35z" class="st91"></path>
	
		<ellipse ry="9.87" rx="10.63" cy="808.77" cx="818.45" class="st92" transform="matrix(0.6932 -0.7208 0.7208 0.6932 -331.817 838.0667)"></ellipse>
</g>
<g>
	<path d="M308.73,642.2c-0.04-8.56-0.03-16.96-0.04-25.17c-0.16-78.03-15.06-150.78-63.59-239.42
		C184.21,266.41,19.85,155.68,134.83,93.54c92.53-50.01,414.49,309.18,497.76,550.5c54.05,156.63-0.35,307.89-80.2,324.58
		c-63.36,13.25-150.23-54.3-194.76-122.91C312.71,776.49,309.06,704.97,308.73,642.2z" class="st93"></path>
	<path d="M375.17,847.84c-44.92-69.22-48.58-140.74-48.9-203.51c-0.05-8.56-0.03-16.96-0.04-25.17
		c-0.16-78.03-15.06-150.78-63.59-239.42C201.74,268.54,37.38,157.81,152.36,95.67c5.58-3.02,12.04-4.47,19.19-4.63
		c-14.4-3.27-26.91-2.81-36.72,2.49C19.85,155.68,184.21,266.41,245.1,377.61c48.53,88.64,63.43,161.39,63.59,239.42
		c0.02,8.21,0,16.61,0.04,25.17c0.33,62.77,3.98,134.29,48.9,203.51c39.82,61.35,113.44,121.66,173.89,124.31
		C474.94,958.13,411.2,903.35,375.17,847.84z" class="st94"></path>
	<path d="M121.47,117.39c-26.37,27.38,15.65,70.52,25.48,84.07c28.43,39.15,60.64,73.23,91.87,109.86
		c49.2,57.7,89,127.31,110.94,201.34c24.37,82.23,15.72,159.68,19.31,243.08c4.35,101.01,82.17,168.38,154.14,167.59" class="st88"></path>
	<path d="M129.73,114.51c-7.48,19.45,34.76,65.99,44.6,79.54c28.43,39.15,60.64,73.23,91.87,109.86
		c49.2,57.7,89,127.31,110.94,201.34c24.37,82.23,11.41,159.97,19.31,243.08c7.58,79.76,62.25,149.82,126.76,175" class="st88"></path>
	<g>
		<path d="M144.29,118.35c-0.43,0.45-0.91,0.89-1.41,1.29c-6.54,5.28-16.12,4.28-21.42-2.25
			c-0.38-0.45-22.67-27.26-50.83-31.56c-8.32-1.28-14.04-9.06-12.77-17.38c1.29-8.35,9.07-14.05,17.39-12.78
			c40.06,6.14,68.69,41.03,69.89,42.52C150.05,104.23,149.55,112.89,144.29,118.35z" class="st89"></path>
	</g>
	<path d="M573.81,929.41c135.11-174.32-132.25-562.98-227.46-678.1S134.83,93.54,134.83,93.54
		s213.42,140.87,279.96,312.68S587.23,818.21,549.82,922.7" class="st88"></path>
	<path d="M283.21,423.58c0,0,68.56,53.1,51.91,222.66c-8.04,81.93,20.29,217.14,92.59,261.31S514,919.39,514,919.39" class="st88"></path>
	<path d="M481.16,950.52c11.66-2.43,24.85-7.21,33.43-15.76c13.71-13.68,3.28-22.98-6.09-34.27
		c-41.78-50.35-42.75-116.12-44.4-178.61c-1.49-56.47-12.07-112.36-29.41-166.05c-34.04-105.44-93.23-201.97-154.17-292.69
		c-39.32-58.53-90.04-111.87-150.8-148.63" class="st88"></path>
	<path d="M522.56,955.87c0,0,20.85-13.51,10.75-23.02" class="st88"></path>
	<path d="M565.85,950.14c-0.49-2.23-2.63-26.95-35.96-31.12" class="st88"></path>
	<path d="M528.4,899.69c-5.19-5-13.45-4.84-18.45,0.35c-1.68,1.75-2.57,3.88-3.08,6.09c-2.18,0.6-4.28,1.56-5.97,3.31
		c-5,5.19-4.84,13.45,0.35,18.45c0.43,0.42,0.98,0.58,1.45,0.93c-1.26,4.48-0.25,9.46,3.34,12.91c5.19,5,13.45,4.84,18.45-0.35
		c5.19,5,13.45,4.84,18.45-0.35c5-5.19,4.84-13.45-0.35-18.45c-0.61-0.59-1.38-0.87-2.07-1.32c2.45-0.53,4.81-1.52,6.68-3.46
		c5-5.19,4.84-13.45-0.35-18.45C541.66,894.35,533.4,894.5,528.4,899.69z" class="st91"></path>
	
		<ellipse ry="9.87" rx="10.63" cy="922.07" cx="526.04" class="st92" transform="matrix(0.8156 -0.5786 0.5786 0.8156 -436.5021 474.3609)"></ellipse>
</g>
</svg>
