<svg viewBox="0 0 288.93 346.8" xmlns:xlink="http://www.w3.org/1999/xlink" xmlns="http://www.w3.org/2000/svg"><defs><style>.cls-1{fill:none;}.cls-2{fill:#7ebf9d;}.cls-3{fill:#060001;}.cls-4{fill:#5cb284;}.cls-5{fill:#eed981;}.cls-6{clip-path:url(#clip-path);}.cls-7{fill:#ccb65a;}.cls-8{fill:#d8c160;}.cls-9{opacity:0.8;}.cls-10{fill:#f8e69a;}.cls-11{fill:#dac56d;}</style><clipPath transform="translate(51.94)" id="clip-path"><rect rx="82.35" height="215.93" width="175.19" y="105.25" x="4" class="cls-1"></rect></clipPath></defs><title>资源 10</title><g id="图层_2"><g id="图层_1-2"><path transform="translate(51.94)" d="M72.11,143.44a2,2,0,0,1-1.89-1.36C59.25,109.81,40,84.52,25.84,69c-1.27-1.4-2.62-2.83-4.25-4.52A175.05,175.05,0,0,0,4.85,48.94a2,2,0,0,1,.77-3.53,64.81,64.81,0,0,1,14.75-1.65c30.05,0,56.22,18.78,57.32,19.58l.13.11c7.05,6.13,11.56,19.16,13.39,38.74.66,7,1,14.83.91,23.15v.1c-.06,9.38-.59,16.09-.6,16.16a2,2,0,0,1-2,1.84Z" class="cls-2"></path><path transform="translate(51.94)" d="M20.37,45.76C50.11,45.76,76.51,65,76.51,65c7.8,6.78,11.28,22.2,12.7,37.41a227.72,227.72,0,0,1,.91,23v.11c-.06,9.4-.59,16-.59,16H72.11c-11-32.25-30-57.58-44.8-73.8C25.84,66,24.41,64.51,23,63.08a175.31,175.31,0,0,0-17-15.72,62.71,62.71,0,0,1,14.3-1.6m0-4v0h0a67.15,67.15,0,0,0-15.21,1.7,4,4,0,0,0-1.54,7.06A175,175,0,0,1,20.16,65.86c1.6,1.66,2.94,3.09,4.19,4.47,14.07,15.4,33.12,40.45,44,72.4a4,4,0,0,0,3.78,2.71H89.53a4,4,0,0,0,4-3.68c0-.27.55-6.85.61-16.29v-.14A233.14,233.14,0,0,0,93.2,102c-1.88-20.1-6.61-33.58-14.06-40.06a2.92,2.92,0,0,0-.28-.21c-1.12-.82-27.8-20-58.49-20Z" class="cls-3"></path><path transform="translate(51.94)" d="M90.12,125.33v.11c-.06,9.4-.59,16-.59,16H72.11c-11-32.25-30-57.58-44.8-73.8,28,1.66,51.93,19.08,51.93,19.08,4.77,4.15,7.92,11.51,10,20.1C89.82,113.24,90.07,119.63,90.12,125.33Z" class="cls-4"></path><path transform="translate(51.94)" d="M74.84,173.39A2,2,0,0,1,73,172c-7.22-21.21-18.72-41.78-34.17-61.12C22.58,90.6,7.71,79,7.57,78.9a2,2,0,0,1,.77-3.53,64.74,64.74,0,0,1,14.75-1.65c30.05,0,56.22,18.78,57.32,19.58l.14.11a25.18,25.18,0,0,1,5.28,6.69c11.23,19.82,9,62,8.49,70.26,0,.79-.08,1.21-.08,1.21a2,2,0,0,1-2,1.82Z" class="cls-2"></path><path transform="translate(51.94)" d="M23.09,75.72c29.75,0,56.15,19.2,56.15,19.2a23,23,0,0,1,4.84,6.16c11,19.39,8.75,61.6,8.25,69.14,0,.77-.09,1.17-.09,1.17H74.84c-8.54-25.11-22-46-34.49-61.73C23.78,88.9,8.79,77.32,8.79,77.32a62.71,62.71,0,0,1,14.3-1.6m0-4h0a67.15,67.15,0,0,0-15.21,1.7,4,4,0,0,0-1.54,7.06c.15.11,14.85,11.58,30.88,31.68,15.31,19.16,26.69,39.52,33.83,60.52a4,4,0,0,0,3.79,2.71h17.4a4,4,0,0,0,4-3.64s0-.44.09-1.29c.56-8.32,2.76-51-8.76-71.35a26.9,26.9,0,0,0-5.7-7.21,2.47,2.47,0,0,0-.27-.21c-1.12-.82-27.8-20-58.5-20Z" class="cls-3"></path><path transform="translate(51.94)" d="M92.33,170.22c-1,.44-2.1.82-3.17,1.17H74.84c-8.54-25.11-22-46-34.49-61.73a52.42,52.42,0,0,1,31.38-9.94,55.85,55.85,0,0,1,12.35,1.36C95.07,120.47,92.83,162.68,92.33,170.22Z" class="cls-4"></path><path transform="translate(51.94)" d="M94.84,143.44a2,2,0,0,1-2-1.84c0-.07-.54-6.78-.6-16.15v-.12a229.13,229.13,0,0,1,.92-23.14C95,82.61,99.49,69.58,106.54,63.45l.13-.11c1.1-.8,27.27-19.58,57.32-19.58a64.74,64.74,0,0,1,14.75,1.65,2,2,0,0,1,.77,3.53,175.05,175.05,0,0,0-16.74,15.53c-1.61,1.67-3,3.1-4.24,4.52-14.2,15.53-33.42,40.81-44.39,73.09a2,2,0,0,1-1.89,1.36Z" class="cls-2"></path><path transform="translate(51.94)" d="M164,45.76a62.71,62.71,0,0,1,14.3,1.6,176.08,176.08,0,0,0-17,15.72q-2.07,2.15-4.28,4.56c-14.82,16.22-33.84,41.55-44.8,73.8H94.84s-.54-6.6-.6-16v-.11c0-6.7.14-14.8.91-23,1.42-15.21,4.9-30.63,12.7-37.41,0,0,26.4-19.2,56.14-19.2m0-4c-30.69,0-57.37,19.15-58.49,20a1.94,1.94,0,0,0-.27.21C97.78,68.42,93,81.9,91.16,102a233.39,233.39,0,0,0-.92,23.36v.08c.06,9.47.59,16.05.61,16.32a4,4,0,0,0,4,3.68h17.41a4,4,0,0,0,3.78-2.71c10.86-31.95,29.91-57,44-72.39,1.27-1.39,2.6-2.81,4.21-4.49a174.83,174.83,0,0,1,16.53-15.33,4,4,0,0,0-1.54-7.06A67.15,67.15,0,0,0,164,41.76Z" class="cls-3"></path><path transform="translate(51.94)" d="M94.24,125.33v.11c.06,9.4.6,16,.6,16h17.41c11-32.25,30-57.58,44.8-73.8-28,1.66-51.93,19.08-51.93,19.08-4.77,4.15-7.92,11.51-10,20.1C94.54,113.24,94.29,119.63,94.24,125.33Z" class="cls-4"></path><path transform="translate(51.94)" d="M92.12,173.39a2,2,0,0,1-2-1.82s0-.43-.09-1.23c-.55-8.24-2.74-50.42,8.5-70.25a25.08,25.08,0,0,1,5.28-6.68l.13-.11c1.1-.8,27.27-19.58,57.32-19.58A64.9,64.9,0,0,1,176,75.37a2,2,0,0,1,.77,3.53c-.15.11-15,11.7-31.22,32-15.45,19.34-27,39.91-34.17,61.12a2,2,0,0,1-1.89,1.36Z" class="cls-2"></path><path transform="translate(51.94)" d="M161.27,75.72a62.71,62.71,0,0,1,14.3,1.6s-15,11.58-31.55,32.34c-12.53,15.69-26,36.62-34.5,61.73H92.12s0-.4-.08-1.17c-.51-7.54-2.75-49.75,8.24-69.14a23,23,0,0,1,4.84-6.16s26.4-19.2,56.15-19.2m0-4c-30.69,0-57.38,19.15-58.5,20a1.71,1.71,0,0,0-.26.21,26.84,26.84,0,0,0-5.72,7.22c-11.51,20.31-9.3,63-8.75,71.37,0,.82.09,1.26.09,1.26a4,4,0,0,0,4,3.64h17.4a4,4,0,0,0,3.79-2.71c7.14-21,18.53-41.36,33.83-60.52C163.22,92,177.87,80.59,178,80.48a4,4,0,0,0-1.54-7.06,67.09,67.09,0,0,0-15.21-1.7Z" class="cls-3"></path><path transform="translate(51.94)" d="M92,170.22c1,.44,2.09.82,3.16,1.17h14.32c8.55-25.11,22-46,34.5-61.73a52.47,52.47,0,0,0-31.39-9.94,56,56,0,0,0-12.35,1.36C89.29,120.47,91.53,162.68,92,170.22Z" class="cls-4"></path><path transform="translate(51.94)" d="M92.18,129.43c-13.23,0-23.59-28-23.59-63.72,0-34.37,21.12-61.79,22-62.94a2,2,0,0,1,3.15,0c.9,1.15,22,28.57,22,62.94C115.77,101.44,105.41,129.43,92.18,129.43Z" class="cls-2"></path><path transform="translate(51.94)" d="M92.18,4s21.59,27.63,21.59,61.71-9.66,61.72-21.59,61.72S70.59,99.8,70.59,65.71,92.18,4,92.18,4m0-4A4,4,0,0,0,89,1.54c-.92,1.17-22.44,29.12-22.44,64.17,0,16.93,2.32,32.89,6.55,45,6,17.16,13.67,20.76,19,20.76s13-3.6,19-20.76c4.23-12.07,6.55-28,6.55-45,0-35-21.52-63-22.44-64.17A4,4,0,0,0,92.18,0Z" class="cls-3"></path><path transform="translate(51.94)" d="M97.64,96.93c0,9.54-2.7,17.28-6,17.28s-6-7.74-6-17.28,6-17.28,6-17.28S97.64,87.38,97.64,96.93Z" class="cls-4"></path><rect rx="84.35" height="219.93" width="179.2" y="103.25" x="53.94" class="cls-5"></rect><path transform="translate(51.94)" d="M96.84,105.25a82.59,82.59,0,0,1,82.35,82.36v51.22a82.59,82.59,0,0,1-82.35,82.35H86.35A82.6,82.6,0,0,1,4,238.83V187.61a82.6,82.6,0,0,1,82.35-82.36H96.84m0-4H86.35A86.6,86.6,0,0,0,0,187.61v51.22a86.59,86.59,0,0,0,86.35,86.35H96.84a86.59,86.59,0,0,0,86.35-86.35V187.61a86.6,86.6,0,0,0-86.35-86.36Z" class="cls-3"></path><g class="cls-6"><path transform="translate(51.94)" d="M168.55,346.8a2,2,0,0,1-.78-.16,1308.68,1308.68,0,0,1-209-111.82,2,2,0,0,1-.57-2.77,2,2,0,0,1,2.77-.57A1305.61,1305.61,0,0,0,169.33,343a2,2,0,0,1-.78,3.84Z" class="cls-7"></path><path transform="translate(51.94)" d="M182.46,294.77a2,2,0,0,1-.79-.17A1249.07,1249.07,0,0,1-46.68,167.08a2,2,0,0,1-.47-2.79,2,2,0,0,1,2.78-.48A1245.09,1245.09,0,0,0,183.25,290.93a2,2,0,0,1-.79,3.84Z" class="cls-7"></path><path transform="translate(51.94)" d="M212.48,250.19a1.9,1.9,0,0,1-.77-.16A1204.55,1204.55,0,0,1-12.38,128a2,2,0,0,1-.5-2.78,2,2,0,0,1,2.78-.51A1200.76,1200.76,0,0,0,213.25,246.34a2,2,0,0,1-.77,3.85Z" class="cls-7"></path><path transform="translate(51.94)" d="M235,208.09a2,2,0,0,1-.75-.15A1163.72,1163.72,0,0,1,14.6,90.26,2,2,0,1,1,16.86,87,1160.37,1160.37,0,0,0,235.74,204.24a2,2,0,0,1-.75,3.85Z" class="cls-7"></path><path transform="translate(51.94)" d="M16.5,346.8a2,2,0,0,1-.78-3.84A1305.61,1305.61,0,0,0,224,231.48a2,2,0,1,1,2.2,3.34,1308.68,1308.68,0,0,1-209,111.82A2,2,0,0,1,16.5,346.8Z" class="cls-7"></path><path transform="translate(51.94)" d="M2.59,294.77a2,2,0,0,1-.79-3.84A1245.42,1245.42,0,0,0,229.42,163.81a2,2,0,0,1,2.31,3.27A1249.07,1249.07,0,0,1,3.38,294.6,2,2,0,0,1,2.59,294.77Z" class="cls-7"></path><path transform="translate(51.94)" d="M-27.43,250.19A2,2,0,0,1-29.27,249a2,2,0,0,1,1.07-2.61A1200.18,1200.18,0,0,0,195.15,124.75a2,2,0,0,1,2.28,3.29A1204.55,1204.55,0,0,1-26.66,250,1.9,1.9,0,0,1-27.43,250.19Z" class="cls-7"></path><path transform="translate(51.94)" d="M-49.94,208.09a2,2,0,0,1-1.85-1.25,2,2,0,0,1,1.1-2.6A1160.37,1160.37,0,0,0,168.19,87a2,2,0,1,1,2.26,3.3A1163.72,1163.72,0,0,1-49.19,207.94,2,2,0,0,1-49.94,208.09Z" class="cls-7"></path></g><path transform="translate(51.94)" d="M96.84,321.68H86.35A83,83,0,0,1,3.5,238.83V187.61a83,83,0,0,1,82.85-82.86H96.84a82.94,82.94,0,0,1,82.85,82.86v51.22A82.94,82.94,0,0,1,96.84,321.68ZM86.35,105.75A82,82,0,0,0,4.5,187.61v51.22a82,82,0,0,0,81.85,81.85H96.84a81.94,81.94,0,0,0,81.85-81.85V187.61a81.94,81.94,0,0,0-81.85-81.86Z" class="cls-8"></path><g class="cls-9"><path transform="translate(51.94)" d="M6.3,252V197.62A87.68,87.68,0,0,1,93.72,110.2h11.13a86.7,86.7,0,0,1,35.56,7.61,81.69,81.69,0,0,0-43.57-12.56H86.35A82.6,82.6,0,0,0,4,187.61v51.22a81.51,81.51,0,0,0,2.63,20.6C6.42,257,6.3,254.49,6.3,252Z" class="cls-10"></path></g><g class="cls-9"><path transform="translate(51.94)" d="M96.84,304.66H86.35A82.6,82.6,0,0,1,4,222.3v16.53a82.6,82.6,0,0,0,82.35,82.35H96.84a82.59,82.59,0,0,0,82.35-82.35V222.3A82.59,82.59,0,0,1,96.84,304.66Z" class="cls-11"></path></g></g></g></svg>