<svg xml:space="preserve" style="enable-background:new 0 0 1024 1024;" viewBox="0 0 1024 1024" y="0px" x="0px" xmlns:xlink="http://www.w3.org/1999/xlink" xmlns="http://www.w3.org/2000/svg" id="图层_1" version="1.1">
<style type="text/css">
	.st0{fill:#D6791A;}
	.st1{fill:#EDA12A;}
	.st2{fill:#FFE03D;}
	.st3{fill:#D49700;}
	.st4{fill:#FEFFF9;}
	.st5{fill:#F4CC3E;}
	.st6{fill:#FFDFD3;}
	.st7{fill:#FE5631;}
	.st8{fill:#BB8900;}
	.st9{fill:#FFFFFF;}
	.st10{fill:#B36B00;}
	.st11{fill:#C98A00;}
	.st12{fill:#EBC08B;}
	.st13{fill:#955E20;}
	.st14{fill:#542200;}
	.st15{fill:#824900;}
	.st16{fill-rule:evenodd;clip-rule:evenodd;fill:#9AE100;}
	.st17{fill-rule:evenodd;clip-rule:evenodd;fill:#9820AB;}
	.st18{fill-rule:evenodd;clip-rule:evenodd;fill:#FFFFFF;}
	.st19{fill-rule:evenodd;clip-rule:evenodd;fill:#3BD400;}
	.st20{fill-rule:evenodd;clip-rule:evenodd;fill:#EA1F00;}
	.st21{fill:#771000;}
	.st22{fill-rule:evenodd;clip-rule:evenodd;fill:#FFA421;}
	.st23{fill-rule:evenodd;clip-rule:evenodd;}
	.st24{fill:#E67907;}
	.st25{clip-path:url(#SVGID_2_);fill-rule:evenodd;clip-rule:evenodd;fill:#FF2734;}
	.st26{clip-path:url(#SVGID_2_);fill-rule:evenodd;clip-rule:evenodd;fill:#BFE583;}
	.st27{clip-path:url(#SVGID_2_);fill-rule:evenodd;clip-rule:evenodd;fill:#4D8300;}
	.st28{fill:#970000;}
	.st29{fill-rule:evenodd;clip-rule:evenodd;fill:#FF816A;}
	.st30{fill-rule:evenodd;clip-rule:evenodd;fill:#FFB85D;}
	.st31{clip-path:url(#SVGID_4_);}
	.st32{fill-rule:evenodd;clip-rule:evenodd;fill:#E39A00;}
	.st33{fill:#996B00;}
	.st34{fill-rule:evenodd;clip-rule:evenodd;fill:#D67E00;}
	.st35{fill-rule:evenodd;clip-rule:evenodd;fill:#D82200;}
	.st36{clip-path:url(#SVGID_4_);fill:#FF755F;}
	.st37{fill-rule:evenodd;clip-rule:evenodd;fill:#FFD755;}
	.st38{fill-rule:evenodd;clip-rule:evenodd;fill:#FFB110;}
	.st39{fill-rule:evenodd;clip-rule:evenodd;fill:#FFE7D6;}
	.st40{fill-rule:evenodd;clip-rule:evenodd;fill:#FFC37F;}
	.st41{fill-rule:evenodd;clip-rule:evenodd;fill:#FFEEC2;}
	.st42{fill-rule:evenodd;clip-rule:evenodd;fill:#F5FF6E;}
	.st43{clip-path:url(#SVGID_6_);fill-rule:evenodd;clip-rule:evenodd;fill:#B5E900;}
	.st44{clip-path:url(#SVGID_6_);fill-rule:evenodd;clip-rule:evenodd;fill:#8AC300;}
	.st45{clip-path:url(#SVGID_6_);}
	.st46{fill:#FFE46E;}
	.st47{fill:#FFBB1D;}
	.st48{clip-path:url(#SVGID_6_);fill:#FFFFFF;}
	.st49{clip-path:url(#SVGID_6_);fill-rule:evenodd;clip-rule:evenodd;fill:#FFFFFA;}
	.st50{fill-rule:evenodd;clip-rule:evenodd;fill:#8AC300;}
	.st51{clip-path:url(#SVGID_8_);}
	.st52{fill-rule:evenodd;clip-rule:evenodd;fill:#6500DD;}
	.st53{clip-path:url(#SVGID_8_);fill-rule:evenodd;clip-rule:evenodd;fill:#FFFFFF;}
	.st54{fill-rule:evenodd;clip-rule:evenodd;fill:#E5FBA5;}
	.st55{fill:#829500;}
	.st56{fill-rule:evenodd;clip-rule:evenodd;fill:#ECB4CD;}
	.st57{clip-path:url(#SVGID_10_);fill-rule:evenodd;clip-rule:evenodd;fill:#FFC7BF;}
	.st58{clip-path:url(#SVGID_10_);fill-rule:evenodd;clip-rule:evenodd;fill:#FF8C72;}
	.st59{fill-rule:evenodd;clip-rule:evenodd;fill:#FFEEC3;}
	.st60{fill-rule:evenodd;clip-rule:evenodd;fill:#FF9666;}
	.st61{fill-rule:evenodd;clip-rule:evenodd;fill:#FF663F;}
	.st62{display:none;opacity:0.5;}
	.st63{display:inline;fill-rule:evenodd;clip-rule:evenodd;fill:#777EFF;}
	.st64{fill:#D8F4FF;}
	.st65{clip-path:url(#SVGID_12_);fill:#81C2E2;}
	.st66{clip-path:url(#SVGID_12_);fill:#7BCEF0;}
	.st67{clip-path:url(#SVGID_12_);fill:#79CEEB;}
	.st68{clip-path:url(#SVGID_12_);fill:#C2E7F7;}
	.st69{clip-path:url(#SVGID_12_);fill:#FFFFFF;}
</style>
<g>
	<g>
		<path d="M214.4,221.2c66.1-19.2,208.1,39.7,208.1,39.7s104.1-85.5,168.1-84.5c-8.5,74.6-80.9,184.1-80.9,184.1
			l-250,168.6c0,0-49.5-8.5-117.7-6.3c46.9-62.9,91.6-86.3,91.6-86.3s-59.7-36.2-81-72.5c79.9-14.9,105.5-17.1,105.5-17.1
			S213.3,285.2,214.4,221.2z" class="st16"></path>
		<path d="M262.7,543.1l-5.2-0.9c-0.5-0.1-49.2-8.2-115.1-6.1l-27.4,0.9l16.4-22c30.4-40.7,59.9-65.5,78.1-78.6
			c-20.2-14.1-52.8-39.5-68.2-65.6l-9.6-16.2l18.5-3.5c42.1-7.8,69.2-12.2,85.6-14.5c-14-24.1-35.4-68.8-34.6-115.5l0.2-9.8l9.4-2.7
			c61.6-18,178.9,25.3,209.6,37.3c23.8-18.6,109.8-82.6,169.1-82.6c0.5,0,0.9,0,1.3,0l14.6,0.2l-1.7,14.5
			c-8.8,76.9-80,185.3-83,189.9l-1.5,2.2L262.7,543.1z M169.7,509.3c42.7,0.3,74.7,4.3,86.9,6l243.5-164.2
			c9.2-14.3,60.6-96.3,74.6-159.9c-49,9.3-118.7,59.3-143.8,80l-6.1,5l-7.3-3c-36-14.9-135.8-49.4-189.6-41.3
			c3.6,55,40.5,106.9,40.9,107.4l13.6,18.9l-23.2,2c-0.2,0-21.6,1.9-83.4,13.1c24.3,27.3,64.1,51.7,64.6,52l20,12.1l-20.7,10.9
			C239.4,448.4,207.2,465.8,169.7,509.3z"></path>
	</g>
	<path d="M372.3,407.7c-5.1,0-10.1-2.1-13.6-6.3c-1.8-2.1-43.5-52.2-33.1-117.2c4.1-25.6,11.9-47.5,22-65.7c-1.2-5-2.1-10.4-2.5-16
		c-2.5-32,8.6-61.3,32.1-84.9c33.8-33.8,93.1-53.5,147.5-49.1c9.8,0.8,17.1,9.4,16.3,19.2s-9.3,17.1-19.2,16.3
		c-43.8-3.5-93,12.4-119.4,38.7c-9.4,9.4-15.9,19.8-19.2,31.2c13.6-11.8,28-19.9,41.6-24.7c30.2-10.6,59.2-7,77.7,9.7
		c9.5,8.6,24.1,28.2,15.6,63.6c-11.3,46.9-53.3,65-89.8,62.1c-21.3-1.7-43.2-10.6-59.3-27.1c-3.5,9.8-6.3,20.5-8.2,32.3
		c-7.8,48.4,24.8,88.1,25.1,88.5c6.3,7.5,5.3,18.8-2.2,25.1C380.4,406.3,376.4,407.7,372.3,407.7z M387.2,222.4
		c9.7,17.6,28.1,25.4,44,26.7c19.9,1.6,45.5-6.6,52.3-34.9c2.2-9.1,3.2-21.5-4.8-28.7c-8.3-7.5-24.8-8.5-41.9-2.5
		C420.1,188.8,401.9,201.6,387.2,222.4z"></path>
	<g>
		<path d="M428.7,683.3c-74.5,65.1,16.5,233.4,128.2,155.9C632.4,786.7,549.2,578,428.7,683.3z" class="st17"></path>
		<path d="M499.5,872.4c-34.9,0-64-19.6-82.2-42.9c-34.3-44-43.1-116.2,2.7-156.1l0,0c44-38.4,80.7-36,103.8-27.1
			c44.1,16.9,69,67.3,74.1,109.7c4.9,40.9-7.6,76.1-33.5,94.1C541.5,865.9,519.6,872.4,499.5,872.4z M494.7,667.3
			c-18.2,0-37.6,8.7-57.3,25.9l0,0c-34.1,29.8-26.1,85.5,0.8,120c11,14,51.3,56.6,111.1,15.1c17.7-12.3,26.1-38.2,22.3-69.2
			c-4.9-40.9-28.5-77.1-57.3-88.2C508,668.5,501.5,667.3,494.7,667.3z"></path>
	</g>
	<g>
		<path d="M612.2,719.7c-66.3,76.6,55.6,233.1,155.5,136.1C835.2,790.1,690.8,628.9,612.2,719.7z" class="st17"></path>
		<path d="M700,899.7c-29.9,0-57.1-14.1-76.5-32.5c-42.3-40-61.8-109.4-21.2-156.3c22.7-26.2,53.4-36.7,86.3-29.3
			c46.6,10.3,92.1,55,105.9,103.9c9,31.7,2.7,60-17.5,79.6C751.3,890.1,724.7,899.7,700,899.7z M668,705.8
			c-17.5,0-32.8,7.5-45.8,22.5l0,0c-29.8,34.5-13.2,89,19.4,119.8c13.7,12.9,62.6,51,116.9-1.8c16.6-16.1,14.9-38,10.5-53.5
			c-11-38.9-49.7-77.2-86.3-85.3C677.7,706.3,672.7,705.8,668,705.8z"></path>
	</g>
	<g>
		<path d="M503.8,576.4c-90.3,75,19.5,277,152.1,185C745.5,699.2,610.9,487.5,503.8,576.4z" class="st17"></path>
		<path d="M588.1,798.2c-41.5,0-76.1-23.9-97.7-52.2c-40.2-52.9-49.4-134.6,5-179.8c30.3-25.2,66.6-31.2,102.1-16.9
			c50.6,20.4,93.7,79.3,100.2,137.1c4.2,37.1-8,67.6-34.2,85.8C636.9,790.7,611.4,798.2,588.1,798.2z M559.4,568.1
			c-16.5,0-32.2,6.2-47.1,18.5l0,0c-41.6,34.5-32.8,101.4-0.8,143.4c27.8,36.6,78.3,61.2,136.9,20.5c22.9-15.9,25.2-42,23-61.1
			c-5.4-48-42.2-98.8-83.8-115.5C578,570,568.6,568.1,559.4,568.1z"></path>
	</g>
	<g>
		<path d="M627,628.1c-16.5,91.3,152.5,157.6,186,34.6C835.6,579.5,646.6,519.9,627,628.1z" class="st17"></path>
		<path d="M730.3,743.1c-8.9,0-17.6-1-25.8-2.9C652,728.3,603.8,682.3,614,625.7l0,0c5.7-31.7,25.3-54.5,55-64.2
			c41.9-13.6,99,0.4,133,32.7c22.2,21.1,30.6,46.6,23.7,72C810.1,723.5,768.8,743.1,730.3,743.1z M703.3,582.8
			c-9.3,0-18.2,1.2-26.1,3.8c-20.7,6.7-33.2,21.5-37.2,43.8l0,0c-7.3,40.4,30.8,75.1,70.3,84c16.6,3.7,72,10.8,89.9-55.2
			c5.4-19.9-5.9-36-16.4-45.9C763.8,594.3,731.7,582.8,703.3,582.8z"></path>
	</g>
	<g>
		<path d="M498.3,501.9c-31.5,121.8,182,171.7,213.6,69.8C748.9,452.6,536.1,355.9,498.3,501.9z" class="st17"></path>
		<path d="M623.3,639.7c-15.4,0-31.1-2.3-46.1-6.5c-58.7-16.7-109.8-64.8-91.7-134.7l12.8,3.3l-12.8-3.3c10.9-42.1,37-70.5,73.5-80
			c44.7-11.6,99.2,6.2,135.6,44.3c31.1,32.6,42,73.7,29.9,112.8C710.6,620.3,668.4,639.7,623.3,639.7z M587.2,441.5
			c-7.4,0-14.6,0.9-21.4,2.6c-27.2,7.1-46.1,28.2-54.6,61c-13.6,52.6,27.1,89.5,73.4,102.6c46.7,13.3,101.2,3.8,114.8-40
			c12.6-40.6-9.5-71.7-23.7-86.7C651.7,456.2,617.8,441.5,587.2,441.5z"></path>
	</g>
	<g>
		<path d="M283.5,442.6c-103.4,28.1-76,245.9,58.1,213.3C448.8,629.9,431.7,402.4,283.5,442.6z" class="st17"></path>
		<path d="M314.6,672.5c-57.7,0-90.8-45.4-102.1-89.3c-16-62.1,4.9-136.4,67.5-153.4l0,0c43-11.7,81.3-3.3,108,23.7
			c32,32.4,44,88,29.7,138.3c-11.5,40.4-38.1,68.4-73,76.9C334,671.3,324,672.5,314.6,672.5z M316.7,451.1c-9.3,0-19.3,1.4-29.7,4.2
			l0,0c-46.2,12.5-61.3,72.7-48.8,121.3c10.6,41.3,42.6,80.4,100.4,66.4c34.8-8.5,48.7-40.3,53.9-58.4c11.6-40.8,2.1-87-23.1-112.5
			C355.5,458.2,337.6,451.1,316.7,451.1z"></path>
	</g>
	<g>
		<path d="M425.1,502.3c-117.2,7.2-147.9,235,13.4,239.1C547.5,744.2,564,493.9,425.1,502.3z" class="st17"></path>
		<path d="M440.2,754.7c-0.7,0-1.4,0-2.1,0c-90-2.3-123.1-67.9-124.1-123.4c-1.2-66.5,39.7-137.8,110.2-142.1l0,0
			c39.4-2.4,72.1,14.2,92.3,46.7c28.8,46.3,28.7,119.3-0.2,169.8C498.2,737.3,471.3,754.7,440.2,754.7z M425.9,515.5
			c-54,3.3-86.4,62.4-85.4,115.3c0.8,45.9,27.1,95.6,98.3,97.4c28,0.7,45.1-19,54.7-35.7c24-42,24.3-104.6,0.7-142.7
			C478.9,525.2,455.9,513.6,425.9,515.5L425.9,515.5z"></path>
	</g>
	<g>
		<path d="M459,315.5c-36.3,111.7,164.5,223.7,227.4,75.1C728.9,290.1,502,183.1,459,315.5z" class="st17"></path>
		<path d="M587.5,475.1c-17.2,0-34.1-3.4-49.2-9.1c-62.3-23.2-113.7-87.4-91.9-154.6c12.2-37.5,39.6-61.9,77.3-68.8
			c53.7-9.8,121.6,17,157.9,62.4c23.4,29.1,29.4,61.4,16.9,90.8C673.7,454.6,629.6,475.1,587.5,475.1z M546.8,267
			c-6.3,0-12.4,0.5-18.3,1.6c-28.4,5.2-47.6,22.4-56.9,51l0,0c-16.7,51.4,26.4,103.2,76,121.7c43,16.1,98.9,9.8,126.7-55.8
			c10.9-25.7-1.2-48.9-13.2-64C634.8,288.8,587.6,267,546.8,267z"></path>
	</g>
	<g>
		<path d="M332.7,344.3c-64.6,98,99.1,259.4,199.2,132.8C599.6,391.5,409.3,228.1,332.7,344.3z" class="st17"></path>
		<path d="M446.1,536.7c-28.7,0-55.8-11-76.9-26.2C315.3,471.5,282.8,396,321.6,337l0,0c21.7-32.9,54.6-49.2,92.8-45.8
			c54.3,4.8,112.7,48.7,135.7,102.1c14.8,34.3,12,67-7.8,92C512.7,522.7,478.4,536.7,446.1,536.7z M343.7,351.6
			c-29.8,45.1-1.9,106.5,40.9,137.5c37.2,26.9,92.7,35.7,136.9-20.1c17.3-21.9,11.9-47.5,4.3-65.2c-19.1-44.4-69.1-82.3-113.7-86.2
			C383.3,315,360.3,326.4,343.7,351.6L343.7,351.6z"></path>
	</g>
	<path d="M396.5,346.8c40.2,15.3,61.3,60,81.1,47.9C503.8,379.4,438,338.5,396.5,346.8z" class="st18"></path>
	<path d="M476,597.7c-0.7,43-35.6,78.1-17.4,92.6C481.9,709.7,497.9,633.9,476,597.7z" class="st18"></path>
	<path d="M581.4,308.7c35.7,24.1,46.1,72.4,68.1,65C678.5,364.7,623.7,310,581.4,308.7z" class="st18"></path>
	<path d="M291.1,482.4c-14.8,27.3-3.2,72.7-20.9,69.5C247.1,548.2,263,490.1,291.1,482.4z" class="st18"></path>
	<path d="M667.1,516.1c13.4,41.6-10.4,61-29.7,67.7C664.8,586,704.3,539.9,667.1,516.1z" class="st18"></path>
	<path d="M765.8,640.4c4.1,36.4-18.7,48.3-35.6,50.6C752.4,697.5,792.4,666.1,765.8,640.4z" class="st18"></path>
	<path d="M664.1,826.4c36.4,17.9,69.5,7.6,83-10.3C738.9,845.6,689,862.8,664.1,826.4z" class="st18"></path>
</g>
</svg>
