<svg viewBox="0 0 214.74 275.03" xmlns="http://www.w3.org/2000/svg"><defs><style>.cls-1{fill:#5bb284;}.cls-2{fill:#060001;}.cls-3{fill:#9496c4;}.cls-4{fill:#bebedd;}.cls-5{fill:#7a7cae;}.cls-6{opacity:0.7;}.cls-7{fill:#fff;}</style></defs><title>资源 9</title><g id="图层_2"><g id="图层_1-2"><path d="M156.66,106a5.83,5.83,0,0,1-5.66-3.37L87.85,88.58a2,2,0,0,1-1.32-1,2,2,0,0,1-.11-1.67c12.42-32.37,27.11-50.17,46.23-56a2,2,0,0,1,.59-.09,2,2,0,0,1,2,1.64L138,46.34a30.16,30.16,0,0,1,12.94-2.85c10.69,0,20.87,5.27,27.53,9.7a79.58,79.58,0,0,1,12,9.63,2,2,0,0,1,.41,2.2c-.57,1.28-13.9,31.5-25.37,38C161.93,105.05,159.07,106,156.66,106Z" class="cls-1"></path><path d="M133.24,31.81l3.24,17.56a28.08,28.08,0,0,1,14.42-3.88c19.72,0,38.06,18.73,38.06,18.73S175.46,95,164.44,101.33c-3.53,2-6,2.69-7.78,2.69-3.71,0-4.11-3.08-4.11-3.08L88.29,86.63c11.44-29.83,25.29-48.81,45-54.82m0-4a4.25,4.25,0,0,0-1.17.17C112.31,34,97.21,52.2,84.55,85.2a4,4,0,0,0,.21,3.32,4,4,0,0,0,2.66,2L149.7,104.4a7.9,7.9,0,0,0,7,3.62c2.76,0,6-1,9.76-3.22,11.83-6.75,24.77-35.7,26.21-39a4,4,0,0,0-.81-4.4c-.8-.81-19.76-19.93-40.92-19.93a32.23,32.23,0,0,0-11.43,2l-2.3-12.45a4,4,0,0,0-1.85-2.69,4.08,4.08,0,0,0-2.08-.58Z" class="cls-2"></path><path d="M94.65,99.16,30.06,95.49a5.63,5.63,0,0,1-4.37,2c-2.82,0-6-1.81-9.62-5.52C6.81,82.55,2.21,49.84,2,48.45a2,2,0,0,1,1-2c.65-.37,16.29-9.22,32.79-9.22,8.88,0,16.32,2.57,22.15,7.64l6.7-13.57a2,2,0,0,1,2.88-.8c16.8,10.83,26.09,32,29.23,66.49a2,2,0,0,1-2,2.18Z" class="cls-1"></path><path d="M66.44,32.17c17.29,11.14,25.44,33.17,28.33,65L29,93.43a3.67,3.67,0,0,1-3.34,2.06c-1.79,0-4.44-1.1-8.2-4.93C8.6,81.51,4,48.18,4,48.18s15.64-9,31.8-9c8.08,0,16.29,2.24,22.74,9l7.9-16m0-4a3.88,3.88,0,0,0-1.06.15,4,4,0,0,0-2.52,2.08l-5.6,11.35C51.4,37.42,44.2,35.23,35.8,35.23c-17,0-33.11,9.09-33.79,9.48a4,4,0,0,0-2,4c.49,3.55,5.05,34.93,14.6,44.65,4.05,4.12,7.67,6.12,11.05,6.12a7.54,7.54,0,0,0,5.15-1.95l63.7,3.62h.23a4,4,0,0,0,4-4.36C95.55,61.6,86,40,68.61,28.81a4,4,0,0,0-2.17-.64Z" class="cls-2"></path><path d="M97,118.26a2,2,0,0,1-2-1.94L93.1,60.6a1.7,1.7,0,0,1,0-.22c.77-9.92-4.56-15.67-5.42-16.53A25.11,25.11,0,0,1,80.42,9.3a20.42,20.42,0,0,1,28.27-6,16.81,16.81,0,0,1,5,23.18,13.79,13.79,0,0,1-19.09,4,11.46,11.46,0,0,1-3.39-15.83,2,2,0,0,1,3.36,2.17,7.46,7.46,0,0,0,2.21,10.3,9.77,9.77,0,0,0,13.55-2.86,12.79,12.79,0,0,0-3.79-17.65,16.42,16.42,0,0,0-22.73,4.8A21.12,21.12,0,0,0,90,40.61a1.89,1.89,0,0,1,.27.2c.32.3,7.73,7.28,6.8,19.77L99,116.19a2,2,0,0,1-1.93,2.06Z" class="cls-2"></path><path d="M72.58,273a31.82,31.82,0,0,1-7.45-.89,32.87,32.87,0,0,1-5.85-2,31,31,0,0,1-8.11-5.47,30.66,30.66,0,0,1-4.25-4.78A31.55,31.55,0,0,1,41.33,237c.14-1,.33-2,.56-2.92A31.51,31.51,0,0,1,80,210.83a31.12,31.12,0,0,1,7.49,2.87,29.34,29.34,0,0,1,3.45,2.15A25.39,25.39,0,0,1,93,217.51a32,32,0,0,1,3.91,4l.06.08a31.5,31.5,0,0,1,6.47,13.67,31.11,31.11,0,0,1-.27,13.64A31.43,31.43,0,0,1,72.58,273Z" class="cls-3"></path><path d="M72.52,211.94a29.32,29.32,0,0,1,7,.84,28.68,28.68,0,0,1,7,2.68,26.81,26.81,0,0,1,3.23,2,23.3,23.3,0,0,1,2,1.56,30.15,30.15,0,0,1,3.66,3.75h0a29.51,29.51,0,0,1-29.8,47.4,29,29,0,0,1-13.07-7,28.3,28.3,0,0,1-4-4.49,29.44,29.44,0,0,1-5.24-21.42c.13-.91.31-1.82.53-2.73a29.56,29.56,0,0,1,28.68-22.6m0-4h0A33.44,33.44,0,0,0,40,233.6c-.25,1-.45,2.06-.6,3.08a33.83,33.83,0,0,0-.08,8.93,33.41,33.41,0,0,0,6,15.41,32.38,32.38,0,0,0,4.54,5.12,33.06,33.06,0,0,0,8.59,5.78,34,34,0,0,0,6.23,2.16,33.49,33.49,0,0,0,40.48-24.71,33.12,33.12,0,0,0,.29-14.52,33.53,33.53,0,0,0-6.85-14.49l-.1-.12A35.86,35.86,0,0,0,94.35,216,27.9,27.9,0,0,0,92,214.2a31.35,31.35,0,0,0-3.67-2.28,33,33,0,0,0-7.93-3,33.6,33.6,0,0,0-7.9-.95Z" class="cls-2"></path><path d="M44,247.93a31.43,31.43,0,0,1,.08-8.33c.14-1,.33-1.94.56-2.89a31.36,31.36,0,0,1,37.22-23.25c-.76-.25-1.54-.49-2.34-.68a29.53,29.53,0,0,0-35.65,21.76c-.22.91-.4,1.82-.53,2.73a29.51,29.51,0,0,0-.08,7.85,29,29,0,0,0,1.15,5.24C44.21,249.56,44.07,248.75,44,247.93Z" class="cls-4"></path><path d="M101.51,235.65a29.39,29.39,0,0,0-6.11-12.86h0A30.15,30.15,0,0,0,91.73,219a23,23,0,0,0-2-1.55,29.52,29.52,0,0,1-30,47.09,30.55,30.55,0,0,1-5.48-1.9,30,30,0,0,1-4.84-2.87A29.28,29.28,0,0,0,65.6,270.19a29.56,29.56,0,0,0,35.91-34.54Z" class="cls-5"></path><g class="cls-6"><path d="M64.55,224.25c3.83,1.32,2.13,3.87.49,5.66a37.14,37.14,0,0,1-5,5c-1.73,1.75-4.66,2.49-5.25-2.21C54.13,227.85,60.62,222.73,64.55,224.25Z" class="cls-7"></path></g><path d="M120.19,252a32.67,32.67,0,0,1-7.29-.83,31.39,31.39,0,0,1-5.83-1.93A30.4,30.4,0,0,1,99,244a29.84,29.84,0,0,1-9.88-18.63,30.13,30.13,0,0,1,.11-8.1c.15-.95.35-1.9.59-2.83A31.52,31.52,0,0,1,120.62,191a32.52,32.52,0,0,1,7.28.83,31,31,0,0,1,7.47,2.73,28.15,28.15,0,0,1,3.44,2.06,25.34,25.34,0,0,1,2.13,1.59,33,33,0,0,1,3.9,3.85l.06.08A29.5,29.5,0,0,1,151,228.6,31.52,31.52,0,0,1,120.19,252Z" class="cls-3"></path><path d="M120.62,193a30.29,30.29,0,0,1,6.84.78,29.26,29.26,0,0,1,7,2.55,27.55,27.55,0,0,1,3.23,1.93c.69.46,1.35,1,2,1.49a30.2,30.2,0,0,1,3.64,3.6v0a27.5,27.5,0,0,1,5.75,24.7c-3.33,13.09-15.51,21.9-28.88,21.9a30.75,30.75,0,0,1-12.31-2.59,29.1,29.1,0,0,1-7.57-4.89,28.4,28.4,0,0,1-4-4.32,27.55,27.55,0,0,1-5.26-13.07,27.87,27.87,0,0,1,.1-7.57c.14-.87.32-1.75.54-2.62,3.34-13.1,15.53-21.91,28.89-21.91m0-4h0c-15.56,0-29,10.25-32.76,24.92-.25,1-.46,2-.62,3a31.78,31.78,0,0,0,10.43,28.58,32.56,32.56,0,0,0,8.58,5.54,33.26,33.26,0,0,0,6.21,2.06,34.2,34.2,0,0,0,7.73.88A33.53,33.53,0,0,0,153,229.09a31.51,31.51,0,0,0-6.49-28.17l-.1-.11a34,34,0,0,0-4.13-4.09,28.29,28.29,0,0,0-2.32-1.73,30.75,30.75,0,0,0-3.66-2.19,33.52,33.52,0,0,0-7.9-2.88,34.78,34.78,0,0,0-7.73-.88Z" class="cls-2"></path><path d="M91.81,227.85a29.64,29.64,0,0,1,.11-8c.15-.93.34-1.87.58-2.79,4.09-16.05,20.7-26,37.3-22.57-.77-.24-1.54-.46-2.34-.64-15.83-3.64-31.83,5.82-35.72,21.13-.23.87-.41,1.75-.55,2.62a27.87,27.87,0,0,0-.1,7.57,26.76,26.76,0,0,0,1.12,5.05C92.05,229.42,91.91,228.64,91.81,227.85Z" class="cls-4"></path><path d="M149.37,215.78a27.56,27.56,0,0,0-6.05-12.37v0a30.2,30.2,0,0,0-3.64-3.6,24.44,24.44,0,0,0-2-1.48,27.67,27.67,0,0,1,5.82,12.07,27.22,27.22,0,0,1-.31,12.32c-3.89,15.31-19.88,24.77-35.72,21.13A30,30,0,0,1,102,242a29.21,29.21,0,0,1-4.82-2.75,28.34,28.34,0,0,0,3.13,3.26,29.1,29.1,0,0,0,7.57,4.89,30,30,0,0,0,5.47,1.81c15.84,3.64,31.82-5.82,35.72-21.12A27.4,27.4,0,0,0,149.37,215.78Z" class="cls-5"></path><g class="cls-6"><path d="M112.48,204.94c3.82,1.26,2.12,3.72.47,5.46a37.44,37.44,0,0,1-5,4.84c-1.73,1.7-4.66,2.42-5.23-2.11C102.05,208.45,108.55,203.49,112.48,204.94Z" class="cls-7"></path></g><path d="M153,215.27a31.41,31.41,0,0,1-9.92-1.61,32.08,32.08,0,0,1-5.67-2.5,31,31,0,0,1-7.63-6.12,30.43,30.43,0,0,1-3.84-5.12A31.47,31.47,0,0,1,121.46,185a31.79,31.79,0,0,1,.77-8.33,29,29,0,0,1,.81-2.86,31.53,31.53,0,0,1,47.08-16.55,30.9,30.9,0,0,1,3.26,2.43,25.42,25.42,0,0,1,2,1.83,33.36,33.36,0,0,1,3.56,4.31.41.41,0,0,1,0,.09,31.53,31.53,0,0,1-26,49.35Z" class="cls-3"></path><path d="M153,154.18a29.51,29.51,0,0,1,9.29,1.51,28.53,28.53,0,0,1,6.76,3.25,25.59,25.59,0,0,1,3.06,2.28,23.24,23.24,0,0,1,1.87,1.71,30.68,30.68,0,0,1,3.33,4h0a29.55,29.55,0,0,1-38.91,42.44,29.13,29.13,0,0,1-7.14-5.72,28.38,28.38,0,0,1-3.6-4.8,29.55,29.55,0,0,1-3.46-21.79c.21-.9.46-1.79.76-2.67a29.54,29.54,0,0,1,28-20.26m0-4v0h0a33.49,33.49,0,0,0-31.83,23c-.33,1-.62,2-.85,3a33.44,33.44,0,0,0,8,30.23,33,33,0,0,0,8.1,6.47,34,34,0,0,0,6,2.67,33.51,33.51,0,0,0,38.22-50.74.57.57,0,0,0-.08-.13,35,35,0,0,0-3.76-4.56,28.64,28.64,0,0,0-2.17-2,30.5,30.5,0,0,0-3.47-2.58,32.93,32.93,0,0,0-7.65-3.67A33.58,33.58,0,0,0,153,150.18Z" class="cls-2"></path><path d="M124,187.79a31.69,31.69,0,0,1,.77-8.3c.22-1,.49-1.9.8-2.83a31.36,31.36,0,0,1,39-20.1c-.74-.31-1.5-.61-2.28-.87a29.53,29.53,0,0,0-37.32,18.75c-.3.88-.55,1.77-.76,2.67a29.7,29.7,0,0,0-.72,7.82,28.5,28.5,0,0,0,.71,5.31C124.07,189.43,124,188.62,124,187.79Z" class="cls-4"></path><path d="M182.32,180.3a29.51,29.51,0,0,0-5-13.32h0a30.68,30.68,0,0,0-3.33-4,23.11,23.11,0,0,0-1.86-1.71A29.54,29.54,0,0,1,133,203.32a28.75,28.75,0,0,1-4.58-3.26,28.63,28.63,0,0,0,2.86,3.64,29.13,29.13,0,0,0,7.14,5.72,29.56,29.56,0,0,0,43.94-29.12Z" class="cls-5"></path><g class="cls-6"><path d="M146.42,165.89c3.71,1.63,1.81,4,0,5.68a36.91,36.91,0,0,1-5.42,4.57c-1.87,1.61-4.85,2.1-5.05-2.63C135.75,168.62,142.63,164.05,146.42,165.89Z" class="cls-7"></path></g><path d="M53.1,227.45a31.33,31.33,0,0,1-21.41-8.39,30.29,30.29,0,0,1-4.25-4.79,31.55,31.55,0,0,1-5.59-22.87,29.31,29.31,0,0,1,.57-2.91A31.53,31.53,0,0,1,68,168.11a29.47,29.47,0,0,1,3.45,2.16,24,24,0,0,1,2.13,1.65,33.47,33.47,0,0,1,3.91,4l.06.09A31.53,31.53,0,0,1,53.1,227.45Z" class="cls-3"></path><path d="M53.05,166.36a29.8,29.8,0,0,1,7,.83,29.09,29.09,0,0,1,7,2.68,28.2,28.2,0,0,1,3.23,2,23.19,23.19,0,0,1,2,1.55,30.86,30.86,0,0,1,3.66,3.75v0a29.51,29.51,0,0,1-29.8,47.4,29.79,29.79,0,0,1-5.48-1.9,28.94,28.94,0,0,1-7.58-5.11,28.31,28.31,0,0,1-4-4.49,29.62,29.62,0,0,1-5.24-21.43c.13-.9.31-1.82.53-2.72a29.55,29.55,0,0,1,28.69-22.6m0-4h0A33.43,33.43,0,0,0,20.47,188c-.25,1-.45,2.06-.6,3.07a33.91,33.91,0,0,0-.08,8.94,33.41,33.41,0,0,0,6,15.41,32.37,32.37,0,0,0,4.54,5.11A33.09,33.09,0,0,0,39,226.34a34.15,34.15,0,0,0,14.15,3.11,33.52,33.52,0,0,0,26-54.67.63.63,0,0,0-.1-.12,35.11,35.11,0,0,0-4.13-4.24,25.91,25.91,0,0,0-2.32-1.8,30.66,30.66,0,0,0-3.67-2.29,32.92,32.92,0,0,0-7.93-3,33.6,33.6,0,0,0-7.9-.95Z" class="cls-2"></path><path d="M24.49,202.35a31.51,31.51,0,0,1,.08-8.34c.14-1,.33-1.93.56-2.89a31.35,31.35,0,0,1,37.22-23.24q-1.14-.39-2.34-.69A29.54,29.54,0,0,0,24.36,189c-.22.9-.4,1.82-.53,2.72a29.1,29.1,0,0,0-.07,7.85,27.78,27.78,0,0,0,1.14,5.24C24.73,204,24.59,203.17,24.49,202.35Z" class="cls-4"></path><path d="M82,190.07a29.39,29.39,0,0,0-6.11-12.86v0a30.86,30.86,0,0,0-3.66-3.75,22.94,22.94,0,0,0-2-1.54,29.32,29.32,0,0,1,5.61,25.32,29.54,29.54,0,0,1-41.13,19.86,29,29,0,0,1-4.84-2.87,28.13,28.13,0,0,0,3.16,3.39,28.94,28.94,0,0,0,7.58,5.11A29.55,29.55,0,0,0,82,190.07Z" class="cls-5"></path><g class="cls-6"><path d="M45.07,178.67c3.83,1.32,2.13,3.86.49,5.66a36.5,36.5,0,0,1-5,5c-1.73,1.76-4.66,2.5-5.25-2.21S41.14,177.15,45.07,178.67Z" class="cls-7"></path></g><path d="M93.51,210.55a31.9,31.9,0,0,1-13.29-2.92,31,31,0,0,1-8.11-5.47,30.16,30.16,0,0,1-4.25-4.78,31.65,31.65,0,0,1-5.6-22.87c.15-1,.34-1.95.57-2.92a31.45,31.45,0,0,1,30.63-24.13,31.8,31.8,0,0,1,7.44.89,31.12,31.12,0,0,1,7.49,2.87,30.19,30.19,0,0,1,3.45,2.15A25.39,25.39,0,0,1,114,155a31.94,31.94,0,0,1,3.9,4l.07.09a31.53,31.53,0,0,1-24.43,51.43Z" class="cls-3"></path><path d="M93.46,149.46a29.24,29.24,0,0,1,7,.84,28.68,28.68,0,0,1,7,2.68,26.16,26.16,0,0,1,3.24,2,23.3,23.3,0,0,1,2,1.56,30.88,30.88,0,0,1,3.66,3.75h0a29.55,29.55,0,0,1-35.28,45.5,30.19,30.19,0,0,1-11.58-9.6,29.43,29.43,0,0,1-5.31-13.57,29.93,29.93,0,0,1,.07-7.85c.14-.91.32-1.82.53-2.73a29.57,29.57,0,0,1,28.69-22.6m0-4h0a33.44,33.44,0,0,0-32.57,25.66c-.25,1-.45,2.06-.6,3.08a33.52,33.52,0,0,0,5.94,24.34,34,34,0,0,0,13.14,10.9,33.54,33.54,0,0,0,46.71-22.55,33.47,33.47,0,0,0-6.57-29l-.09-.11a35.86,35.86,0,0,0-4.13-4.24,27.41,27.41,0,0,0-2.32-1.8,31.35,31.35,0,0,0-3.67-2.28,33,33,0,0,0-7.93-3,33.62,33.62,0,0,0-7.91-.95Z" class="cls-2"></path><path d="M64.91,185.45a31.86,31.86,0,0,1,.07-8.33c.15-1,.34-1.94.57-2.89A31.36,31.36,0,0,1,102.77,151c-.77-.25-1.54-.49-2.34-.68a29.55,29.55,0,0,0-35.66,21.76c-.21.91-.39,1.82-.53,2.73a29.68,29.68,0,0,0,1.07,13.09C65.15,187.08,65,186.27,64.91,185.45Z" class="cls-4"></path><path d="M122.44,173.17a29.26,29.26,0,0,0-6.1-12.86h0a30.88,30.88,0,0,0-3.66-3.75,24.69,24.69,0,0,0-2-1.55,29.52,29.52,0,0,1-30,47.09,30,30,0,0,1-5.48-1.9,29.53,29.53,0,0,1-4.84-2.87,29.28,29.28,0,0,0,16.22,10.39,29.54,29.54,0,0,0,35.9-34.54Z" class="cls-5"></path><g class="cls-6"><path d="M85.48,161.77c3.84,1.32,2.14,3.87.5,5.66a36.58,36.58,0,0,1-5,5c-1.73,1.76-4.66,2.5-5.24-2.2C75.07,165.37,81.55,160.25,85.48,161.77Z" class="cls-7"></path></g><path d="M43.87,177a31.82,31.82,0,0,1-7.45-.89,31,31,0,0,1-14-7.49,30.73,30.73,0,0,1-4.25-4.79,31.55,31.55,0,0,1-5.59-22.87c.14-1,.33-1.95.56-2.91a31.51,31.51,0,0,1,38.07-23.24,31.09,31.09,0,0,1,7.49,2.86,29.34,29.34,0,0,1,3.45,2.15,23.28,23.28,0,0,1,2.13,1.66,32.74,32.74,0,0,1,3.91,4l.06.09A31.52,31.52,0,0,1,43.87,177Z" class="cls-3"></path><path d="M43.81,115.88a29.82,29.82,0,0,1,7,.83,29.09,29.09,0,0,1,7,2.68,28.2,28.2,0,0,1,3.23,2A23.19,23.19,0,0,1,63,123a30.86,30.86,0,0,1,3.66,3.75v0A29.53,29.53,0,0,1,43.87,175a30,30,0,0,1-7-.83,30.55,30.55,0,0,1-5.48-1.9,29.41,29.41,0,0,1-7.59-5.11,28.75,28.75,0,0,1-4-4.49A29.48,29.48,0,0,1,14.6,141.2c.13-.91.31-1.82.53-2.72a29.55,29.55,0,0,1,28.68-22.6m0-4h0a33.43,33.43,0,0,0-32.58,25.66c-.25,1-.45,2.05-.6,3.07a33.9,33.9,0,0,0-.08,8.94,33.45,33.45,0,0,0,6,15.41,34.19,34.19,0,0,0,13.13,10.89A33.25,33.25,0,0,0,36,178,33.49,33.49,0,0,0,76.43,153.3a33.36,33.36,0,0,0-6.57-29l-.09-.12a35,35,0,0,0-4.13-4.23,26.14,26.14,0,0,0-2.32-1.81,31,31,0,0,0-3.67-2.28,33.44,33.44,0,0,0-15.83-4Z" class="cls-2"></path><path d="M15.26,151.87a31.5,31.5,0,0,1,.08-8.34c.14-1,.33-1.93.56-2.89a31.36,31.36,0,0,1,37.22-23.25c-.76-.25-1.54-.49-2.34-.68a29.54,29.54,0,0,0-35.65,21.77c-.22.9-.4,1.81-.53,2.72a29.52,29.52,0,0,0-.08,7.85,29,29,0,0,0,1.15,5.24C15.5,153.49,15.36,152.68,15.26,151.87Z" class="cls-4"></path><path d="M72.8,139.58a29.3,29.3,0,0,0-6.11-12.85v0A30.86,30.86,0,0,0,63,123a23,23,0,0,0-2-1.55A29.52,29.52,0,0,1,31,168.5a29.79,29.79,0,0,1-5.48-1.9,29.25,29.25,0,0,1-4.84-2.87,30.1,30.1,0,0,0,10.74,8.5,30.55,30.55,0,0,0,5.48,1.9A29.57,29.57,0,0,0,72.8,139.58Z" class="cls-5"></path><g class="cls-6"><path d="M35.84,128.19c3.83,1.31,2.13,3.86.49,5.66a37.66,37.66,0,0,1-5,5c-1.73,1.75-4.66,2.49-5.25-2.21S31.91,126.67,35.84,128.19Z" class="cls-7"></path></g><path d="M173.15,129a31.9,31.9,0,0,1-13.29-2.92,31,31,0,0,1-8.11-5.46,30.23,30.23,0,0,1-4.25-4.79A31.65,31.65,0,0,1,141.9,93q.22-1.47.57-2.91A31.44,31.44,0,0,1,173.1,65.92a31.8,31.8,0,0,1,7.44.89A31.09,31.09,0,0,1,188,69.67a30.19,30.19,0,0,1,3.45,2.15,26.37,26.37,0,0,1,2.13,1.66,33.4,33.4,0,0,1,3.9,4l.07.09A31.53,31.53,0,0,1,173.15,129Z" class="cls-3"></path><path d="M173.1,67.92a29.89,29.89,0,0,1,7,.83,29.17,29.17,0,0,1,7,2.68,27.49,27.49,0,0,1,3.24,2,21.36,21.36,0,0,1,2,1.55A31.62,31.62,0,0,1,196,78.75v0a29.44,29.44,0,0,1,5.85,25.63A29.53,29.53,0,0,1,173.15,127a29.63,29.63,0,0,1-12.45-2.74,29.91,29.91,0,0,1-11.57-9.59,29.41,29.41,0,0,1-5.32-13.58,29.93,29.93,0,0,1,.07-7.85c.14-.91.32-1.82.54-2.72a29.54,29.54,0,0,1,28.68-22.6m0-4v0h0a33.42,33.42,0,0,0-32.57,25.66c-.25,1-.45,2-.6,3.07A33.5,33.5,0,0,0,145.87,117,34,34,0,0,0,159,127.89a33.54,33.54,0,0,0,46.71-22.55,33.44,33.44,0,0,0-6.57-29l-.09-.12A35,35,0,0,0,194.93,72a27.68,27.68,0,0,0-2.32-1.81,32.75,32.75,0,0,0-3.67-2.28,33.44,33.44,0,0,0-15.84-4Z" class="cls-2"></path><path d="M144.55,103.9a31.86,31.86,0,0,1,.07-8.33c.15-1,.34-1.93.57-2.89a31.36,31.36,0,0,1,37.22-23.25c-.77-.25-1.54-.49-2.34-.68a29.54,29.54,0,0,0-35.65,21.77c-.22.9-.4,1.81-.54,2.72A29.68,29.68,0,0,0,145,106.33C144.79,105.53,144.65,104.72,144.55,103.9Z" class="cls-4"></path><path d="M202.08,91.62A29.17,29.17,0,0,0,196,78.77v0A31.62,31.62,0,0,0,192.31,75a24.69,24.69,0,0,0-2-1.55,29.55,29.55,0,0,1-35.52,45.19,28.84,28.84,0,0,1-4.84-2.87,29.69,29.69,0,0,0,3.15,3.39,29,29,0,0,0,7.59,5.1,29.54,29.54,0,0,0,41.13-19.86A29.24,29.24,0,0,0,202.08,91.62Z" class="cls-5"></path><g class="cls-6"><path d="M165.12,80.23c3.84,1.31,2.14,3.86.5,5.65a37.22,37.22,0,0,1-5,5c-1.73,1.75-4.66,2.49-5.24-2.21C154.71,83.83,161.19,78.71,165.12,80.23Z" class="cls-7"></path></g><path d="M181.22,165.54a31.74,31.74,0,0,1-7.44-.89,32.1,32.1,0,0,1-5.85-2,31.45,31.45,0,0,1-8.12-5.46,31.13,31.13,0,0,1-4.24-4.79,31.6,31.6,0,0,1-5.68-14.5,32.15,32.15,0,0,1,.08-8.37c.15-1,.34-2,.57-2.92a31.5,31.5,0,0,1,38.06-23.24,30.8,30.8,0,0,1,7.49,2.87,29.43,29.43,0,0,1,3.46,2.15,25.39,25.39,0,0,1,2.13,1.66,32.67,32.67,0,0,1,3.9,4l.07.09a31.53,31.53,0,0,1-24.43,51.43Z" class="cls-3"></path><path d="M181.17,104.45a29.69,29.69,0,0,1,14,3.52,26.16,26.16,0,0,1,3.24,2,23.3,23.3,0,0,1,2,1.56,31.62,31.62,0,0,1,3.66,3.75h0a29.51,29.51,0,0,1-29.79,47.4,29.84,29.84,0,0,1-17.06-11.5,29.43,29.43,0,0,1-5.31-13.57,29.93,29.93,0,0,1,.07-7.85c.14-.91.32-1.82.53-2.73a29.56,29.56,0,0,1,28.69-22.6m0-4h0a33.43,33.43,0,0,0-32.57,25.66c-.25,1-.45,2.06-.6,3.08a33.5,33.5,0,0,0,5.94,24.34,34,34,0,0,0,13.14,10.9,34,34,0,0,0,6.23,2.16,33.49,33.49,0,0,0,40.48-24.71,33.47,33.47,0,0,0-6.57-29l-.09-.11a35,35,0,0,0-4.13-4.23,29.41,29.41,0,0,0-2.32-1.81,31.35,31.35,0,0,0-3.67-2.28,32.86,32.86,0,0,0-7.94-3,33.48,33.48,0,0,0-7.9-1Z" class="cls-2"></path><path d="M152.62,140.44a31.86,31.86,0,0,1,.07-8.33c.15-1,.34-1.93.57-2.89A31.36,31.36,0,0,1,190.48,106c-.77-.25-1.55-.49-2.35-.68a29.54,29.54,0,0,0-35.65,21.76c-.21.91-.39,1.82-.53,2.73A29.68,29.68,0,0,0,153,142.87C152.86,142.07,152.72,141.26,152.62,140.44Z" class="cls-4"></path><path d="M210.15,128.16a29.37,29.37,0,0,0-6.1-12.86h0a31.62,31.62,0,0,0-3.66-3.75,24.69,24.69,0,0,0-2-1.55,29.52,29.52,0,0,1-30,47.09,30,30,0,0,1-5.48-1.9,29.53,29.53,0,0,1-4.84-2.87,28,28,0,0,0,3.15,3.38,29,29,0,0,0,13.07,7,29.54,29.54,0,0,0,35.9-34.54Z" class="cls-5"></path><g class="cls-6"><path d="M173.19,116.77c3.84,1.31,2.14,3.86.5,5.65a37.81,37.81,0,0,1-5,5c-1.73,1.75-4.66,2.49-5.24-2.21C162.78,120.37,169.26,115.24,173.19,116.77Z" class="cls-7"></path></g><path d="M136.72,172.41a31.9,31.9,0,0,1-13.3-2.92,31,31,0,0,1-8.11-5.47,30.66,30.66,0,0,1-4.25-4.78,31.65,31.65,0,0,1-5.6-22.87c.15-1,.34-2,.57-2.92a31.51,31.51,0,0,1,38.07-23.24,31.12,31.12,0,0,1,7.49,2.87,29.34,29.34,0,0,1,3.45,2.15,25.08,25.08,0,0,1,2.13,1.65,33.55,33.55,0,0,1,3.91,4l.06.08a31.53,31.53,0,0,1-24.42,51.44Z" class="cls-3"></path><path d="M136.66,111.32a29.32,29.32,0,0,1,7,.84,28.83,28.83,0,0,1,7,2.68,26.81,26.81,0,0,1,3.23,2c.7.48,1.36,1,2,1.55a31.7,31.7,0,0,1,3.66,3.76h0a29.51,29.51,0,0,1-29.8,47.4,29.06,29.06,0,0,1-5.48-1.9,28.75,28.75,0,0,1-7.59-5.11,28.3,28.3,0,0,1-4-4.49,29.44,29.44,0,0,1-5.24-21.42c.13-.91.31-1.83.53-2.73a29.55,29.55,0,0,1,28.68-22.6m0-4h0A33.43,33.43,0,0,0,104.09,133c-.25,1-.45,2.06-.6,3.08a33.52,33.52,0,0,0,5.94,24.34,34.24,34.24,0,0,0,13.14,10.9,34,34,0,0,0,6.23,2.16,33.49,33.49,0,0,0,40.48-24.71,33.36,33.36,0,0,0-6.57-29l-.09-.12a35.11,35.11,0,0,0-4.13-4.24,27.41,27.41,0,0,0-2.32-1.8,30.07,30.07,0,0,0-3.67-2.28,33,33,0,0,0-7.93-3,33.62,33.62,0,0,0-7.91-1Z" class="cls-2"></path><path d="M108.11,147.31a31.43,31.43,0,0,1,.08-8.33c.14-1,.33-1.94.56-2.89A31.36,31.36,0,0,1,146,112.84c-.76-.26-1.54-.49-2.34-.68A29.52,29.52,0,0,0,108,133.92c-.22.9-.4,1.82-.53,2.73a29.51,29.51,0,0,0-.08,7.85,28.68,28.68,0,0,0,1.15,5.23C108.35,148.93,108.21,148.13,108.11,147.31Z" class="cls-4"></path><path d="M165.65,135a29.39,29.39,0,0,0-6.11-12.86h0a31.7,31.7,0,0,0-3.66-3.76,25.09,25.09,0,0,0-2-1.54,29.52,29.52,0,0,1-30,47.09,30.55,30.55,0,0,1-5.48-1.9,30,30,0,0,1-4.84-2.87,28.79,28.79,0,0,0,3.15,3.38,29,29,0,0,0,13.07,7A29.56,29.56,0,0,0,165.65,135Z" class="cls-5"></path><g class="cls-6"><path d="M128.69,123.63c3.83,1.32,2.13,3.87.49,5.66a36.58,36.58,0,0,1-5,5c-1.72,1.76-4.66,2.5-5.24-2.2C118.27,127.23,124.76,122.11,128.69,123.63Z" class="cls-7"></path></g><path d="M91.68,170.51a31.74,31.74,0,0,1-7.44-.89,32.1,32.1,0,0,1-5.85-2,31.24,31.24,0,0,1-8.12-5.47A30.6,30.6,0,0,1,66,157.34a31.51,31.51,0,0,1-5.6-22.87c.15-1,.34-1.95.57-2.92a31.5,31.5,0,0,1,45.55-20.37,28.54,28.54,0,0,1,3.45,2.15,22.91,22.91,0,0,1,2.14,1.66,33.4,33.4,0,0,1,3.9,4l.07.08a31.54,31.54,0,0,1-24.43,51.44Z" class="cls-3"></path><path d="M91.63,109.42a29.24,29.24,0,0,1,7,.84,28.68,28.68,0,0,1,7,2.68,26.16,26.16,0,0,1,3.24,2,23.3,23.3,0,0,1,2,1.56,30.07,30.07,0,0,1,3.65,3.75h0a29.51,29.51,0,0,1-29.79,47.4,29,29,0,0,1-13.07-7,28.87,28.87,0,0,1-4-4.49,29.43,29.43,0,0,1-5.31-13.57,29.93,29.93,0,0,1,.07-7.85c.14-.91.31-1.82.53-2.73a29.56,29.56,0,0,1,28.69-22.6m0-4h0a33.43,33.43,0,0,0-32.57,25.66c-.25,1-.45,2.06-.61,3.08a33.61,33.61,0,0,0,6,24.34,34,34,0,0,0,13.14,10.9,33.54,33.54,0,0,0,46.71-22.55,33.44,33.44,0,0,0-6.57-29l-.09-.12a35.11,35.11,0,0,0-4.13-4.24c-.83-.71-1.59-1.29-2.32-1.8a31.35,31.35,0,0,0-3.67-2.28,32.86,32.86,0,0,0-7.94-3,33.48,33.48,0,0,0-7.9-1Z" class="cls-2"></path><path d="M63.08,145.41a31.43,31.43,0,0,1,.07-8.33c.15-1,.34-1.94.57-2.89a31.36,31.36,0,0,1,37.22-23.25c-.77-.25-1.55-.49-2.35-.68A29.54,29.54,0,0,0,62.94,132c-.21.91-.39,1.82-.53,2.73a29.68,29.68,0,0,0,1.07,13.09C63.32,147,63.18,146.23,63.08,145.41Z" class="cls-4"></path><path d="M120.61,133.13a29.39,29.39,0,0,0-6.11-12.86h0a30.07,30.07,0,0,0-3.65-3.75,23.19,23.19,0,0,0-2-1.55,29.52,29.52,0,0,1-30,47.09,30.38,30.38,0,0,1-5.49-1.9,29.86,29.86,0,0,1-4.83-2.87,28,28,0,0,0,3.15,3.38,29,29,0,0,0,13.07,7,29.54,29.54,0,0,0,35.9-34.54Z" class="cls-5"></path><g class="cls-6"><path d="M83.65,121.73c3.84,1.32,2.14,3.87.5,5.66a37.15,37.15,0,0,1-5,5c-1.73,1.76-4.66,2.5-5.24-2.2C73.24,125.33,79.72,120.21,83.65,121.73Z" class="cls-7"></path></g><path d="M34.25,137.85A32,32,0,0,1,21,134.93a31.07,31.07,0,0,1-8.11-5.46,30.79,30.79,0,0,1-4.25-4.79A31.55,31.55,0,0,1,3,101.81a29.31,29.31,0,0,1,.57-2.91A31.53,31.53,0,0,1,49.12,78.52a29.47,29.47,0,0,1,3.45,2.16,24,24,0,0,1,2.13,1.65,33.47,33.47,0,0,1,3.91,4l.07.09a31.53,31.53,0,0,1-24.43,51.43Z" class="cls-3"></path><path d="M34.2,76.77a29.74,29.74,0,0,1,7,.83,29.09,29.09,0,0,1,7,2.68,27.49,27.49,0,0,1,3.24,2,24.69,24.69,0,0,1,2,1.55,30.14,30.14,0,0,1,3.66,3.75v0a29.53,29.53,0,0,1-22.82,48.24,29.84,29.84,0,0,1-7-.84,30.38,30.38,0,0,1-5.49-1.9A29.11,29.11,0,0,1,14.21,128a28.81,28.81,0,0,1-4-4.49,29.47,29.47,0,0,1-5.31-13.58A29.93,29.93,0,0,1,5,102.09c.13-.91.31-1.82.53-2.72A29.55,29.55,0,0,1,34.2,76.77m0-4h0A33.44,33.44,0,0,0,1.62,98.43c-.24,1-.45,2-.6,3.07a33.9,33.9,0,0,0-.08,8.94,33.52,33.52,0,0,0,6,15.41A32.37,32.37,0,0,0,11.51,131a32.7,32.7,0,0,0,8.6,5.78,33,33,0,0,0,6.23,2.17,33.49,33.49,0,0,0,40.48-24.72,33.44,33.44,0,0,0-6.57-29l-.09-.11A35.88,35.88,0,0,0,56,80.83,27.45,27.45,0,0,0,53.7,79,29.89,29.89,0,0,0,50,76.74a32.77,32.77,0,0,0-7.93-3,33.48,33.48,0,0,0-7.9-1Z" class="cls-2"></path><path d="M5.64,112.76a31.51,31.51,0,0,1,.08-8.34c.14-1,.33-1.93.57-2.89A31.34,31.34,0,0,1,43.51,78.29c-.77-.26-1.55-.49-2.35-.69A29.54,29.54,0,0,0,5.51,99.37c-.22.9-.4,1.81-.53,2.72a29.93,29.93,0,0,0-.07,7.85,28.77,28.77,0,0,0,1.14,5.24C5.89,114.38,5.74,113.58,5.64,112.76Z" class="cls-4"></path><path d="M63.18,100.48a29.39,29.39,0,0,0-6.11-12.86v0a30.14,30.14,0,0,0-3.66-3.75,21.51,21.51,0,0,0-2-1.54A29.37,29.37,0,0,1,57,107.63a29.52,29.52,0,0,1-35.65,21.76,28.92,28.92,0,0,1-5.49-1.9,28.48,28.48,0,0,1-4.83-2.87A28.05,28.05,0,0,0,14.21,128a29.11,29.11,0,0,0,7.58,5.11,30.38,30.38,0,0,0,5.49,1.9,29.54,29.54,0,0,0,35.9-34.54Z" class="cls-5"></path><g class="cls-6"><path d="M26.22,89.08c3.83,1.32,2.14,3.86.49,5.66a36.5,36.5,0,0,1-5,5C20,101.5,17,102.23,16.45,97.53S22.29,87.56,26.22,89.08Z" class="cls-7"></path></g><path d="M74.32,122.53A32.1,32.1,0,0,1,61,119.6a30.74,30.74,0,0,1-8.11-5.46,30.29,30.29,0,0,1-4.25-4.79,31.55,31.55,0,0,1-5.59-22.87c.14-1,.33-2,.56-2.91A31.54,31.54,0,0,1,89.19,63.19a29.47,29.47,0,0,1,3.45,2.16A24,24,0,0,1,94.77,67a32.82,32.82,0,0,1,3.91,4l.06.07a31.55,31.55,0,0,1,6.47,13.67,31.11,31.11,0,0,1-.27,13.64A31.44,31.44,0,0,1,74.32,122.53Z" class="cls-3"></path><path d="M74.26,61.44a29.82,29.82,0,0,1,7,.83,29.09,29.09,0,0,1,7,2.68,28.2,28.2,0,0,1,3.23,2,23.19,23.19,0,0,1,2,1.55,31.62,31.62,0,0,1,3.66,3.75v0a29.54,29.54,0,0,1-22.82,48.24,30,30,0,0,1-12.46-2.74,29.16,29.16,0,0,1-7.59-5.11,28.75,28.75,0,0,1-4-4.49,29.48,29.48,0,0,1-5.24-21.43c.13-.91.31-1.82.53-2.72a29.54,29.54,0,0,1,28.68-22.6m0-4h0A33.43,33.43,0,0,0,41.69,83.1c-.25,1-.45,2.06-.6,3.07A33.63,33.63,0,0,0,47,110.52a31.88,31.88,0,0,0,4.54,5.11,33.09,33.09,0,0,0,8.59,5.79,34,34,0,0,0,6.23,2.16,33.49,33.49,0,0,0,40.48-24.71,33.12,33.12,0,0,0,.29-14.52,33.48,33.48,0,0,0-6.85-14.49.63.63,0,0,0-.1-.12,35.11,35.11,0,0,0-4.13-4.24,25.91,25.91,0,0,0-2.32-1.8,31.47,31.47,0,0,0-3.67-2.29,32.92,32.92,0,0,0-7.93-3,33.62,33.62,0,0,0-7.91-1Z" class="cls-2"></path><path d="M45.71,97.43a31.51,31.51,0,0,1,.08-8.34c.14-1,.33-1.93.56-2.89A31.35,31.35,0,0,1,83.57,63q-1.14-.39-2.34-.69A29.54,29.54,0,0,0,45.58,84c-.22.9-.4,1.81-.53,2.72A29.52,29.52,0,0,0,45,94.61a28.6,28.6,0,0,0,1.15,5.24C46,99.05,45.81,98.25,45.71,97.43Z" class="cls-4"></path><path d="M103.25,85.15a29.39,29.39,0,0,0-6.11-12.86v0a31.62,31.62,0,0,0-3.66-3.75,22.94,22.94,0,0,0-2-1.54,29.52,29.52,0,0,1-30,47.09A29.81,29.81,0,0,1,56,112.16a28.57,28.57,0,0,1-4.84-2.87,30.1,30.1,0,0,0,10.74,8.5,30.55,30.55,0,0,0,5.48,1.9,29.56,29.56,0,0,0,35.91-34.54Z" class="cls-5"></path><g class="cls-6"><path d="M66.29,73.75c3.83,1.32,2.13,3.86.49,5.66a36,36,0,0,1-5,5c-1.72,1.76-4.66,2.5-5.24-2.21S62.36,72.23,66.29,73.75Z" class="cls-7"></path></g><path d="M124.82,120.21a32.16,32.16,0,0,1-13.28-2.87,31.16,31.16,0,0,1-8.11-5.39,29.74,29.74,0,0,1-4.25-4.72,30.89,30.89,0,0,1-5.61-22.58q.23-1.45.57-2.88A31.37,31.37,0,0,1,124.77,58a32.18,32.18,0,0,1,7.43.88,31.85,31.85,0,0,1,7.49,2.82,28.59,28.59,0,0,1,3.45,2.13,23,23,0,0,1,2.13,1.63,33,33,0,0,1,3.9,3.94l.07.09a30.71,30.71,0,0,1,6.2,27A31.34,31.34,0,0,1,124.82,120.21Z" class="cls-3"></path><path d="M124.77,60a29.89,29.89,0,0,1,7,.83,28.9,28.9,0,0,1,7,2.64,28,28,0,0,1,3.23,2A23,23,0,0,1,144,67a31.11,31.11,0,0,1,3.66,3.69v0a28.72,28.72,0,0,1,5.85,25.27,29.45,29.45,0,0,1-28.68,22.28,29.87,29.87,0,0,1-7-.82,30.48,30.48,0,0,1-5.48-1.87,29,29,0,0,1-7.59-5,28.33,28.33,0,0,1-4-4.43,28.72,28.72,0,0,1-5.32-13.38,29.1,29.1,0,0,1,.07-7.74c.14-.9.32-1.8.54-2.69A29.47,29.47,0,0,1,124.77,60m0-4h0A33.36,33.36,0,0,0,92.2,81.29c-.25,1-.45,2-.6,3a33.16,33.16,0,0,0-.09,8.84,32.78,32.78,0,0,0,6,15.23,32,32,0,0,0,4.54,5,33.1,33.1,0,0,0,8.6,5.7,34.21,34.21,0,0,0,14.12,3.06,33.35,33.35,0,0,0,32.57-25.32A32.71,32.71,0,0,0,150.8,68.2l-.09-.11a34.65,34.65,0,0,0-4.13-4.18,26.9,26.9,0,0,0-2.32-1.78,31,31,0,0,0-3.67-2.25,32.83,32.83,0,0,0-7.93-3,33.91,33.91,0,0,0-7.89-.94Z" class="cls-2"></path><path d="M96.22,95.44a30.54,30.54,0,0,1,.08-8.21c.14-1,.33-1.91.56-2.85a31.37,31.37,0,0,1,37.22-22.92c-.77-.25-1.54-.48-2.34-.67A29.56,29.56,0,0,0,96.09,82.24c-.22.89-.4,1.79-.54,2.69a29.1,29.1,0,0,0-.07,7.74,28.77,28.77,0,0,0,1.14,5.16C96.46,97,96.32,96.25,96.22,95.44Z" class="cls-4"></path><path d="M153.75,83.33a28.67,28.67,0,0,0-6.1-12.67v0A31.11,31.11,0,0,0,144,67a24.45,24.45,0,0,0-2-1.53,28.85,28.85,0,0,1,5.86,12.37,28.43,28.43,0,0,1-.25,12.6A29.56,29.56,0,0,1,112,111.85a30.5,30.5,0,0,1-5.48-1.88,28.66,28.66,0,0,1-4.84-2.83,30.07,30.07,0,0,0,10.74,8.38,30.48,30.48,0,0,0,5.48,1.87A29.55,29.55,0,0,0,153.5,95.93,28.43,28.43,0,0,0,153.75,83.33Z" class="cls-5"></path><g class="cls-6"><path d="M116.79,72.1c3.84,1.3,2.14,3.81.5,5.58a36.69,36.69,0,0,1-5,4.93c-1.72,1.73-4.66,2.46-5.24-2.18S112.86,70.6,116.79,72.1Z" class="cls-7"></path></g></g></g></svg>