<svg viewBox="0 0 241.83 211.93" xmlns:xlink="http://www.w3.org/1999/xlink" xmlns="http://www.w3.org/2000/svg"><defs><style>.cls-1{fill:none;}.cls-2{fill:#acd2b0;}.cls-3{fill:#060001;}.cls-4{clip-path:url(#clip-path);}.cls-5{fill:#7abd9a;}.cls-6{opacity:0.8;}.cls-7{fill:#c1dfc3;}.cls-8{fill:#6cb28c;}.cls-9{fill:#7dbe9b;}.cls-10{fill:#fff;}.cls-11{fill:#e095b8;}.cls-12{fill:#eeb3c1;}.cls-13{fill:#040000;}</style><clipPath transform="translate(19.23)" id="clip-path"><ellipse ry="97.77" rx="95.19" cy="101.77" cx="99.19" class="cls-1"></ellipse></clipPath></defs><title>资源 7</title><g id="图层_2"><g id="图层_1-2"><ellipse ry="99.78" rx="97.19" cy="101.77" cx="118.42" class="cls-2"></ellipse><path transform="translate(19.23)" d="M99.19,4c52.57,0,95.19,43.77,95.19,97.77s-42.62,97.78-95.19,97.78S4,155.77,4,101.77,46.62,4,99.19,4m0-4C44.5,0,0,45.66,0,101.77S44.5,203.55,99.19,203.55s99.19-45.66,99.19-101.78S153.88,0,99.19,0Z" class="cls-3"></path><g class="cls-4"><path transform="translate(19.23)" d="M133.86,38.29a81.25,81.25,0,0,1-20.25-2.37A10.08,10.08,0,0,1,110,34.05c-6.28-5.1-16.46-3.69-28.25-2-8.65,1.2-17.6,2.45-26.68,1.34C28.28,30.07,23.45,12.93,23,11L42.45,6.36a3.23,3.23,0,0,0-.14-.49c.09.25,2.36,6.05,15.17,7.61,6.49.8,13.79-.22,21.51-1.29,13.61-1.89,28.94-4,41.6,4.82,6,1.2,27.3,4.29,45.69-7.87a10,10,0,0,1,11,16.68C162.2,35.81,146.1,38.29,133.86,38.29Z" class="cls-5"></path><path transform="translate(19.23)" d="M47.88,76.94c-.73,0-1.49,0-2.28,0C19.34,76-1.44,45.32-3.73,41.82A10,10,0,0,1,13,30.87c4.35,6.62,19.79,25.57,33.29,26,7,.25,7.93-.61,10.23-2.68,4.89-4.4,10.43-8.41,24.37-9.17s20.82,2.59,26.39,5.28c4.76,2.3,8.2,4,18,3,7.39-.71,11.32-3.23,16.31-6.43,10.92-7,21.12-11.93,44.29-6.67a10,10,0,1,1-4.42,19.5c-16.86-3.82-21.72-.7-29.08,4-5.79,3.71-13,8.32-25.19,9.5-15.42,1.48-22.76-2.07-28.66-4.92C94,66.15,90.73,64.56,82,65c-8,.44-9.66,1.88-12.09,4.07C65.3,73.24,60.12,76.94,47.88,76.94Z" class="cls-5"></path><path transform="translate(19.23)" d="M23.27,119.59c-39.36,0-42.3-18-42.49-21.61A10,10,0,0,1-9.75,87.47,10,10,0,0,1,.47,95c1,.93,6.13,4.71,23.47,4.56,10.65-.06,20.62-3.73,31.18-7.61,18.51-6.82,39.5-14.54,64.68-.78A10,10,0,0,1,121,92c23.41,17.69,65.69-10.75,80-23.2a10,10,0,0,1,13.15,15.08c-2.59,2.25-63.45,54.6-104.57,24.56-16.93-9-30.48-4-47.59,2.31-11.71,4.3-23.81,8.76-38,8.84ZM.76,96.92v0Zm0,0h0Z" class="cls-5"></path><path transform="translate(19.23)" d="M207.6,165.34a10,10,0,0,1-9.92-8.79c-1.12-9.23-4.17-15.4-9.31-18.85-12.29-8.24-36-1.76-51.66,2.54a120.24,120.24,0,0,1-14.6,3.44c-10.22,1.34-20.8-.14-31-1.58-9.26-1.3-18-2.52-24.69-1.36C54.13,142.88,25.15,155.68,15,160.43a10,10,0,1,1-8.5-18.1C10.5,140.46,45.85,124,63,121c9.78-1.7,20.52-.2,30.9,1.26,8.91,1.25,18.13,2.54,25.66,1.55a118.59,118.59,0,0,0,11.92-2.9c19.19-5.26,48.19-13.2,68.08.14,10.11,6.79,16.18,17.9,18,33a10,10,0,0,1-8.72,11.14A10.13,10.13,0,0,1,207.6,165.34Z" class="cls-5"></path><path transform="translate(19.23)" d="M139.21,206.16a10,10,0,0,1-7.69-3.59c-15.48-18.58-30.71-27.67-45.3-27-20.14.9-33.83,20.33-34,20.53a10,10,0,0,1-16.5-11.3c.77-1.13,19.24-27.74,49.37-29.2,21.22-1,42,10.47,61.76,34.18a10,10,0,0,1-7.67,16.4Z" class="cls-5"></path></g><g class="cls-6"><path transform="translate(19.23)" d="M104.91,10.44A105,105,0,0,1,157,24.13,93.14,93.14,0,0,0,99.19,4C50.91,4,11,40.94,4.86,88.8,14.26,44.1,55.48,10.44,104.91,10.44Z" class="cls-7"></path></g><g class="cls-6"><path transform="translate(19.23)" d="M99.19,175.08c-50.68,0-92.09-27.8-95-79.1C4.07,97.9,4,99.83,4,101.77c0,54,42.62,97.78,95.19,97.78s95.19-43.78,95.19-97.78c0-1.94-.07-3.87-.18-5.79C191.28,147.28,149.87,175.08,99.19,175.08Z" class="cls-8"></path></g><path transform="translate(19.23)" d="M163.82,209.93a69.77,69.77,0,0,1-56.38-28.25,2,2,0,0,1,0-2.4L162.22,106a2,2,0,0,1,3.2,0l54.78,73.3a2,2,0,0,1,0,2.4A69.78,69.78,0,0,1,163.82,209.93Z" class="cls-9"></path><path transform="translate(19.23)" d="M163.82,107.18l48,64.19,1,1.34,5.8,7.77a68.39,68.39,0,0,1-109.56,0l5.8-7.77,1-1.34,48-64.19m0-4a4,4,0,0,0-3.2,1.6l-48,64.2-1,1.34-5.8,7.77a4,4,0,0,0,0,4.78,72.39,72.39,0,0,0,116,0,4,4,0,0,0,0-4.79L216,170.32,215,169l-48-64.2a4,4,0,0,0-3.21-1.6Z" class="cls-3"></path><path transform="translate(19.23)" d="M212.8,172.71a68.44,68.44,0,0,1-98,0l49-65.53Z" class="cls-10"></path><path transform="translate(19.23)" d="M211.8,171.37a68.44,68.44,0,0,1-96,0L156,117.71l7.87-10.53,7.87,10.53Z" class="cls-11"></path><path transform="translate(19.23)" d="M171.69,117.71a69,69,0,0,1-15.74,0l7.87-10.53Z" class="cls-12"></path><path transform="translate(19.23)" d="M201,182.48a2,2,0,0,1-1.6-.8l-54.78-73.31a2,2,0,0,1,1.6-3.19h17.63a2,2,0,0,1,1.6.8l54.79,73.3a2,2,0,0,1-1.61,3.2Z" class="cls-9"></path><path transform="translate(19.23)" d="M163.82,107.18l54.78,73.3H201l-5.67-7.59-49.11-65.71h17.63m0-4H146.19a4,4,0,0,0-3.21,6.39l49.12,65.72,5.66,7.58a4,4,0,0,0,3.21,1.61H218.6a4,4,0,0,0,3.21-6.39L167,104.78a4,4,0,0,0-3.21-1.6Z" class="cls-13"></path><polygon points="232.03 172.71 214.4 172.71 165.42 107.18 183.05 107.18 230.91 171.22 232.03 172.71" class="cls-10"></polygon><polygon points="231.03 171.37 213.51 171.37 165.42 107.18 183.05 107.18 231.03 171.37" class="cls-11"></polygon><polygon points="190.93 117.73 173.41 117.73 165.5 107.18 183.04 107.18 190.93 117.73" class="cls-12"></polygon><path transform="translate(19.23)" d="M146.19,209.93a69.77,69.77,0,0,1-56.38-28.25,2,2,0,0,1,0-2.4L144.59,106a2,2,0,0,1,3.2,0l54.78,73.3a2,2,0,0,1,0,2.4A69.79,69.79,0,0,1,146.19,209.93Z" class="cls-9"></path><path transform="translate(19.23)" d="M146.19,107.18l48,64.19,1,1.34,5.81,7.77a68.39,68.39,0,0,1-109.56,0l5.8-7.77,1-1.34,48-64.19m0-4a4,4,0,0,0-3.21,1.6L95,169l-1,1.34-5.81,7.77a4,4,0,0,0,0,4.78,72.39,72.39,0,0,0,116,0,4,4,0,0,0,0-4.79l-5.8-7.77-1-1.34-48-64.2a4,4,0,0,0-3.2-1.6Z" class="cls-3"></path><path transform="translate(19.23)" d="M195.16,172.71a68.42,68.42,0,0,1-97.95,0l49-65.53Z" class="cls-10"></path><path transform="translate(19.23)" d="M194.16,171.37a68.43,68.43,0,0,1-95.95,0l40.11-53.66,7.87-10.53,7.87,10.53Z" class="cls-11"></path><path transform="translate(19.23)" d="M154.06,117.71a69,69,0,0,1-15.74,0l7.87-10.53Z" class="cls-12"></path><path transform="translate(19.23)" d="M175.39,166.31c0,1.94-.66,3.57-1.38,3.64s-1.26-1.46-1.22-3.4.64-2.41,1.36-2.48S175.44,164.37,175.39,166.31Z" class="cls-3"></path><path transform="translate(19.23)" d="M119.58,171.48c0,1.94-.66,3.57-1.38,3.63s-1.26-1.45-1.22-3.39.64-2.41,1.36-2.48S119.63,169.54,119.58,171.48Z" class="cls-3"></path><path transform="translate(19.23)" d="M136,147c0,1.95-.66,3.57-1.38,3.64s-1.26-1.45-1.22-3.4.64-2.41,1.35-2.47S136,145.06,136,147Z" class="cls-3"></path><path transform="translate(19.23)" d="M147.49,169.25c-.05,1.95-.66,3.57-1.38,3.64s-1.27-1.45-1.22-3.4.63-2.41,1.35-2.47S147.53,167.31,147.49,169.25Z" class="cls-3"></path><path transform="translate(19.23)" d="M160.07,144.77c0,1.94-.66,3.57-1.38,3.64s-1.26-1.46-1.22-3.4.64-2.41,1.36-2.48S160.12,142.83,160.07,144.77Z" class="cls-3"></path></g></g></svg>