<svg xml:space="preserve" style="enable-background:new 0 0 1024 1024;" viewBox="0 0 1024 1024" y="0px" x="0px" xmlns:xlink="http://www.w3.org/1999/xlink" xmlns="http://www.w3.org/2000/svg" id="图层_1" version="1.1">
<style type="text/css">
	.st0{fill:#D6791A;}
	.st1{fill:#EDA12A;}
	.st2{fill:#FFE03D;}
	.st3{fill:#D49700;}
	.st4{fill:#FEFFF9;}
	.st5{fill:#F4CC3E;}
	.st6{fill:#FFDFD3;}
	.st7{fill:#FE5631;}
	.st8{fill:#BB8900;}
	.st9{fill:#FFFFFF;}
	.st10{fill:#B36B00;}
	.st11{fill:#C98A00;}
	.st12{fill:#EBC08B;}
	.st13{fill:#955E20;}
	.st14{fill:#542200;}
	.st15{fill:#824900;}
	.st16{fill-rule:evenodd;clip-rule:evenodd;fill:#9AE100;}
	.st17{fill-rule:evenodd;clip-rule:evenodd;fill:#9820AB;}
	.st18{fill-rule:evenodd;clip-rule:evenodd;fill:#FFFFFF;}
	.st19{fill-rule:evenodd;clip-rule:evenodd;fill:#3BD400;}
	.st20{fill-rule:evenodd;clip-rule:evenodd;fill:#EA1F00;}
	.st21{fill:#771000;}
	.st22{fill-rule:evenodd;clip-rule:evenodd;fill:#FFA421;}
	.st23{fill-rule:evenodd;clip-rule:evenodd;}
	.st24{fill:#E67907;}
	.st25{clip-path:url(#SVGID_2_);fill-rule:evenodd;clip-rule:evenodd;fill:#FF2734;}
	.st26{clip-path:url(#SVGID_2_);fill-rule:evenodd;clip-rule:evenodd;fill:#BFE583;}
	.st27{clip-path:url(#SVGID_2_);fill-rule:evenodd;clip-rule:evenodd;fill:#4D8300;}
	.st28{fill:#970000;}
	.st29{fill-rule:evenodd;clip-rule:evenodd;fill:#FF816A;}
	.st30{fill-rule:evenodd;clip-rule:evenodd;fill:#FFB85D;}
	.st31{clip-path:url(#SVGID_4_);}
	.st32{fill-rule:evenodd;clip-rule:evenodd;fill:#E39A00;}
	.st33{fill:#996B00;}
	.st34{fill-rule:evenodd;clip-rule:evenodd;fill:#D67E00;}
	.st35{fill-rule:evenodd;clip-rule:evenodd;fill:#D82200;}
	.st36{clip-path:url(#SVGID_4_);fill:#FF755F;}
	.st37{fill-rule:evenodd;clip-rule:evenodd;fill:#FFD755;}
	.st38{fill-rule:evenodd;clip-rule:evenodd;fill:#FFB110;}
	.st39{fill-rule:evenodd;clip-rule:evenodd;fill:#FFE7D6;}
	.st40{fill-rule:evenodd;clip-rule:evenodd;fill:#FFC37F;}
	.st41{fill-rule:evenodd;clip-rule:evenodd;fill:#FFEEC2;}
	.st42{fill-rule:evenodd;clip-rule:evenodd;fill:#F5FF6E;}
	.st43{clip-path:url(#SVGID_6_);fill-rule:evenodd;clip-rule:evenodd;fill:#B5E900;}
	.st44{clip-path:url(#SVGID_6_);fill-rule:evenodd;clip-rule:evenodd;fill:#8AC300;}
	.st45{clip-path:url(#SVGID_6_);}
	.st46{fill:#FFE46E;}
	.st47{fill:#FFBB1D;}
	.st48{clip-path:url(#SVGID_6_);fill:#FFFFFF;}
	.st49{clip-path:url(#SVGID_6_);fill-rule:evenodd;clip-rule:evenodd;fill:#FFFFFA;}
	.st50{fill-rule:evenodd;clip-rule:evenodd;fill:#8AC300;}
	.st51{clip-path:url(#SVGID_8_);}
	.st52{fill-rule:evenodd;clip-rule:evenodd;fill:#6500DD;}
	.st53{clip-path:url(#SVGID_8_);fill-rule:evenodd;clip-rule:evenodd;fill:#FFFFFF;}
	.st54{fill-rule:evenodd;clip-rule:evenodd;fill:#E5FBA5;}
	.st55{fill:#829500;}
	.st56{fill-rule:evenodd;clip-rule:evenodd;fill:#ECB4CD;}
	.st57{clip-path:url(#SVGID_10_);fill-rule:evenodd;clip-rule:evenodd;fill:#FFC7BF;}
	.st58{clip-path:url(#SVGID_10_);fill-rule:evenodd;clip-rule:evenodd;fill:#FF8C72;}
	.st59{fill-rule:evenodd;clip-rule:evenodd;fill:#FFEEC3;}
	.st60{fill-rule:evenodd;clip-rule:evenodd;fill:#FF9666;}
	.st61{fill-rule:evenodd;clip-rule:evenodd;fill:#FF663F;}
	.st62{display:none;opacity:0.5;}
	.st63{display:inline;fill-rule:evenodd;clip-rule:evenodd;fill:#777EFF;}
	.st64{fill:#D8F4FF;}
	.st65{clip-path:url(#SVGID_12_);fill:#81C2E2;}
	.st66{clip-path:url(#SVGID_12_);fill:#7BCEF0;}
	.st67{clip-path:url(#SVGID_12_);fill:#79CEEB;}
	.st68{clip-path:url(#SVGID_12_);fill:#C2E7F7;}
	.st69{clip-path:url(#SVGID_12_);fill:#FFFFFF;}
</style>
<g>
	<g>
		<defs>
			<path d="M60.1,336.8c211.3,13.8,659,24.8,902.1,23.3C950,500.6,843.4,805.9,428.9,765.7
				C18,725.8,59.7,380,60.1,336.8z" id="SVGID_1_"></path>
		</defs>
		<clipPath id="SVGID_2_">
			<use style="overflow:visible;" xlink:href="#SVGID_1_"></use>
		</clipPath>
		<path d="M60.1,336.8c211.3,13.8,659,24.8,902.1,23.3c-30,148-144.4,434.9-523.8,394.5
			C27.9,710.8,59.7,380,60.1,336.8z" class="st25"></path>
		<path d="M139,330.7c0,0-25.1,355.9,342.5,356.6c367.6,0.7,405.4-339.4,405.4-339.4l93.2,6.4
			c0,0-36.2,456.8-503.1,425S48.1,326.7,48.1,326.7L139,330.7z" class="st26"></path>
		<path d="M86.2,324.8c0,0-51.3,393.2,395.6,406.9C908.3,744.8,939.9,350,939.9,350l40.1,4.3c0,0,3.4,443.3-503.1,425
			c-522-18.8-428.8-452.6-428.8-452.6L86.2,324.8z" class="st27"></path>
	</g>
	<path d="M537.5,608.9c0.1,1.5,0.2,3,0.4,4.5c0.1,1.9,0.6,3.7,1.7,5.3c0.7,1.7,1.8,3.1,3.3,4.3c1.4,1.3,3,2.1,4.8,2.5
		c1.7,0.7,3.6,1,5.5,0.8c1.2-0.3,2.5-0.5,3.7-0.8c2.3-0.9,4.3-2.2,5.9-4.1c0.7-1,1.3-2,2-3c1.1-2.3,1.5-4.7,1.3-7.2
		c-0.1-1.5-0.2-3-0.4-4.5c-0.1-1.9-0.6-3.7-1.7-5.3c-0.7-1.7-1.8-3.1-3.3-4.3c-1.4-1.3-3-2.1-4.8-2.5c-1.7-0.7-3.6-1-5.5-0.8
		c-1.2,0.3-2.5,0.5-3.7,0.8c-2.3,0.9-4.3,2.2-5.9,4.1c-0.7,1-1.3,2-2,3C537.8,603.9,537.3,606.3,537.5,608.9L537.5,608.9z" class="st28"></path>
	<path d="M616.4,544.9c0.9,2.3,1.9,4.5,2.8,6.8c0.9,1.6,2.1,3,3.6,4c1.3,1.3,2.9,2.1,4.8,2.6c1.9,0.6,3.7,0.7,5.6,0.3
		c1.9-0.1,3.6-0.6,5.2-1.6c1-0.7,1.9-1.5,2.9-2.2c1.8-1.7,3-3.8,3.7-6.2c0.2-1.2,0.4-2.5,0.5-3.7c0-2.5-0.6-4.9-1.9-7.1
		c-0.9-2.3-1.9-4.5-2.8-6.8c-0.9-1.6-2.1-3-3.6-4c-1.3-1.3-2.9-2.1-4.8-2.6c-1.9-0.6-3.7-0.7-5.6-0.3c-1.9,0.1-3.6,0.6-5.2,1.6
		c-1,0.7-1.9,1.5-2.9,2.2c-1.8,1.7-3,3.8-3.7,6.2c-0.2,1.2-0.4,2.5-0.5,3.7C614.5,540.3,615.1,542.7,616.4,544.9L616.4,544.9z" class="st28"></path>
	<path d="M232.2,436.8c-1.8,1.5-3.5,3-5.3,4.4c-1.4,1.3-2.4,2.8-2.9,4.5c-0.9,1.7-1.3,3.5-1.3,5.4
		c-0.1,1.9,0.3,3.7,1.2,5.4c0.6,1.7,1.5,3.3,2.9,4.6c0.9,0.7,1.9,1.5,2.8,2.2c2.2,1.3,4.5,2,7.1,2c1.2-0.2,2.5-0.3,3.7-0.5
		c2.4-0.6,4.5-1.8,6.2-3.6c1.8-1.5,3.5-3,5.3-4.4c1.4-1.3,2.4-2.8,2.9-4.5c0.9-1.7,1.3-3.5,1.3-5.4c0.1-1.9-0.3-3.7-1.2-5.4
		c-0.6-1.7-1.5-3.3-2.9-4.6c-0.9-0.7-1.9-1.5-2.8-2.2c-2.2-1.3-4.5-1.9-7.1-2c-1.2,0.2-2.5,0.3-3.7,0.5
		C236.1,433.9,234,435.1,232.2,436.8L232.2,436.8z" class="st28"></path>
	<path d="M298,559.3c-4.1,5.4-7.6,11.1-10.7,17.1c-1,1.6-1.6,3.3-1.7,5.2c-0.4,1.9-0.4,3.7,0.2,5.6
		c0.4,1.8,1.2,3.4,2.5,4.8c1,1.5,2.3,2.8,3.9,3.7c3.3,1.8,7.2,2.6,10.8,1.5c3.4-1.1,6.8-3.2,8.5-6.4c3.1-6,6.7-11.7,10.7-17.1
		c1-1.6,1.6-3.3,1.7-5.2c0.4-1.9,0.4-3.7-0.2-5.6c-0.4-1.8-1.2-3.4-2.5-4.8c-1-1.5-2.3-2.8-3.9-3.7c-3.3-1.8-7.2-2.6-10.8-1.5
		c-1.1,0.5-2.2,0.9-3.4,1.4C301,555.5,299.3,557.2,298,559.3L298,559.3z" class="st28"></path>
	<path d="M691.1,557.9c3.5,3.3,6.9,6.6,10.4,10c1.3,1.4,2.8,2.4,4.6,3c1.7,0.9,3.5,1.3,5.5,1.2
		c1.9,0.1,3.6-0.3,5.3-1.2c1.7-0.6,3.3-1.5,4.5-2.9c0.8-1,1.5-1.9,2.3-2.9c1.3-2.2,2-4.6,2-7.2c-0.2-1.2-0.3-2.4-0.5-3.6
		c-0.6-2.4-1.8-4.4-3.5-6.2c-3.5-3.3-6.9-6.6-10.4-10c-1.3-1.4-2.8-2.4-4.6-3c-1.7-0.9-3.5-1.3-5.5-1.2c-1.9-0.1-3.6,0.3-5.3,1.2
		c-1.7,0.6-3.3,1.5-4.5,2.9c-0.8,1-1.5,1.9-2.3,2.9c-1.3,2.2-2,4.6-2,7.2c0.2,1.2,0.3,2.4,0.5,3.6
		C688.2,554.1,689.4,556.1,691.1,557.9L691.1,557.9z" class="st28"></path>
	<path d="M441.5,618.4c-0.6,3-1.2,6-1.7,8.9c-0.6,1.9-0.7,3.7-0.3,5.6c0.1,1.9,0.6,3.6,1.6,5.2c0.9,1.6,2.1,3,3.6,4
		c1.3,1.3,2.9,2.1,4.8,2.6c1.2,0.2,2.5,0.4,3.7,0.5c2.5,0,4.9-0.6,7.1-1.9c1-0.7,1.9-1.5,2.9-2.2c1.8-1.7,3-3.8,3.7-6.2
		c0.6-3,1.2-6,1.7-8.9c0.6-1.9,0.7-3.7,0.3-5.6c-0.1-1.9-0.6-3.6-1.6-5.2c-0.9-1.6-2.1-3-3.6-4c-1.3-1.3-2.9-2.1-4.8-2.6
		c-1.2-0.2-2.5-0.4-3.7-0.5c-2.5,0-4.9,0.6-7.1,1.9c-1,0.7-1.9,1.5-2.9,2.2C443.4,614,442.2,616,441.5,618.4L441.5,618.4z" class="st28"></path>
	<path d="M316.5,482.4c-0.5,0.5-1,1-1.5,1.5c-1.4,1.3-2.4,2.8-2.9,4.5c-0.9,1.7-1.3,3.5-1.3,5.4
		c-0.1,1.9,0.3,3.7,1.2,5.4c0.6,1.7,1.5,3.3,2.9,4.6c0.9,0.7,1.9,1.5,2.8,2.2c2.2,1.3,4.5,1.9,7.1,2c1.2-0.2,2.5-0.3,3.7-0.5
		c2.4-0.6,4.5-1.8,6.2-3.6c0.5-0.5,1-1,1.5-1.5c1.4-1.3,2.4-2.8,2.9-4.5c0.9-1.7,1.3-3.5,1.3-5.4c0.1-1.9-0.3-3.7-1.2-5.4
		c-0.6-1.7-1.5-3.3-2.9-4.6c-0.9-0.7-1.9-1.5-2.8-2.2c-2.2-1.3-4.5-1.9-7.1-2c-1.2,0.2-2.5,0.3-3.7,0.5
		C320.4,479.5,318.3,480.7,316.5,482.4L316.5,482.4z" class="st28"></path>
	<path d="M391.2,520.4c-1.2,2.3-2.5,4.5-3.7,6.8c-1,1.6-1.6,3.3-1.7,5.2c-0.4,1.9-0.4,3.7,0.2,5.6
		c0.4,1.8,1.2,3.4,2.5,4.8c1,1.5,2.3,2.8,3.9,3.7c1.1,0.5,2.2,1,3.4,1.4c2.5,0.7,5,0.7,7.5,0.1c1.1-0.5,2.2-0.9,3.4-1.4
		c2.1-1.2,3.8-2.9,5.1-5c1.2-2.3,2.5-4.5,3.7-6.8c1-1.6,1.6-3.3,1.7-5.2c0.4-1.9,0.4-3.7-0.2-5.6c-0.4-1.8-1.2-3.4-2.5-4.8
		c-1-1.5-2.3-2.8-3.9-3.7c-1.1-0.5-2.2-1-3.4-1.4c-2.5-0.7-5-0.7-7.5-0.1c-1.1,0.5-2.2,0.9-3.4,1.4
		C394.2,516.6,392.5,518.3,391.2,520.4L391.2,520.4z" class="st28"></path>
	<path d="M533.1,527.4c-0.2,1.5-0.5,2.9-0.6,4.4c0,0.2,0,0.4,0,0.6c0,1.1,0.2,2.2,0.3,3.3c0.1,1.1,0.2,2.2,0.5,3.2
		c0.4,1.6,1.2,3.1,1.8,4.6c0.9,1.6,2.1,3,3.6,4c1.3,1.3,2.9,2.1,4.8,2.6c1.9,0.6,3.7,0.7,5.6,0.3c1.9-0.1,3.6-0.6,5.2-1.6
		c1-0.7,1.9-1.5,2.9-2.2c1.8-1.7,3-3.8,3.7-6.2c0.2-1.2,0.4-2.5,0.5-3.7c0-2.5-0.6-4.9-1.9-7.1c0-0.1-0.1-0.2-0.1-0.3
		c0.5,1.1,0.9,2.2,1.4,3.4c-0.3-0.7-0.5-1.5-0.6-2.3c0.2,1.2,0.3,2.5,0.5,3.7c-0.1-0.8-0.1-1.7,0-2.5c-0.2,1.2-0.4,2.5-0.5,3.7
		c0-0.1,0-0.1,0-0.2c0.6-1.9,0.7-3.7,0.3-5.6c-0.1-1.9-0.6-3.6-1.6-5.2c-0.9-1.6-2.1-3-3.6-4c-1.3-1.3-2.9-2.1-4.8-2.6
		c-1.2-0.2-2.5-0.4-3.7-0.5c-2.5,0-4.9,0.6-7.1,1.9c-1,0.7-1.9,1.5-2.9,2.2C535,523,533.8,525,533.1,527.4L533.1,527.4z" class="st28"></path>
	<path d="M662.7,488.3c2,2.4,4.1,4.8,6.1,7.2c1.3,1.4,2.8,2.4,4.5,2.9c1.7,0.9,3.5,1.3,5.4,1.3
		c1.9,0.1,3.7-0.3,5.4-1.2c1.7-0.6,3.3-1.5,4.6-2.9c0.7-0.9,1.5-1.9,2.2-2.8c1.3-2.2,1.9-4.5,2-7.1c-0.2-1.2-0.3-2.5-0.5-3.7
		c-0.6-2.4-1.8-4.5-3.6-6.2c-2-2.4-4.1-4.8-6.1-7.2c-1.3-1.4-2.8-2.4-4.5-2.9c-1.7-0.9-3.5-1.3-5.4-1.3c-1.9-0.1-3.7,0.3-5.4,1.2
		c-1.7,0.6-3.3,1.5-4.6,2.9c-0.7,0.9-1.5,1.9-2.2,2.8c-1.3,2.2-2,4.5-2,7.1c0.2,1.2,0.3,2.5,0.5,3.7
		C659.8,484.5,661,486.6,662.7,488.3L662.7,488.3z" class="st28"></path>
	<path d="M747.1,446.7c2,1.2,4.1,2.4,6.1,3.6c1.6,1,3.3,1.6,5.2,1.7c1.9,0.4,3.7,0.4,5.6-0.2c1.8-0.4,3.4-1.2,4.8-2.5
		c1.5-1,2.8-2.3,3.7-3.9c0.5-1.1,1-2.2,1.4-3.4c0.7-2.5,0.7-5,0.1-7.5c-0.5-1.1-0.9-2.2-1.4-3.4c-1.2-2.1-2.9-3.8-5-5.1
		c-2-1.2-4.1-2.4-6.1-3.6c-1.6-1-3.3-1.6-5.2-1.7c-1.9-0.4-3.7-0.4-5.6,0.2c-1.8,0.4-3.4,1.2-4.8,2.5c-1.5,1-2.8,2.3-3.7,3.9
		c-0.5,1.1-1,2.2-1.4,3.4c-0.7,2.5-0.7,5-0.1,7.5c0.5,1.1,0.9,2.2,1.4,3.4C743.3,443.7,745,445.4,747.1,446.7L747.1,446.7z" class="st28"></path>
	<path d="M361.5,600.7c-0.7,2.9-1.5,5.9-2.2,8.8c-0.7,1.8-0.9,3.7-0.6,5.6c0,1.9,0.4,3.7,1.3,5.3
		c0.8,1.7,1.9,3.1,3.4,4.2c1.3,1.3,2.8,2.3,4.6,2.8c1.2,0.2,2.5,0.5,3.7,0.7c2.5,0.1,4.9-0.3,7.2-1.5c1-0.7,2-1.3,3-2
		c1.8-1.6,3.2-3.6,4-6c0.7-2.9,1.5-5.9,2.2-8.8c0.7-1.8,0.9-3.7,0.6-5.6c0-1.9-0.4-3.7-1.3-5.3c-0.8-1.7-1.9-3.1-3.4-4.2
		c-1.3-1.3-2.8-2.3-4.6-2.8c-1.2-0.2-2.5-0.5-3.7-0.7c-2.5-0.1-4.9,0.3-7.2,1.5c-1,0.7-2,1.3-3,2
		C363.7,596.4,362.3,598.4,361.5,600.7L361.5,600.7z" class="st28"></path>
	<path d="M445.6,557.7c-0.6,3-1.2,6-1.7,8.9c-0.6,1.9-0.7,3.7-0.3,5.6c0.1,1.9,0.6,3.6,1.6,5.2c0.9,1.6,2.1,3,3.6,4
		c1.3,1.3,2.9,2.1,4.8,2.6c1.2,0.2,2.5,0.4,3.7,0.5c2.5,0,4.9-0.6,7.1-1.9c1-0.7,1.9-1.5,2.9-2.2c1.8-1.7,3-3.8,3.7-6.2
		c0.6-3,1.2-6,1.7-8.9c0.6-1.9,0.7-3.7,0.3-5.6c-0.1-1.9-0.6-3.6-1.6-5.2c-0.9-1.6-2.1-3-3.6-4c-1.3-1.3-2.9-2.1-4.8-2.6
		c-1.2-0.2-2.5-0.4-3.7-0.5c-2.5,0-4.9,0.6-7.1,1.9c-1,0.7-1.9,1.5-2.9,2.2C447.5,553.3,446.3,555.4,445.6,557.7L445.6,557.7z" class="st28"></path>
	<path d="M254.2,506.2c-1.8,1.7-3.5,3.4-5.3,5.2c-1.2,1.4-2,3-2.4,4.8c-0.7,1.7-0.9,3.5-0.6,5.4c0.1,2,0.7,3.7,1.8,5.3
		c0.8,1.7,1.9,3.1,3.5,4.3c1,0.6,2.1,1.2,3.1,1.8c2.3,1,4.6,1.3,7.1,1.1c1.2-0.3,2.4-0.6,3.7-0.9c2.4-0.9,4.3-2.4,5.9-4.4
		c1.8-1.7,3.5-3.4,5.3-5.2c1.2-1.4,2-3,2.4-4.8c0.7-1.7,0.9-3.5,0.6-5.4c-0.1-2-0.7-3.7-1.8-5.3c-0.8-1.7-1.9-3.1-3.5-4.3
		c-1-0.6-2.1-1.2-3.1-1.8c-2.3-1-4.6-1.3-7.1-1.1c-1.2,0.3-2.4,0.6-3.7,0.9C257.7,502.7,255.7,504.2,254.2,506.2L254.2,506.2z" class="st28"></path>
	<path d="M745.1,516.8c1.5,2,3,3.9,4.4,5.9c1.3,1.4,2.7,2.4,4.5,3c1.6,0.9,3.4,1.3,5.3,1.3c2,0.1,3.8-0.3,5.5-1.1
		c1.8-0.5,3.4-1.5,4.7-2.9c0.7-0.9,1.5-1.9,2.2-2.8c1.3-2.1,1.9-4.4,2-6.9c-0.1-1.3-0.3-2.5-0.4-3.8c-0.6-2.5-1.8-4.6-3.6-6.4
		c-1.5-2-3-3.9-4.4-5.9c-1.3-1.4-2.7-2.4-4.5-3c-1.6-0.9-3.4-1.3-5.3-1.3c-2-0.1-3.8,0.3-5.5,1.1c-1.8,0.5-3.4,1.5-4.7,2.9
		c-0.7,0.9-1.5,1.9-2.2,2.8c-1.3,2.1-1.9,4.4-2,6.9c0.1,1.3,0.3,2.5,0.4,3.8C742.1,512.8,743.3,515,745.1,516.8L745.1,516.8z" class="st28"></path>
	<path d="M607.3,608.8c0.7,2.5,1.3,5,2,7.4c0.4,1.9,1.1,3.5,2.4,5c1,1.6,2.3,3,4,3.9c1.6,1,3.3,1.6,5.1,1.8
		c1.8,0.4,3.6,0.4,5.4-0.1c1.1-0.4,2.3-0.8,3.4-1.3c2.3-1.2,4.1-2.9,5.4-5.1c0.5-1.1,1-2.2,1.5-3.3c0.7-2.4,0.8-4.7,0.2-7.1
		c-0.7-2.5-1.3-5-2-7.4c-0.4-1.9-1.1-3.5-2.4-5c-1-1.6-2.3-3-4-3.9c-1.6-1-3.3-1.6-5.1-1.8c-1.8-0.4-3.6-0.4-5.4,0.1
		c-1.1,0.4-2.3,0.8-3.4,1.3c-2.3,1.2-4.1,2.9-5.4,5.1c-0.5,1.1-1,2.2-1.5,3.3C606.8,604.1,606.8,606.4,607.3,608.8L607.3,608.8z" class="st28"></path>
	<path d="M116.4,382c3.6,56.5,18.2,112.7,46.1,162.2c27.6,49.6,68.8,91.2,117.2,121.6c2.6,1.6,3.4,5,1.8,7.6
		c-1.6,2.6-5,3.3-7.5,1.8c-50.5-30-94.7-72.1-124.9-123.3c-30.5-51-47.4-109.5-52.6-168.5c-0.5-5.5,3.6-10.4,9.2-10.9
		c5.5-0.5,10.4,3.6,10.9,9.2C116.4,381.8,116.4,382,116.4,382z" class="st9"></path>
</g>
</svg>
