<svg viewBox="0 0 240 240" xmlns:xlink="http://www.w3.org/1999/xlink" xmlns="http://www.w3.org/2000/svg" id="图层_1"><defs><style>.cls-1,.cls-10,.cls-2,.cls-3,.cls-5,.cls-6,.cls-7,.cls-8,.cls-9{stroke:#000;stroke-width:2.23px;}.cls-1,.cls-10,.cls-2,.cls-3,.cls-5,.cls-6,.cls-7,.cls-9{stroke-miterlimit:10;}.cls-2{fill:#007560;}.cls-3{fill:#ffc400;}.cls-4{clip-path:url(#clip-path);}.cls-5{fill:#fff;}.cls-6{fill:none;}.cls-7,.cls-8,.cls-9{fill:#3757b9;}.cls-8,.cls-9{stroke-linecap:round;}.cls-8{stroke-linejoin:round;}.cls-10{fill:#2741c2;}.cls-11{clip-path:url(#clip-path-2);}</style><clipPath id="clip-path"><ellipse transform="translate(-35.76 23.83) rotate(-11.82)" ry="7.91" rx="32.33" cy="184.66" cx="97.26" class="cls-1"></ellipse></clipPath><clipPath id="clip-path-2"><ellipse transform="translate(-50.4 165.83) rotate(-46.77)" ry="11.1" rx="45.4" cy="141.19" cx="166.54" class="cls-1"></ellipse></clipPath></defs><title>长图总结</title><path d="M48.48,168.77l.83-3.76a1.57,1.57,0,0,0-2.25-1.73L44,164.84a2.86,2.86,0,0,1-4.09-3.23,13.9,13.9,0,0,1,3.18-5.7l23.42-26.15c1.49-1.67,3.8-2.07,5.22-1l4.12,3.12c1.42,1.08,1.65,3.42.45,5.3L57.39,166.77a13.08,13.08,0,0,1-5.44,5A2.58,2.58,0,0,1,48.48,168.77Z" class="cls-2"></path><path d="M132.78,148.08l-2.61-2.83a1.57,1.57,0,0,1,1.07-2.63l3.42-.18a2.87,2.87,0,0,0,1.91-4.86,13.92,13.92,0,0,0-5.61-3.33l-33.4-10.82c-2.12-.68-4.33.13-5,1.78l-2,4.77c-.68,1.64.3,3.78,2.28,4.8l31.23,16.05a13,13,0,0,0,7.2,1.57A2.58,2.58,0,0,0,132.78,148.08Z" class="cls-2"></path><path d="M77.41,137l-23.66.7c-5.74.16-10.54-3.33-9.79-7.79l2.76-16.36c.76-4.46,6.43-6.19,11.8-4.15l22.12,8.42a5.35,5.35,0,0,1,3.08,5.83l-1.49,8.85A5.36,5.36,0,0,1,77.41,137Z" class="cls-2"></path><line y2="124.68" x2="79.35" y1="121.48" x1="69.73" class="cls-2"></line><line y2="128.16" x2="78.89" y1="129.25" x1="68.82" class="cls-2"></line><path d="M91.28,134.39l23-5.76c5.57-1.39,9.24-6.06,7.31-10.14l-7.1-15c-1.94-4.09-7.87-4.2-12.48-.78L83,116.8a5.38,5.38,0,0,0-1.38,6.46l3.84,8.1A5.38,5.38,0,0,0,91.28,134.39Z" class="cls-2"></path><line y2="123.05" x2="86.06" y1="117.36" x1="94.44" class="cls-2"></line><line y2="126.27" x2="87.45" y1="124.59" x1="97.44" class="cls-2"></line><circle r="7.18" cy="126.62" cx="83.49" class="cls-2"></circle><path d="M59.35,182.74A32.24,32.24,0,0,0,66,164c0-.54,0-1.1,0-1.68,0-16.49-4.13-27.63,15.6-32.43s26.63-1.32,31.74,10.92,10,21.36,13.22,22.34,9.23,2.94,9.68,10-2,18.6-40.41,25.39-37.55-2.88-38.34-9.12A9.05,9.05,0,0,1,59.35,182.74Z" class="cls-3"></path><ellipse transform="translate(-35.76 23.83) rotate(-11.82)" ry="7.91" rx="32.33" cy="184.66" cx="97.26"></ellipse><g class="cls-4"><circle r="6.73" cy="179.07" cx="95.11" class="cls-5"></circle></g><ellipse transform="translate(-35.76 23.83) rotate(-11.82)" ry="7.91" rx="32.33" cy="184.66" cx="97.26" class="cls-6"></ellipse><path d="M97.63,162.14l-2.08-5a2.19,2.19,0,0,0-4-.18l-2.26,4.25a4,4,0,0,1-7.31-.43,19.46,19.46,0,0,1-.93-9.12L87,102.72c.38-3.11,2.72-5.44,5.22-5.34l7.25.29c2.5.1,4.65,2.61,4.78,5.73l2,49.26A18.4,18.4,0,0,1,104,162.77,3.62,3.62,0,0,1,97.63,162.14Z" class="cls-7"></path><path d="M178,70.52l-5.28-1.17a2.2,2.2,0,0,1-.88-3.88l3.79-3a4,4,0,0,0-1.71-7.12,19.49,19.49,0,0,0-9.13.68L117.64,70.47c-3,.92-4.88,3.63-4.34,6.08l1.55,7.08c.54,2.45,3.38,4.12,6.49,3.7l48.85-6.65a18.33,18.33,0,0,0,9.55-4A3.62,3.62,0,0,0,178,70.52Z" class="cls-7"></path><path d="M105.37,102.31,78.7,122.14c-6.47,4.82-14.8,4.66-17.52-1.08L51.19,100c-2.72-5.74,2.42-12.29,10.24-14.26l32.23-8.11c3.18-.8,6.77,1.14,8.24,4.24l5.4,11.38C108.77,96.35,108,100.36,105.37,102.31Z" class="cls-7"></path><line y2="86.56" x2="97.69" y1="90.61" x1="84.05" class="cls-8"></line><line y2="90.94" x2="99.96" y1="100.29" x1="89.24" class="cls-8"></line><path d="M119.22,88.13,141,63.05c5.29-6.09,5.76-14.41.25-17.56L121,33.94c-5.52-3.15-12.44,1.48-15,9.13L95.5,74.59c-1,3.11.62,6.84,3.6,8.54L110,89.37C113,91.07,117.07,90.61,119.22,88.13Z" class="cls-7"></path><line y2="79.28" x2="104.1" y1="65.99" x1="109.17" class="cls-9"></line><line y2="81.88" x2="108.29" y1="71.9" x1="118.43" class="cls-9"></line><circle r="10.08" cy="85.45" cx="104.01" class="cls-10"></circle><path d="M121.38,169.47A45.21,45.21,0,0,0,114,142.59c-.43-.63-.87-1.28-1.34-2-13.32-18.93-27-28.48-8.14-49.88s29.59-22.94,45.32-13S178.57,94.33,183,92.87s13-4,19.17,3.71,12.72,23-26.09,61.73-45.53,26.89-51.46,20.35A12.7,12.7,0,0,1,121.38,169.47Z" class="cls-3"></path><ellipse transform="translate(-50.4 165.83) rotate(-46.77)" ry="11.1" rx="45.4" cy="141.19" cx="166.54"></ellipse><g class="cls-11"><circle r="9.45" cy="136.48" cx="159.58" class="cls-5"></circle></g><ellipse transform="translate(-50.4 165.83) rotate(-46.77)" ry="11.1" rx="45.4" cy="141.19" cx="166.54" class="cls-6"></ellipse></svg>