<svg viewBox="0 0 500 500" xmlns="http://www.w3.org/2000/svg" id="规范"><defs><style>.cls-1{fill:#18907d;}.cls-1,.cls-3,.cls-4,.cls-5,.cls-6,.cls-9{stroke:#990014;}.cls-1,.cls-8{stroke-miterlimit:10;}.cls-1,.cls-4{stroke-width:1.96px;}.cls-2{fill:#990014;}.cls-3{fill:#fac210;}.cls-3,.cls-4,.cls-5,.cls-6,.cls-9{stroke-linecap:round;stroke-linejoin:round;}.cls-3,.cls-9{stroke-width:2.5px;}.cls-4{fill:#cfa221;}.cls-5,.cls-7{fill:#c30d23;}.cls-5,.cls-6{stroke-width:3.93px;}.cls-6{fill:#fff;}.cls-8{fill:#231815;stroke:#d0a721;stroke-width:2.67px;}.cls-9{fill:#f7b52c;}</style></defs><title>扫码符</title><path d="M391,197.38c2.31,3.71,3.19,11.77,6.12,15,1.12,1.24.44,7.28.89,8.88,1.5,5.3-2.07,4.67-3.05,10.09-.57,3.17.63,6.49-.13,9.62-1.54,6.38-8.51,4.44-9.59,10.92-.41,2.44.42,5,0,7.42-1.11,6.36-9.77,9.11-11.11,15.43,5.05,1.5,10.18-2.14,13.62-6.14,1.89-2.2,3.73-4.68,6.46-5.68s6.55.53,6.6,3.43c4.15-1.28,6.24-5.75,8.74-9.3s7.45-6.64,10.94-4.05c1.14.84,1.86,2.14,3,3,3.56,2.57,8.2-.67,12.21-2.44,7.56-3.34,13.87,10.24,4.41,19.67-5.78,5.75-7.81,10.95-8.78,19.05-1,8.27.25,18.61-6,24.15-23.11,20.6-58.56-1.5-63.16-6.27-8.78-9.08-10.89-22.52-12.57-35l-2.44-18.21c-1.52-11.3-2.89-23.5,2.58-33.51,4.12-7.55,11.39-12.47,18.4-17.07C375.39,201.54,386.14,189.58,391,197.38Z" class="cls-1"></path><path d="M389.37,196.19a20.08,20.08,0,0,1-5.17,8.25,26.19,26.19,0,0,1-8.12,5.74c-3,1.38-6.12,2.29-8.61,3.88a22.31,22.31,0,0,0-3.61,2.72,18.29,18.29,0,0,0-2.92,3.41,18.06,18.06,0,0,0-2.14,3.93,20.26,20.26,0,0,0-1.21,4.34,29.43,29.43,0,0,0,.14,9.21,48.94,48.94,0,0,1,.41,4.92,16.73,16.73,0,0,1-.75,5,18.9,18.9,0,0,1-2.07,4.52,10.72,10.72,0,0,1-1.56,1.93,4,4,0,0,1-2.14,1.18,3.91,3.91,0,0,0,1.81-1.47,11.43,11.43,0,0,0,1.18-2,19.24,19.24,0,0,0,1.37-4.47,14.94,14.94,0,0,0,.23-4.56c-.17-1.53-.45-3.09-.75-4.67a29.06,29.06,0,0,1-.62-10,20.89,20.89,0,0,1,1.28-5,21.36,21.36,0,0,1,2.4-4.56,23.31,23.31,0,0,1,7.54-6.85,27.36,27.36,0,0,1,4.62-2l4.54-1.58c.73-.27,1.46-.56,2.13-.88s1.36-.72,2-1.11a30.89,30.89,0,0,0,3.85-2.69A22.92,22.92,0,0,0,389.37,196.19Z" class="cls-2"></path><path d="M392.8,202a13.34,13.34,0,0,1-.42,4.61,21,21,0,0,1-1.63,4.4,27.68,27.68,0,0,1-5.57,7.62,22.08,22.08,0,0,1-3.79,3c-.66.46-1.43.79-2.13,1.18s-1.33.65-2,1a29.45,29.45,0,0,0-7.09,5,16.34,16.34,0,0,0-1.45,1.56,10.43,10.43,0,0,0-1.06,1.66l-.45.92-.35,1c-.27.65-.41,1.38-.63,2.08-.77,2.83-1.19,5.9-2,8.91a23.36,23.36,0,0,1-4,8.56,15.86,15.86,0,0,1-7.68,5.19,17.5,17.5,0,0,0,6.5-6,24.13,24.13,0,0,0,3-8.24c.56-2.94.91-5.95,1.57-9a22.44,22.44,0,0,1,.64-2.33l.4-1.16c.17-.39.36-.77.54-1.15a12.75,12.75,0,0,1,1.37-2.2,19.1,19.1,0,0,1,1.64-1.82A31.24,31.24,0,0,1,376,221.3c.71-.34,1.43-.67,2.15-1s1.31-.57,1.92-1a24.38,24.38,0,0,0,3.57-2.46,29.81,29.81,0,0,0,5.85-6.61,22.34,22.34,0,0,0,2.11-4A15.39,15.39,0,0,0,392.8,202Z" class="cls-2"></path><path d="M397.92,217.29a13.75,13.75,0,0,1,.07,4.25,13,13,0,0,1-1.41,4.13,25.54,25.54,0,0,1-5.55,6.62,47.52,47.52,0,0,1-6.87,5.12c-1.2.76-2.41,1.44-3.49,2.18a15.46,15.46,0,0,0-2.89,2.55,20.11,20.11,0,0,0-4.44,6.4c-1,2.4-1.68,5.21-2.72,7.84a14.78,14.78,0,0,1-.93,2.06,11.46,11.46,0,0,1-1.26,1.86,23,23,0,0,1-3.08,3.08,28.58,28.58,0,0,1-7.27,4.37,39.53,39.53,0,0,0,6.28-5.43,20.58,20.58,0,0,0,2.5-3.15,13,13,0,0,0,.94-1.7,10.77,10.77,0,0,0,.63-1.82l1.09-4c.36-1.35.72-2.73,1.23-4.14a17.5,17.5,0,0,1,2.1-4,31,31,0,0,1,2.79-3.4,19.94,19.94,0,0,1,1.61-1.55,19.12,19.12,0,0,1,1.82-1.36c1.24-.81,2.47-1.51,3.66-2.18a59.75,59.75,0,0,0,6.84-4.5,27.78,27.78,0,0,0,5.78-5.62,12.51,12.51,0,0,0,1.85-3.55A16.61,16.61,0,0,0,397.92,217.29Z" class="cls-2"></path><path d="M385.17,256.5a51.57,51.57,0,0,1-5.22,5.61A48.42,48.42,0,0,1,374,267a29,29,0,0,1-7,3.48,23.23,23.23,0,0,1-7.65,1.29c2.32-1.16,4.57-2.22,6.72-3.41s4.24-2.43,6.26-3.8C376.41,261.78,380.47,258.67,385.17,256.5Z" class="cls-2"></path><path d="M421.29,254.83a33.44,33.44,0,0,1-3.91,8.92c-.85,1.4-1.69,2.74-2.62,4.12a37.28,37.28,0,0,1-3.09,3.88,41.38,41.38,0,0,1-16.36,11.06,46.22,46.22,0,0,1-9.67,2.33,53.45,53.45,0,0,1-9.87.2,88.4,88.4,0,0,1-9.67-1.23,61.7,61.7,0,0,0-9.55-1.27c3.2-.62,6.51-.31,9.71-.17s6.41.38,9.58.38a52.43,52.43,0,0,0,18.46-3,21.18,21.18,0,0,0,2.16-.87c.71-.31,1.45-.58,2.13-.94a45,45,0,0,0,4.06-2.3,46.23,46.23,0,0,0,7.37-5.78,59.74,59.74,0,0,0,6.17-7.21A45.09,45.09,0,0,0,421.29,254.83Z" class="cls-2"></path><path d="M443.07,257.06a36.58,36.58,0,0,0-6.16,2.26,29,29,0,0,0-5.55,3.29,10.72,10.72,0,0,0-2.15,2.16c-.56.82-1.12,1.84-1.66,2.76-1.08,1.89-2.16,3.8-3.2,5.73l-1.56,2.9c-.54,1-1.14,2-1.77,2.91a34.14,34.14,0,0,1-2,2.74c-.37.44-.71.89-1.09,1.31l-1.17,1.24a46.09,46.09,0,0,1-10.8,8.19,47.52,47.52,0,0,1-12.69,4.75,42.56,42.56,0,0,1-13.5.67,44.1,44.1,0,0,1-6.64-1.14,53.15,53.15,0,0,1-6.36-2.09c-4.13-1.66-8-3.65-12.05-5.48,4.24,1.22,8.35,2.87,12.52,4.12a50.43,50.43,0,0,0,12.71,2.3,47,47,0,0,0,34.84-13.27l1.12-1.13c.37-.38.7-.8,1.06-1.19.72-.78,1.34-1.64,2-2.48s1.16-1.74,1.74-2.67l1.72-2.82c1.15-1.88,2.31-3.77,3.55-5.61.64-.93,1.2-1.81,1.95-2.75a11.78,11.78,0,0,1,2.65-2.32,28.18,28.18,0,0,1,6.09-2.87A30.63,30.63,0,0,1,443.07,257.06Z" class="cls-2"></path><path d="M416,322.41a65.38,65.38,0,0,1-16.29-.67c-2.71-.38-5.37-.95-8-1.53a63.46,63.46,0,0,1-7.92-2.33,81.64,81.64,0,0,1-7.55-3.29c-2.43-1.25-4.84-2.54-7.14-4a79.48,79.48,0,0,1-13-9.83c4.66,2.77,9.38,5.36,14.14,7.83,2.39,1.19,4.77,2.41,7.21,3.49s4.87,2.15,7.37,3a69.35,69.35,0,0,0,7.57,2.39c2.58.73,5.18,1.34,7.79,2A151.74,151.74,0,0,0,416,322.41Z" class="cls-2"></path><path d="M430.35,301.1a23.87,23.87,0,0,1-8.47,5.95,35.22,35.22,0,0,1-10.17,2.58c-3.38.37-6.79.76-10.3.9a37.85,37.85,0,0,1-5.31-.21c-1.76-.22-3.44-.48-5.15-.76-3.4-.62-6.78-1.35-10.12-2.24a100.49,100.49,0,0,1-9.87-3.2,87.75,87.75,0,0,1-9.44-4.24c-1.51-.81-3-1.59-4.51-2.56a12.78,12.78,0,0,1-3.74-3.58c2.42,2.49,5.69,3.56,8.85,4.83s6.37,2.36,9.6,3.38,6.49,1.92,9.79,2.67,6.6,1.48,9.94,2c1.66.29,3.36.58,5,.81a42.38,42.38,0,0,0,4.93.28c3.33,0,6.74-.3,10.17-.41C418.16,307.05,424.91,305.34,430.35,301.1Z" class="cls-2"></path><path d="M257.51,249c18.5,7.14,38.63,8.5,58.45,9.19,10.05.36,23.67-4.71,26.37-5.13,9.08-1.41,16.88,8.2,16.94,17.38S354,287.94,348.5,295.27c-14.46,19.1-32.6,35.05-51.77,49.44-19.44,14.58-45.72,23.27-59,24.55-27.33,2.65-55.86-1.11-80.57-13.1a101.46,101.46,0,0,1-49.1-52.31c-.91-2.24-1.75-4.75-.93-7,1-2.87,4.28-4.2,7.16-5.23,8.43-3,16.85-6.26,24.39-11.09,7.06-4.54,13.19-10.36,19.28-16.15l26-24.71,13.44-12.78c2.72-2.59,8.73-10.87,12.43-11.68C214.6,214.15,232.66,239.44,257.51,249Z" class="cls-3"></path><path d="M121,174.86c-1.13-3.35-.82-11.14,4.71-13.53a91,91,0,0,0,12-6.06c5.33-3.31,10.76-8.36,10.26-14.62-.29-3.7-2.73-7-5.74-9.15s-7.84-5.48-10.07-4.7c-2.05.43,1.89,4.19,6.14,8.26,1.42,1.37,5.37,6.27.57,10.57-4.07,3.66-10.74,6.29-15.63,8.74-6,3-10,7.31-11,13.14-.93,5.57.66,10.66,3.37,15.62,1.35,2.48,1.75,5.46,4.56,5.78C130.87,190.14,122.11,178.06,121,174.86Z" class="cls-4"></path><path d="M179.17,183.57a66.77,66.77,0,0,1,27.9,16.87A39.5,39.5,0,0,1,215,211.92c7.38,16.31-5.48,36.49-11.88,40.77-5.13,3.43-12.29,4.84-14.82,10.47-1.44,3.21-.87,6.92-1,10.44-.46,14.17-15.72,36.66-40.28,43.56-9.77,2.75-29.37,3.65-36.42-2.32C99,305,89.11,285.82,79.92,261c-1.38-3.74-4.48-26-4.19-30,.53-7.17,9.2-7.94,12.36-14.4,8.88-18.16,3-31.56,14.83-34.28C114.27,179.63,162,178.34,179.17,183.57Z" class="cls-5"></path><ellipse transform="translate(-2.03 1.4) rotate(-0.51)" ry="21.27" rx="23.37" cy="226.53" cx="154.62" class="cls-6"></ellipse><ellipse transform="translate(-101.38 324.86) rotate(-76.61)" ry="16.7" rx="17.18" cy="226.6" cx="154.95" class="cls-7"></ellipse><ellipse transform="translate(-101.38 324.86) rotate(-76.61)" ry="10.57" rx="10.87" cy="226.6" cx="154.95" class="cls-8"></ellipse><path d="M100.58,253c-5.64,5.71-14.6,11.5-21.23,16a73.07,73.07,0,0,0-11.91,10.67c-2.35,2.52-4.67,5.23-5.68,8.52-2,6.64,1.67,13.19,6.24,18.78a1.65,1.65,0,0,1-2,2.56c-7-3.15-11.42-11.87-10.85-19.87a26.38,26.38,0,0,1,5.47-14.28c5.82-7.47,15.11-11.21,22.66-16.93a53.07,53.07,0,0,0,11.61-12.36c2.66-3.87,6.91-12.47,9.19-12.37C114.17,234.18,106.86,246.63,100.58,253Z" class="cls-4"></path><path d="M81,187.35c-3.34,5.58,6.74,12.14-2.9,19.19-4.27,3.13-15.73,1.54-13,13.09,1.78,7.63,8.31,14.58,10.4,14.69a12.48,12.48,0,0,0,8.11-2.85c11.86-8.66,16-21.87,18-34.91.66-4.29,1.16-11.28-4.8-14.28C89.85,178.81,82.8,184.26,81,187.35Z" class="cls-9"></path><path d="M229.55,241.19a29.94,29.94,0,0,1,4.49,5.63,21.9,21.9,0,0,1,2.81,7,17.29,17.29,0,0,1-.26,8,14.68,14.68,0,0,1-1.71,3.88,14,14,0,0,1-2.9,3.26,14.87,14.87,0,0,1-3.73,2.15,16.23,16.23,0,0,1-4.06,1,17.39,17.39,0,0,1-7.9-1.08,22,22,0,0,1-6.45-3.85,16.78,16.78,0,0,1-4.49-5.72,29.24,29.24,0,0,0,6,3.26,28.81,28.81,0,0,0,6.18,1.85,16.25,16.25,0,0,0,5.86,0,11.11,11.11,0,0,0,4.88-2.18c2.64-2.06,4-5.95,4-10S230.83,245.79,229.55,241.19Z" class="cls-2"></path><path d="M202.18,265a34.39,34.39,0,0,1,10.31,11.45,38.42,38.42,0,0,1,1.77,3.51,31.52,31.52,0,0,1,1.43,3.76,15.73,15.73,0,0,1,.36,8.93,10.77,10.77,0,0,1-2.55,4.36,12.06,12.06,0,0,1-4,2.67,17.13,17.13,0,0,1-8.56,1,21.7,21.7,0,0,1-13.79-7.24,32.77,32.77,0,0,0,14,2.61,15.22,15.22,0,0,0,6.06-1.43,6.79,6.79,0,0,0,2.08-1.56,5.05,5.05,0,0,0,1.14-2.05c1-3.22-.59-8.14-2.11-12.58A94.68,94.68,0,0,0,202.18,265Z" class="cls-2"></path><path d="M183.72,299.32a23.1,23.1,0,0,1,8.34,7.69,15.62,15.62,0,0,1,2.17,5.84,13,13,0,0,1-.7,6.64,12.32,12.32,0,0,1-1.74,3,14.5,14.5,0,0,1-2.34,2.3,14.69,14.69,0,0,1-2.78,1.71,14.33,14.33,0,0,1-3,.95,13,13,0,0,1-11.15-2.89,19.3,19.3,0,0,0,9.82-1.55,16,16,0,0,0,1.91-1.08,13.52,13.52,0,0,0,1.6-1.37,9.15,9.15,0,0,0,2.25-3.24,12.7,12.7,0,0,0-.16-8.33C187,305.93,185.16,302.82,183.72,299.32Z" class="cls-2"></path><path d="M235.54,267.41a14.58,14.58,0,0,1,8.25,9,14.92,14.92,0,0,1,.64,6.7,15.63,15.63,0,0,1-2.44,6.41,14.69,14.69,0,0,1-5.1,4.71,13.76,13.76,0,0,1-1.61.74c-.28.1-.55.21-.83.3l-.79.21a15.37,15.37,0,0,1-3.29.5,13.13,13.13,0,0,1-6.39-1.37,16.76,16.76,0,0,1-2.61-1.61,19.34,19.34,0,0,1-2.29-1.95c2,.26,3.9.66,5.7.77a13.61,13.61,0,0,0,5-.42,15.43,15.43,0,0,0,4.26-1.95,12.07,12.07,0,0,0,3.09-3.2,13.26,13.26,0,0,0,1.85-4.15,13.91,13.91,0,0,0,.35-4.68A22.12,22.12,0,0,0,235.54,267.41Z" class="cls-2"></path><path d="M217.44,302.28a11.25,11.25,0,0,1,4.54,5.23,19.7,19.7,0,0,1,1.61,6.91,24.49,24.49,0,0,1,0,3.53,14.12,14.12,0,0,1-.82,3.83,15.27,15.27,0,0,1-4.54,6.36,17.54,17.54,0,0,1-1.57,1.15l-.82.51c-.3.16-.59.33-.9.48a14.73,14.73,0,0,1-3.81,1.18,16.72,16.72,0,0,1-7.48-.54,24.22,24.22,0,0,1-11.22-7.81c4.28,1.38,8.3,3,12.14,3.27A15.72,15.72,0,0,0,210,326a9.91,9.91,0,0,0,2.33-.91,11.75,11.75,0,0,0,2.12-1.45,12,12,0,0,0,3.16-4,11.71,11.71,0,0,0,.85-2.44c.21-1,.41-2,.55-2.95a25.9,25.9,0,0,0,.22-6,14.69,14.69,0,0,0-1.76-6Z" class="cls-2"></path><path d="M263,257a12.3,12.3,0,0,1,6.07,1.81,13.74,13.74,0,0,1,4.7,4.79,15.16,15.16,0,0,1,2.09,6.64,16.87,16.87,0,0,1-.9,6.94,13.37,13.37,0,0,1-1.85,3.31,11.34,11.34,0,0,1-2.89,2.59,13.35,13.35,0,0,1-6.91,1.9A14.53,14.53,0,0,1,252,279.32c3.91,1.27,7.68,1.76,10.92,1a13.46,13.46,0,0,0,2.27-.77,10.8,10.8,0,0,0,1.93-1.14,6.69,6.69,0,0,0,1.38-1.48,7.79,7.79,0,0,0,1-1.88,10.27,10.27,0,0,0,.59-2.23,20,20,0,0,0,.25-2.49,14.44,14.44,0,0,0-.69-4.81A17,17,0,0,0,263,257Z" class="cls-2"></path><path d="M253.84,290.08a10.5,10.5,0,0,1,5.61,4.09,14.56,14.56,0,0,1,1.73,3.2,16.52,16.52,0,0,1,1,3.51,17.53,17.53,0,0,1-.25,7.44,16.48,16.48,0,0,1-6.43,9.44,14.13,14.13,0,0,1-3.56,1.78,15.55,15.55,0,0,1-7.55.61A24.73,24.73,0,0,1,232.17,314c4.43.77,8.65,1.72,12.51,1.53a13.94,13.94,0,0,0,5.24-1.2,11.11,11.11,0,0,0,4-3.06,14.71,14.71,0,0,0,2.65-4.56,17.17,17.17,0,0,0,1-5.45C257.66,297.42,256.91,293.43,253.84,290.08Z" class="cls-2"></path><path d="M230.25,327.49a16.72,16.72,0,0,1,5.21,4.39,11.44,11.44,0,0,1,1.84,11,13.33,13.33,0,0,1-.74,1.78,17,17,0,0,1-.94,1.68,14.88,14.88,0,0,1-6,5,24.14,24.14,0,0,1-13.94,2.13,20.36,20.36,0,0,1-12.09-6A37.39,37.39,0,0,0,216,348.81,29.93,29.93,0,0,0,227.06,346a11.55,11.55,0,0,0,4-2.95,15.46,15.46,0,0,0,1.43-2.18,9.14,9.14,0,0,0,.85-2.32,10.11,10.11,0,0,0-.43-5.32A35.59,35.59,0,0,0,230.25,327.49Z" class="cls-2"></path><path d="M279.84,279.11a20.61,20.61,0,0,1,9.46,7.49,15.83,15.83,0,0,1,2.43,6.16,13,13,0,0,1-4.9,12.62,16.12,16.12,0,0,1-5.95,2.83,19,19,0,0,1-6.21.5,14.92,14.92,0,0,1-5.81-1.66,36.43,36.43,0,0,0,5.55-1.23,28.25,28.25,0,0,0,4.88-2c3-1.54,5.33-3.7,6.29-6.22a13,13,0,0,0-.37-8.9C284.08,285.57,282,282.49,279.84,279.11Z" class="cls-2"></path><path d="M261.36,320.79a18.29,18.29,0,0,1,6.44,9.91,15.66,15.66,0,0,1-2.25,12.63,14.61,14.61,0,0,1-2.36,2.55c-.46.35-.93.69-1.41,1a15.66,15.66,0,0,1-1.5.82,14.87,14.87,0,0,1-6.4,1.33,15.57,15.57,0,0,1-11-4.53,27.27,27.27,0,0,0,10.53-.08,11.87,11.87,0,0,0,7.3-4.51,14.94,14.94,0,0,0,2.47-8.6A40.05,40.05,0,0,0,261.36,320.79Z" class="cls-2"></path><path d="M295,264.57a7.16,7.16,0,0,1,4.49-.18,10.81,10.81,0,0,1,7.16,6.19,12.16,12.16,0,0,1,1,5,19.52,19.52,0,0,1-.32,2.45,14.11,14.11,0,0,1-.73,2.28,13.6,13.6,0,0,1-1.12,2.22,9.38,9.38,0,0,1-1.71,1.92,10.58,10.58,0,0,1-4.2,2.21,6,6,0,0,1-4.53-.42,8.09,8.09,0,0,0,3.18-2.15,13.73,13.73,0,0,0,2.09-2.72,9.13,9.13,0,0,0,.62-1.33l.37-1.5a16.93,16.93,0,0,0,.46-3.12,10.7,10.7,0,0,0-1.46-5.73,14.4,14.4,0,0,0-2.1-2.72A12.74,12.74,0,0,0,295,264.57Z" class="cls-2"></path><path d="M282.49,313.64a21.77,21.77,0,0,1,3,.53,15.11,15.11,0,0,1,2.91,1.1,12.58,12.58,0,0,1,5,4.28,11.64,11.64,0,0,1,2,6.81,13.84,13.84,0,0,1-1.95,6.78,10.72,10.72,0,0,1-1,1.46,12.09,12.09,0,0,1-1.15,1.35,15.63,15.63,0,0,1-2.7,2.18,16,16,0,0,1-6.31,2.27,14.27,14.27,0,0,1-6.47-.56,10.88,10.88,0,0,1-5.14-3.45,16.79,16.79,0,0,0,5.57.59,16.33,16.33,0,0,0,5-1.08,13.74,13.74,0,0,0,7.14-5.75,9.51,9.51,0,0,0,1-8.38,12.67,12.67,0,0,0-2.68-4.18c-.55-.73-1.3-1.29-2-2-.33-.35-.73-.61-1.1-.94S282.87,314,282.49,313.64Z" class="cls-2"></path><path d="M308.26,284.51a22.35,22.35,0,0,1,6.29,1.1,17.52,17.52,0,0,1,5.88,3.24,14.24,14.24,0,0,1,4,6,12.74,12.74,0,0,1,.31,7.64c-.2.65-.41,1.1-.61,1.65a11.33,11.33,0,0,1-.68,1.56,24.33,24.33,0,0,1-1.73,3,20.77,20.77,0,0,1-4.78,4.85,18.33,18.33,0,0,1-12.35,3.54,33.06,33.06,0,0,0,9.29-7,25.33,25.33,0,0,0,3.13-4.37c.19-.4.41-.79.62-1.18s.35-.81.54-1.22a10.36,10.36,0,0,0,.5-1.24c.14-.4.33-.88.43-1.22.75-2.45-.12-6.23-2-8.79C315,289.25,311.69,287,308.26,284.51Z" class="cls-2"></path><path d="M321.57,265.14a10.82,10.82,0,0,1,8.33,1.59,11.68,11.68,0,0,1,3.32,3.29,14,14,0,0,1,1.11,2.14,14.49,14.49,0,0,1,.65,2.34,13.44,13.44,0,0,1,.14,2.46,11,11,0,0,1-.43,2.47,9.43,9.43,0,0,1-2.64,4.24,8.59,8.59,0,0,1-4.22,2.11,6,6,0,0,1-4.32-.74,11.37,11.37,0,0,0,1.78-.84,9.57,9.57,0,0,0,1.37-1.07,8.8,8.8,0,0,0,1.85-2.44,10.75,10.75,0,0,0,.5-1.27c.09-.41.2-.84.25-1.27a9.69,9.69,0,0,0-.09-2.68,11.81,11.81,0,0,0-2.32-5.27A27.4,27.4,0,0,0,321.57,265.14Z" class="cls-2"></path><path d="M344.15,267.19a5.1,5.1,0,0,1,3.62-.52,7.68,7.68,0,0,1,3.44,1.75,9.17,9.17,0,0,1,3.13,7.26,10.11,10.11,0,0,1-3.22,6.91,8.82,8.82,0,0,1-6.53,2.48,34.51,34.51,0,0,0,2.83-5.26,13.32,13.32,0,0,0,1-4.39,9.36,9.36,0,0,0-.81-4.06A8.69,8.69,0,0,0,344.15,267.19Z" class="cls-2"></path><path d="M194.45,337.88c1.5.86,3.22,2.16,2.92,3.86s-2.79,2.45-3.74,4.07c-1.72,2.92,2.29,7.06.29,9.8-1.2,1.65-3.69,1.44-5.69,1.06l-13.45-2.55a2.54,2.54,0,0,0-3.55,1.82l-6,14.12a6.34,6.34,0,0,1-1.52,2.45c-2.13,1.84-5.43.21-7.46-1.73s-4.23-4.39-7-4.11c-2.07.22-3.72,1.93-5.76,2.29-3.94.69-6.79-3.61-8.16-7.36-4.45-12.17-8.33-32.08-3.27-36.71,3.26-3,7.42,3.89,11.56,5.46,3.53,1.35,7.61.22,10.69-2,2.35-1.66,4.95-7,7.35-7.84,3.07-1.08,7.33,2.74,10.05,4.3Z" class="cls-1"></path><path d="M186.69,344.67a26.14,26.14,0,0,1-6.62-2.25,35,35,0,0,1-6-3.62,34.46,34.46,0,0,1-5.16-4.72,25.79,25.79,0,0,1-4-5.72c1.93,1.36,3.7,2.77,5.49,4.16l5.35,4.08,5.42,4C183,341.9,184.85,343.21,186.69,344.67Z" class="cls-2"></path><path d="M171.91,350a20.26,20.26,0,0,1-5.23-2.75,28.76,28.76,0,0,1-4.4-3.92,31,31,0,0,1-3.52-4.7,23.68,23.68,0,0,1-2.45-5.36,53.66,53.66,0,0,1,4.18,4.05c1.3,1.39,2.56,2.77,3.82,4.16l3.8,4.16C169.37,347,170.67,348.41,171.91,350Z" class="cls-2"></path><path d="M159.06,360.69a16.15,16.15,0,0,1-4.64-5.16,34.68,34.68,0,0,1-3-6.19,37.93,37.93,0,0,1-1.85-6.61,22.42,22.42,0,0,1-.39-6.89l2.45,6.31c.81,2.07,1.58,4.15,2.36,6.22l2.35,6.2A55.91,55.91,0,0,0,159.06,360.69Z" class="cls-2"></path><path d="M141.85,361a39.33,39.33,0,0,1-2.7-7.12,56.79,56.79,0,0,1-2.14-15,38.86,38.86,0,0,1,.6-7.59c.66,2.48,1.12,4.94,1.54,7.4s.8,4.91,1.15,7.36.68,4.91.95,7.39S141.79,358.39,141.85,361Z" class="cls-2"></path></svg>