<svg viewBox="0 0 235.52 242.29" xmlns="http://www.w3.org/2000/svg"><defs><style>.cls-1{fill:#e9d47f;}.cls-2{fill:#060001;}.cls-3{fill:#e5c82a;}.cls-4{fill:#f0dc8d;}.cls-5{fill:#7dbe9b;}.cls-6{fill:#add2ad;}.cls-7{fill:#5cb183;}.cls-8{fill:#d2bd5d;}</style></defs><title>资源 8</title><g id="图层_2"><g id="图层_1-2"><path d="M189.17,207.56c-28.41,0-81.14-6.74-115-51.84C39.29,109.32,50.75,74.8,60.68,58.35A62.34,62.34,0,0,1,65,52.08c.92-1.18,1.66-2,2.14-2.55-3.71-13.61,7.22-30,12.21-36.57,1.22-1.61,2-2.55,2.06-2.59a2,2,0,0,1,1-.63,37.59,37.59,0,0,1,9.37-1.31,20,20,0,0,1,13.06,4.28c4.85,4,6.76,9.79,7.51,14a27.46,27.46,0,0,1,.45,4.1,2.16,2.16,0,0,1,0,.57,2,2,0,0,1-1.52,1.52l-.26.06-.19.06a7.67,7.67,0,0,0-2.22,1.41c-4.87,4.14-10,14.13-11.8,17.82l3.7,2.94a2,2,0,0,1,.68,1c.75,2.59,1.57,5.18,2.42,7.7,15.21,45,39.4,62.89,49.73,70.52.71.52,1.36,1,1.92,1.43,3.8,2.89,16.18,9.34,34.85,18.16,15.48,7.31,30.56,14,35.66,16l2.49,1a2,2,0,0,1,1,.89c3.4,6.08,4.78,11.59,4.09,16.37-.75,5.29-3.89,9.59-9.58,13.15-1.55,1-3,1.73-4.23,2.35l-1.14.59C215.91,205.61,204.08,207.56,189.17,207.56Z" class="cls-1"></path><path d="M91.79,10.43a18,18,0,0,1,11.79,3.82c4.44,3.64,6.16,9.13,6.82,12.79a25.56,25.56,0,0,1,.41,3.82.07.07,0,0,1,0,.05l-.45.12-.18.06a9.33,9.33,0,0,0-2.91,1.79c-6,5.13-12.18,18.18-12.91,19.76a1.15,1.15,0,0,1-.07.15l4.94,3.93q1.17,4,2.45,7.78c16.48,48.78,43.73,66.37,52.33,72.9,4.56,3.46,19.81,11.1,35.2,18.38,15.1,7.13,30.34,13.91,35.79,16l2.51,1c3.49,6.25,4.42,11.18,3.85,15.1-.82,5.81-4.89,9.39-8.66,11.74-2,1.26-3.94,2.18-5.26,2.88-1.8,1-12.73,3.05-28.27,3.05-31.31,0-81.39-8.4-113.43-51-34.4-45.79-22.69-79.66-13.35-95.13a61.52,61.52,0,0,1,4.18-6.08c1.15-1.46,2-2.45,2.5-2.92.2-.22.32-.33.32-.33C65,37.09,76.21,20.4,80.94,14.17c1.2-1.58,2-2.49,2-2.49a35.3,35.3,0,0,1,8.87-1.25m0-4a39.8,39.8,0,0,0-9.87,1.38,4,4,0,0,0-2,1.25s-.89,1-2.15,2.71A82,82,0,0,0,68.06,28c-3.42,7.89-4.46,14.94-3.12,21-.42.49-.93,1.11-1.51,1.85A64.84,64.84,0,0,0,59,57.32,72.18,72.18,0,0,0,48.66,95.64c.26,19.91,8.29,40.53,23.89,61.28,14.73,19.62,34.52,34,58.81,42.87,22.21,8.07,43.7,9.77,57.81,9.77,14.62,0,27-1.83,30.18-3.53l1.11-.58c1.22-.63,2.75-1.42,4.36-2.43,6.14-3.83,9.67-8.73,10.5-14.56.75-5.22-.7-11.15-4.32-17.62a4,4,0,0,0-2.07-1.79l-2.48-1c-5.06-2-20.09-8.63-35.53-15.93-18.28-8.64-30.85-15.18-34.49-17.94-.57-.44-1.22-.92-2-1.45-10.17-7.52-34-25.13-49-69.55-.85-2.5-1.66-5.07-2.41-7.62a4,4,0,0,0-1.34-2l-2.44-1.94c2.66-5.27,6.91-12.6,10.58-15.72a5.88,5.88,0,0,1,1.57-1l.15,0,.08,0a4,4,0,0,0,3.09-3.18,3.79,3.79,0,0,0,0-1,28.72,28.72,0,0,0-.47-4.3c-.81-4.52-2.9-10.81-8.22-15.17A21.9,21.9,0,0,0,91.79,6.43Z" class="cls-2"></path><path d="M107.27,34.88A2,2,0,0,1,105.46,32a61.09,61.09,0,0,1,3.14-5.91l0,0a1.82,1.82,0,0,1,.15-.23A2,2,0,0,1,110.4,25a1.7,1.7,0,0,1,.44.05,2,2,0,0,1,1.52,1.59,27.46,27.46,0,0,1,.45,4.1,2.16,2.16,0,0,1,0,.57,2,2,0,0,1-1.52,1.52l-.26.06-.19.06a7.67,7.67,0,0,0-2.22,1.41A2,2,0,0,1,107.27,34.88Z" class="cls-3"></path><path d="M110.4,27a25.56,25.56,0,0,1,.41,3.82.07.07,0,0,1,0,.05l-.45.12-.18.06a9.33,9.33,0,0,0-2.91,1.79,61.9,61.9,0,0,1,3-5.71,1,1,0,0,1,.09-.13m0-4a4,4,0,0,0-3.24,1.65,2.92,2.92,0,0,0-.24.37l0,0a64.94,64.94,0,0,0-3.25,6.09,4,4,0,0,0,6.23,4.73,5.86,5.86,0,0,1,1.56-1l.15,0,.08,0a4,4,0,0,0,3.09-3.19,3.71,3.71,0,0,0,0-1,28.72,28.72,0,0,0-.47-4.3,4,4,0,0,0-3-3.19,3.92,3.92,0,0,0-.89-.1Z" class="cls-2"></path><path d="M179,152.33a110.09,110.09,0,0,1-59.92-44.09c-13-19-18.43-35.62-19.87-49.33,16.12,48.89,40.58,67.25,48.34,74C151.64,136.5,165.25,144.59,179,152.33Z" class="cls-4"></path><path d="M110.81,30.86a.07.07,0,0,1,0,.05l-.45.12-.18.06c-6.81,2.38-15,19.71-15.82,21.55-14.87,4.5-23.16,3.32-27.79.67,1.15-1.46,2-2.45,2.5-2.92.2-.22.32-.33.32-.33C65,37.09,76.21,20.4,80.94,14.17c1.2-1.58,2-2.49,2-2.49,10.1-2.62,16.55-.8,20.66,2.57C110.5,19.93,110.8,30.05,110.81,30.86Z" class="cls-5"></path><path d="M103.58,14.25c-11.37,11.87-27,30.17-27.21,41.6-.17,8-6.75,7.07-14,3.54a54.09,54.09,0,0,1,6.68-9c.2-.22.32-.33.32-.33C65,37.09,76.21,20.4,80.94,14.17c1.2-1.58,2-2.49,2-2.49C93,9.06,99.47,10.88,103.58,14.25Z" class="cls-6"></path><path d="M110.81,30.86a4.13,4.13,0,0,1-.45.17l-.18.06c-.31.1-.63.2-.94.28-12.1,3.35-24.68-4-28.12-16.44-.07-.25-.13-.5-.18-.76,1.2-1.58,2-2.49,2-2.49C110,4.66,110.79,29.57,110.81,30.86Z" class="cls-7"></path><path d="M231.36,187.89c-1.26,8.89-10.14,12.58-13.92,14.62-5.43,2.94-94.34,16.84-142.28-47C29.73,95.07,65.28,54.37,69.07,50.39l7.3,5.46s-7.65,36.9,25.75,82C133.39,180.13,223.77,179.67,231.36,187.89Z" class="cls-8"></path><path d="M231.36,187.89c-.82,5.81-4.89,9.39-8.66,11.74a13.54,13.54,0,0,1-.49-1.44l-3-10.91a14.09,14.09,0,0,1,5.8-15.46l2.51,1C231,179,231.93,184,231.36,187.89Z" class="cls-2"></path><path d="M219.56,185.43c-2.79-.24-5.41-.63-8.08-1.07s-5.28-1-7.88-1.59-5.2-1.27-7.75-2-5.09-1.59-7.59-2.47c2.59.56,5.19,1.08,7.81,1.49s5.23.76,7.86,1,5.25.45,7.87.57,5.28.16,7.8.06h0a2,2,0,1,1,.17,4Z" class="cls-2"></path><path d="M171.52,224.58c-19.21,0-96.86-13.82-126-81.4C22.62,89.88,41.89,59,55.42,45.38a61.86,61.86,0,0,1,5.67-5.08c1.18-.93,2.09-1.58,2.68-2-.4-14.09,14.09-27.46,20.48-32.65,1.57-1.29,2.57-2,2.61-2A2.08,2.08,0,0,1,88,3.26h.79c9.39,0,16.22,2.75,20.31,8.17,3.78,5,4.27,11.11,4,15.36a26,26,0,0,1-.53,4.06,2.53,2.53,0,0,1-.14.49,2,2,0,0,1-1.83,1.19h-.51a7.67,7.67,0,0,0-2.49.84c-5.7,2.87-13,11.38-15.66,14.54l2.9,3.73a2,2,0,0,1,.42,1.13c.12,2.67.31,5.38.54,8,4.18,47.34,23.47,70.4,31.71,80.25l1.54,1.85c3,3.65,13.75,13.07,29.58,25.86,13.32,10.75,26.41,20.79,30.9,23.93l2.19,1.53a2,2,0,0,1,.8,1.11c1.87,6.71,1.91,12.38.12,16.86-2,5-6,8.41-12.42,10.53-1.72.57-3.34,1-4.64,1.28l-1.27.32A12.24,12.24,0,0,1,171.52,224.58Z" class="cls-1"></path><path d="M88.78,5.25c10,0,15.59,3.23,18.71,7.38,3.47,4.58,3.84,10.31,3.62,14a26.24,26.24,0,0,1-.5,3.81.12.12,0,0,1,0,.05h-.66a9.61,9.61,0,0,0-3.25,1.06c-7.06,3.56-16.11,14.79-17.2,16.16l-.1.14,3.87,5c.13,2.79.32,5.51.55,8.14,4.53,51.3,26.87,74.81,33.69,83.18,3.61,4.44,16.63,15.45,29.88,26.15,13,10.49,26.21,20.67,31,24l2.21,1.54c1.92,6.89,1.66,11.9.19,15.58-2.17,5.45-7,8-11.19,9.37-2.25.75-4.34,1.18-5.78,1.56a10.36,10.36,0,0,1-2.29.17c-15.39,0-94.68-11.82-124.12-80.19-22.65-52.61-3.3-82.76,9.44-95.6a57.76,57.76,0,0,1,5.49-4.92c1.46-1.15,2.56-1.9,3.11-2.25l.39-.25C64.59,25.72,79.44,12.15,85.51,7.22,87.05,6,88,5.26,88,5.26h.75m0-4H88A4,4,0,0,0,85.7,2S84.6,2.79,83,4.13A82,82,0,0,0,69.74,17.61c-5.18,6.86-7.85,13.46-8,19.67-.53.39-1.17.86-1.91,1.45A64.3,64.3,0,0,0,54,44,72.2,72.2,0,0,0,35,78.78c-4.44,19.41-1.49,41.34,8.78,65.19a123.25,123.25,0,0,0,30.63,42.76,148.26,148.26,0,0,0,38.72,25c26.86,12.15,51.29,14.81,58.44,14.81a12.63,12.63,0,0,0,3.31-.3c.36-.1.77-.2,1.22-.3,1.34-.33,3-.73,4.81-1.34,6.86-2.27,11.45-6.2,13.63-11.68,2-4.89,1.94-11-.05-18.14a4,4,0,0,0-1.59-2.22l-2.18-1.52c-4.46-3.12-17.49-13.12-30.78-23.85-15.73-12.7-26.4-22-29.29-25.57l-1.55-1.86c-8.12-9.71-27.13-32.43-31.26-79.14-.23-2.63-.41-5.31-.54-8a4,4,0,0,0-.83-2.27L94.51,48c3.82-4.5,9.68-10.62,14-12.79a6,6,0,0,1,1.77-.64h.33a4,4,0,0,0,3.65-2.34,3.74,3.74,0,0,0,.3-1,28.3,28.3,0,0,0,.56-4.28c.27-4.58-.27-11.19-4.41-16.68-4.49-6-11.86-9-21.91-9Z" class="cls-2"></path><path d="M106.7,33.6a2,2,0,0,1-1.57-3.25,60,60,0,0,1,4.45-5l0,0,.18-.18a2,2,0,0,1,1.32-.49,2,2,0,0,1,.88.2,2,2,0,0,1,1.11,1.92,25.76,25.76,0,0,1-.53,4.06,2.53,2.53,0,0,1-.14.49,2,2,0,0,1-1.83,1.19h-.51a7.67,7.67,0,0,0-2.49.84A2,2,0,0,1,106.7,33.6Z" class="cls-3"></path><path d="M111.11,26.66h0m0,0a26.24,26.24,0,0,1-.5,3.81.12.12,0,0,1,0,.05h-.66a9.61,9.61,0,0,0-3.25,1.06,60.2,60.2,0,0,1,4.3-4.83l.12-.11m0-4H111a4,4,0,0,0-2.55,1,1.75,1.75,0,0,0-.24.23l0,0a64.22,64.22,0,0,0-4.59,5.17,4,4,0,0,0,4.93,6.06,5.89,5.89,0,0,1,1.76-.64h.33a4,4,0,0,0,3.65-2.34,3.78,3.78,0,0,0,.3-1,28.58,28.58,0,0,0,.55-4.14c0-.13,0-.26,0-.39a4,4,0,0,0-4-4Zm0,8Z" class="cls-2"></path><path d="M148.25,164.58a110.09,110.09,0,0,1-47.85-57c-8.13-21.57-9.52-39-7.69-52.63,4.14,51.31,23.6,74.92,29.54,83.31C125.4,142.76,136.73,153.83,148.25,164.58Z" class="cls-4"></path><path d="M110.61,30.47a.12.12,0,0,1,0,.05h-.66c-7.17.71-19.19,15.63-20.45,17.22C74,48.64,66.2,45.53,62.33,41.87c1.46-1.15,2.56-1.9,3.11-2.25l.39-.25C64.59,25.72,79.44,12.15,85.51,7.22,87.05,6,88,5.26,88,5.26c10.43-.17,16.26,3.12,19.46,7.37C112.88,19.78,110.79,29.68,110.61,30.47Z" class="cls-5"></path><path d="M107.49,12.63c-13.84,8.85-33.31,23-36.24,34-2.06,7.77-8.22,5.29-14.41.15a53.93,53.93,0,0,1,8.6-7.17l.39-.25C64.59,25.72,79.44,12.15,85.51,7.22,87.05,6,88,5.26,88,5.26,98.46,5.09,104.29,8.38,107.49,12.63Z" class="cls-6"></path><path d="M110.61,30.47c-.16,0-.32,0-.48.06h-.19c-.32,0-.65.05-1,.06C96.42,31,85.92,20.88,85.51,8c0-.26,0-.51,0-.77C87.05,6,88,5.26,88,5.26,116,4.82,110.9,29.21,110.61,30.47Z" class="cls-7"></path><path d="M190.78,211.48c-3.33,8.34-12.82,9.84-17,10.93-6,1.58-95.66-5.86-127.21-79.17C16.69,73.77,60.82,42.6,65.44,39.62l5.81,7S55.13,80.7,77,132.43C97.39,180.85,185.34,201.7,190.78,211.48Z" class="cls-8"></path><path d="M190.78,211.48c-2.17,5.45-7,8-11.19,9.37a15.07,15.07,0,0,1-.13-1.52L179.1,208a14.1,14.1,0,0,1,9.28-13.66l2.21,1.54C192.51,202.79,192.25,207.8,190.78,211.48Z" class="cls-2"></path><path d="M179.88,206.3c-2.65-.88-5.1-1.87-7.59-2.94s-4.9-2.19-7.29-3.4-4.75-2.45-7.05-3.8-4.57-2.74-6.8-4.19c2.39,1.16,4.79,2.28,7.24,3.3s4.91,2,7.4,2.85,5,1.69,7.51,2.42,5.1,1.4,7.57,1.89h0a2,2,0,0,1-.78,3.93Z" class="cls-2"></path><path d="M98.5,240.29c-.7,0-1.44,0-2.2-.08-1.81-.13-3.46-.38-4.79-.58l-1.28-.19c-3.71-.49-25.38-11.43-46.18-32C25.26,188.9,2.72,157.86,2,115.41c-.95-58,28.6-79.23,46.31-86.71a65,65,0,0,1,7.18-2.54c1.44-.41,2.53-.66,3.23-.81,5-13.19,23.47-20,31.36-22.41,1.94-.59,3.14-.88,3.19-.89a2.31,2.31,0,0,1,.46,0,2.1,2.1,0,0,1,.73.14c9.12,3.58,14.64,8.82,16.4,15.57,1.59,6.06-.28,11.9-2.12,15.73A25.92,25.92,0,0,1,106.71,37a1.7,1.7,0,0,1-.33.41A2,2,0,0,1,105,38a2.06,2.06,0,0,1-.81-.17l-.25-.1-.19-.06a6,6,0,0,0-1.7-.2c-.3,0-.6,0-.92,0-6.37.48-16.4,5.55-20,7.48l1.26,4.55a2,2,0,0,1,0,1.21c-.91,2.54-1.77,5.11-2.56,7.66-14.14,45.36-5.06,74-1.19,86.27.27.85.51,1.61.72,2.29,1.36,4.51,7.75,17.33,17.53,35.17,8.23,15,16.51,29.28,19.47,33.89l1.45,2.24a2,2,0,0,1,.31,1.33c-.82,6.92-2.94,12.18-6.3,15.65S104.05,240.29,98.5,240.29Z" class="cls-1"></path><path d="M93.75,4c9.71,3.81,13.85,9.07,15.2,14.22,1.46,5.55-.38,11-2,14.35A23.63,23.63,0,0,1,105,35.9a.12.12,0,0,1,0,.05l-.44-.17-.18-.06a8,8,0,0,0-2.33-.3c-.35,0-.71,0-1.08,0-7.89.6-20.53,7.55-22,8.4l-.15.09L80.48,50Q79.07,54,77.89,57.76c-15.32,49.16-3.6,79.41-.48,89.74,1.66,5.48,9.51,20.62,17.7,35.55,8,14.65,16.38,29.08,19.53,34l1.47,2.26c-.85,7.11-3,11.64-5.76,14.48-3.46,3.58-7.88,4.49-11.85,4.49-.7,0-1.39,0-2.06-.08-2.37-.16-4.46-.55-5.94-.75C84.37,236.65,5.33,195.18,4,115.38c-.94-57.27,28.43-77.8,45.09-84.83a57.83,57.83,0,0,1,7-2.46c1.79-.51,3.09-.79,3.73-.9l.46-.08c4-13.1,22.94-20,30.43-22.26,1.9-.58,3.07-.85,3.07-.85m0-4a4.05,4.05,0,0,0-.92.1S91.51.42,89.51,1A82.58,82.58,0,0,0,72.13,8.47c-7.39,4.37-12.38,9.46-14.85,15.16-.64.15-1.42.35-2.32.61a65.07,65.07,0,0,0-7.41,2.62,72.19,72.19,0,0,0-30.85,25C5.21,68.08-.4,89.48,0,115.44c.71,43.12,23.57,74.62,42.62,93.44C64.11,230.09,86,240.89,90,241.42l1.24.19c1.36.2,3.06.46,5,.59.8.06,1.58.09,2.33.09,6.11,0,11.06-1.92,14.73-5.7s6-9.44,6.85-16.8a4,4,0,0,0-.63-2.66s-.53-.81-1.44-2.23c-2.94-4.59-11.19-18.8-19.4-33.77-9.71-17.73-16-30.41-17.37-34.79-.2-.68-.45-1.45-.72-2.31C76.7,132,67.76,103.72,81.71,59c.79-2.52,1.64-5.07,2.53-7.58A4,4,0,0,0,84.33,49l-.83-3c5.25-2.71,13-6.14,17.8-6.51l.77,0a4.21,4.21,0,0,1,1.1.11l.15,0,.08,0a4.11,4.11,0,0,0,1.61.33,4,4,0,0,0,2.75-1.09,3.8,3.8,0,0,0,.65-.79,30.1,30.1,0,0,0,2.15-3.75c2-4.13,4-10.45,2.26-17.11C110.88,9.8,105,4.1,95.21.28A3.91,3.91,0,0,0,93.75,0Z" class="cls-2"></path><path d="M105,38a2.06,2.06,0,0,1-.81-.17l-.25-.1-.19-.06a6.05,6.05,0,0,0-1.7-.2c-.3,0-.6,0-.92,0H101a2,2,0,0,1-1-3.75,61.58,61.58,0,0,1,6-2.93l0,0,.24-.09a2,2,0,0,1,.63-.1,2,2,0,0,1,1.81,2.87A25.92,25.92,0,0,1,106.71,37a1.7,1.7,0,0,1-.33.41A2,2,0,0,1,105,38Z" class="cls-3"></path><path d="M107,32.57h0m0,0A23.63,23.63,0,0,1,105,35.9a.12.12,0,0,1,0,.05l-.44-.17-.18-.06a8,8,0,0,0-2.33-.3c-.35,0-.71,0-1.08,0a58.81,58.81,0,0,1,5.82-2.83.67.67,0,0,1,.15-.06m0-4h-.3a4,4,0,0,0-1.25.3l-.09,0,0,0a65.5,65.5,0,0,0-6.21,3,4,4,0,0,0,1.94,7.5h.32l.76,0a4.21,4.21,0,0,1,1.1.11l.16,0,.07,0a4.11,4.11,0,0,0,1.61.33,4,4,0,0,0,2.75-1.09,3.8,3.8,0,0,0,.65-.79,29.82,29.82,0,0,0,2.08-3.62,3.93,3.93,0,0,0,.47-1.87,4,4,0,0,0-3.9-4Zm0,8Z" class="cls-2"></path><path d="M88.85,174.25a110.11,110.11,0,0,1-22.59-70.88c.69-23,6-39.65,12.91-51.59-15.68,49-6.67,78.26-4.37,88.28C76,145.38,82.29,159.92,88.85,174.25Z" class="cls-4"></path><path d="M105,35.9a.12.12,0,0,1,0,.05l-.44-.17-.18-.06c-6.91-2.07-23.69,7.16-25.46,8.14C64.26,38.78,58.25,33,56.06,28.09a36,36,0,0,1,3.73-.9l.46-.08c4-13.1,22.94-20,30.43-22.25,1.9-.59,3.07-.86,3.07-.86,9.71,3.81,13.85,9.07,15.2,14.22C111.21,26.88,105.51,35.25,105,35.9Z" class="cls-5"></path><path d="M109,18.22C92.78,21.14,69.4,26.79,62.49,35.9c-4.86,6.4-9.61,1.75-13.38-5.35a53.74,53.74,0,0,1,10.68-3.36l.46-.08c4-13.1,22.94-20,30.43-22.25,1.9-.59,3.07-.86,3.07-.86C103.46,7.81,107.6,13.07,109,18.22Z" class="cls-6"></path><path d="M105,35.9c-.16,0-.31-.08-.46-.12l-.18-.06-.93-.32C91.72,31,85.86,17.64,90.38,5.57a6.29,6.29,0,0,1,.3-.71c1.9-.59,3.07-.86,3.07-.86C119.82,14.25,105.79,34.85,105,35.9Z" class="cls-7"></path><path d="M110.35,233.8c-6.24,6.46-15.59,4.22-19.85,3.66-6.13-.81-86.24-41.8-87.55-121.6C1.71,40.24,54.39,28.19,59.79,27.19l2.7,8.7S34.63,61.26,35.14,117.4C35.63,170,109,222.69,110.35,233.8Z" class="cls-8"></path><path d="M110.35,233.8c-4.08,4.22-9.47,4.72-13.91,4.41a12.82,12.82,0,0,1,.46-1.45l4-10.6a14.09,14.09,0,0,1,13.77-9.1l1.47,2.26C115.26,226.43,113.11,231,110.35,233.8Z" class="cls-2"></path><path d="M102.24,224.87c-2.11-1.83-4-3.68-5.9-5.61s-3.7-3.88-5.45-5.91-3.45-4.08-5.08-6.2-3.18-4.28-4.69-6.46c1.77,2,3.57,3.93,5.45,5.8s3.79,3.69,5.75,5.46,4,3.45,6,5.09,4.18,3.23,6.28,4.62l0,0a2,2,0,1,1-2.22,3.33Z" class="cls-2"></path></g></g></svg>