<svg xmlns:xlink="http://www.w3.org/1999/xlink" xmlns="http://www.w3.org/2000/svg" version="1.1" viewBox="0 0 184 136" height="136px" width="184px">
    <title>编组 7</title>
    <g fill-rule="evenodd" fill="none" stroke-width="1" stroke="none" id="页面-1">
        <g transform="translate(0.165850, -0.000000)" id="编组-7">
            <g transform="translate(114.338232, 68.000000) rotate(65.000000) translate(-114.338232, -68.000000) translate(63.747882, 15.589648)" id="编组-7备份">
                <path transform="translate(50.590350, 52.410352) rotate(-53.000000) translate(-50.590350, -52.410352)" fill="#943424" id="椭圆形" d="M10.4809092,61.6209226 C14.2377237,73.2918079 25.4682353,81.6996352 39.1982987,84.3988023 C45.7845912,85.6935891 74.7610054,78.9433891 80.0522447,74.5334042 C89.7615745,66.4411602 94.3676647,54.8990234 90.7695539,43.7211653 C85.2106007,26.4517723 62.1739791,16.5914496 40.0028821,21.5343311 C17.8317851,26.4772126 4.92195598,44.3515296 10.4809092,61.6209226 Z"></path>
                <path transform="translate(45.523540, 50.335877) rotate(-53.000000) translate(-45.523540, -50.335877)" fill="#9E402B" id="椭圆形" d="M8.8929595,57.8076908 C13.158835,70.0877572 32.5185296,76.7640821 52.7618067,72.5828993 C73.0050839,68.4017165 86.4662263,54.9463547 82.2003507,42.6662884 C77.9344752,30.386222 57.556982,23.9316622 37.3137049,28.112845 C17.0704278,32.2940279 4.62708396,45.5276244 8.8929595,57.8076908 Z"></path>
                <path transform="translate(43.231539, 49.012241) rotate(-42.000000) translate(-43.231539, -49.012241)" fill="#F6E4BE" id="路径-11" d="M30.0098356,37.9102961 C31.0622045,43.8066158 31.5885527,47.2717934 31.5888802,48.3058289 C31.5893714,49.8568822 18.5704928,60.8694004 20.5723644,63.3718921 C21.9069454,65.04022 24.849997,64.6110245 29.4015192,62.0843058 C34.6767802,58.0445492 38.3416457,55.8229769 40.3961156,55.4195889 C45.2024751,55.6898532 53.9300254,64.8649065 56.2134497,63.3831786 C58.496874,61.9014507 54.5341774,52.6641346 53.0384413,50.9978444 C51.5427051,49.3315542 66.1006769,39.8036484 66.0999957,37.6526299 C66.0993145,35.5016114 65.7129997,33.6582857 62.8321475,33.6573735 C59.9512953,33.6564612 47.1197745,40.8597683 45.1741804,40.8591521 C43.8771177,40.8587414 40.3367447,39.2062585 34.5530616,35.9017035 C32.3567667,34.9881819 30.9695891,34.8562675 30.3915288,35.5059603 C29.8134685,36.1556531 29.6862374,36.9570983 30.0098356,37.9102961 Z"></path>
            </g>
            <g transform="translate(0.000000, 19.835540)" id="左侧">
                <path transform="translate(51.832437, 53.163808) rotate(22.000000) translate(-51.832437, -53.163808)" fill="#943424" id="椭圆形" d="M51.6705797,94.6961283 C73.2774093,94.6160813 90.869715,76.5355819 90.955375,53.5980564 C91.0404116,30.6605309 73.5864828,11.5519537 51.9796532,11.6314869 C30.3728236,11.7115179 12.7951599,30.9494475 12.7094997,53.8869729 C12.6244633,76.8244984 30.0637501,94.7756455 51.6705797,94.6961283 Z"></path>
                <path transform="translate(46.763590, 51.137589) rotate(22.000000) translate(-46.763590, -51.137589)" fill="#9E402B" id="椭圆形" d="M46.6171868,89.0583412 C63.1991671,88.9969422 76.7099951,72.4980793 76.7882603,51.5551177 C76.8658485,30.6121561 63.4813647,13.1557692 46.8993844,13.2168368 C30.3174041,13.2782254 16.8171859,30.8338827 16.7389204,51.7768443 C16.6613325,72.7198059 30.0352065,89.1193984 46.6171868,89.0583412 Z"></path>
                <path transform="translate(42.887739, 51.498897) rotate(-7.000000) translate(-42.887739, -51.498897)" fill="#F6E4BE" id="路径-11" d="M29.5413469,37.137396 C30.6103207,44.7597683 31.1456748,49.2392392 31.1474091,50.5758088 C31.1500106,52.5806633 18.0397196,66.8036515 20.0613451,70.0400844 C21.4090955,72.1977063 24.3756096,71.6455444 28.9608875,68.3835987 C34.2737627,63.1665775 37.965554,60.2982717 40.0362616,59.7786811 C44.8822572,60.1322737 53.6935726,71.9994533 55.9936408,70.0862293 C58.293709,68.1730054 54.2860926,56.2295651 52.7758732,54.0744343 C51.2656538,51.9193035 65.9296288,39.6166522 65.9260217,36.836297 C65.9224133,34.0559418 65.5304391,31.6729615 62.6260485,31.6692305 C59.7216579,31.6655017 46.7950827,40.9649616 44.8335918,40.9624426 C43.5259313,40.9607633 39.9543888,38.8216692 34.1189643,34.5451603 C31.9034848,33.3624198 30.5047945,33.1906823 29.9228935,34.0299476 C29.3409926,34.869213 29.2138104,35.9050291 29.5413469,37.137396 Z"></path>
            </g>
        </g>
    </g>
</svg>