<svg viewBox="0 0 1200 1200" xmlns="http://www.w3.org/2000/svg" id="图层_1"><defs><style>.cls-1{fill:#ffc255;}.cls-1,.cls-10,.cls-2,.cls-3,.cls-4,.cls-5,.cls-6,.cls-7,.cls-8,.cls-9{stroke:#ee5a24;stroke-linecap:round;stroke-linejoin:round;stroke-width:3.7px;}.cls-2{fill:none;}.cls-3{fill:#ffd15f;}.cls-4{fill:#f4901e;}.cls-5{fill:#ffb05a;}.cls-6{fill:#d85b3a;}.cls-7{fill:#ffd8a9;}.cls-8{fill:#ffca83;}.cls-9{fill:#f49751;}.cls-10{fill:#fff;}.cls-11{fill:#ba4724;}</style></defs><title>画板 9</title><path d="M872.57,274.5,802,295.6l10.58-73.39S720.15,214.8,605,287.68a588,588,0,0,0,41.49,67.85c28.32,39.71,68,84.17,118.57,113.23a235.75,235.75,0,0,0,68.48,26.73C892.59,368.86,872.57,274.5,872.57,274.5ZM728.06,353.88a46.31,46.31,0,1,1-4.47-65.34A46.27,46.27,0,0,1,728.06,353.88Z" class="cls-1"></path><path d="M658.26,293a46.31,46.31,0,1,1,4.47,65.34A46.33,46.33,0,0,1,658.26,293Z" class="cls-2"></path><path d="M785.52,578.32a630.27,630.27,0,0,1-41.63,53.15c-17,19.55-34.6,37.81-52.47,54.67-47.28-38.15-3.25-105.29-3.25-105.29C703.62,599.55,732.51,606,785.52,578.32Z" class="cls-3"></path><path d="M605,287.68a534.85,534.85,0,0,0-71.76,54.52c18.58,15.28,40.25,49.05,113.25,13.33A588,588,0,0,1,605,287.68ZM460.6,568.59a1.36,1.36,0,0,0,.18.4,5.5,5.5,0,0,1,.28-.56A1.27,1.27,0,0,1,460.6,568.59ZM371.82,670.24l.24.7a9.52,9.52,0,0,1,.55-1.06A4.54,4.54,0,0,1,371.82,670.24Z" class="cls-4"></path><path d="M691.05,686.47c-39.63,37.37-80.62,67.91-120.21,90.27-42.15-33.67,13.69-95.17,16.36-98.15l.08-.05.09,0C600.5,704.29,629.43,718.55,691.05,686.47Z" class="cls-5"></path><path d="M673.4,487.48s-57,38.56-97,3.68a77,77,0,0,1-22-31.32l0-.07c-16.14-43.22,10.51-93.23,10.51-93.23-33.87,16.56-56.5,20.35-72.76,16.11,13.75-14.81,27.48-28.22,41.13-40.45,18.58,15.28,40.25,49.05,113.25,13.33,0,0-42,76,11.6,122.74A48.74,48.74,0,0,0,673.4,487.48Z" class="cls-6"></path><path d="M554.4,459.77c-39.53,19.34-65.13,19.05-83.28,12.28-15.39-5.71-25.42-16.11-33.93-23.09q18.63-25.17,40.1-49.88c4.9-5.66,9.84-11.16,14.86-16.43,16.26,4.24,38.89.45,72.76-16.11C564.91,366.54,538.26,416.55,554.4,459.77Z" class="cls-7"></path><path d="M471.12,472.05c-36,24.9-63.23,66.09-81.78,51A706.82,706.82,0,0,1,437.19,449C445.7,455.94,455.73,466.34,471.12,472.05Z" class="cls-5"></path><path d="M570.84,776.74a420.12,420.12,0,0,1-53.19,25.57c-42.11-20.89-31.25-99.78-30.83-102.5,40,15.84,97-19.12,100.38-21.22C584.53,681.57,528.69,743.07,570.84,776.74Z" class="cls-6"></path><path d="M517.65,802.31a310.84,310.84,0,0,1-33.24,10.8,137.64,137.64,0,0,1,6.78-30s-67,44.38-107,9.5c-49.85-43.48-16.89-112.32-12.09-121.67a73,73,0,0,0,21.27,30.35c39.05,33.93,90.86.25,93.42-1.49h.07C486.4,702.53,475.54,781.42,517.65,802.31Z" class="cls-8"></path><path d="M484.41,813.11c-28.79,7.49-55.23,9.1-77.87,4.14-15.82-3.49-29.83-10.19-41.42-20.29a89.36,89.36,0,0,1-23.27-32.2c-9.65-22-12.63-49.45-9.33-80.48,11.07-2.17,24.06-6.6,39.3-14l.24.7c-4.8,9.35-37.76,78.19,12.09,121.67,40,34.88,107-9.5,107-9.5A137.64,137.64,0,0,0,484.41,813.11Z" class="cls-9"></path><path d="M371.82,670.24c-15.24,7.44-28.23,11.87-39.3,14,2.79-27.36,10.5-57.4,22.64-89.06a163.65,163.65,0,0,0,31.94-12.05S357.19,628.26,371.82,670.24Z" class="cls-7"></path><path d="M387.1,583.17a163.65,163.65,0,0,1-31.94,12.05c3.13-8.08,6.5-16.25,10.18-24.55l.06,0C372.21,576.32,378.66,580.86,387.1,583.17Z" class="cls-3"></path><path d="M460.6,568.59c-38.79,15.66-59.12,18.48-73.5,14.58-8.44-2.31-14.89-6.85-21.7-12.48,6.91-15.65,15-31.57,23.94-47.67,18.55,15.12,45.77-26.07,81.78-51C469.58,475,444.35,526.62,460.6,568.59Z" class="cls-6"></path><path d="M833.58,495.49a543.11,543.11,0,0,1-48,82.78c-47.49-38.14-20.51-109.51-20.51-109.51A235.75,235.75,0,0,0,833.58,495.49Z" class="cls-5"></path><path d="M728.06,353.88a46.31,46.31,0,1,1-4.47-65.34A46.27,46.27,0,0,1,728.06,353.88Z" class="cls-10"></path><circle r="31.61" cy="323.45" cx="693.15" class="cls-11"></circle><path d="M765.1,468.76s-51.92,34.43-91.7,18.72a48.74,48.74,0,0,1-15.27-9.21c-53.6-46.76-11.6-122.74-11.6-122.74C674.85,395.24,714.51,439.7,765.1,468.76Z" class="cls-9"></path><line y2="342.19" x2="533.21" y1="342.2" x1="533.28" class="cls-2"></line><path d="M691.53,686.24c-.06,0,0-.08-.11-.1" class="cls-2"></path><path d="M486.75,699.8c-2.56,1.74-54.37,35.42-93.42,1.49a73,73,0,0,1-21.27-30.35,9.52,9.52,0,0,1,.55-1.06,4.54,4.54,0,0,1-.79.36c-14.63-42,15.28-87.07,15.28-87.07,14.38,3.9,34.71,1.08,73.5-14.58a1.36,1.36,0,0,0,.18.4c-3.72,7.09-39.09,77.86,11.82,122.17A50.8,50.8,0,0,0,486.75,699.8Z" class="cls-9"></path><path d="M785.61,578.27l-.09.05c-53,27.66-81.9,21.23-97.35,2.53-25.26-30.46-14.77-93.37-14.77-93.37,39.78,15.71,91.7-18.72,91.7-18.72S738.12,540.13,785.61,578.27Z" class="cls-8"></path><path d="M688.17,580.85S604,621,564,586.17c-52.51-45.78-11.24-123.36-9.63-126.33a77,77,0,0,0,22,31.32c40,34.88,97-3.68,97-3.68S662.91,550.39,688.17,580.85Z" class="cls-5"></path><path d="M587.37,678.49l-.09,0-.08.05c-3.36,2.1-60.36,37.06-100.38,21.22h-.07a50.8,50.8,0,0,1-14.15-8.64C421.69,646.85,457.06,576.08,460.78,569a76.65,76.65,0,0,0,21.54,30.14c40,34.88,97-3.67,97-3.67S570.86,646,587.37,678.49Z" class="cls-7"></path><path d="M691.42,686.14a1.34,1.34,0,0,1-.37.33c-61.62,32.08-90.55,17.82-103.68-8-16.51-32.45-8-83-8-83s-57,38.55-97,3.67A76.65,76.65,0,0,1,460.78,569a5.5,5.5,0,0,1,.28-.56,1.27,1.27,0,0,1-.46.16c-16.25-42,9-93.55,10.52-96.54,18.15,6.77,43.75,7.06,83.28-12.28l0,.07c-1.61,3-42.88,80.55,9.63,126.33,40,34.87,124.16-5.32,124.16-5.32S644.14,648,691.42,686.14Z" class="cls-9"></path><path d="M691.53,686.24a1.61,1.61,0,0,1-.48.23" class="cls-2"></path><line y2="523" x2="389.28" y1="523.02" x1="389.34" class="cls-2"></line><line y2="699.75" x2="486.83" y1="699.81" x1="486.82" class="cls-2"></line><path d="M398.45,995.6,164.3,791.5l177.55-26.74A89.36,89.36,0,0,0,365.12,797c11.59,10.1,25.6,16.8,41.42,20.29Z" class="cls-1"></path></svg>