<svg xmlns:xlink="http://www.w3.org/1999/xlink" xmlns="http://www.w3.org/2000/svg" version="1.1" viewBox="0 0 237 219" height="219px" width="237px">
    
    <title>鱼2</title>
    <desc>Created with Sketch.</desc>
    <defs></defs>
    <g fill-rule="evenodd" fill="none" stroke-width="1" stroke="none" id="Page-1">
        <g fill-rule="nonzero" id="鱼2">
            <path fill="#6EC9F0" id="Shape" d="M234.842,84.88 C229.469,85.092 219.745,91.612 212.56,98.797 C188.337,123.022 161.032,97.752 161.032,66.36 C161.032,28.728 190.047,14.618 190.047,14.618 C193.47,11.194 187.404,6.239 177.783,4.275 C177.783,4.275 63.425,-22.978 38.877,65.271 C29.761,98.042 17.683,102.462 11.06,106.415 C7.233,107.707 5.327,108.492 3.702,108.978 C-0.109,110.12 0.686,115.291 1.799,117.729 C2.873,120.083 5.042,121.637 7.789,122.636 C7.956,123.21 8.133,123.802 8.33,124.427 C13.698,141.51 29.737,132.181 41.543,152.607 C47.198,162.393 53.496,170.45 60.381,176.709 C60.38,176.708 60.38,176.708 60.379,176.708 C60.379,176.708 76.015,191.738 100.731,202.913 C133.409,217.687 182.179,228.948 170.722,203.748 C159.951,180.059 168.201,157.657 178.549,148.806 C196.454,133.493 204.331,146.62 204.331,146.62 C211.591,156.037 222.746,168.865 231.262,167.358 C238.134,166.144 230.104,155.595 230.104,126.391 C230.101,93.694 240.215,84.667 234.842,84.88 Z"></path>
            <path fill="#F0F0FF" id="Shape" d="M77.247,107.938 C77.247,60.833 103.116,3.931 128.893,1.174 C116.233,2.501 109.372,2.724 97.01,8.63 C77.82,18.104 56.255,71.07 56.255,109.939 C56.255,135.974 62.818,178.137 75.82,186.396 C82.811,191.837 93.836,199.445 107.729,205.817 C108.931,206.367 110.158,206.915 111.4,207.455 C81.776,195.356 77.247,144.217 77.247,107.938 Z"></path>
            <path fill="#F0F0FF" id="Shape" d="M127.577,112.34 C127.577,68.078 156.318,12.352 190.601,12.352 C188.303,10.455 182.556,5.254 177.78,4.279 C177.78,4.279 182.007,4.521 169.866,3.349 C139.373,3.349 107.795,57.159 107.795,112.341 C107.795,154.295 130.801,198.768 158.014,218.647 C168.397,218.647 176.547,216.569 170.72,203.751 C170.64,203.577 170.572,203.404 170.494,203.23 C152.869,185.602 127.577,148.74 127.577,112.34 Z"></path>
            <path fill="#F0F0FF" id="Shape" d="M234.842,84.88 C230.001,85.071 221.638,90.383 214.775,96.687 C214.55,98.794 214.938,94.554 214.775,96.687 C206.087,110.05 208.708,152.07 218.11,161.764 C222.624,165.581 227.237,168.073 231.259,167.361 C238.13,166.146 230.101,155.598 230.101,126.394 C230.101,93.694 240.215,84.667 234.842,84.88 Z"></path>
            <path opacity="0.74" fill="#FFFFFF" id="Shape" d="M112.801,105.385 C112.801,22.885 177.782,3.395 177.782,3.395 C177.639,3.339 177.496,3.289 177.352,3.235 C176.192,3.098 173.963,2.864 169.866,2.468 C139.373,2.468 107.795,56.278 107.795,111.46 C107.795,151.908 129.181,194.689 155.103,215.523 C156.499,216.436 157.301,216.885 157.301,216.885 C157.301,216.885 112.801,187.885 112.801,105.385 Z"></path>
            <path fill="#FFFFFF" id="Shape" d="M97.851,8.242 C97.569,8.374 97.298,8.493 97.01,8.631 C77.82,18.104 56.255,71.07 56.255,109.939 C56.255,122.917 57.887,139.9 61.133,154.696 C64.292,165.216 67.334,173.608 69.255,178.621 C69.513,179.086 69.777,179.531 70.043,179.967 C40.223,88.761 78.181,30.653 97.851,8.242 Z"></path>
            <path opacity="0.24" fill="#FFFFFF" id="Shape" d="M234.842,84.88 C229.469,85.092 219.745,91.612 212.56,98.797 C194.958,116.4 175.733,107.865 166.536,89.841 L163.986,90.617 C163.986,90.617 189.585,125.553 210.803,108.085 C218.422,101.813 226.432,98.401 233.574,96.593 C235.875,87.739 237.95,84.757 234.842,84.88 Z"></path>
            <path opacity="0.3" fill="#FFFFFF" id="Shape" d="M5.276,108.456 C5.279,108.455 5.283,108.453 5.287,108.452 L5.276,108.456 Z M177.782,4.275 C177.782,4.275 63.424,-22.978 38.876,65.271 C29.76,98.042 17.682,102.462 11.059,106.415 C8.376,107.32 6.647,107.973 5.288,108.452 C5.293,108.452 21.906,107.171 34.765,94.363 C36.737,96.747 39.717,98.266 43.052,98.266 C48.989,98.266 53.802,93.453 53.802,87.516 C53.802,82.489 50.346,78.28 45.684,77.104 C46.215,75.666 46.714,74.183 47.146,72.61 C56.302,39.266 106.901,-0.046 171.602,19.61 L184.289,6.261 C182.408,5.457 180.209,4.771 177.782,4.275 Z"></path>
            <circle r="4.667" cy="87.052" cx="43.021" fill="#6E6E96" id="Oval"></circle>
            <path opacity="0.15" fill="#6E6E96" id="Shape" d="M231.26,154.357 C227.879,154.956 224.083,153.29 220.28,150.48 C209.877,140.077 210.803,108.084 210.803,108.084 C207.635,123.401 207.647,133.211 209.063,139.489 C207.367,137.49 205.77,135.487 204.33,133.618 C204.33,133.618 196.453,120.49 178.548,135.804 C170.619,142.586 163.934,157.325 166.08,174.502 C167.548,163.094 172.714,153.795 178.548,148.804 C196.453,133.491 204.33,146.618 204.33,146.618 C211.59,156.035 222.745,168.863 231.261,167.356 C235.265,166.649 234.208,162.762 232.63,153.872 C232.258,154.094 231.812,154.26 231.26,154.357 Z M162.084,34.408 C157.82,42.883 154.801,52.759 154.801,63.765 C154.801,78.592 162.284,91.729 172.732,98.916 C165.633,91.093 161.032,79.244 161.032,66.359 C161.032,28.727 190.047,14.617 190.047,14.617 C192.607,12.057 189.859,8.641 184.288,6.26 C181.377,8.82 177.657,12.402 173.849,16.874 C167.019,21.229 121.527,52.483 124.302,110.765 C127.302,173.765 170.208,202.555 170.208,202.555 L166.235,188.694 C166.235,188.694 99.87,118.551 162.084,34.408 Z M234.842,84.88 C234.332,84.9 233.773,84.994 233.191,85.123 C231.635,91.529 230.102,100.659 230.102,113.391 C230.102,115.686 230.156,117.852 230.245,119.92 C231.437,92.495 239.841,84.681 234.842,84.88 Z M170.207,202.555 C161.136,210.723 126.09,201.377 100.728,189.911 C98.706,188.996 96.767,188.051 94.87,187.095 C59.957,94.948 109.59,17.98 109.59,17.98 L100.856,20.758 C51.418,99.741 85.461,181.957 85.47,181.978 C69.759,172.721 60.376,163.707 60.376,163.707 C60.377,163.707 60.377,163.707 60.378,163.708 C53.493,157.449 47.195,149.393 41.54,139.606 C29.734,119.18 13.695,128.509 8.327,111.426 C8.13,110.801 7.953,110.209 7.786,109.635 C6.881,109.306 6.047,108.909 5.286,108.451 C4.705,108.655 4.186,108.831 3.7,108.976 C-0.111,110.118 0.684,115.289 1.797,117.727 C2.871,120.081 5.04,121.635 7.787,122.634 C7.954,123.208 8.131,123.8 8.328,124.425 C13.696,141.508 29.735,132.179 41.541,152.605 C47.196,162.391 53.494,170.448 60.379,176.707 C60.378,176.706 60.378,176.706 60.377,176.706 C60.377,176.706 76.013,191.736 100.729,202.911 C133.407,217.685 182.177,228.946 170.72,203.746 C170.539,203.349 170.377,202.953 170.207,202.555 Z M85.478,181.983 L94.562,186.94 C91.35,185.312 88.302,183.646 85.478,181.983 Z"></path>
        </g>
    </g>
</svg>