<svg xmlns:xlink="http://www.w3.org/1999/xlink" xmlns="http://www.w3.org/2000/svg" version="1.1" viewBox="0 0 240 205" height="205px" width="240px">
    
    <title>鱼3</title>
    <desc>Created with Sketch.</desc>
    <defs></defs>
    <g fill-rule="evenodd" fill="none" stroke-width="1" stroke="none" id="Page-1">
        <g fill-rule="nonzero" id="鱼3">
            <path fill="#EDC32D" id="Shape" d="M60.22,37.13 C60.22,37.13 92.396,-3.618 145.366,1.385 C185.119,5.14 189.595,106.604 168.839,87.837 C151.07,71.769 116.826,-0.707 60.22,37.13 Z"></path>
            <path fill="#FFE600" id="Shape" d="M71.866,25.117 C71.866,25.117 115.006,-9.867 149.068,4.526 C149.068,4.526 164.285,12.636 167.818,42.388 C167.818,71.927 130.396,15.522 71.866,25.117 Z"></path>
            <path fill="#FFE600" id="Shape" d="M145.561,40.262 C124.789,19.734 87.494,-0.562 47.499,36.141 C40.714,42.365 35.491,51.559 33.606,60.237 C27.733,87.26 -6.483,93.675 2.793,116.933 C6.526,126.293 27.195,126.343 36.295,148.329 C50.958,183.765 109.237,203.479 163.272,156.77 C163.272,156.77 187.259,125.128 200.496,142.29 C213.731,159.452 239.788,187.851 239.788,121.885 C239.788,64.213 227.414,85.472 208.802,94.052 C190.191,102.633 187.263,110.112 162.859,64.527 C162.854,64.529 157.244,51.809 145.561,40.262 Z"></path>
            <g fill="#FFFFD6" transform="translate(0.000000, 15.000000)" opacity="0.51" id="Group">
                <g id="Shape">
                    <path d="M36.593,60.38 C38.422,51.702 43.486,42.509 50.061,36.284 C88.832,-0.42 124.984,19.877 145.123,40.407 C156.45,51.952 161.889,64.672 161.889,64.672 C185.543,110.257 188.383,102.779 206.426,94.198 C224.467,85.617 236.464,64.359 236.464,122.03 C236.464,128.55 236.214,134.134 235.757,138.912 C238.083,132.45 239.494,122.223 239.494,106.891 C239.494,49.217 227.119,70.476 208.505,79.056 C189.897,87.639 186.967,95.118 162.563,49.531 C162.563,49.531 156.955,36.811 145.27,25.264 C124.496,4.736 87.202,-15.561 47.207,21.142 C40.423,27.366 35.2,36.559 33.314,45.238 C27.441,72.261 -6.774,78.675 2.501,101.934 C3.11,103.461 4.177,104.66 5.564,105.695 C8.776,89.873 31.924,82.545 36.593,60.38 Z"></path>
                </g>
            </g>
            <path fill="#EDC32D" id="Shape" d="M237.202,90.656 C240.377,158.838 205.521,144.229 208.357,130.317 C211.191,116.403 205.198,109.742 205.198,109.742 C197.552,106.891 193.39,103.727 191.719,100.498 C184.475,100.206 177.569,92.017 162.854,64.529 C162.854,64.529 157.245,51.809 145.561,40.263 C124.789,19.735 87.494,-0.562 47.499,36.142 C40.714,42.366 35.491,51.559 33.606,60.238 C27.733,87.26 -6.483,93.675 2.793,116.934 C6.526,126.294 27.195,126.344 36.294,148.33 C50.957,183.766 109.237,203.48 163.27,156.771 C163.27,156.771 187.258,125.129 200.495,142.291 C213.731,159.453 239.787,187.852 239.787,121.886 C239.784,106.329 238.882,96.524 237.202,90.656 Z"></path>
            <path fill="#EDC32D" id="Shape" d="M67.301,171.503 C67.301,171.503 123.696,229.027 154.063,193.232 C184.43,157.433 171.158,128.311 152.391,145.813 C133.627,163.315 116.73,179.691 67.301,171.503 Z"></path>
            <path fill="#FFE600" id="Shape" d="M162.854,64.528 C162.854,64.528 157.245,51.808 145.561,40.262 C124.789,19.734 87.494,-0.562 47.499,36.141 C40.714,42.365 35.491,51.558 33.606,60.237 C26.12,94.682 -7.294,86.18 2.792,116.933 C5.933,126.509 27.195,126.343 36.294,148.329 C50.955,183.765 109.236,203.479 163.27,156.77 C163.27,156.77 169.131,150 176.658,144.254 C184.934,133.297 199.287,139.151 202.535,129.459 C210.52,106.91 197.879,100.189 194.796,100.189 C186.25,102.117 179.62,95.847 162.854,64.528 Z"></path>
            <g fill="#FFFFD6" transform="translate(0.000000, 15.000000)" opacity="0.51" id="Group">
                <path id="Shape" d="M35.657,63.919 C37.543,55.24 40.716,43.999 47.502,37.774 C87.5,1.071 142.091,30.757 162.868,66.161 C174.552,77.707 162.868,66.161 162.868,66.161 C179.635,97.48 188.06,95.92 196.605,93.995 C199.724,93.995 202.234,94.273 204.254,94.797 C202.114,87.71 196.674,85.195 194.79,85.195 C186.249,87.119 179.618,80.848 162.852,49.529 C162.852,49.529 157.242,36.809 145.559,25.263 C124.786,4.735 87.491,-15.561 47.496,21.142 C40.711,27.368 35.488,36.559 33.603,45.239 C26.211,79.252 -6.461,71.316 2.435,100.804 C2.438,71.557 30.086,89.544 35.657,63.919 Z"></path>
            </g>
            <g fill="#E3AA00" transform="translate(1.000000, 100.000000)" opacity="0.54" id="Group">
                <path id="Shape" d="M185.979,27.466 C178.008,33.212 171.805,39.982 171.805,39.982 C114.597,86.691 52.894,66.975 37.371,31.541 C27.778,9.648 -3.977,31.931 1.952,0.264 C0.413,4.476 0.377,9.702 2.75,16.937 C5.89,26.513 27.153,26.347 36.251,48.333 C50.913,83.769 109.194,103.483 163.229,56.774 C163.229,56.774 169.088,50.004 176.616,44.258 C184.893,33.302 199.245,39.155 202.493,29.463 C203.918,25.44 204.677,21.928 204.96,18.86 C198.971,20.358 191.292,20.821 185.979,27.466 Z"></path>
            </g>
            <g fill="#E3AA00" transform="translate(1.000000, 100.000000)" opacity="0.35" id="Group">
                <path id="Shape" d="M194.753,10.592 C181.038,10.592 168.739,17.948 168.739,17.948 C111.912,68.679 66.389,35.061 37.372,19.226 C16.395,7.78 -3.976,28.73 1.95,0.266 C0.414,4.478 -0.686,9.703 1.686,16.934 C4.827,26.51 26.484,27.012 35.584,48.998 C50.246,84.436 109.195,103.479 163.229,56.77 C163.229,56.77 169.088,50.001 176.617,44.255 C184.893,33.298 199.246,39.152 202.494,29.46 C205.614,20.647 205.579,14.26 204.199,9.738 C201.938,8.577 198.911,10.592 194.753,10.592 Z"></path>
            </g>
            <path fill="#FFE600" id="Shape" d="M80.93,183.456 C80.93,183.456 123.031,187.208 140.952,177.438 C171.344,160.872 158.279,189.008 129.437,193.751 C110.408,196.88 80.93,183.456 80.93,183.456 Z"></path>
            <circle r="4.318" cy="83.358" cx="47.006" fill="#6E6E96" id="Oval"></circle>
        </g>
    </g>
</svg>